<?xml version="1.0" standalone="no"?>
<!DOCTYPE svg PUBLIC "-//W3C//DTD SVG 1.1//EN" "http://www.w3.org/Graphics/SVG/1.1/DTD/svg11.dtd" >
<svg>
<metadata>
Created by FontForge 20090622 at Thu May  2 06:48:09 2019
 By deploy user
Copyright (c) 2012 by IBRAHIM HAMDI &#38; Abdullah Aref  (Egypt). All rights reserved.
</metadata>
<defs>
<font id="AirStripArabic" horiz-adv-x="0" >
  <font-face 
    font-family="Air Strip Arabic"
    font-weight="400"
    font-stretch="normal"
    units-per-em="2048"
    panose-1="2 0 5 0 0 0 0 0 0 0"
    ascent="1638"
    descent="-410"
    x-height="960"
    cap-height="1359"
    bbox="-369 -560 3106 1790"
    underline-thickness="150"
    underline-position="-142"
    unicode-range="U+0020-U+FEFC"
  />
<missing-glyph horiz-adv-x="1024" 
d="M100 0v1434h824v-1434h-824zM150 50h724v1334h-724v-1334zM325 1148q31 28 58 43q52 30 112 30q46 0 83.5 -12.5t64.5 -35t41.5 -55t14.5 -72.5q0 -48 -23 -99q-23 -50 -87 -129l-57 -72.5t-42 -59.5t-26.5 -51t-9.5 -48q0 -39 24 -133h-32q-35 99 -35 148q0 75 81 218
q82 142 82 217q0 57 -33 90t-91 33q-37 0 -69 -17q-13 -8 -27 -17.5t-29 -22.5v45zM446 392q10 10 20 10q9 0 22 -11l56 -60q9 -11 9 -20q0 -12 -10 -22l-56 -62q-14 -14 -21 -14q-11 0 -20 10l-61 71q-7 8 -7 18q0 9 11 22z" />
    <glyph glyph-name="lamalefmad" unicode="&#xfedf;&#xfe82;" horiz-adv-x="1071" arabic-form="isolated" 
d="M350 1435q-80 -41 -156 -2q-81 39 -159 -4q-27 -12 -27 40q0 30 26 44q80 37 157 -2q81 -39 159 3q29 15 29 -39q1 -26 -29 -40zM475 0q-357 0 -357 354v29q0 123 117 123q115 0 117 -120v-35q0 -115 125 -115h238v971q0 120 120 120q116 0 116 -120v-1088
q0 -116 -117 -119h-359zM237 1327q117 -3 117 -119v-488q0 -120 -116 -120q-120 0 -120 120v369q-118 0 -118 114q0 121 118 124h119z" />
    <glyph glyph-name="lamalefmadM" unicode="&#xfee0;&#xfe82;" horiz-adv-x="1131" arabic-form="final" 
d="M350 1435q-80 -41 -156 -2q-81 39 -159 -4q-27 -12 -27 40q0 30 26 44q80 37 157 -2q81 -39 159 3q29 15 29 -39q1 -26 -29 -40zM1134 236q57 0 57 -120q-1 -116 -60 -116h-656q-357 0 -357 353v29q0 123 117 123q115 0 117 -120v-35q0 -114 125 -114h240v974
q0 117 118 117q117 0 117 -119v-972h182zM237 1327q117 -3 117 -119v-488q0 -120 -116 -120q-120 0 -120 120v369q-118 0 -118 114q0 121 118 124h119z" />
    <glyph glyph-name="lamalefhamzaA" unicode="&#xfedf;&#xfe84;" horiz-adv-x="1071" arabic-form="isolated" 
d="M-3 1406q-39 0 -39 38q0 40 38 40h40q-2 10 -3 20t-1 21v100q0 119 117 119h127q41 0 41 -39q0 -38 -39 -39h-131q-37 0 -37 -41v-102q0 -39 39 -39h204q39 0 39 -40q0 -38 -39 -38h-356zM475 0q-357 0 -357 354v29q0 123 117 123q115 0 117 -120v-35q0 -115 125 -115
h238v971q0 120 120 120q116 0 116 -120v-1088q0 -116 -117 -119h-359zM237 1327q117 -3 117 -119v-488q0 -120 -116 -120q-120 0 -120 120v369q-118 0 -118 114q0 121 118 124h119z" />
    <glyph glyph-name="lamalefhamzaAM" unicode="&#xfee0;&#xfe84;" horiz-adv-x="1131" arabic-form="final" 
d="M-3 1406q-39 0 -39 38q0 40 38 40h40q-2 10 -3 20t-1 21v100q0 119 117 119h127q41 0 41 -39q0 -38 -39 -39h-131q-37 0 -37 -41v-102q0 -39 39 -39h204q39 0 39 -40q0 -38 -39 -38h-356zM1134 236q57 0 57 -120q-1 -116 -60 -116h-656q-357 0 -357 353v29q0 123 117 123
q115 0 117 -120v-35q0 -114 125 -114h240v974q0 117 118 117q117 0 117 -119v-972h182zM237 1327q117 -3 117 -119v-488q0 -120 -116 -120q-120 0 -120 120v369q-118 0 -118 114q0 121 118 124h119z" />
    <glyph glyph-name="lamalefhamzaB" unicode="&#xfedf;&#xfe88;" horiz-adv-x="1071" arabic-form="isolated" 
d="M183 -446q-39 0 -39 38q0 40 39 40h39q-5 22 -5 41v100q0 119 117 119h128q42 0 42 -39q-1 -37 -41 -39h-130q-38 0 -38 -41v-102q0 -39 41 -39h204q37 0 37 -40q0 -38 -39 -38h-355zM475 0q-357 0 -357 354v29q0 123 117 123q115 0 117 -120v-35q0 -115 125 -115h238
v971q0 120 120 120q116 0 116 -120v-1088q0 -116 -117 -119h-359zM237 1327q117 -3 117 -119v-488q0 -120 -116 -120q-120 0 -120 120v369q-118 0 -118 114q0 121 118 124h119z" />
    <glyph glyph-name="lamalefhamzaBM" unicode="&#xfee0;&#xfe88;" horiz-adv-x="1131" arabic-form="final" 
d="M183 -446q-39 0 -39 38q0 40 39 40h40q-6 19 -6 41v100q0 119 117 119h129q41 0 41 -39q0 -37 -41 -39h-130q-38 0 -38 -41v-102q0 -39 41 -39h204q37 0 37 -40q0 -38 -39 -38h-355zM1134 236q57 0 57 -120q-1 -116 -60 -116h-656q-357 0 -357 353v29q0 123 117 123
q115 0 117 -120v-35q0 -114 125 -114h240v974q0 117 118 117q117 0 117 -119v-972h182zM237 1327q117 -3 117 -119v-488q0 -120 -116 -120q-120 0 -120 120v369q-118 0 -118 114q0 121 118 124h119z" />
    <glyph glyph-name="lamalef" unicode="&#xfedf;&#xfe8e;" horiz-adv-x="1071" arabic-form="isolated" 
d="M475 0q-357 0 -357 354v29q0 123 117 123q115 0 117 -120v-35q0 -115 125 -115h238v971q0 120 120 120q116 0 116 -120v-1088q0 -116 -117 -119h-359zM237 1327q117 -3 117 -119v-488q0 -120 -116 -120q-120 0 -120 120v369q-118 0 -118 114q0 121 118 124h119z" />
    <glyph glyph-name="lamalefM" unicode="&#xfee0;&#xfe8e;" horiz-adv-x="1131" arabic-form="final" 
d="M1134 236q57 0 57 -120q-1 -116 -60 -116h-656q-357 0 -357 353v29q0 123 117 123q115 0 117 -120v-35q0 -114 125 -114h240v974q0 117 118 117q117 0 117 -119v-972h182zM237 1327q117 -3 117 -119v-488q0 -120 -116 -120q-120 0 -120 120v369q-118 0 -118 114
q0 121 118 124h119z" />
    <glyph glyph-name="Lig.lillah" unicode="&#xfedf;&#xfee0;&#xfeea;" horiz-adv-x="2086" arabic-form="isolated" 
d="M1801 1211q0 117 118 117q117 0 117 -119v-1092q0 -117 -117 -117h-451q-117 3 -116 117q-8 -117 -121 -117h-827q-354 0 -354 356v312q0 354 351 354h188v-2q52 -4 94 -58q0 120 116 120q120 0 120 -120v-725l312 -1v973q0 119 115 119q120 0 122 -120l-2 -972h335v975z
M683 788l-280 -2q-117 0 -117 -121v-311q0 -117 117 -117h280v551z" />
    <glyph glyph-name="feliga" unicode="&#xfed3;&#xfef2;" horiz-adv-x="1813" 
d="M895 1687q16 30 43 44q27 15 57 15t57 -15q29 -15 44 -44q16 -28 16 -60q0 -30 -15 -57q-16 -28 -43 -43q-29 -15 -59 -15t-58 15q-27 15 -42 43q-17 28 -17 57q0 31 17 60zM1763 117q0 -117 -117 -117h-1239q-357 0 -357 354v43q0 123 117 123q115 0 117 -120v-49
q0 -114 125 -114l1119 -2v5q0 121 -120 121l-651 2q-119 0 -119 115v2q0 117 119 117h120v60q-315 19 -315 360v58q0 356 354 356h157q356 0 356 -354v-60q0 -341 -315 -360v-60l295 1q354 0 354 -363v-118zM797 1012q0 -120 122 -120h166q108 6 108 120v68q0 114 -120 114
h-159q-117 0 -117 -117v-65zM767 -108q29 -15 44 -44q16 -28 16 -58q0 -31 -15 -59q-17 -27 -43 -42q-28 -16 -59 -16q-30 0 -58 16q-27 15 -42 42q-17 29 -17 59q0 29 17 58q16 30 43 44q27 15 57 15t57 -15zM413 -93q30 0 57 -15q29 -15 44 -44q16 -28 16 -58
q0 -31 -15 -59q-17 -27 -43 -42q-28 -16 -59 -16t-57 16q-28 15 -43 42q-17 29 -17 59q0 29 17 58q16 30 43 44q27 15 57 15z" />
    <glyph glyph-name="faliga" unicode="&#xfed3;&#xfef0;" horiz-adv-x="1813" 
d="M895 1687q16 30 43 44q27 15 57 15t57 -15q29 -15 44 -44q16 -28 16 -60q0 -30 -15 -57q-16 -28 -43 -43q-29 -15 -59 -15t-58 15q-27 15 -42 43q-17 28 -17 57q0 31 17 60zM1763 117q0 -117 -117 -117h-1239q-357 0 -357 354v43q0 123 117 123q115 0 117 -120v-49
q0 -114 125 -114l1119 -2v5q0 121 -120 121l-651 2q-119 0 -119 115v2q0 117 119 117h120v60q-315 19 -315 360v58q0 356 354 356h157q356 0 356 -354v-60q0 -341 -315 -360v-60l295 1q354 0 354 -363v-118zM797 1012q0 -120 122 -120h166q108 6 108 120v68q0 114 -120 114
h-159q-117 0 -117 -117v-65z" />
    <glyph glyph-name="berFliga" unicode="&#xfe92;&#xfeae;" horiz-adv-x="967" 
d="M1029 234q58 0 57 -117q0 -117 -60 -117h-185q-118 0 -118 119v546q0 121 -120 121h-161v-739q0 -362 -354 -362h-90q-118 0 -118 117l1 2h-1q0 117 118 117h89q120 0 120 121l-3 863q0 58 30 88q30 32 90 32q13 0 280 -3q354 0 354 -362v-426h71zM667 -76q28 0 57 -15
q27 -15 44 -44q15 -29 15 -58q0 -31 -15 -59q-14 -26 -44 -43q-27 -15 -57 -15q-31 0 -58 15q-28 17 -44 43q-15 28 -15 59q0 29 15 58q17 29 44 44q28 15 58 15z" />
    <glyph glyph-name="bezFliga" unicode="&#xfe92;&#xfeb0;" horiz-adv-x="967" 
d="M1029 234q58 0 57 -117q0 -117 -60 -117h-185q-118 0 -118 119v546q0 121 -120 121h-161v-739q0 -362 -354 -362h-90q-118 0 -118 117l1 2h-1q0 117 118 117h89q120 0 120 121l-3 863q0 58 30 88q30 32 90 32q13 0 280 -3q354 0 354 -362v-426h71zM667 -76q28 0 57 -15
q27 -15 44 -44q15 -29 15 -58q0 -31 -15 -59q-14 -26 -44 -43q-27 -15 -57 -15q-31 0 -58 15q-28 17 -44 43q-15 28 -15 59q0 29 15 58q17 29 44 44q28 15 58 15zM304 1115q-30 0 -58 15q-28 17 -44 43q-15 28 -15 59q0 29 15 58q17 29 44 44q28 15 58 15q28 0 57 -15
t44 -44q16 -28 16 -58q0 -31 -16 -59q-15 -26 -42 -43q-29 -15 -59 -15z" />
    <glyph glyph-name="yerFliga" unicode="&#xfef4;&#xfeae;" horiz-adv-x="967" 
d="M1029 234q58 0 57 -117q0 -117 -60 -117h-185q-118 0 -118 119v546q0 121 -120 121h-161v-739q0 -362 -354 -362h-90q-118 0 -118 117l1 2h-1q0 117 118 117h89q120 0 120 121l-3 863q0 58 30 88q30 32 90 32q13 0 280 -3q354 0 354 -362v-426h71zM964 -76q28 0 57 -15
q27 -15 44 -44q15 -29 15 -58q0 -31 -15 -59q-14 -26 -44 -43q-27 -15 -57 -15q-31 0 -58 15q-28 17 -44 43q-15 28 -15 59q0 29 15 58q17 29 44 44q28 15 58 15zM667 -76q28 0 57 -15q27 -15 44 -44q15 -29 15 -58q0 -31 -15 -59q-14 -26 -44 -43q-27 -15 -57 -15
q-31 0 -58 15q-28 17 -44 43q-15 28 -15 59q0 29 15 58q17 29 44 44q28 15 58 15z" />
    <glyph glyph-name="yezFliga" unicode="&#xfef4;&#xfeb0;" horiz-adv-x="967" 
d="M1029 234q58 0 57 -117q0 -117 -60 -117h-185q-118 0 -118 119v546q0 121 -120 121h-161v-739q0 -362 -354 -362h-90q-118 0 -118 117l1 2h-1q0 117 118 117h89q120 0 120 121l-3 863q0 58 30 88q30 32 90 32q13 0 280 -3q354 0 354 -362v-426h71zM964 -76q28 0 57 -15
q27 -15 44 -44q15 -29 15 -58q0 -31 -15 -59q-14 -26 -44 -43q-27 -15 -57 -15q-31 0 -58 15q-28 17 -44 43q-15 28 -15 59q0 29 15 58q17 29 44 44q28 15 58 15zM667 -76q28 0 57 -15q27 -15 44 -44q15 -29 15 -58q0 -31 -15 -59q-14 -26 -44 -43q-27 -15 -57 -15
q-31 0 -58 15q-28 17 -44 43q-15 28 -15 59q0 29 15 58q17 29 44 44q28 15 58 15zM330 1115q-31 0 -59 15q-27 16 -43 43q-15 28 -15 59q0 29 15 58q17 30 43 44q28 15 59 15q28 0 57 -15q27 -14 43 -44q17 -29 17 -58q0 -30 -17 -59q-15 -26 -42 -43q-29 -15 -58 -15z" />
    <glyph glyph-name="terFliga" unicode="&#xfe98;&#xfeae;" horiz-adv-x="1153" 
d="M796 1274q14 27 44 43q29 17 60 17q28 0 57 -15q27 -16 43 -44q15 -29 15 -58q0 -31 -15 -59q-15 -27 -43 -42q-28 -16 -57 -16q-32 0 -60 16q-29 15 -44 44q-15 27 -15 57t15 57zM781 920q0 30 15 57q15 28 44 45q28 15 60 15q28 0 57 -15q27 -14 43 -44q15 -29 15 -58
q0 -30 -15 -57q-16 -30 -43 -44q-28 -16 -57 -16q-32 0 -60 16q-29 15 -44 44q-15 27 -15 57zM1215 233q58 0 57 -117q0 -117 -59 -117h-82q-354 0 -354 361v23h-335v-341q0 -361 -354 -361l-90 1q-118 0 -118 117t118 117h89q120 1 120 122v861q0 120 117 120
q118 0 118 -119v-283h335v1q0 117 118 117q119 0 119 -118v-261q0 -122 118 -122z" />
    <glyph glyph-name="tezFliga" unicode="&#xfe98;&#xfeb0;" horiz-adv-x="1153" 
d="M796 1274q14 27 44 43q29 17 60 17q28 0 57 -15q27 -16 43 -44q15 -29 15 -58q0 -31 -15 -59q-15 -27 -43 -42q-28 -16 -57 -16q-32 0 -60 16q-29 15 -44 44q-15 27 -15 57t15 57zM781 920q0 30 15 57q15 28 44 45q28 15 60 15q28 0 57 -15q27 -14 43 -44q15 -29 15 -58
q0 -30 -15 -57q-16 -30 -43 -44q-28 -16 -57 -16q-32 0 -60 16q-29 15 -44 44q-15 27 -15 57zM1215 233q58 0 57 -117q0 -117 -59 -117h-82q-354 0 -354 361v23h-335v-341q0 -361 -354 -361l-90 1q-118 0 -118 117t118 117h89q120 1 120 122v861q0 120 117 120
q118 0 118 -119v-283h335v1q0 117 118 117q119 0 119 -118v-261q0 -122 118 -122zM312 1100q-31 0 -59 15q-27 16 -43 43q-15 28 -15 59q0 29 15 58q17 30 43 44q28 15 59 15q28 0 57 -15q27 -14 43 -44q17 -29 17 -58q0 -30 -17 -59q-15 -26 -42 -43q-29 -15 -58 -15z" />
    <glyph glyph-name="therFliga" unicode="&#xfe9c;&#xfeae;" horiz-adv-x="1154" 
d="M1100 1319q27 -14 43 -44q17 -29 17 -58q0 -31 -15 -59q-16 -26 -44 -43q-29 -15 -58 -15q-31 0 -59 15q-27 17 -42 43q-16 28 -16 59q0 30 16 58q15 29 44 44q27 15 57 15t57 -15zM746 1334q30 0 57 -15q27 -14 43 -44q17 -29 17 -58q0 -31 -15 -59q-16 -26 -44 -43
q-29 -15 -58 -15q-30 0 -57 15q-30 17 -44 43q-16 28 -16 59q0 30 16 58q15 29 44 44q27 15 57 15zM894 1340q-30 0 -58 16q-27 15 -42 42q-17 29 -17 59q0 29 17 58q16 30 43 44q27 15 57 15t57 -15q29 -15 44 -44q16 -28 16 -58q0 -31 -15 -59q-17 -27 -43 -42
q-28 -16 -59 -16zM1217 233q57 0 57 -117q-2 -117 -60 -117h-81q-354 0 -354 361v23h-335v-341q0 -361 -354 -361l-91 1q-119 0 -119 117t119 117h88q120 1 120 122v861q0 120 119 120q118 0 118 -119v-283h335v283q0 119 118 119q117 0 117 -120v-543q0 -122 120 -122z" />
    <glyph glyph-name="thezFliga" unicode="&#xfe9c;&#xfeb0;" horiz-adv-x="1154" 
d="M1100 1319q27 -14 43 -44q17 -29 17 -58q0 -31 -15 -59q-16 -26 -44 -43q-29 -15 -58 -15q-31 0 -59 15q-27 17 -42 43q-16 28 -16 59q0 30 16 58q15 29 44 44q27 15 57 15t57 -15zM746 1334q30 0 57 -15q27 -14 43 -44q17 -29 17 -58q0 -31 -15 -59q-16 -26 -44 -43
q-29 -15 -58 -15q-30 0 -57 15q-30 17 -44 43q-16 28 -16 59q0 30 16 58q15 29 44 44q27 15 57 15zM894 1340q-30 0 -58 16q-27 15 -42 42q-17 29 -17 59q0 29 17 58q16 30 43 44q27 15 57 15t57 -15q29 -15 44 -44q16 -28 16 -58q0 -31 -15 -59q-17 -27 -43 -42
q-28 -16 -59 -16zM1217 233q57 0 57 -117q-2 -117 -60 -117h-81q-354 0 -354 361v23h-335v-341q0 -361 -354 -361l-91 1q-119 0 -119 117t119 117h88q120 1 120 122v861q0 120 119 120q118 0 118 -119v-283h335v283q0 119 118 119q117 0 117 -120v-543q0 -122 120 -122z
M314 1100q-32 0 -59 15q-28 16 -43 43q-17 29 -17 59q0 29 17 58q16 30 43 44q28 15 59 15q28 0 57 -15q26 -14 43 -44q15 -29 15 -58q0 -31 -15 -59q-15 -27 -43 -43q-29 -15 -57 -15z" />
    <glyph glyph-name="nerFliga" unicode="&#xfee8;&#xfeae;" horiz-adv-x="1154" 
d="M1217 233q57 0 57 -117q-2 -117 -60 -117h-81q-354 0 -354 361v23h-335v-341q0 -361 -354 -361l-91 1q-119 0 -119 117t119 117h88q120 1 120 122v861q0 120 119 120q118 0 118 -119v-283h335v283q0 119 118 119q117 0 117 -120v-543q0 -122 120 -122zM894 1100
q-30 0 -57 15q-28 16 -43 43q-17 29 -17 59q0 29 17 58q16 30 43 44q27 15 57 15t57 -15q29 -15 44 -44q16 -28 16 -58q0 -31 -15 -59q-15 -27 -43 -43q-29 -15 -59 -15z" />
    <glyph glyph-name="nezFliga" unicode="&#xfee8;&#xfeb0;" horiz-adv-x="1154" 
d="M1217 233q57 0 57 -117q-2 -117 -60 -117h-81q-354 0 -354 361v23h-335v-341q0 -361 -354 -361l-91 1q-119 0 -119 117t119 117h88q120 1 120 122v861q0 120 119 120q118 0 118 -119v-283h335v283q0 119 118 119q117 0 117 -120v-543q0 -122 120 -122zM314 1100
q-32 0 -59 15q-28 16 -43 43q-17 29 -17 59q0 29 17 58q16 30 43 44q28 15 59 15q28 0 57 -15q26 -14 43 -44q15 -29 15 -58q0 -31 -15 -59q-15 -27 -43 -43q-29 -15 -57 -15zM894 1100q-30 0 -57 15q-28 16 -43 43q-17 29 -17 59q0 29 17 58q16 30 43 44q27 15 57 15
t57 -15q29 -15 44 -44q16 -28 16 -58q0 -31 -15 -59q-15 -27 -43 -43q-29 -15 -59 -15z" />
    <glyph glyph-name="erFliga" unicode="&#xfe8c;&#xfeae;" horiz-adv-x="1152" 
d="M1047 1178q38 0 38 -39t-39 -39h-356q-39 0 -39 39t39 39h41q-6 19 -6 42v99q0 118 117 118h129q40 0 40 -39q0 -38 -40 -39h-129q-39 1 -39 -40v-102q0 -39 40 -39h204zM1215 233q57 0 57 -117q-2 -117 -60 -117h-81q-354 0 -354 361v23h-334v-341q0 -361 -354 -361
l-92 1q-117 0 -117 117t117 117h89q120 1 120 122v861q0 120 118 120q119 0 119 -119v-283h334v283q0 119 119 119q117 0 117 -120v-543q0 -122 120 -122z" />
    <glyph glyph-name="ezFliga" unicode="&#xfe8c;&#xfeb0;" horiz-adv-x="1152" 
d="M1047 1178q38 0 38 -39t-39 -39h-356q-39 0 -39 39t39 39h41q-6 19 -6 42v99q0 118 117 118h129q40 0 40 -39q0 -38 -40 -39h-129q-39 1 -39 -40v-102q0 -39 40 -39h204zM1215 233q57 0 57 -117q-2 -117 -60 -117h-81q-354 0 -354 361v23h-334v-341q0 -361 -354 -361
l-92 1q-117 0 -117 117t117 117h89q120 1 120 122v861q0 120 118 120q119 0 119 -119v-283h334v283q0 119 119 119q117 0 117 -120v-543q0 -122 120 -122zM312 1100q-31 0 -58 15q-30 17 -44 43q-15 28 -15 59q0 29 15 58t44 44q28 15 58 15q28 0 57 -15q27 -15 44 -44
q15 -29 15 -58q0 -31 -15 -59q-14 -26 -44 -43q-27 -15 -57 -15z" />
    <glyph glyph-name="teerFliga" unicode="&#xfb69;&#xfeae;" horiz-adv-x="1154" 
d="M1136 1137q0 -37 -39 -37h-438q-39 0 -39 37q0 39 37 39h41v279q-39 0 -39 38q0 39 39 39l37 1q39 -2 39 -39v-72q9 11 29 11h217q116 0 116 -117v-179zM774 1356v-180h285v141q0 39 -39 39h-246zM1215 233q58 0 57 -117q0 -117 -58 -117h-83q-354 0 -354 361v23h-334
v-341q0 -361 -354 -361l-90 1q-119 0 -119 117t119 117h88q120 1 120 122v861q0 120 119 120q117 0 117 -119v-283h334v283q0 119 119 119q118 0 118 -120v-543q0 -122 120 -122z" />
    <glyph glyph-name="teezFliga" unicode="&#xfb69;&#xfeb0;" horiz-adv-x="1154" 
d="M1136 1137q0 -37 -39 -37h-438q-39 0 -39 37q0 39 37 39h41v279q-39 0 -39 38q0 39 39 39l37 1q39 -2 39 -39v-72q9 11 29 11h217q116 0 116 -117v-179zM774 1356v-180h285v141q0 39 -39 39h-246zM1215 233q58 0 57 -117q0 -117 -58 -117h-83q-354 0 -354 361v23h-334
v-341q0 -361 -354 -361l-90 1q-119 0 -119 117t119 117h88q120 1 120 122v861q0 120 119 120q117 0 117 -119v-283h334v283q0 119 119 119q118 0 118 -120v-543q0 -122 120 -122zM312 1100q-30 0 -58 15q-28 17 -44 43q-15 28 -15 59q0 29 15 58q17 29 44 44q28 15 58 15
q28 0 57 -15t44 -44q16 -28 16 -58q0 -31 -16 -59q-15 -26 -42 -43q-29 -15 -59 -15z" />
    <glyph glyph-name="hamza" unicode="&#x621;" horiz-adv-x="636" arabic-form="isolated" 
d="M124 270q0 168 168 168h127q92 2 92 -88q0 -88 -89 -90h-118v-81h192q90 0 90 -90q0 -89 -90 -89h-356q-90 0 -90 89q0 79 74 88v93z" />
    <glyph glyph-name="alefmad" unicode="&#x622;" horiz-adv-x="489" arabic-form="isolated" 
d="M249 1328q117 -3 117 -119v-1089q0 -120 -116 -120q-120 0 -120 120v969q-120 0 -118 114q0 120 118 123zM344 1430q-80 -42 -158 -2q-80 39 -157 -4q-27 -12 -27 39q-1 31 25 43q81 38 158 0q81 -40 157 3q28 15 30 -39q1 -28 -28 -40z" />
    <glyph glyph-name="alefhamzaA" unicode="&#x623;" horiz-adv-x="489" arabic-form="isolated" 
d="M408 1487q37 0 37 -39q0 -38 -39 -38h-355q-39 0 -39 38q0 39 39 39h40q-6 21 -6 42v100q0 119 117 119h129q41 0 41 -39q0 -37 -41 -39h-130q-38 0 -38 -41v-102q0 -39 41 -39zM249 1328q117 -3 117 -119v-1089q0 -120 -116 -120q-120 0 -120 120v969q-120 0 -118 114
q0 120 118 123z" />
    <glyph glyph-name="wawhamza" unicode="&#x624;" horiz-adv-x="967" arabic-form="isolated" 
d="M295 1128q-39 0 -39 39t37 39h41q-5 23 -5 42v101q0 117 117 117h128q40 1 40 -38t-39 -39h-130q-38 0 -38 -40v-102q0 -41 39 -41h204q39 0 39 -39t-39 -39h-355zM682 673q0 114 -120 114h-159q-116 0 -116 -119v-310q0 -122 116 -122h279v437zM562 1024q355 0 355 -356
v-622q0 -362 -354 -362h-90q-118 0 -118 117v2q0 117 118 117h89q97 0 115 80h-274q-353 0 -353 354v314q0 356 356 356h156z" />
    <glyph glyph-name="alefhamzaB" unicode="&#x625;" horiz-adv-x="489" arabic-form="isolated" 
d="M408 -373q37 0 37 -39q0 -38 -39 -38h-355q-39 0 -39 38q0 39 39 39h40q-6 21 -6 42v100q0 119 117 119h129q41 0 41 -39q0 -37 -41 -39h-130q-38 0 -38 -41v-102q0 -39 41 -39zM249 1328q117 -3 117 -119v-1089q0 -120 -116 -120q-120 0 -120 120v969q-120 0 -118 114
q0 120 118 123z" />
    <glyph glyph-name="yahamzaA" unicode="&#x626;" horiz-adv-x="1822" arabic-form="isolated" 
d="M89 686q-39 0 -39 37q0 39 38 39h40q-4 19 -4 42v101q0 117 117 117h127q41 2 41 -38q0 -39 -39 -39h-131q-37 0 -37 -40v-102q0 -41 39 -41h204q39 0 39 -39q0 -37 -39 -37h-356zM1420 1024q354 0 354 -363v-543q0 -119 -119 -119q-118 0 -118 120v548q0 120 -119 120
h-75v-666q0 -60 -31 -91t-102 -31h-801q-357 0 -357 354v44q-2 123 117 123q115 -2 117 -120v-50q0 -115 124 -115h698v672q0 117 118 117h194z" />
    <glyph glyph-name="alef" unicode="&#x627;" horiz-adv-x="536" arabic-form="isolated" 
d="M269 1327q117 -3 117 -118v-1089q0 -120 -116 -120q-120 0 -120 120v969q-120 0 -118 114q0 121 118 124h119z" />
    <glyph glyph-name="ba" unicode="&#x628;" horiz-adv-x="1449" arabic-form="isolated" 
d="M1163 924q0 117 119 117q117 0 117 -118l-2 -813q-3 -110 -117 -110h-873q-357 0 -357 354v329q0 124 117 124q116 -2 119 -120v-336q-1 -115 123 -115h753zM619 -142q17 27 43 42q28 15 59 15q28 0 57 -15q28 -15 43 -42q17 -29 17 -60q0 -29 -17 -57q-16 -30 -43 -44
q-27 -15 -57 -15q-31 0 -59 15q-26 14 -43 44q-15 27 -15 57q0 31 15 60z" />
    <glyph glyph-name="tamar" unicode="&#x629;" horiz-adv-x="1037" arabic-form="isolated" 
d="M562 1024q355 0 355 -355v-552q0 -117 -118 -117h-396q-353 0 -353 354v315q0 355 356 355h156zM682 672q0 114 -120 114h-159q-116 0 -116 -117v-312q0 -121 116 -121h279v436zM532 1278q16 30 43 44q27 15 57 15t57 -15q29 -15 44 -44q16 -28 16 -58q0 -31 -15 -59
q-16 -27 -43 -43q-29 -15 -59 -15t-57 15q-28 16 -43 43q-17 29 -17 59q0 29 17 58zM235 1278q16 30 43 44q28 15 57 15q30 0 57 -15q28 -15 45 -44q15 -29 15 -58q0 -31 -15 -59q-15 -27 -43 -43q-29 -15 -59 -15t-57 15q-28 16 -43 43q-17 29 -17 59q0 29 17 58z" />
    <glyph glyph-name="ta" unicode="&#x62a;" horiz-adv-x="1449" arabic-form="isolated" 
d="M1163 924q0 117 119 117q117 0 117 -118l-2 -813q-3 -110 -117 -110h-873q-357 0 -357 354v329q0 124 117 124q116 -2 119 -120v-336q-1 -115 123 -115h753zM772 983q15 28 43 43t59 15q28 0 57 -15q27 -15 43 -43q15 -29 15 -60q0 -30 -15 -57q-16 -30 -43 -44
q-27 -15 -57 -15q-32 0 -59 15q-27 14 -43 44q-17 28 -17 57q0 31 17 60zM475 983q16 28 43 43q28 15 59 15q28 0 57 -15q27 -15 43 -43q15 -29 15 -60q0 -30 -15 -57q-16 -30 -43 -44q-27 -15 -57 -15q-32 0 -59 15q-26 14 -43 44q-15 27 -15 57q0 31 15 60z" />
    <glyph glyph-name="tha" unicode="&#x62b;" horiz-adv-x="1449" arabic-form="isolated" 
d="M1163 924q0 117 119 117q117 0 117 -118l-2 -813q-3 -110 -117 -110h-873q-357 0 -357 354v329q0 124 117 124q116 -2 119 -120v-336q-1 -115 123 -115h753zM772 983q15 28 43 43t59 15q28 0 57 -15q27 -15 43 -43q15 -29 15 -60q0 -30 -15 -57q-16 -30 -43 -44
q-27 -15 -57 -15q-32 0 -59 15q-27 14 -43 44q-17 28 -17 57q0 31 17 60zM475 983q16 28 43 43q28 15 59 15q28 0 57 -15q27 -15 43 -43q15 -29 15 -60q0 -30 -15 -57q-16 -30 -43 -44q-27 -15 -57 -15q-32 0 -59 15q-26 14 -43 44q-15 27 -15 57q0 31 15 60zM620 1277
q14 27 44 43q27 15 57 15t57 -15q28 -15 43 -43q17 -29 17 -59t-15 -58q-17 -27 -44 -44q-29 -15 -58 -15q-31 0 -59 15q-27 16 -42 44q-16 28 -16 58q0 31 16 59z" />
    <glyph glyph-name="jeem" unicode="&#x62c;" horiz-adv-x="1201" arabic-form="isolated" 
d="M709 1023q442 0 442 -552v-354q0 -117 -117 -117h-742q18 -81 115 -81h-9q120 0 120 -119q0 -117 -118 -117h13q-363 0 -363 354l2 80q0 118 117 118h747v234q0 319 -204 318h-438q-115 0 -113 117q0 119 114 119h434zM722 -302q-26 14 -43 44q-15 27 -15 58q0 30 15 57
q16 30 43 44q27 15 57 15q32 0 59 -15q26 -14 43 -44q15 -27 15 -57q0 -31 -15 -58q-17 -30 -43 -44q-29 -15 -59 -15q-29 0 -57 15z" />
    <glyph glyph-name="ha" unicode="&#x62d;" horiz-adv-x="1201" arabic-form="isolated" 
d="M709 1023q442 0 442 -552v-354q0 -117 -117 -117h-742q18 -81 115 -81h-9q120 0 120 -119q0 -117 -118 -117h13q-363 0 -363 354l2 80q0 118 117 118h747v234q0 319 -204 318h-438q-115 0 -113 117q0 119 114 119h434z" />
    <glyph glyph-name="kha" unicode="&#x62e;" horiz-adv-x="1201" arabic-form="isolated" 
d="M709 1023q442 0 442 -552v-354q0 -117 -117 -117h-742q18 -81 115 -81h-9q120 0 120 -119q0 -117 -118 -117h13q-363 0 -363 354l2 80q0 118 117 118h747v234q0 319 -204 318h-438q-115 0 -113 117q0 119 114 119h434zM410 1230q-27 15 -43 43q-15 28 -15 59q0 29 15 58
q16 30 43 44q27 15 57 15q32 0 59 -15q27 -14 43 -44q17 -29 17 -58q0 -30 -17 -59q-15 -28 -43 -43q-29 -15 -59 -15q-29 0 -57 15z" />
    <glyph glyph-name="dal" unicode="&#x62f;" horiz-adv-x="1183" arabic-form="isolated" 
d="M779 1023q354 0 354 -363v-543q0 -115 -118 -115l-611 -2q-354 0 -354 362v19q0 119 119 119q118 0 118 -120v-23q0 -121 120 -121h491v430q0 120 -120 120l-207 2q-119 0 -119 117t119 117z" />
    <glyph glyph-name="thal" unicode="&#x630;" horiz-adv-x="1183" arabic-form="isolated" 
d="M779 1023q354 0 354 -363v-543q0 -115 -118 -115l-611 -2q-354 0 -354 362v19q0 119 119 119q118 0 118 -120v-23q0 -121 120 -121h491v430q0 120 -120 120l-207 2q-119 0 -119 117t119 117zM710 1103q-30 0 -58 16q-27 15 -42 42q-17 29 -17 59t17 58q16 30 43 44
q27 15 57 15t57 -15q29 -15 44 -44q16 -28 16 -58q0 -31 -15 -59q-17 -27 -43 -42q-28 -16 -59 -16z" />
    <glyph glyph-name="ra" unicode="&#x631;" horiz-adv-x="534" arabic-form="isolated" 
d="M344 1022q119 0 119 -117l-2 -905q-21 -318 -352 -318l-92 2q-117 0 -117 115v2q0 117 117 117l90 1q120 0 120 120v864q0 119 117 119z" />
    <glyph glyph-name="zai" unicode="&#x632;" horiz-adv-x="534" arabic-form="isolated" 
d="M341 1139q-32 0 -58 16q-28 15 -44 42q-15 28 -15 59t15 58q17 29 44 44q28 15 58 15q28 0 57 -15t44 -44q16 -28 16 -58q0 -31 -16 -59q-15 -27 -44 -42q-26 -16 -57 -16zM344 1022q119 0 119 -119l-2 -903q-21 -318 -352 -318l-92 2q-117 0 -117 115v2q0 117 117 117
h90q120 0 120 121v863q0 120 117 120z" />
    <glyph glyph-name="seen" unicode="&#x633;" horiz-adv-x="2179" arabic-form="isolated" 
d="M1894 903q0 120 118 120q117 0 117 -119v-543q0 -361 -354 -361h-187q-117 3 -116 117q-8 -116 -120 -117h-279q-20 -317 -361 -317h-303q-357 0 -357 354v389q-2 123 117 123q114 0 117 -120v-395q0 -115 123 -115h309q120 0 120 120l1 868q0 116 119 116
q115 0 115 -119v-667h278l1 669q0 117 114 117q120 0 122 -120l-2 -666l188 -2q120 0 120 122v546v0z" />
    <glyph glyph-name="sheen" unicode="&#x634;" horiz-adv-x="2179" arabic-form="isolated" 
d="M1894 903q0 120 118 120q117 0 117 -119v-543q0 -361 -354 -361h-187q-117 3 -116 117q-8 -116 -120 -117h-279q-20 -317 -361 -317h-303q-357 0 -357 354v389q-2 123 117 123q114 0 117 -120v-395q0 -115 123 -115h309q120 0 120 120l1 868q0 116 119 116
q115 0 115 -119v-667h278l1 669q0 117 114 117q120 0 122 -120l-2 -666l188 -2q120 0 120 122v546zM1685 1321q30 -16 44 -43q16 -26 16 -59q0 -30 -15 -57q-16 -28 -43 -43q-29 -15 -59 -15t-58 15q-27 15 -42 43q-17 28 -17 57q0 31 17 59q15 28 43 43q27 15 57 15t57 -15
zM1331 1336q30 0 57 -15q30 -16 44 -43q16 -26 16 -59q0 -30 -15 -57q-15 -28 -43 -43q-29 -15 -59 -15t-57 15q-28 15 -43 43q-17 28 -17 57q0 31 17 59q15 28 43 43q27 15 57 15zM1480 1344q-31 0 -59 15q-27 15 -42 43q-16 26 -16 57q0 32 16 60q15 29 44 44q27 15 57 15
t57 -15q27 -14 43 -44q17 -29 17 -60q0 -30 -15 -57q-16 -27 -44 -43q-29 -15 -58 -15z" />
    <glyph glyph-name="sad" unicode="&#x635;" horiz-adv-x="2236" arabic-form="isolated" 
d="M2186 117q0 -117 -118 -117h-996q-18 -317 -360 -317h-305q-357 0 -357 354v389q0 123 117 123q115 -2 117 -120v-395q0 -115 125 -115h307q122 0 122 120v969q0 117 118 117q117 0 117 -119v-22q28 39 93 39h666q354 0 354 -362v-544zM1073 787v-552h876v431
q0 121 -118 121h-758z" />
    <glyph glyph-name="dad" unicode="&#x636;" horiz-adv-x="2236" arabic-form="isolated" 
d="M2186 117q0 -117 -118 -117h-996q-18 -317 -360 -317h-305q-357 0 -357 354v389q0 123 117 123q115 -2 117 -120v-395q0 -115 125 -115h307q122 0 122 120v969q0 117 118 117q117 0 117 -119v-22q28 39 93 39h666q354 0 354 -362v-544zM1073 787v-552h876v431
q0 121 -118 121h-758zM1322 1323q28 -15 45 -44q15 -29 15 -60q0 -30 -15 -57q-15 -28 -43 -43q-29 -15 -59 -15t-57 15q-28 15 -43 43q-17 28 -17 57q0 31 17 60q16 30 43 44q28 15 57 15q30 0 57 -15z" />
    <glyph glyph-name="tta" unicode="&#x637;" horiz-adv-x="1636" arabic-form="isolated" 
d="M1586 116q0 -116 -118 -116h-1301q-117 0 -117 116q0 120 116 120h75v853q-121 0 -119 114q0 120 119 123l118 2q117 -3 117 -120v-221q30 35 90 35h666q354 0 354 -362v-544zM476 788v-552h875v429q0 121 -120 121z" />
    <glyph glyph-name="za" unicode="&#x638;" horiz-adv-x="1636" arabic-form="isolated" 
d="M1586 116q0 -116 -118 -116h-1301q-117 0 -117 116q0 120 116 120h75v853q-121 0 -119 114q0 120 119 123l118 2q117 -3 117 -120v-221q30 35 90 35h666q354 0 354 -362v-544zM476 788v-552h875v429q0 121 -120 121zM779 1322q29 -15 44 -44q16 -28 16 -58q0 -31 -16 -59
q-15 -28 -42 -43q-29 -15 -59 -15t-58 15q-28 16 -44 43q-15 28 -15 59q0 29 15 58q17 29 44 44q28 15 58 15q28 0 57 -15z" />
    <glyph glyph-name="ain" unicode="&#x639;" horiz-adv-x="1357" arabic-form="isolated" 
d="M696 786q-118 -1 -118 -116v-313q0 -121 119 -121h457q116 0 116 -119q0 -117 -117 -117h-863q18 -81 117 -81h143q118 0 118 -119q0 -117 -117 -117h-139q-362 0 -362 354v80q0 119 117 119h188q-7 29 -10.5 59.5t-3.5 65.5v306q0 357 356 357h457q116 0 116 -119
t-117 -119h-457z" />
    <glyph glyph-name="ghain" unicode="&#x63a;" horiz-adv-x="1390" arabic-form="isolated" 
d="M696 786q-118 -1 -118 -116v-313q0 -121 119 -121h457q116 0 116 -119q0 -117 -117 -117h-863q18 -81 117 -81h143q118 0 118 -119q0 -117 -117 -117h-139q-362 0 -362 354v80q0 119 117 119h188q-7 29 -10.5 59.5t-3.5 65.5v306q0 357 356 357h457q116 0 116 -119
t-117 -119h-457zM844 1121q-31 0 -59 15q-27 15 -43 43q-15 27 -15 57q0 31 15 60q17 27 43 42q28 15 59 15q28 0 57 -15q28 -15 43 -42q17 -29 17 -60q0 -29 -17 -57q-15 -28 -42 -43q-29 -15 -58 -15z" />
    <glyph glyph-name="fa" unicode="&#x641;" horiz-adv-x="1936" arabic-form="isolated" 
d="M1351 1103q-31 0 -59 15q-27 16 -43 43q-15 28 -15 59q0 29 15 58q17 29 45 44q27 15 57 15q28 0 57 -15q27 -14 43 -44q17 -29 17 -58q0 -30 -17 -59q-15 -26 -42 -43q-29 -15 -58 -15zM1460 1024q356 0 356 -355v-552q0 -117 -119 -117h-1293q-354 0 -354 363v183
q0 119 119 119q118 0 118 -120v-186q0 -123 120 -123h554q-12 52 -12 118v315q0 355 354 355h157zM1579 672q0 114 -119 114h-159q-117 0 -117 -117v-312q0 -115 105 -121h290v436z" />
    <glyph glyph-name="qaf" unicode="&#x642;" horiz-adv-x="1936" arabic-form="isolated" 
d="M1460 1024q356 0 356 -355v-552q0 -117 -119 -117h-1293q-354 0 -354 363v183q0 119 119 119q118 0 118 -120v-186q0 -123 120 -123h554q-12 52 -12 118v315q0 355 354 355h157zM1579 672q0 114 -119 114h-159q-117 0 -117 -117v-312q0 -115 105 -121h290v436zM1531 1103
q-32 0 -59 15q-27 16 -43 43q-15 28 -15 59q0 29 15 58q17 30 43 44q28 15 59 15q28 0 57 -15q27 -14 43 -44q17 -29 17 -58q0 -30 -17 -59q-15 -27 -43 -43q-27 -15 -57 -15zM1234 1103q-31 0 -59 15q-27 16 -43 43q-15 28 -15 59q0 29 15 58q17 29 45 44q27 15 57 15
q28 0 57 -15q27 -14 43 -44q17 -29 17 -58q0 -30 -17 -59q-15 -26 -42 -43q-29 -15 -58 -15z" />
    <glyph glyph-name="kaf" unicode="&#x643;" horiz-adv-x="1519" arabic-form="isolated" 
d="M1163 1211q0 116 120 116q116 0 116 -117v-1099q-3 -111 -117 -111h-873q-357 0 -357 353v105q-2 123 117 123q115 0 117 -120v-111q0 -114 124 -114h753v975zM548 572q-39 0 -39 39t38 39h40q-4 19 -4 42v101q0 117 117 117h127q41 0 41 -39q0 -38 -39 -38h-131
q-37 0 -37 -42v-100q0 -41 39 -41h204q39 0 39 -39t-39 -39h-356z" />
    <glyph glyph-name="lam" unicode="&#x644;" horiz-adv-x="1283" arabic-form="isolated" 
d="M1162 0q-18 -318 -360 -318h-393q-359 0 -359 354v389q0 124 119 124q114 -2 117 -121v-395q-2 -114 123 -114h397q122 0 122 120v1170q0 116 118 116q117 0 117 -117z" />
    <glyph glyph-name="meem" unicode="&#x645;" horiz-adv-x="1448" arabic-form="isolated" 
d="M973 1024q355 0 355 -354v-308q0 -353 -337 -362h-176q-155 0 -241.5 66.5t-106.5 204.5h-60q-120 0 -120 -122v-351q0 -120 -118 -120q-119 0 -119 119v348q0 361 354 361h57v162q0 356 354 356h158zM1091 673q0 114 -118 114h-159q-117 0 -117 -117v-313
q0 -121 120 -121h166q108 6 108 121v316z" />
    <glyph glyph-name="noon" unicode="&#x646;" horiz-adv-x="1283" arabic-form="isolated" 
d="M1163 36q0 -354 -363 -354h-393q-357 0 -357 354v389q0 124 117 124q116 -2 117 -121v-395q0 -115 125 -115h397q122 0 122 121v870q0 115 118 115q117 0 117 -118v-870zM506 965q15 29 44 44q27 15 57 15t57 -15q27 -14 43 -44q17 -28 17 -58t-15 -57q-17 -29 -44 -44
q-28 -16 -58 -16q-31 0 -59 16q-27 15 -42 44q-16 26 -16 57q0 32 16 58z" />
    <glyph glyph-name="haa" unicode="&#x647;" horiz-adv-x="1037" arabic-form="isolated" 
d="M562 1024q355 0 355 -356v-551q0 -117 -118 -117h-396q-353 0 -353 354v314q0 356 356 356h156zM682 671q0 114 -120 114h-159q-116 0 -116 -117v-311q0 -121 116 -121h279v435z" />
    <glyph glyph-name="waw" unicode="&#x648;" horiz-adv-x="1107" arabic-form="isolated" 
d="M752 673q0 114 -120 114h-159q-116 0 -116 -119v-310q0 -122 116 -122h279v437zM632 1024q355 0 355 -356v-622q0 -362 -354 -362h-90q-118 0 -118 117v2q0 117 118 117h89q97 0 115 80h-274q-353 0 -353 354v314q0 356 356 356h156z" />
    <glyph glyph-name="alefmaq" unicode="&#x649;" horiz-adv-x="1894" arabic-form="isolated" 
d="M1420 1024q354 0 354 -363v-543q0 -119 -119 -119q-118 0 -118 120v548q0 120 -119 120h-75v-666q0 -60 -31 -91t-102 -31h-801q-357 0 -357 354v44q-2 123 117 123q115 -2 117 -120v-50q0 -115 124 -115h698v672q0 117 118 117h194z" />
    <glyph glyph-name="ya" unicode="&#x64a;" horiz-adv-x="1894" arabic-form="isolated" 
d="M1420 1024q354 0 354 -363v-543q0 -119 -119 -119q-118 0 -118 120v548q0 120 -119 120h-75v-666q0 -60 -31 -91t-102 -31h-801q-357 0 -357 354v44q-2 123 117 123q115 -2 117 -120v-50q0 -115 124 -115h698v672q0 117 118 117h194zM169 894q-31 0 -59 15q-27 16 -43 44
q-15 28 -15 58q0 28 15 57q16 28 43 44q28 15 59 15q29 0 58 -15q27 -15 42 -44q17 -28 17 -57q0 -30 -17 -58q-15 -28 -42 -44q-29 -15 -58 -15zM169 597q-31 0 -59 15q-27 16 -43 44q-15 28 -15 58q0 28 15 57q16 30 43 44q28 16 59 16q30 0 58 -16q27 -15 42 -42
q17 -29 17 -59q0 -29 -17 -58q-15 -28 -42 -44q-29 -15 -58 -15z" />
    <glyph glyph-name="alefhamzatwasl" unicode="&#x671;" horiz-adv-x="489" arabic-form="isolated" 
d="M249 1328q117 -3 117 -119v-1089q0 -120 -116 -120q-120 0 -120 120v969q-120 0 -118 114q0 120 118 123zM109 1676v-188h297v146q0 42 -40 42h-257zM367 1755q120 0 120 -123v-184q0 -39 -40 -39h-446q-19 0 -19 39q-1 40 19 40h29v263q0 39 40 39q39 0 39 -39v-8
q9 12 32 12h226z" />
    <glyph glyph-name="te" unicode="&#x679;" horiz-adv-x="1449" arabic-form="isolated" 
d="M1163 926q0 115 119 115q117 0 117 -118l-2 -812q-3 -111 -117 -111h-871q-359 0 -359 354v333q0 125 119 125q114 -1 117 -122v-339q-1 -115 123 -115h754v690zM973 846q0 -38 -39 -38h-438q-39 0 -39 38q0 39 38 39h40v277q-39 0 -39 38t39 40h38q39 -2 39 -39v-72
q9 12 28 12h218q115 0 115 -118v-177zM612 885h285v139q0 39 -39 39h-183v2h-63v-180z" />
    <glyph glyph-name="peh" unicode="&#x67e;" horiz-adv-x="1449" arabic-form="isolated" 
d="M1163 926q0 115 119 115q117 0 117 -118l-2 -812q-3 -111 -117 -111h-871q-359 0 -359 354v333q0 125 119 125q114 -1 117 -122v-339q-1 -115 123 -115h754v690zM518 -303q-26 14 -43 44q-15 28 -15 60q0 28 15 57q15 28 43 43q27 15 57 15q32 0 59 -15q28 -15 43 -43
q17 -29 17 -57q0 -31 -17 -60q-16 -30 -43 -44q-29 -15 -59 -15q-29 0 -57 15zM872 -318q-29 0 -57 15q-26 14 -43 44q-15 28 -15 60q0 28 15 57q15 28 43 43q27 15 57 15q32 0 59 -15t43 -43q15 -29 15 -57q0 -32 -15 -60q-17 -30 -43 -44q-29 -15 -59 -15zM724 -324
q31 0 58 -15q28 -17 44 -43q15 -29 15 -59t-15 -58q-17 -29 -44 -44q-29 -15 -58 -15t-57 15q-27 15 -44 44q-15 28 -15 58t15 59q14 26 44 43q27 15 57 15z" />
    <glyph glyph-name="tche" unicode="&#x686;" horiz-adv-x="1201" arabic-form="isolated" 
d="M626 -303q-27 15 -43 43q-15 27 -15 59q0 30 15 57q15 28 43 43q27 15 57 15q32 0 59 -15t43 -43q15 -27 15 -57q0 -32 -15 -59q-16 -28 -43 -43q-29 -15 -59 -15q-29 0 -57 15zM980 -318q-29 0 -57 15t-43 43q-17 28 -17 59q0 29 17 57q15 28 42 43q28 15 58 15t59 -15
q27 -15 43 -43q15 -27 15 -57q0 -32 -15 -59q-16 -28 -43 -43q-29 -15 -59 -15zM832 -326q29 0 58 -15q28 -16 44 -43q15 -27 15 -57q0 -32 -15 -60q-17 -29 -44 -44q-29 -15 -58 -15t-57 15q-29 15 -44 44q-16 28 -16 60q0 31 16 57q15 28 42 43q28 15 59 15zM709 1023
q442 0 442 -552v-354q0 -117 -117 -117h-742q18 -81 115 -81h-9q120 0 120 -119q0 -117 -118 -117h13q-363 0 -363 354l2 80q0 118 117 118h747v234q0 319 -204 318h-438q-115 0 -113 117q0 119 114 119h434z" />
    <glyph glyph-name="tal" unicode="&#x688;" horiz-adv-x="1183" arabic-form="isolated" 
d="M779 1023q354 0 354 -363v-543q0 -115 -118 -115l-611 -2q-354 0 -354 362v19q0 119 119 119q118 0 118 -120v-23q0 -121 120 -121h491v430q0 120 -120 120l-207 2q-119 0 -119 117t119 117zM971 1142q0 -38 -39 -38h-438q-39 0 -39 38q0 39 38 39h40v277q-39 0 -39 38
t39 40h38q39 -2 39 -39v-72q9 12 28 12h218q115 0 115 -118v-177zM610 1181h285v139q0 39 -39 39h-183v2h-63v-180z" />
    <glyph glyph-name="arre" unicode="&#x691;" horiz-adv-x="534" arabic-form="isolated" 
d="M344 1022q119 0 119 -117l-2 -905q-21 -318 -352 -318l-92 2q-117 0 -117 115v2q0 117 117 117l90 1q120 0 120 120v864q0 119 117 119zM553 1178q0 -38 -39 -38h-438q-39 0 -39 38q0 39 38 39h39v277q-40 0 -38 38q0 38 38 40h39q37 -1 37 -39v-72q10 12 30 12h218
q115 0 115 -118v-177zM190 1217h285v139q0 39 -39 39h-183v2h-63v-180z" />
    <glyph glyph-name="zhe" unicode="&#x698;" horiz-adv-x="549" arabic-form="isolated" 
d="M346 1022q117 0 117 -117l-2 -905q-21 -318 -352 -318l-90 2q-119 0 -119 115v2q0 117 119 117l88 1q120 0 120 120v864q0 119 119 119zM554 1378q29 -15 44 -44q16 -26 16 -58q0 -30 -15 -57q-17 -30 -43 -44q-29 -15 -59 -15t-58 15q-27 15 -42 44q-17 28 -17 57
q0 30 17 58q16 30 43 44q27 15 57 15t57 -15zM200 1393q30 0 57 -15q29 -15 44 -44q16 -26 16 -58q0 -30 -15 -57q-16 -30 -43 -44q-29 -15 -59 -15t-57 15q-27 14 -43 44q-17 28 -17 57q0 30 17 58q16 30 43 44q27 15 57 15zM349 1400q-31 0 -59 15q-27 15 -42 44
q-16 26 -16 57q0 32 16 60q14 27 44 43q27 15 57 15t57 -15q28 -15 43 -43q17 -29 17 -60q0 -30 -15 -57q-17 -29 -44 -44q-29 -15 -58 -15z" />
    <glyph glyph-name="veh" unicode="&#x6a4;" horiz-adv-x="1866" arabic-form="isolated" 
d="M1538 1103q-31 0 -58 15q-30 17 -44 43q-16 28 -16 59q0 30 16 58q15 29 44 44q28 15 58 15q28 0 57 -15q27 -15 44 -44q15 -29 15 -58q0 -31 -15 -59q-14 -26 -44 -43q-29 -15 -57 -15zM1241 1103q-31 0 -58 15q-28 17 -44 43q-15 28 -15 59q0 29 15 58q17 29 44 44
q28 15 58 15q28 0 57 -15q27 -15 44 -44q15 -29 15 -58q0 -31 -15 -59q-14 -26 -44 -43q-27 -15 -57 -15zM1384 1365q-32 0 -59 15q-26 16 -43 44q-15 28 -15 58t15 59q16 28 43 43q28 15 59 15q28 0 57 -15q27 -15 43 -43q15 -29 15 -59t-15 -58q-16 -28 -43 -44
q-27 -15 -57 -15zM1460 1023q356 0 356 -355v-551q0 -117 -119 -117h-1293q-354 0 -354 363v183q0 119 119 119q118 0 118 -120v-186q0 -122 120 -122h554q-12 52 -12 117v314q0 355 354 355h157zM1579 671q0 114 -119 114h-159q-117 0 -117 -117v-311q0 -114 105 -120
l290 -1v435z" />
    <glyph glyph-name="keh" unicode="&#x6a9;" horiz-adv-x="1647" arabic-form="isolated" 
d="M1597 116q0 -116 -117 -116h-1073q-357 0 -357 354v42q0 125 117 125q115 -1 117 -122v-48q0 -115 125 -115l952 -2v431q0 121 -120 121h-382q-119 0 -119 117v11q-4 44 38 93l363 460q81 91 169 12q87 -77 8 -166l-228 -291h153q354 0 354 -362v-544z" />
    <glyph glyph-name="gaf" unicode="&#x6af;" horiz-adv-x="1647" arabic-form="isolated" 
d="M1597 116q0 -116 -117 -116h-1073q-357 0 -357 354v42q0 125 117 125q115 -1 117 -122v-48q0 -115 125 -115l952 -2v431q0 121 -120 121h-382q-119 0 -119 117v11q-4 44 38 93l363 460q81 91 169 12q87 -77 8 -166l-228 -291h153q354 0 354 -362v-544zM586 954
q-44 35 -11 78l414 530q35 44 80 9q43 -35 9 -78l-414 -530q-17 -21 -44 -21q-19 0 -34 12z" />
    <glyph glyph-name="alefhamzatwaslF" unicode="&#x671;" horiz-adv-x="528" arabic-form="final" 
d="M589 236q59 0 59 -119q-2 -117 -60 -117h-143q-357 0 -357 354v849q-2 125 117 125q114 -1 117 -122v-855q-1 -115 123 -115h144zM0 1409q-20 0 -20 39q0 40 20 40h28v263q0 39 41 39q39 0 39 -39v-8q10 12 31 12h227q120 0 120 -123v-184q0 -39 -39 -39h-447zM108 1676
v-188h298v146q0 42 -40 42h-258z" />
    <glyph glyph-name="pehF" unicode="&#x67e;" horiz-adv-x="1534" arabic-form="final" 
d="M1595 236q59 0 57 -119q0 -117 -58 -117h-1187q-357 0 -357 354v333q0 125 117 125q115 -1 117 -122v-339q0 -115 125 -115h753l1 690q0 115 119 115q115 0 115 -118v-687h198zM578 -303q-26 14 -43 44q-15 28 -15 60q0 28 15 57q15 28 43 43q27 15 57 15q32 0 59 -15
t43 -43q15 -29 15 -57q0 -32 -15 -60q-17 -30 -43 -44q-29 -15 -59 -15q-29 0 -57 15zM932 -318q-29 0 -57 15q-26 14 -43 44q-15 28 -15 60q0 28 15 57q15 28 43 43q27 15 57 15q32 0 59 -15t43 -43q15 -29 15 -57q0 -32 -15 -60q-17 -30 -43 -44q-29 -15 -59 -15z
M784 -324q31 0 58 -15q28 -17 44 -43q15 -29 15 -59t-15 -58q-17 -29 -44 -44q-29 -15 -58 -15t-57 15q-27 15 -44 44q-15 28 -15 58t15 59q14 26 44 43q27 15 57 15z" />
    <glyph glyph-name="pehI" unicode="&#x67e;" horiz-adv-x="525" arabic-form="initial" 
d="M217 908q0 115 118 115q116 0 116 -118v-786q0 -119 -116 -119h-375q-58 0 -60 119q0 117 57 117h260v672zM7 -303q-27 15 -44 44q-15 28 -15 60q0 28 15 57q14 27 44 43q27 15 57 15q31 0 58 -15q28 -16 44 -43q15 -29 15 -57q0 -32 -15 -60q-17 -29 -44 -44
q-29 -15 -58 -15t-57 15zM361 -318q-29 0 -57 15q-27 15 -44 44q-15 28 -15 60q0 28 15 57q14 27 44 43q27 15 57 15q31 0 58 -15q28 -16 44 -43q15 -29 15 -57q0 -32 -15 -60q-17 -29 -44 -44q-29 -15 -58 -15zM212 -324q32 0 59 -15q27 -16 43 -43q15 -29 15 -59t-15 -58
q-17 -30 -43 -44q-29 -15 -59 -15q-29 0 -57 15q-26 14 -43 44q-15 28 -15 58t15 59q15 27 43 43q27 15 57 15z" />
    <glyph glyph-name="pehM" unicode="&#x67e;" horiz-adv-x="740" arabic-form="medial" 
d="M801 236q58 0 57 -117q0 -119 -58 -119h-303q-117 3 -116 117q-9 -116 -121 -117h-320q-58 0 -60 119q0 117 57 117l321 1l2 669q0 117 114 117q121 0 123 -120l-2 -666zM198 -303q-26 14 -43 44q-15 28 -15 60q0 28 15 57q15 28 43 43q27 15 57 15q32 0 59 -15t43 -43
q15 -29 15 -57q0 -32 -15 -60q-17 -30 -43 -44q-29 -15 -59 -15q-29 0 -57 15zM552 -318q-29 0 -57 15q-26 14 -43 44q-15 28 -15 60q0 28 15 57q15 28 43 43q27 15 57 15q32 0 59 -15t43 -43q15 -29 15 -57q0 -32 -15 -60q-17 -30 -43 -44q-29 -15 -59 -15zM404 -324
q31 0 58 -15q28 -17 44 -43q15 -29 15 -59t-15 -58q-17 -29 -44 -44q-29 -15 -58 -15t-57 15q-27 15 -44 44q-15 28 -15 58t15 59q14 26 44 43q27 15 57 15z" />
    <glyph glyph-name="teF" unicode="&#x679;" horiz-adv-x="1534" arabic-form="final" 
d="M1595 236q59 0 57 -119q0 -117 -58 -117h-1187q-357 0 -357 354v333q0 125 117 125q115 -1 117 -122v-339q0 -115 125 -115h753l1 690q0 115 119 115q115 0 115 -118v-687h198zM952 846q0 -38 -39 -38h-438q-39 0 -39 38q0 39 38 39h40v277q-39 0 -39 38t39 40h38
q39 -2 39 -39v-72q9 12 28 12h218q115 0 115 -118v-177zM591 885h285v139q0 39 -39 39h-183v2h-63v-180z" />
    <glyph glyph-name="teI" unicode="&#x679;" horiz-adv-x="483" arabic-form="initial" 
d="M197 908q0 115 118 115q116 0 116 -118v-786q0 -119 -116 -119h-375q-58 0 -60 119q0 117 57 117h260v672zM433 1142q0 -38 -39 -38h-438q-39 0 -39 38q0 39 38 39h40v277q-39 0 -39 38t39 40h38q39 -2 39 -39v-72q9 12 28 12h218q115 0 115 -118v-177zM72 1181h285v139
q0 39 -39 39h-183v2h-63v-180z" />
    <glyph glyph-name="teM" unicode="&#x679;" horiz-adv-x="740" arabic-form="medial" 
d="M801 236q58 0 57 -117q0 -119 -58 -119h-303q-117 3 -116 117q-9 -116 -121 -117h-320q-58 0 -60 119q0 117 57 117l321 1l2 669q0 117 114 117q121 0 123 -120l-2 -666zM623 1142q0 -38 -39 -38h-438q-39 0 -39 38q0 39 38 39h40v277q-39 0 -39 38t39 40h38
q39 -2 39 -39v-72q9 12 28 12h218q115 0 115 -118v-177zM262 1181h285v139q0 39 -39 39h-183v2h-63v-180z" />
    <glyph glyph-name="vehF" unicode="&#x6a4;" horiz-adv-x="2044" arabic-form="final" 
d="M1531 1103q-32 0 -59 15q-28 16 -43 43q-17 29 -17 59q0 29 17 58q16 30 43 44q28 15 59 15q28 0 57 -15q26 -14 43 -44q15 -29 15 -58q0 -31 -15 -59q-15 -27 -43 -43q-29 -15 -57 -15zM1234 1103q-32 0 -59 15q-27 16 -43 43q-15 28 -15 59q0 29 15 58q17 30 43 44
q28 15 59 15q28 0 57 -15q26 -14 43 -44q15 -29 15 -58q0 -31 -15 -59q-15 -27 -43 -43q-27 -15 -57 -15zM2105 236q59 0 57 -119q0 -117 -58 -117h-1700q-354 0 -354 363v183q0 119 117 119q119 0 119 -120v-186q0 -122 120 -122h553q-12 52 -12 117v314q0 355 356 355h156
q355 0 355 -355v-432h291zM1184 357q0 -114 105 -120l290 -1v435q0 114 -120 114h-159q-116 0 -116 -117v-311zM1376 1365q-31 0 -58 15q-27 17 -44 44q-15 28 -15 58t15 59q16 27 44 43q28 15 58 15q28 0 57 -15q28 -16 44 -43q15 -29 15 -59t-15 -58q-15 -27 -44 -44
q-27 -15 -57 -15z" />
    <glyph glyph-name="vehI" unicode="&#x6a4;" horiz-adv-x="1090" arabic-form="initial" 
d="M684 1023q356 0 356 -355v-551q0 -117 -117 -117h-983q-59 0 -60 117q0 119 57 119h248q-12 52 -12 118v314q0 355 355 355h156zM410 357q0 -121 115 -121h279v435q0 114 -120 114h-159q-115 0 -115 -117v-311zM762 1103q-31 0 -58 15q-30 17 -44 43q-16 28 -16 59
q0 30 16 58q15 29 44 44q28 15 58 15q28 0 57 -15q27 -15 44 -44q15 -29 15 -58q0 -31 -15 -59q-14 -26 -44 -43q-29 -15 -57 -15zM465 1103q-31 0 -58 15q-28 17 -44 43q-15 28 -15 59q0 29 15 58q17 29 44 44q28 15 58 15q28 0 57 -15q27 -15 44 -44q15 -29 15 -58
q0 -31 -15 -59q-14 -26 -44 -43q-27 -15 -57 -15zM608 1365q-32 0 -59 15q-26 16 -43 44q-15 28 -15 58t15 59q16 28 43 43q28 15 59 15q28 0 57 -15q27 -15 43 -43q15 -29 15 -59t-15 -58q-16 -28 -43 -44q-27 -15 -57 -15z" />
    <glyph glyph-name="vehM" unicode="&#x6a4;" horiz-adv-x="1188" arabic-form="medial" 
d="M1250 236q58 0 58 -119q-2 -117 -60 -117h-1306q-59 0 -60 117q-2 119 57 119h247q-12 52 -12 118v314q0 355 356 355h156q355 0 355 -355v-432h209zM411 357q0 -121 116 -121h279v435q0 114 -120 114h-159q-116 0 -116 -117v-311zM756 1103q-31 0 -58 15q-30 17 -44 43
q-16 28 -16 59q0 30 16 58q15 29 44 44q28 15 58 15q28 0 57 -15q27 -15 44 -44q15 -29 15 -58q0 -31 -15 -59q-14 -26 -44 -43q-29 -15 -57 -15zM459 1103q-31 0 -58 15q-28 17 -44 43q-15 28 -15 59q0 29 15 58q17 29 44 44q28 15 58 15q28 0 57 -15q27 -15 44 -44
q15 -29 15 -58q0 -31 -15 -59q-14 -26 -44 -43q-27 -15 -57 -15zM602 1365q-32 0 -59 15q-26 16 -43 44q-15 28 -15 58t15 59q16 28 43 43q28 15 59 15q28 0 57 -15q27 -15 43 -43q15 -29 15 -59t-15 -58q-16 -28 -43 -44q-27 -15 -57 -15z" />
    <glyph glyph-name="tcheF" unicode="&#x686;" horiz-adv-x="1318" arabic-form="final" 
d="M1379 236q58 0 57 -117q0 -119 -60 -119h-1084q18 -81 115 -81h9q120 0 120 -118q0 -117 -118 -117h-6q-362 0 -362 354l2 79q0 119 115 119h749v234q0 319 -204 318h-440q-112 0 -112 117q1 118 114 118h435q442 0 442 -552v-235h228zM637 -301q-28 16 -44 43
q-15 27 -15 59q0 30 15 57q14 27 44 43q27 15 57 15q31 0 58 -15q30 -16 44 -43q16 -26 16 -57q0 -33 -16 -59q-14 -27 -44 -43q-29 -15 -58 -15t-57 15zM991 -316q-29 0 -57 15q-28 16 -44 43q-15 27 -15 59q0 30 15 57q14 27 44 43q27 15 57 15q31 0 58 -15q28 -16 44 -43
q15 -27 15 -57q0 -32 -15 -59q-16 -27 -44 -43q-29 -15 -58 -15zM842 -324q32 0 59 -15t43 -43q15 -27 15 -57q0 -32 -15 -60q-17 -30 -43 -44q-29 -15 -59 -15q-29 0 -57 15q-26 14 -43 44q-15 28 -15 60q0 30 15 57q15 28 43 43q27 15 57 15z" />
    <glyph glyph-name="tcheI" unicode="&#x686;" horiz-adv-x="1356" arabic-form="initial" 
d="M473 -301q-28 15 -43 43q-17 28 -17 59q0 29 17 57q15 28 42 43q28 15 58 15t59 -15q27 -15 43 -43q15 -27 15 -57q0 -32 -15 -59q-16 -28 -45 -43q-27 -15 -57 -15q-29 0 -57 15zM827 -316q-30 0 -57 15q-28 15 -43 43q-17 28 -17 59q0 30 15 57q16 27 44 43
q28 15 58 15t59 -15q27 -15 42 -43q16 -26 16 -57q0 -33 -16 -59q-14 -27 -44 -43q-27 -15 -57 -15zM679 -324q29 0 58 -15q27 -15 42 -43q17 -28 17 -57q0 -31 -17 -60q-16 -30 -43 -44q-27 -15 -57 -15t-57 15q-29 15 -44 44q-16 28 -16 60q0 30 15 57q16 28 43 43
q28 15 59 15zM863 1023q443 0 443 -552v-354q0 -117 -117 -117h-1077q-60 0 -60 119q-2 117 57 117h961v234q0 319 -204 318h-438q-114 0 -112 117q0 118 114 118h433z" />
    <glyph glyph-name="tcheM" unicode="&#x686;" horiz-adv-x="1319" arabic-form="medial" 
d="M453 -301q-27 15 -43 43q-15 27 -15 59q0 30 15 57q15 28 43 43q27 15 57 15q32 0 59 -15t43 -43q15 -27 15 -57q0 -32 -15 -59q-16 -28 -43 -43q-29 -15 -59 -15q-29 0 -57 15zM807 -316q-29 0 -57 15t-43 43q-17 28 -17 59q0 29 17 57q15 28 43 43q27 15 57 15
q32 0 59 -15t43 -43q15 -27 15 -57q0 -32 -15 -59q-16 -28 -43 -43q-29 -15 -59 -15zM659 -324q31 0 58 -15q28 -16 44 -43q15 -27 15 -57q0 -32 -15 -60q-17 -29 -44 -44q-29 -15 -58 -15t-57 15q-27 15 -44 44q-15 28 -15 60q0 30 15 57q14 27 44 43q27 15 57 15z
M1380 236q58 0 57 -117q0 -119 -60 -119h-1437q-58 0 -58 119q-2 117 57 117h961v234q0 319 -204 318h-439q-113 0 -113 117q1 118 114 118h435q443 0 443 -552v-235h244z" />
    <glyph glyph-name="talF" unicode="&#x688;" horiz-adv-x="1328" arabic-form="final" 
d="M1390 236q59 0 57 -119q0 -117 -60 -117h-983q-354 0 -354 362v19q0 119 119 119q117 0 117 -120v-23q0 -121 121 -121h491v430q0 120 -120 120l-207 2q-119 0 -119 117t119 117l208 1q354 0 354 -363v-424h257zM619 1181h285v139q0 39 -39 39h-183v2h-63v-180zM980 1142
q0 -38 -39 -38h-438q-39 0 -39 38q0 39 38 39h40v277q-39 0 -39 38t39 40h38q39 -2 39 -39v-72q9 12 28 12h218q115 0 115 -118v-177z" />
    <glyph glyph-name="zheF" unicode="&#x698;" horiz-adv-x="612" arabic-form="final" 
d="M443 237q128 -1 229 -3q58 0 60 -117q0 -117 -57 -117h-234q-21 -318 -352 -318l-90 2q-119 0 -119 115v2q0 117 119 117l88 1q120 0 120 120v864q0 119 117 119q119 0 119 -117v-668zM534 1322q27 -15 44 -44q15 -27 15 -58q0 -30 -15 -57q-15 -29 -44 -44
q-27 -15 -57 -15q-31 0 -58 15t-44 44q-15 27 -15 57q0 31 15 58q17 29 44 44q28 15 58 15q28 0 57 -15zM180 1337q28 0 57 -15t44 -44q16 -26 16 -58q0 -31 -16 -57q-15 -29 -42 -44q-29 -15 -59 -15t-58 15q-27 15 -44 44q-15 27 -15 57q0 31 15 58q17 29 44 44
q28 15 58 15zM329 1344q-31 0 -59 15q-26 14 -43 44q-15 27 -15 57q0 31 15 60q16 28 43 43q28 15 59 15q28 0 57 -15q28 -15 43 -43q17 -29 17 -60q0 -29 -17 -57q-16 -30 -43 -44q-27 -15 -57 -15z" />
    <glyph glyph-name="arreF" unicode="&#x691;" horiz-adv-x="612" arabic-form="final" 
d="M545 1188q0 -38 -39 -38h-438q-39 0 -39 38q0 39 38 39h40v277q-39 0 -39 38t39 40h38q39 -2 39 -39v-72q9 12 28 12h218q115 0 115 -118v-177zM184 1227h285v139q0 39 -39 39h-183v2h-63v-180zM443 237q128 -1 229 -3q58 0 60 -117q0 -117 -57 -117h-234
q-21 -318 -352 -318l-90 2q-119 0 -119 115v2q0 117 119 117l88 1q120 0 120 120v864q0 119 117 119q119 0 119 -117v-668z" />
    <glyph glyph-name="kehF" unicode="&#x6a9;" horiz-adv-x="1768" arabic-form="final" 
d="M1831 234q57 0 57 -117q-2 -117 -60 -117h-1419q-357 0 -357 354v42q-2 125 117 125q115 -1 117 -122v-48q0 -115 123 -115l954 -2v431q0 121 -120 121h-384q-117 0 -117 117v11q-5 46 37 93l363 460q81 92 170 12q86 -76 7 -166l-228 -291h153q354 0 354 -362v-426h233z
" />
    <glyph glyph-name="kehI" unicode="&#x6a9;" horiz-adv-x="1132" arabic-form="initial" 
d="M1082 113q0 -116 -118 -116h-854q-58 0 -58 117q-2 119 57 119h738v429q0 121 -120 121l-383 2q-118 0 -118 115v11q-5 46 37 93l363 460q81 92 170 12q86 -76 7 -166l-228 -291h153q354 0 354 -362v-544z" />
    <glyph glyph-name="kehM" unicode="&#x6a9;" horiz-adv-x="1182" arabic-form="medial" 
d="M1244 233q59 0 57 -119q0 -117 -60 -117h-1301q-59 0 -60 117q0 119 57 119h738v429q0 121 -120 121l-382 2q-119 0 -119 115l2 11q-5 45 36 93l364 460q79 91 168 12q88 -76 9 -166l-229 -291h154q354 0 354 -362v-424h332z" />
    <glyph glyph-name="gafF" unicode="&#x6af;" horiz-adv-x="1768" arabic-form="final" 
d="M1831 234q57 0 57 -117q-2 -117 -60 -117h-1419q-357 0 -357 354v42q-2 125 117 125q115 -1 117 -122v-48q0 -115 123 -115l954 -2v431q0 121 -120 121h-384q-117 0 -117 117v11q-5 46 37 93l363 460q81 92 170 12q86 -76 7 -166l-228 -291h153q354 0 354 -362v-426h233z
M593 954q-44 34 -9 78l414 530q34 43 78 9q43 -35 9 -78l-412 -530q-18 -21 -45 -21q-20 0 -35 12z" />
    <glyph glyph-name="gafI" unicode="&#x6af;" horiz-adv-x="1176" arabic-form="initial" 
d="M1126 113q0 -116 -119 -116h-853q-59 0 -59 117q-2 119 57 119h738v429q0 121 -120 121l-382 2q-119 0 -119 115v11q-4 44 38 93l363 460q81 91 169 12q87 -77 8 -166l-228 -291h153q354 0 354 -362v-544zM94 929q-43 34 -9 79l414 528q33 45 78 11q44 -35 9 -80
l-414 -528q-16 -22 -44 -22q-19 0 -34 12z" />
    <glyph glyph-name="gafM" unicode="&#x6af;" horiz-adv-x="1191" arabic-form="medial" 
d="M1253 233q59 0 57 -119q0 -117 -60 -117h-1301q-59 0 -60 117q0 119 57 119h738v429q0 121 -120 121l-382 2q-119 0 -119 115l2 11q-5 45 36 93l364 460q79 91 168 12q88 -76 9 -166l-229 -291h154q354 0 354 -362v-424h332zM-106 929q-44 35 -11 79l414 528q35 46 80 11
q44 -35 9 -80l-414 -528q-16 -22 -44 -22q-19 0 -34 12z" />
    <glyph glyph-name="alefmadF" unicode="&#x622;" horiz-adv-x="504" arabic-form="final" 
d="M566 236q59 0 57 -119q0 -117 -60 -117h-143q-357 0 -357 354v849q0 125 117 125q115 -1 117 -122v-855q0 -115 125 -115h144zM344 1430q-80 -42 -158 -2q-80 39 -157 -4q-27 -12 -27 39q-1 31 25 43q81 38 158 0q81 -40 157 3q28 15 30 -39q1 -28 -28 -40z" />
    <glyph glyph-name="alefhamzaAF" unicode="&#x623;" horiz-adv-x="520" arabic-form="final" 
d="M583 236q57 0 57 -119q-2 -117 -60 -117h-142q-357 0 -357 354v849q-2 125 117 125q114 -1 117 -122v-855q-1 -115 123 -115h145zM360 1485q37 0 37 -39q0 -37 -37 -37h-356q-39 0 -39 37q0 39 38 39h40q-4 19 -4 42v101q0 118 115 118h129q41 0 41 -39q0 -38 -39 -39
h-131q-39 0 -39 -40v-102q0 -39 41 -39z" />
    <glyph glyph-name="wawhamzaF" unicode="&#x624;" horiz-adv-x="1033" arabic-form="final" 
d="M305 1102q-39 0 -39 39t38 39h40q-4 19 -4 42v101q0 117 117 117h127q41 2 41 -38q0 -39 -39 -39h-131q-37 0 -37 -40v-102q0 -41 39 -41h204q39 0 39 -39t-39 -39h-356zM1094 235q58 0 57 -117q0 -118 -60 -118h-177q-21 -317 -352 -317h-90q-119 0 -119 117v2
q0 117 119 117h88q98 0 116 81h-275q-351 0 -351 354v314q0 356 354 356h156q356 0 356 -356v-433h178zM680 673q0 114 -120 114h-159q-115 0 -115 -119v-311q0 -121 115 -121h279v437z" />
    <glyph glyph-name="alefhamzaBF" unicode="&#x625;" horiz-adv-x="520" arabic-form="final" 
d="M583 235q57 0 57 -118q-2 -117 -60 -117h-142q-357 0 -357 354v849q-1 124 117 124q114 -2 117 -121v-855q-2 -116 123 -116h145zM360 -375q37 0 37 -39q0 -38 -37 -38h-356q-39 0 -39 38q0 39 38 39h40q-4 19 -4 42v100q0 119 115 119h129q41 0 41 -39q0 -38 -39 -39
h-131q-39 0 -39 -41v-102q0 -39 41 -39z" />
    <glyph glyph-name="yahamzaAF" unicode="&#x626;" horiz-adv-x="1958" arabic-form="final" 
d="M89 686q-39 0 -39 37q0 39 38 39h40q-4 19 -4 42v101q0 117 117 117h127q41 2 41 -38q0 -39 -39 -39h-131q-37 0 -37 -40v-102q0 -41 39 -41h204q39 0 39 -39q0 -37 -39 -37h-356zM2023 236q57 0 57 -119q-2 -117 -60 -117h-365q-118 0 -118 120v547q0 120 -119 120h-75
v-665q0 -60 -31 -91t-102 -31h-801q-357 0 -357 354v44q-2 123 117 123q115 -2 117 -120v-50q0 -115 124 -115h698v671q0 117 118 117h194q354 0 354 -363v-425h249z" />
    <glyph glyph-name="yahamzaAI" unicode="&#x626;" horiz-adv-x="500" arabic-form="initial" 
d="M197 908q0 115 118 115q116 0 116 -118v-786q0 -119 -116 -119h-375q-58 0 -60 119q0 117 57 117h260v672zM483 1181q39 0 39 -39q0 -38 -39 -38h-355q-39 0 -39 38q0 39 37 39h41q-5 23 -5 42v100q0 117 117 117h128q42 1 42 -37q-2 -39 -41 -39h-130q-38 0 -38 -41
v-102q0 -40 39 -40h204z" />
    <glyph glyph-name="yahamzaAM" unicode="&#x626;" horiz-adv-x="740" arabic-form="medial" 
d="M801 236q58 0 57 -117q0 -119 -58 -119h-303q-117 3 -116 117q-9 -116 -121 -117h-320q-58 0 -60 119q0 117 57 117l321 1l2 669q0 117 114 117q121 0 123 -120l-2 -666zM548 1181q39 0 39 -39q0 -38 -39 -38h-356q-39 0 -39 38q0 39 38 39h40q-4 19 -4 42v100
q0 117 117 117h127q41 2 41 -37t-39 -39h-131q-37 0 -37 -41v-102q0 -40 39 -40h204z" />
    <glyph glyph-name="alefF" unicode="&#x627;" horiz-adv-x="559" arabic-form="final" 
d="M556 236q59 0 57 -119q0 -117 -60 -117h-56q-357 0 -357 354v849q0 125 117 125q115 -1 117 -122v-855q0 -115 125 -115h57z" />
    <glyph glyph-name="baF" unicode="&#x628;" horiz-adv-x="1535" arabic-form="final" 
d="M1597 235q58 0 57 -118q0 -117 -60 -117h-1185q-357 0 -357 354v328q-2 125 117 125q115 -2 117 -120v-336q0 -116 124 -116h753l2 689q0 117 118 117q116 0 116 -119v-687h198zM623 -144q16 27 44 43q28 15 58 15q28 0 57 -15q28 -16 44 -43q15 -29 15 -59t-15 -58
q-15 -27 -44 -44q-27 -15 -57 -15q-31 0 -58 15q-27 17 -44 44q-15 28 -15 58t15 59z" />
    <glyph glyph-name="baI" unicode="&#x628;" horiz-adv-x="482" arabic-form="initial" 
d="M197 906q0 116 118 116q117 0 117 -117v-786q0 -119 -117 -119h-375q-58 0 -58 117q-2 119 57 119h258v670zM260 -318q-31 0 -59 17q-26 15 -43 42q-15 28 -15 58t15 59q16 28 43 43q28 15 59 15q28 0 57 -15q28 -15 43 -43q17 -29 17 -59q0 -29 -17 -58q-15 -27 -43 -42
q-28 -17 -57 -17z" />
    <glyph glyph-name="baM" unicode="&#x628;" horiz-adv-x="740" arabic-form="medial" 
d="M803 236q57 0 57 -119q-2 -117 -60 -117h-303q-117 3 -116 117q-8 -117 -121 -117h-320q-58 0 -58 117q-2 119 57 119h321v669q0 117 115 117q120 0 122 -120l-2 -666h308zM371 -318q-30 0 -59 17q-26 15 -43 42q-15 28 -15 58t15 59q16 28 43 43q28 15 59 15
q28 0 57 -15q28 -15 43 -43q17 -29 17 -59q0 -29 -17 -58q-15 -27 -42 -42q-29 -17 -58 -17z" />
    <glyph glyph-name="tamarF" unicode="&#x629;" horiz-adv-x="1076" arabic-form="final" 
d="M632 1103q-30 0 -58 15q-27 17 -42 43q-17 29 -17 59q0 29 17 58q16 30 43 44q27 15 57 15t57 -15q29 -15 44 -44q16 -28 16 -58q0 -31 -15 -59q-16 -27 -43 -43q-29 -15 -59 -15zM335 1103q-30 0 -57 15q-28 16 -43 43q-17 29 -17 59q0 29 17 58q16 30 43 44
q27 15 57 15t57 -15q29 -15 44 -44q16 -28 16 -58q0 -31 -15 -59q-15 -27 -43 -43q-29 -15 -59 -15zM919 237h59.5t156.5 -1q58 0 60 -119q1 -117 -57 -117h-732q-356 0 -356 356v313q0 354 351 354l188 -1q53 -6 94 -59q0 119 117 119q119 0 119 -119v-726zM683 237v551
l-94 -2h-186q-117 0 -117 -120v-312q0 -117 117 -117h280z" />
    <glyph glyph-name="taF" unicode="&#x62a;" horiz-adv-x="1535" arabic-form="final" 
d="M1597 236q59 0 57 -119q0 -117 -60 -117h-1185q-357 0 -357 354v329q-1 124 117 124q115 -2 117 -120v-336q0 -115 124 -115h753l2 688q0 117 118 117q116 0 116 -118v-687h198zM874 807q-30 0 -57 15q-29 15 -44 44q-16 26 -16 57q0 32 16 60q14 27 44 43q27 15 57 15
t57 -15q28 -15 43 -43q17 -29 17 -60q0 -30 -15 -57q-17 -29 -44 -44q-29 -15 -58 -15zM577 807q-30 0 -57 15q-29 15 -44 44q-16 26 -16 57q0 32 16 60q14 27 44 43q28 15 57 15t58 -15q28 -16 44 -43q15 -29 15 -60q0 -30 -15 -57q-15 -29 -44 -44t-58 -15z" />
    <glyph glyph-name="taI" unicode="&#x62a;" horiz-adv-x="519" arabic-form="initial" 
d="M197 903q0 116 118 116q117 0 117 -117v-786q0 -119 -117 -119h-375q-58 0 -58 117q-2 119 57 119h258v670zM510 1319q27 -15 44 -44q15 -29 15 -58q0 -31 -15 -59q-14 -26 -44 -43q-27 -15 -57 -15q-31 0 -58 15q-28 17 -44 43q-15 28 -15 59q0 29 15 58q17 29 44 44
q28 15 58 15q28 0 57 -15zM156 1334q28 0 57 -15q27 -15 44 -44q15 -29 15 -58q0 -31 -15 -59q-14 -26 -44 -43q-27 -15 -57 -15q-31 0 -58 15q-28 17 -44 43q-15 28 -15 59q0 29 15 58q17 29 44 44q28 15 58 15z" />
    <glyph glyph-name="taM" unicode="&#x62a;" horiz-adv-x="740" arabic-form="medial" 
d="M803 233q57 0 57 -119q-2 -117 -60 -117h-303q-117 3 -116 117q-8 -117 -121 -117h-320q-58 0 -58 117q-2 119 57 119h321v669q0 117 115 117q120 0 122 -120l-2 -666h308zM576 1319q29 -15 44 -44q16 -28 16 -58q0 -31 -16 -59q-15 -26 -42 -43q-29 -15 -59 -15t-58 15
q-28 17 -44 43q-15 28 -15 59q0 29 15 58q17 29 44 44q28 15 58 15q28 0 57 -15zM222 1334q28 0 57 -15t44 -44q16 -28 16 -58q0 -31 -16 -59q-15 -26 -42 -43q-29 -15 -59 -15t-58 15q-28 17 -44 43q-15 28 -15 59q0 29 15 58q17 29 45 44q27 15 57 15z" />
    <glyph glyph-name="thaF" unicode="&#x62b;" horiz-adv-x="1535" arabic-form="final" 
d="M1597 236q59 0 57 -119q0 -117 -60 -117h-1185q-357 0 -357 354v329q-1 124 117 124q115 -2 117 -120v-336q0 -115 124 -115h753l2 688q0 117 118 117q116 0 116 -118v-687h198zM874 807q-30 0 -57 15q-29 15 -44 44q-16 26 -16 57q0 32 16 60q14 27 44 43q27 15 57 15
t57 -15q28 -15 43 -43q17 -29 17 -60q0 -30 -15 -57q-17 -29 -44 -44q-29 -15 -58 -15zM577 807q-30 0 -57 15q-29 15 -44 44q-16 26 -16 57q0 32 16 60q14 27 44 43q28 15 57 15t58 -15q28 -16 44 -43q15 -29 15 -60q0 -30 -15 -57q-15 -29 -44 -44t-58 -15zM623 1277
q16 27 45 42q27 15 57 15q28 0 57 -15t44 -42q16 -28 16 -60q0 -31 -16 -57q-15 -29 -42 -44q-29 -15 -59 -15t-58 15q-27 15 -44 44q-15 27 -15 57q0 31 15 60z" />
    <glyph glyph-name="thaI" unicode="&#x62b;" horiz-adv-x="509" arabic-form="initial" 
d="M197 903q0 116 118 116q117 0 117 -117v-786q0 -119 -117 -119h-375q-58 0 -58 117q-2 119 57 119h258v670zM510 1319q27 -15 44 -44q15 -29 15 -58q0 -31 -15 -59q-14 -26 -44 -43q-27 -15 -57 -15q-31 0 -58 15q-28 17 -44 43q-15 28 -15 59q0 29 15 58q17 29 44 44
q28 15 58 15q28 0 57 -15zM156 1334q28 0 57 -15q27 -15 44 -44q15 -29 15 -58q0 -31 -15 -59q-14 -26 -44 -43q-27 -15 -57 -15q-31 0 -58 15q-28 17 -44 43q-15 28 -15 59q0 29 15 58q17 29 44 44q28 15 58 15zM305 1340q-33 0 -59 16q-26 15 -43 42q-15 28 -15 59
q0 29 15 58q17 30 43 44q28 15 59 15q28 0 57 -15q26 -14 43 -44q15 -29 15 -58q0 -31 -15 -59q-15 -27 -43 -42q-26 -16 -57 -16z" />
    <glyph glyph-name="thaM" unicode="&#x62b;" horiz-adv-x="740" arabic-form="medial" 
d="M803 233q57 0 57 -119q-2 -117 -60 -117h-303q-117 3 -116 117q-8 -117 -121 -117h-320q-58 0 -58 117q-2 119 57 119h321v669q0 117 115 117q120 0 122 -120l-2 -666h308zM576 1319q29 -15 44 -44q16 -28 16 -58q0 -31 -16 -59q-15 -26 -42 -43q-29 -15 -59 -15t-58 15
q-28 17 -44 43q-15 28 -15 59q0 29 15 58q17 29 44 44q28 15 58 15q28 0 57 -15zM222 1334q28 0 57 -15t44 -44q16 -28 16 -58q0 -31 -16 -59q-15 -26 -42 -43q-29 -15 -59 -15t-58 15q-28 17 -44 43q-15 28 -15 59q0 29 15 58q17 29 45 44q27 15 57 15zM371 1340
q-31 0 -59 16q-26 15 -43 42q-15 28 -15 59q0 29 15 58q17 30 43 44q28 15 59 15q28 0 57 -15q27 -14 43 -44q17 -29 17 -58q0 -30 -17 -59q-15 -27 -42 -42q-28 -16 -58 -16z" />
    <glyph glyph-name="jeemF" unicode="&#x62c;" horiz-adv-x="1318" arabic-form="final" 
d="M1379 235q58 0 57 -117q0 -118 -60 -118h-1084q18 -81 115 -81h9q120 0 120 -119q0 -117 -118 -117h-6q-362 0 -362 354l2 80q0 118 115 118h749v234q0 319 -204 318h-440q-112 0 -112 117q2 119 114 119h435q442 0 442 -552v-236h228zM989 -302q-26 14 -43 44
q-15 27 -15 58q0 30 15 57q16 30 43 44q27 15 57 15q32 0 59 -15q27 -14 43 -44q17 -28 17 -57q0 -30 -17 -58q-16 -30 -43 -44q-29 -15 -59 -15q-29 0 -57 15z" />
    <glyph glyph-name="jeemI" unicode="&#x62c;" horiz-adv-x="1186" arabic-form="initial" 
d="M554 -317q-30 0 -57 15q-29 15 -44 44q-16 26 -16 58q0 30 15 57q17 30 43 44q28 15 59 15q29 0 58 -15q27 -15 42 -44q17 -28 17 -57q0 -30 -17 -58q-16 -30 -43 -44q-27 -15 -57 -15zM693 1023q443 0 443 -552v-354q0 -117 -117 -117h-1077q-60 0 -60 118
q-2 117 57 117h961v234q0 319 -204 318h-438q-114 0 -112 117q0 119 114 119h433z" />
    <glyph glyph-name="jeemM" unicode="&#x62c;" horiz-adv-x="1319" arabic-form="medial" 
d="M672 -303q-26 14 -43 44q-15 27 -15 58q0 30 15 57q16 30 43 44q27 15 57 15q32 0 59 -15q26 -14 43 -44q15 -27 15 -57q0 -31 -15 -58q-17 -30 -43 -44q-29 -15 -59 -15q-29 0 -57 15zM1380 234q58 0 57 -117q0 -118 -60 -118h-1437q-58 0 -58 118q-2 117 57 117h961
v234q0 319 -204 318h-439q-113 0 -113 117q2 119 114 119h435q443 0 443 -552v-236h244z" />
    <glyph glyph-name="haF" unicode="&#x62d;" horiz-adv-x="1318" arabic-form="final" 
d="M1379 235q58 0 57 -117q0 -118 -60 -118h-1084q18 -81 115 -81h9q120 0 120 -119q0 -117 -118 -117h-6q-362 0 -362 354l2 80q0 118 115 118h749v234q0 319 -204 318h-440q-112 0 -112 117q2 119 114 119h435q442 0 442 -552v-236h228z" />
    <glyph glyph-name="haI" unicode="&#x62d;" horiz-adv-x="1186" arabic-form="initial" 
d="M693 1023q443 0 443 -552v-354q0 -117 -117 -117h-1077q-60 0 -60 119q-2 117 57 117h961v234q0 319 -204 318h-438q-114 0 -112 117q0 118 114 118h433z" />
    <glyph glyph-name="haM" unicode="&#x62d;" horiz-adv-x="1319" arabic-form="medial" 
d="M1380 236q58 0 57 -117q0 -119 -60 -119h-1437q-58 0 -58 119q-2 117 57 117h961v234q0 319 -204 318h-439q-113 0 -113 117q1 118 114 118h435q443 0 443 -552v-235h244z" />
    <glyph glyph-name="khaF" unicode="&#x62e;" horiz-adv-x="1318" arabic-form="final" 
d="M463 1216q-28 16 -44 43q-15 28 -15 59q0 29 15 58t44 44q27 15 57 15q31 0 58 -15q29 -15 44 -44q16 -28 16 -58q0 -31 -16 -59q-14 -27 -44 -43q-29 -15 -58 -15t-57 15zM1379 235q58 0 57 -117q0 -118 -60 -118h-1084q18 -81 115 -81h9q120 0 120 -119
q0 -117 -118 -117h-6q-362 0 -362 354l2 80q0 118 115 118h749v234q0 319 -204 318h-440q-112 0 -112 117q2 119 114 119h435q442 0 442 -552v-236h228z" />
    <glyph glyph-name="khaI" unicode="&#x62e;" horiz-adv-x="1186" arabic-form="initial" 
d="M693 1023q443 0 443 -552v-354q0 -117 -117 -117h-1077q-60 0 -60 119q-2 117 57 117h961v234q0 319 -204 318h-438q-114 0 -112 117q0 118 114 118h433zM518 1215q-30 0 -57 15q-29 17 -44 44q-16 28 -16 58q0 31 16 59q14 27 44 43q27 15 57 15t57 -15q29 -15 45 -43
q15 -29 15 -59t-15 -58q-15 -27 -44 -44q-29 -15 -58 -15z" />
    <glyph glyph-name="khaM" unicode="&#x62e;" horiz-adv-x="1319" arabic-form="medial" 
d="M1380 236q58 0 57 -117q0 -119 -60 -119h-1437q-58 0 -58 119q-2 117 57 117h961v234q0 319 -204 318h-439q-113 0 -113 117q1 118 114 118h435q443 0 443 -552v-235h244zM569 1215q-32 0 -59 15q-27 16 -43 44q-17 29 -17 58q0 30 17 59q15 28 43 43t59 15q28 0 57 -15
q27 -15 43 -43q15 -29 15 -59t-15 -58q-16 -28 -43 -44q-29 -15 -57 -15z" />
    <glyph glyph-name="dalF" unicode="&#x62f;" horiz-adv-x="1328" arabic-form="final" 
d="M1390 236q59 0 57 -119q0 -117 -60 -117h-983q-354 0 -354 362v19q0 119 119 119q117 0 117 -120v-23q0 -121 121 -121h491v430q0 120 -120 120l-207 2q-119 0 -119 117t119 117l208 1q354 0 354 -363v-424h257z" />
    <glyph glyph-name="thalF" unicode="&#x630;" horiz-adv-x="1328" arabic-form="final" 
d="M1390 236q59 0 57 -119q0 -117 -60 -117h-983q-354 0 -354 362v19q0 119 119 119q117 0 117 -120v-23q0 -121 121 -121h491v430q0 120 -120 120l-207 2q-119 0 -119 117t119 117l208 1q354 0 354 -363v-424h257zM736 1103q-31 0 -59 16q-27 15 -42 42q-16 28 -16 59
q0 32 16 58q15 29 44 44q27 15 57 15t57 -15q27 -14 43 -44q17 -29 17 -58q0 -31 -15 -59q-16 -27 -44 -42q-28 -16 -58 -16z" />
    <glyph glyph-name="raF" unicode="&#x631;" horiz-adv-x="612" arabic-form="final" 
d="M443 237q128 -1 229 -3q58 0 60 -117q0 -117 -57 -117h-234q-21 -318 -352 -318l-90 2q-119 0 -119 115l2 2h-2q0 117 119 117h88q120 0 120 121v863q0 120 119 120q117 0 117 -119v-666v0z" />
    <glyph glyph-name="zaiF" unicode="&#x632;" horiz-adv-x="612" arabic-form="final" 
d="M443 237q128 -1 229 -3q58 0 60 -117q0 -117 -57 -117h-234q-21 -318 -352 -318l-90 2q-119 0 -119 115l2 2h-2q0 117 119 117h88q120 0 120 121v863q0 120 119 120q117 0 117 -119v-666zM329 1103q-31 0 -59 16q-27 15 -42 42q-16 28 -16 59q0 32 16 58q15 29 44 44
q27 15 57 15t57 -15q27 -14 43 -44q17 -29 17 -58q0 -31 -15 -59q-16 -27 -44 -42q-28 -16 -58 -16z" />
    <glyph glyph-name="seenF" unicode="&#x633;" horiz-adv-x="2326" arabic-form="final" 
d="M2387 235q58 0 57 -117q0 -118 -58 -118h-254q-117 3 -115 117q-9 -115 -122 -117h-307q-117 3 -116 117q-9 -116 -121 -117h-279q-18 -317 -360 -317h-305q-357 0 -357 354v389q0 123 117 123q115 0 117 -120v-395q0 -115 125 -115h307q120 0 120 120l2 868
q0 116 118 116q117 0 117 -119v-667h276l2 669q0 117 114 117q121 0 123 -120l-2 -666h308l1 669q0 117 114 117q121 0 123 -120l-1 -666z" />
    <glyph glyph-name="seenI" unicode="&#x633;" horiz-adv-x="1568" arabic-form="initial" 
d="M1283 903q0 120 118 120q117 0 117 -118v-543q0 -362 -354 -362h-187q-117 3 -116 117q-8 -116 -121 -117h-278q-117 3 -115 117q-7 -115 -122 -117h-285q-58 0 -60 119q0 117 59 117l286 1v669q0 117 116 117q119 0 121 -120l-1 -666h279v669q0 117 115 117
q120 0 122 -120l-2 -666l188 -1q120 0 120 121v546v0z" />
    <glyph glyph-name="seenM" unicode="&#x633;" horiz-adv-x="1562" arabic-form="medial" 
d="M1625 236q57 0 57 -117q-2 -119 -60 -119h-189q-117 3 -116 117q-8 -116 -121 -117h-308q-117 3 -115 117q-7 -115 -122 -117h-277q-117 3 -116 117q-8 -116 -121 -117h-195q-60 0 -60 119q-2 117 57 117l198 1v669q0 117 115 117q120 0 122 -120l-2 -666h279v669
q0 117 116 117q119 0 121 -120l-1 -666h309v669q0 117 115 117q120 0 122 -120l-2 -666z" />
    <glyph glyph-name="sheenF" unicode="&#x634;" horiz-adv-x="2326" arabic-form="final" 
d="M2387 235q58 0 57 -117q0 -118 -58 -118h-254q-117 3 -115 117q-9 -115 -122 -117h-307q-117 3 -116 117q-9 -116 -121 -117h-279q-18 -317 -360 -317h-305q-357 0 -357 354v389q0 123 117 123q115 0 117 -120v-395q0 -115 125 -115h307q120 0 120 120l2 868
q0 116 118 116q117 0 117 -119v-667h276l2 669q0 117 114 117q121 0 123 -120l-2 -666h308l1 669q0 117 114 117q121 0 123 -120l-1 -666zM1675 1321q28 -15 43 -43q17 -28 17 -59q0 -30 -15 -57q-16 -27 -44 -43q-29 -15 -58 -15q-31 0 -59 15q-27 15 -42 43q-16 26 -16 57
q0 33 16 59q14 27 44 43q27 15 57 15t57 -15zM1321 1336q30 0 57 -15q29 -15 45 -43q15 -27 15 -59q0 -30 -15 -57q-14 -27 -44 -43q-29 -15 -58 -15q-30 0 -57 15q-30 16 -44 43q-16 26 -16 57q0 33 16 59q14 27 44 43q27 15 57 15zM1469 1344q-30 0 -57 15q-28 15 -43 43
q-17 28 -17 57q0 31 17 60q16 30 43 44q27 15 57 15t57 -15q29 -15 44 -44q16 -28 16 -60q0 -30 -15 -57q-15 -28 -43 -43q-29 -15 -59 -15z" />
    <glyph glyph-name="sheenI" unicode="&#x634;" horiz-adv-x="1568" arabic-form="initial" 
d="M1283 903q0 120 118 120q117 0 117 -118v-543q0 -362 -354 -362h-187q-117 3 -116 117q-8 -116 -121 -117h-278q-117 3 -115 117q-7 -115 -122 -117h-285q-58 0 -60 119q0 117 59 117l286 1v669q0 117 116 117q119 0 121 -120l-1 -666h279v669q0 117 115 117
q120 0 122 -120l-2 -666l188 -1q120 0 120 121v546zM1062 1322q29 -15 44 -44q16 -26 16 -58q0 -31 -16 -57q-15 -29 -42 -44q-29 -15 -59 -15t-58 15q-27 15 -44 44q-15 27 -15 57q0 31 15 58q17 29 44 44q28 15 58 15q28 0 57 -15zM708 1337q30 0 57 -15q29 -15 44 -44
q16 -26 16 -58q0 -30 -15 -57q-17 -30 -43 -44q-29 -15 -59 -15t-58 15q-27 15 -42 44q-17 28 -17 57q0 30 17 58q16 30 43 44q27 15 57 15zM857 1344q-31 0 -59 15q-26 14 -43 44q-15 27 -15 57q0 31 15 60q16 28 45 43q27 15 57 15q28 0 57 -15q28 -15 43 -43
q17 -29 17 -60q0 -29 -17 -57q-15 -29 -42 -44q-29 -15 -58 -15z" />
    <glyph glyph-name="sheenM" unicode="&#x634;" horiz-adv-x="1562" arabic-form="medial" 
d="M1625 236q57 0 57 -117q-2 -119 -60 -119h-189q-117 3 -116 117q-8 -116 -121 -117h-308q-117 3 -115 117q-7 -115 -122 -117h-277q-117 3 -116 117q-8 -116 -121 -117h-195q-60 0 -60 119q-2 117 57 117l198 1v669q0 117 115 117q120 0 122 -120l-2 -666h279v669
q0 117 116 117q119 0 121 -120l-1 -666h309v669q0 117 115 117q120 0 122 -120l-2 -666zM987 1322q29 -15 44 -44q16 -26 16 -58q0 -31 -16 -57q-15 -29 -42 -44q-29 -15 -59 -15t-58 15q-27 15 -44 44q-15 27 -15 57q0 31 15 58q17 29 44 44q28 15 58 15q28 0 57 -15z
M633 1337q30 0 57 -15q29 -15 44 -44q16 -26 16 -58q0 -30 -15 -57q-17 -30 -43 -44q-29 -15 -59 -15t-58 15q-27 15 -42 44q-17 28 -17 57q0 30 17 58q16 30 43 44q27 15 57 15zM782 1344q-31 0 -59 15q-26 14 -43 44q-15 27 -15 57q0 31 15 60q16 28 45 43q27 15 57 15
q28 0 57 -15q28 -15 43 -43q17 -29 17 -60q0 -29 -17 -57q-15 -29 -42 -44q-29 -15 -58 -15z" />
    <glyph glyph-name="sadF" unicode="&#x635;" horiz-adv-x="2456" arabic-form="final" 
d="M2518 235q58 0 57 -117q0 -118 -60 -118h-1443q-18 -317 -360 -317h-305q-357 0 -357 354v389q0 123 117 123q116 -2 119 -120v-395q-1 -115 123 -115h307q122 0 122 120v969q0 117 118 117q117 0 117 -119v-22q28 39 93 39h666q354 0 354 -362v-426h332zM1073 787v-552
h876v431q0 121 -118 121h-758z" />
    <glyph glyph-name="sadI" unicode="&#x635;" horiz-adv-x="1516" arabic-form="initial" 
d="M1112 1023q354 0 354 -361v-543q0 -119 -117 -119h-1409q-58 0 -60 119q0 117 59 117h180v772q0 117 118 117q117 0 117 -118v-23q28 39 93 39h665zM354 788v-552h876v430q0 122 -120 122h-756z" />
    <glyph glyph-name="sadM" unicode="&#x635;" horiz-adv-x="1584" arabic-form="medial" 
d="M1647 236q57 0 57 -117q-2 -119 -60 -119h-1704q-58 0 -58 119q-2 117 57 117h180v772q0 117 118 117q117 0 117 -118v-23q28 39 93 39h666q354 0 354 -361v-426h180zM354 788v-552h876v430q0 122 -118 122h-758z" />
    <glyph glyph-name="dadF" unicode="&#x636;" horiz-adv-x="2456" arabic-form="final" 
d="M2518 235q58 0 57 -117q0 -118 -60 -118h-1443q-18 -317 -360 -317h-305q-357 0 -357 354v389q0 123 117 123q116 -2 119 -120v-395q-1 -115 123 -115h307q122 0 122 120v969q0 117 118 117q117 0 117 -119v-22q28 39 93 39h666q354 0 354 -362v-426h332zM1073 787v-552
h876v431q0 121 -118 121h-758zM1360 1323q26 -14 43 -44q15 -29 15 -60q0 -30 -15 -57q-15 -28 -43 -43q-27 -15 -57 -15q-32 0 -59 15t-43 43q-15 27 -15 57q0 31 15 60q17 30 43 44q28 15 59 15q28 0 57 -15z" />
    <glyph glyph-name="dadI" unicode="&#x636;" horiz-adv-x="1516" arabic-form="initial" 
d="M1112 1023q354 0 354 -361v-543q0 -119 -117 -119h-1409q-58 0 -60 119q0 117 59 117h180v772q0 117 118 117q117 0 117 -118v-23q28 39 93 39h665zM354 788v-552h876v430q0 122 -120 122h-756zM596 1323q28 -15 43 -43q17 -29 17 -60q0 -29 -17 -57q-15 -29 -42 -44
q-29 -15 -58 -15q-31 0 -59 15q-26 14 -43 44q-15 27 -15 57q0 31 15 60q16 28 43 43q28 15 59 15q28 0 57 -15z" />
    <glyph glyph-name="dadM" unicode="&#x636;" horiz-adv-x="1584" arabic-form="medial" 
d="M1647 236q57 0 57 -117q-2 -119 -60 -119h-1704q-58 0 -58 119q-2 117 57 117h180v772q0 117 118 117q117 0 117 -118v-23q28 39 93 39h666q354 0 354 -361v-426h180zM354 788v-552h876v430q0 122 -118 122h-758zM608 1323q27 -15 43 -43q15 -29 15 -60q0 -30 -15 -57
q-16 -30 -43 -44q-27 -15 -57 -15q-32 0 -59 15q-26 14 -43 44q-15 27 -15 57q0 31 15 60q16 28 43 43q28 15 59 15q28 0 57 -15z" />
    <glyph glyph-name="ttaF" unicode="&#x637;" horiz-adv-x="1628" arabic-form="final" 
d="M1691 238q57 0 57 -119q-2 -117 -60 -117h-1569q-119 0 -119 116q0 120 116 120h120v853q-119 0 -117 114q0 120 117 123l118 2q119 -3 119 -120v-221q29 35 90 35h666q354 0 354 -362v-424h108zM473 790v-552h873v429q0 121 -120 121z" />
    <glyph glyph-name="ttaI" unicode="&#x637;" horiz-adv-x="1511" arabic-form="initial" 
d="M1461 116q0 -116 -118 -116h-1346q-117 0 -117 116q0 120 116 120h120v853q-121 0 -119 114q0 120 119 123l118 2q117 -3 117 -120v-221q30 35 90 35h666q354 0 354 -362v-544zM351 788v-552h875v429q0 121 -120 121z" />
    <glyph glyph-name="ttaM" unicode="&#x637;" horiz-adv-x="1660" arabic-form="medial" 
d="M1667 236q59 0 57 -119q0 -117 -60 -117h-1669q-59 0 -60 117q0 119 57 119h122v854q-121 0 -119 114q0 120 119 123h117q118 -3 118 -120v-218q29 35 90 35h666q354 0 354 -362v-426h208zM349 790v-554h875v431q0 123 -120 123h-755z" />
    <glyph glyph-name="zaF" unicode="&#x638;" horiz-adv-x="1683" arabic-form="final" 
d="M1691 238q57 0 57 -119q-2 -119 -60 -119h-1569q-119 0 -119 118q0 120 116 120h120v853q-119 0 -117 114q0 120 117 123l118 2q119 -3 119 -120v-221q29 35 90 35h666q354 0 354 -362v-424h108zM473 790v-552h873v429q0 121 -120 121zM776 1324q26 -14 43 -44
q15 -29 15 -58q0 -31 -15 -59t-43 -43q-29 -15 -57 -15q-32 0 -59 15q-28 15 -43 43q-17 29 -17 59q0 29 17 58q16 30 43 44q28 15 59 15q28 0 57 -15z" />
    <glyph glyph-name="zaI" unicode="&#x638;" horiz-adv-x="1511" arabic-form="initial" 
d="M1461 118q0 -116 -118 -116h-1346q-117 0 -117 116q0 120 116 120h120v853q-121 0 -119 114q0 120 119 123l118 2q117 -3 117 -120v-221q30 35 90 35h666q354 0 354 -362v-544zM351 790v-552h875v429q0 121 -120 121zM654 1324q29 -15 44 -44q16 -28 16 -58
q0 -31 -16 -59q-15 -28 -42 -43q-29 -15 -59 -15t-58 15q-28 16 -44 43q-15 28 -15 59q0 29 15 58q17 29 44 44q28 15 58 15q28 0 57 -15z" />
    <glyph glyph-name="zaM" unicode="&#x638;" horiz-adv-x="1605" arabic-form="medial" 
d="M1612 236q59 0 57 -119q0 -117 -60 -117h-1669q-59 0 -60 117q0 119 57 119h122v854q-121 0 -119 114q0 120 119 123h117q118 -3 118 -120v-218q29 35 90 35h666q354 0 354 -362v-426h208zM294 790v-554h875v431q0 123 -120 123h-755zM597 1324q27 -15 44 -44
q15 -29 15 -58q0 -31 -15 -59q-14 -27 -44 -43q-27 -15 -57 -15q-31 0 -58 15q-28 16 -44 43q-15 28 -15 59q0 29 15 58q17 29 44 44q28 15 58 15q28 0 57 -15z" />
    <glyph glyph-name="ainF" unicode="&#x639;" horiz-adv-x="1632" arabic-form="final" 
d="M1640 236q57 0 57 -118q-1 -118 -60 -118h-585q-104 0 -117 90q-6 -90 -97 -90h-546q18 -81 115 -81h143q120 0 120 -117q0 -119 -119 -119h-139q-362 0 -362 354l2 80q0 119 115 119h414l-202 245q-39 44 -30 119v69q0 354 361 354h452q357 0 357 -354v-86
q1 -65 -30 -102l-203 -245h354zM706 787q-122 0 -122 -121v-63l315 -381q26 -31 35 -60q7 30 33 60l318 382v68q1 115 -123 115h-456z" />
    <glyph glyph-name="ainI" unicode="&#x639;" horiz-adv-x="1250" arabic-form="initial" 
d="M557 787q-120 0 -120 -115v-316q0 -120 120 -120h457q116 0 116 -120q0 -116 -119 -116h-1012q-119 0 -119 116q0 120 116 120h219q-7 29 -10.5 59.5t-3.5 65.5v308q0 355 356 355h457q116 0 116 -119q0 -117 -119 -117z" />
    <glyph glyph-name="ainM" unicode="&#x639;" horiz-adv-x="1397" arabic-form="medial" 
d="M1404 236q58 0 58 -116q-2 -120 -60 -120h-585q-103 0 -117 91q-8 -91 -97 -91h-608q-58 0 -60 119q0 117 57 117h353l-201 247q-39 43 -30 118v69q0 354 361 354h452q357 0 357 -354v-82v-3q1 -64 -32 -102l-201 -247h353zM469 789q-120 0 -120 -122v-63l315 -381
q25 -30 33 -60q9 29 35 60l318 383v67q0 116 -125 116h-456z" />
    <glyph glyph-name="ghainF" unicode="&#x63a;" horiz-adv-x="1632" arabic-form="final" 
d="M1640 236q57 0 57 -118q-1 -118 -60 -118h-585q-104 0 -117 90q-6 -90 -97 -90h-546q18 -81 115 -81h143q120 0 120 -117q0 -119 -119 -119h-139q-362 0 -362 354l2 80q0 119 115 119h414l-202 245q-39 44 -30 119v69q0 355 361 355h452q357 0 357 -355v-86
q1 -65 -30 -102l-203 -245h354zM706 787q-122 0 -122 -121v-63l315 -381q26 -31 35 -60q7 30 33 60l318 382v68q1 115 -123 115h-456zM946 1104q-30 0 -57 15q-30 16 -44 43q-16 26 -16 57q0 32 16 60q15 27 44 42q27 15 57 15t57 -15q28 -15 43 -42q17 -29 17 -60
q0 -30 -15 -57q-16 -27 -44 -43q-29 -15 -58 -15z" />
    <glyph glyph-name="ghainI" unicode="&#x63a;" horiz-adv-x="1250" arabic-form="initial" 
d="M645 1105q-30 0 -58 15q-27 15 -44 44q-15 27 -15 57q0 31 15 60q16 27 45 42q27 15 57 15q28 0 57 -15t44 -42q16 -28 16 -60q0 -30 -15 -57q-17 -30 -43 -44q-29 -15 -59 -15zM557 787q-120 0 -120 -115v-316q0 -120 120 -120h457q116 0 116 -120q0 -116 -119 -116
h-1012q-119 0 -119 116q0 120 116 120h219q-7 29 -10.5 59.5t-3.5 65.5v308q0 355 356 355h457q116 0 116 -119q0 -117 -119 -117z" />
    <glyph glyph-name="ghainM" unicode="&#x63a;" horiz-adv-x="1397" arabic-form="medial" 
d="M1404 236q58 0 58 -116q-2 -120 -60 -120h-585q-103 0 -117 91q-8 -91 -97 -91h-608q-58 0 -60 119q0 117 57 117h353l-201 247q-39 43 -30 118v69q0 354 361 354h452q357 0 357 -354v-82v-3q1 -64 -32 -102l-201 -247h353zM469 789q-120 0 -120 -122v-63l315 -381
q25 -30 33 -60q9 29 35 60l318 383v67q0 116 -125 116h-456zM699 1105q-31 0 -59 15q-27 15 -42 44q-16 26 -16 57q0 32 16 60q15 27 44 42q27 15 57 15t57 -15q28 -15 43 -42q17 -29 17 -60q0 -30 -15 -57q-17 -29 -44 -44q-29 -15 -58 -15z" />
    <glyph glyph-name="faF" unicode="&#x641;" horiz-adv-x="2044" arabic-form="final" 
d="M1373 1103q-31 0 -58 15q-30 17 -44 43q-16 28 -16 59q0 30 16 58q15 29 44 44q28 15 58 15q28 0 57 -15q27 -15 44 -44q15 -29 15 -58q0 -31 -15 -59q-14 -26 -44 -43q-29 -15 -57 -15zM2105 236q59 0 57 -119q0 -117 -58 -117h-1700q-354 0 -354 363v183q0 119 117 119
q119 0 119 -120v-186q0 -123 120 -123h553q-12 52 -12 118v315q0 355 356 355h156q355 0 355 -355v-433h291zM1184 357q0 -115 105 -121h290v436q0 114 -120 114h-159q-116 0 -116 -117v-312z" />
    <glyph glyph-name="faI" unicode="&#x641;" horiz-adv-x="1090" arabic-form="initial" 
d="M684 1024q356 0 356 -355v-552q0 -117 -117 -117h-983q-59 0 -60 117q0 119 57 119h249q-13 51 -13 118v315q0 355 355 355h156zM410 357q0 -121 115 -121h279v436q0 114 -120 114h-159q-115 0 -115 -117v-312zM600 1103q-31 0 -58 15q-28 17 -44 43q-15 28 -15 59
q0 29 15 58q17 29 44 44q28 15 58 15q28 0 57 -15q27 -15 44 -44q15 -29 15 -58q0 -31 -15 -59q-14 -26 -44 -43q-27 -15 -57 -15z" />
    <glyph glyph-name="faM" unicode="&#x641;" horiz-adv-x="1187" arabic-form="medial" 
d="M1248 236q59 0 59 -119q-2 -117 -60 -117h-1307q-59 0 -60 117q0 119 57 119h248q-12 52 -12 118v315q0 355 355 355h156q356 0 356 -355v-433h208zM410 357q0 -121 115 -121h279v436q0 114 -120 114h-159q-115 0 -115 -117v-312zM594 1103q-31 0 -58 15q-30 17 -44 43
q-16 28 -16 59q0 30 16 58q15 29 44 44q28 15 58 15q28 0 57 -15q27 -15 44 -44q15 -29 15 -58q0 -31 -15 -59q-14 -26 -44 -43q-27 -15 -57 -15z" />
    <glyph glyph-name="qafF" unicode="&#x642;" horiz-adv-x="2044" arabic-form="final" 
d="M1531 1103q-32 0 -59 15q-28 16 -43 43q-17 29 -17 59q0 29 17 58q16 30 43 44q28 15 59 15q28 0 57 -15q26 -14 43 -44q15 -29 15 -58q0 -31 -15 -59q-15 -27 -43 -43q-29 -15 -57 -15zM1234 1103q-32 0 -59 15q-27 16 -43 43q-15 28 -15 59q0 29 15 58q17 30 43 44
q28 15 59 15q28 0 57 -15q26 -14 43 -44q15 -29 15 -58q0 -31 -15 -59q-15 -27 -43 -43q-27 -15 -57 -15zM2105 236q59 0 57 -119q0 -117 -58 -117h-1700q-354 0 -354 363v183q0 119 117 119q119 0 119 -120v-186q0 -123 120 -123h553q-12 52 -12 118v315q0 355 356 355h156
q355 0 355 -355v-433h291zM1184 357q0 -115 105 -121h290v436q0 114 -120 114h-159q-116 0 -116 -117v-312z" />
    <glyph glyph-name="qafI" unicode="&#x642;" horiz-adv-x="1090" arabic-form="initial" 
d="M684 1023q356 0 356 -355v-551q0 -117 -117 -117h-983q-59 0 -60 117q0 119 57 119h248q-12 52 -12 118v314q0 355 355 355h156zM410 357q0 -121 115 -121h279v435q0 114 -120 114h-159q-115 0 -115 -117v-311zM756 1103q-31 0 -58 15q-30 17 -44 43q-16 28 -16 59
q0 30 16 58q15 29 44 44q28 15 58 15q28 0 57 -15q27 -15 44 -44q15 -29 15 -58q0 -31 -15 -59q-14 -26 -44 -43q-29 -15 -57 -15zM459 1103q-31 0 -58 15q-28 17 -44 43q-15 28 -15 59q0 29 15 58q17 29 44 44q28 15 58 15q28 0 57 -15q27 -15 44 -44q15 -29 15 -58
q0 -31 -15 -59q-14 -26 -44 -43q-27 -15 -57 -15z" />
    <glyph glyph-name="qafM" unicode="&#x642;" horiz-adv-x="1228" arabic-form="medial" 
d="M1230 236q58 0 58 -119q-2 -117 -60 -117h-1227q-59 0 -60 117q-2 119 57 119h195q-12 52 -12 118v315q0 355 356 355h156q355 0 355 -355v-433h182zM418 357q0 -121 116 -121h279v436q0 114 -120 114h-159q-116 0 -116 -117v-312zM763 1103q-30 0 -57 15q-28 16 -43 43
q-17 29 -17 59q0 29 17 58q16 30 43 44q27 15 57 15t57 -15q28 -15 45 -44q15 -29 15 -58q0 -31 -15 -59q-15 -27 -43 -43q-29 -15 -59 -15zM468 1103q-32 0 -59 15q-28 16 -43 43q-17 29 -17 59q0 29 17 58q16 30 43 44q28 15 59 15q28 0 57 -15q26 -14 43 -44
q15 -29 15 -58q0 -31 -15 -59q-15 -27 -43 -43q-29 -15 -57 -15z" />
    <glyph glyph-name="kafF" unicode="&#x643;" horiz-adv-x="1579" arabic-form="final" 
d="M1582 236q57 0 57 -118q-1 -118 -60 -118h-1170q-357 0 -357 353v105q-2 123 117 123q114 0 117 -120v-111q-2 -114 123 -114h754v975q0 116 119 116q117 0 117 -117v-974h183zM547 572q-39 0 -39 39t39 39h40q-6 21 -6 42v101q0 117 117 117h129q41 0 41 -39
q0 -38 -41 -38h-129q-39 0 -39 -42v-100q0 -41 41 -41h204q37 0 37 -39t-39 -39h-355z" />
    <glyph glyph-name="kafI" unicode="&#x643;" horiz-adv-x="1156" arabic-form="initial" 
d="M1036 116q0 -116 -118 -116h-919q-29 0 -43.5 27.5t-14.5 86.5q-1 60 13.5 91t43.5 31h803v426q0 121 -120 121l-383 2q-118 0 -118 115q0 31 8 55.5t29 48.5l363 460q38 48 81.5 50t88.5 -38q86 -76 7 -166l-228 -291h153q354 0 354 -362v-541z" />
    <glyph glyph-name="kafM" unicode="&#x643;" horiz-adv-x="1218" arabic-form="medial" 
d="M1220 236q59 0 57 -120q0 -116 -60 -116h-1217q-59 0 -60 116q0 120 57 120h804v426q0 121 -120 121l-382 1q-119 0 -119 116q0 31 9 55.5t29 48.5l364 460q38 48 80.5 50t87.5 -38q88 -76 9 -166l-229 -291h154q354 0 354 -362v-421h182z" />
    <glyph glyph-name="lamF" unicode="&#x644;" horiz-adv-x="1343" arabic-form="final" 
d="M1346 236q57 0 57 -119q-2 -117 -60 -117h-180q-20 -318 -361 -318h-393q-357 0 -357 354v389q-1 124 117 124q116 -2 117 -121v-395q0 -114 124 -114h398q121 0 121 120v1172q0 116 119 116q115 0 115 -117v-974h183z" />
    <glyph glyph-name="lamI" unicode="&#x644;" horiz-adv-x="536" arabic-form="initial" 
d="M181 1211q0 116 118 116q117 0 117 -119v-1089q0 -119 -117 -119h-298q-58 0 -60 119q-2 117 57 117h183v975v0z" />
    <glyph glyph-name="lamM" unicode="&#x644;" horiz-adv-x="596" arabic-form="medial" 
d="M599 236q57 0 57 -119q-2 -117 -60 -117h-179q-117 3 -116 117q-8 -117 -121 -117h-181q-58 0 -58 117q-2 119 57 119h182v974q0 117 115 117q120 0 122 -120v-971h182z" />
    <glyph glyph-name="meemF" unicode="&#x645;" horiz-adv-x="1508" arabic-form="final" 
d="M1507 236q60 0 60 -118q1 -118 -57 -118h-696q-307 0 -348 276h-60q-120 0 -120 -122v-351q0 -120 -117 -120q-119 0 -119 119v348q0 361 354 361h56v157q0 356 355 356h156q356 0 356 -354v-434h180zM1091 673q0 114 -120 114h-159q-115 0 -115 -117v-312
q0 -122 120 -122h274v437z" />
    <glyph glyph-name="meemI" unicode="&#x645;" horiz-adv-x="1168" arabic-form="initial" 
d="M693 1023q355 0 355 -354v-307q0 -362 -354 -362h-276q-116 4 -115 118q-9 -116 -122 -118h-182q-58 0 -58 118q-2 118 57 118h183v432q0 355 354 355h158zM811 672q0 114 -118 114h-159q-117 0 -117 -117v-433h276q118 0 118 122v314z" />
    <glyph glyph-name="meemM" unicode="&#x645;" horiz-adv-x="1229" arabic-form="medial" 
d="M1229 236q59 0 59 -118q1 -118 -57 -118h-1233q-58 0 -57 118q0 118 58 118h196q-7 29 -10.5 60t-3.5 66v308q0 354 356 354h157q354 0 354 -355v-433h181zM418 358q0 -122 119 -122h276v434q0 117 -117 117h-159q-119 0 -119 -114v-315z" />
    <glyph glyph-name="noonF" unicode="&#x646;" horiz-adv-x="1354" arabic-form="final" 
d="M607 790q-31 0 -59 16q-27 15 -42 44q-16 26 -16 57q0 32 16 58q15 29 44 44q27 15 57 15t57 -15q27 -14 43 -44q17 -28 17 -58t-15 -57q-17 -29 -44 -44q-28 -16 -58 -16zM1415 236q59 0 57 -119q0 -117 -60 -117h-250q-18 -318 -362 -318h-393q-357 0 -357 354v389
q0 124 117 124q116 -2 119 -121v-395q-1 -115 123 -115h397q120 0 120 121l2 870q0 115 118 115q117 0 117 -118v-670h252z" />
    <glyph glyph-name="noonI" unicode="&#x646;" horiz-adv-x="552" arabic-form="initial" 
d="M197 908q0 116 118 116q117 0 117 -117v-788q0 -119 -117 -119h-375q-58 0 -58 117q-2 119 57 119h258v672zM305 1097q-33 0 -59 16q-26 15 -43 42q-15 28 -15 59q0 29 15 58q17 30 43 44q28 15 59 15q28 0 57 -15q26 -14 43 -44q15 -29 15 -58q0 -31 -15 -59
q-15 -27 -43 -42q-26 -16 -57 -16z" />
    <glyph glyph-name="noonM" unicode="&#x646;" horiz-adv-x="740" arabic-form="medial" 
d="M371 1097q-31 0 -59 16q-26 15 -43 42q-15 28 -15 59q0 29 15 58q17 30 43 44q28 15 59 15q28 0 57 -15q27 -14 43 -44q17 -29 17 -58q0 -30 -17 -59q-15 -27 -42 -42q-28 -16 -58 -16zM803 236q57 0 57 -119q-2 -117 -60 -117h-303q-117 3 -116 117q-8 -117 -121 -117
h-320q-58 0 -58 117q-2 119 57 119h321v671q0 117 115 117q120 0 122 -120v-668h306z" />
    <glyph glyph-name="haaF" unicode="&#x647;" horiz-adv-x="1100" arabic-form="final" 
d="M1099 236q58 0 60 -119q1 -117 -57 -117h-696q-356 0 -356 356v313q0 355 351 355h178q27 0 55.5 -17.5t48.5 -43.5q0 119 117 119q119 0 119 -119v-727h180zM683 236v550h-94h-186q-117 0 -117 -120v-313q0 -117 117 -117h280z" />
    <glyph glyph-name="haaI" unicode="&#x647;" horiz-adv-x="1624" arabic-form="initial" 
d="M-4 0q-60 0 -60 119q-2 117 57 117h195q-5 23 -8 48.5t-5 54.5v324q0 361 354 361h204v17q0 116 118 116q117 0 117 -119v-14h182q354 0 354 -361v-548q0 -115 -118 -115h-1390zM733 788h-203q-120 0 -120 -122v-309q0 -121 120 -121h203v552zM968 236h299v430
q0 122 -120 122h-179v-552z" />
    <glyph glyph-name="haaM" unicode="&#x647;" horiz-adv-x="1689" arabic-form="medial" 
d="M1688 236q58 0 60 -117q2 -119 -57 -119h-1690q-60 0 -60 119q-2 117 57 117h195q-5 23 -8 48.5t-5 54.5v324q0 361 354 361h204v17q0 116 118 116q117 0 117 -119v-14h182q354 0 354 -361v-427h179zM738 788h-203q-120 0 -120 -122v-309q0 -121 120 -121h203v552z
M973 236h299v430q0 122 -120 122h-179v-552z" />
    <glyph glyph-name="wawF" unicode="&#x648;" horiz-adv-x="1165" arabic-form="final" 
d="M1167 236q59 0 57 -118q0 -118 -60 -118h-180q-21 -317 -352 -317h-90q-119 0 -119 117v2q0 117 119 117h88q98 0 116 81h-275q-351 0 -351 354v314q0 356 354 356h156q356 0 356 -356v-432h181zM750 673q0 114 -120 114h-159q-115 0 -115 -119v-311q0 -121 115 -121h279
v437z" />
    <glyph glyph-name="alefmaqF" unicode="&#x649;" horiz-adv-x="1955" arabic-form="final" 
d="M1958 236q57 0 57 -119q-2 -117 -60 -117h-300q-118 0 -118 120v547q0 120 -119 120h-75v-665q0 -60 -31 -91t-102 -31h-801q-357 0 -357 354v44q-2 123 117 123q115 -2 117 -120v-50q0 -115 124 -115h698v671q0 117 118 117h194q354 0 354 -363v-425h184z" />
    <glyph glyph-name="yaF" unicode="&#x64a;" horiz-adv-x="1955" arabic-form="final" 
d="M1958 236q57 0 57 -119q-2 -117 -60 -117h-300q-118 0 -118 120v547q0 120 -119 120h-75v-665q0 -60 -31 -91t-102 -31h-801q-357 0 -357 354v44q-2 123 117 123q115 -2 117 -120v-50q0 -115 124 -115h698v671q0 117 118 117h194q354 0 354 -363v-425h184zM169 891
q-31 0 -59 15q-27 16 -43 44q-15 28 -15 58q0 28 15 57q16 28 43 44q28 15 59 15q29 0 58 -15q27 -15 42 -44q17 -28 17 -57q0 -30 -17 -58q-15 -28 -42 -44q-29 -15 -58 -15zM169 594q-31 0 -59 15q-27 16 -43 44q-15 28 -15 58q0 28 15 57q16 30 43 44q28 16 59 16
q30 0 58 -16q27 -15 42 -42q17 -29 17 -59q0 -29 -17 -58q-15 -28 -42 -44q-29 -15 -58 -15z" />
    <glyph glyph-name="yaI" unicode="&#x64a;" horiz-adv-x="499" arabic-form="initial" 
d="M180 909q0 115 118 115q117 0 117 -117v-789q0 -118 -117 -118h-299q-58 0 -58 117q-2 119 57 119h182v673zM335 -89q28 -16 44 -43q15 -29 15 -59t-15 -58q-15 -27 -44 -44q-27 -15 -57 -15q-31 0 -58 15q-27 17 -44 44q-15 28 -15 58t15 59q16 27 44 43q28 15 58 15
q28 0 57 -15zM-19 -74q28 0 57 -15q28 -16 44 -43q15 -29 15 -59t-15 -58q-15 -27 -44 -44q-27 -15 -57 -15q-31 0 -58 15q-27 17 -44 44q-15 28 -15 58t15 59q16 27 44 43q28 15 58 15z" />
    <glyph glyph-name="yaM" unicode="&#x64a;" horiz-adv-x="596" arabic-form="medial" 
d="M599 236q57 0 57 -119q-2 -117 -60 -117h-179q-117 3 -116 117q-8 -117 -121 -117h-181q-58 0 -58 117q-2 119 57 119h182v668q0 117 115 117q120 0 122 -120v-665h182zM496 -89q30 -16 44 -43q16 -28 16 -59q0 -30 -16 -58q-15 -28 -42 -44q-29 -15 -59 -15t-58 15
q-27 17 -44 44q-15 28 -15 58t15 59q16 27 44 43q28 15 58 15q28 0 57 -15zM142 -74q28 0 57 -15q30 -16 44 -43q16 -28 16 -59q0 -30 -16 -58q-15 -28 -42 -44q-29 -15 -59 -15t-58 15q-27 17 -44 44q-15 28 -15 58t15 59q16 28 45 43q27 15 57 15z" />
    <glyph glyph-name="shaddaA.dammatanA" unicode="&#xfc5e;" arabic-form="isolated" 
d="M-269 403q-9 24 9 35l48 31q-2 1 -6 5q-3 3 -4 5q-2 3 -5 6.5t-5 7.5q-16 28 -16 63q0 106 80 106q79 0 79 -106q0 -70 -48 -97l-106 -68q-5 -3 -8 -3q-14 0 -18 15zM-208 556q0 -18 8 -32q4 -4 5 -6q1 -1 1 -1.5t1 -1.5q10 -12 6 -30l35 22q24 13 24 49q0 53 -40 53
t-40 -53zM99 491q-17 34 18 51q34 16 51 -18l74 -159q49 -105 -54 -153l-20 -9l-36 -16q-34 -15 -49 18q13 -34 -20 -51l-46 -21q-104 -48 -153 57l-42 93q-17 34 18 51q34 15 51 -20l43 -94q16 -35 51 -18l47 21l-62 130q-15 35 18 50q36 17 53 -18l60 -129l36 16l18 8
q34 16 18 52zM-75 463q-9 24 9 35l48 31q-3 1 -7 5q-1 1 -1.5 2t-2.5 3l-4.5 6.5t-4.5 7.5q-16 28 -16 63q0 106 79 106q80 0 80 -106q0 -70 -48 -97l-107 -68q-3 -3 -7 -3q-14 0 -18 15zM-14 616q0 -18 8 -32q1 -2 2 -3t2 -3l3 -3q10 -12 6 -30l34 22q24 13 24 49
q0 53 -40 53q-39 0 -39 -53z" />
    <glyph glyph-name="shaddaA.kasratanB" unicode="&#xfc5f;" arabic-form="isolated" 
d="M42 719q-17 34 18 51q34 16 51 -18l74 -159q49 -105 -54 -153l-18 -9l-36 -16q-35 -15 -50 18q14 -35 -19 -51l-47 -21q-104 -48 -153 57l-43 93q-17 34 18 51q34 15 51 -20l43 -94q17 -35 53 -18l45 21l-60 130q-17 35 18 50q34 16 51 -18l60 -129l36 16l19 8
q34 16 18 52zM-96 117q-17 36 20 53l259 124q35 18 53 -18q16 -35 -20 -52l-258 -125q-8 -4 -18 -4q-26 0 -36 22zM-136 219q-16 34 19 52l258 125q36 16 54 -20q16 -36 -19 -52l-258 -125q-9 -3 -18 -3q-25 0 -36 23z" />
    <glyph glyph-name="shaddaA.fathaA" unicode="&#xfc60;" arabic-form="isolated" 
d="M68 465q-17 34 18 51q34 16 51 -18l74 -159q49 -105 -54 -153l-20 -9l-36 -16q-34 -15 -49 18q13 -34 -20 -51l-46 -21q-104 -48 -153 57l-42 93q-17 34 18 51q34 15 51 -20l43 -94q16 -35 51 -18l47 21l-62 130q-15 35 18 50q36 17 53 -18l60 -129l36 16l18 8
q34 16 18 52zM-262 443q-18 36 18 52l260 125q35 16 52 -20q18 -34 -18 -52l-259 -125q-8 -3 -17 -3q-25 0 -36 23z" />
    <glyph glyph-name="shaddaA.dammaA" unicode="&#xfc61;" arabic-form="isolated" 
d="M96 467q-15 34 18 51q34 16 51 -18l73 -159q49 -105 -54 -153l-18 -9l-36 -16q-34 -15 -49 18q13 -34 -20 -51l-46 -21q-104 -48 -153 57l-44 93q-17 34 18 51q34 15 51 -20l44 -94q16 -34 52 -18l45 21l-60 130q-17 35 18 50q34 16 51 -18l60 -129l36 16l20 8
q34 16 18 52zM-260 385q-16 34 20 52l96 47q-7 2 -12 7q-3 2 -9 8q-5 5 -9 9.5t-9 9.5q-32 43 -32 96q0 159 159 159t159 -159q0 -105 -96 -147l-213 -102q-9 -3 -18 -3q-24 0 -36 23zM-135 614q0 -28 16 -48q3 -5 9 -10l5 -3q21 -18 12 -45l69 33q48 21 48 73q0 80 -80 80
q-79 0 -79 -80z" />
    <glyph glyph-name="shaddaA.kasraB" unicode="&#xfc62;" arabic-form="isolated" 
d="M55 578q-17 34 18 51q34 16 51 -18l74 -159q49 -105 -54 -153l-18 -9l-36 -16q-35 -15 -50 18q14 -35 -19 -51l-47 -21q-104 -48 -153 57l-43 93q-17 34 18 51q34 15 51 -20l43 -94q17 -35 53 -18l45 21l-60 130q-17 35 18 50q34 16 51 -18l60 -129l36 16l19 8
q34 16 18 52zM-63 118q-16 34 19 52l258 125q36 16 54 -20q16 -36 -19 -52l-258 -125q-9 -3 -18 -3q-25 0 -36 23z" />
    <glyph glyph-name=".notdef" horiz-adv-x="1024" 
d="M100 0v1434h824v-1434h-824zM150 50h724v1334h-724v-1334zM325 1148q31 28 58 43q52 30 112 30q46 0 83.5 -12.5t64.5 -35t41.5 -55t14.5 -72.5q0 -48 -23 -99q-23 -50 -87 -129l-57 -72.5t-42 -59.5t-26.5 -51t-9.5 -48q0 -39 24 -133h-32q-35 99 -35 148q0 75 81 218
q82 142 82 217q0 57 -33 90t-91 33q-37 0 -69 -17q-13 -8 -27 -17.5t-29 -22.5v45zM446 392q10 10 20 10q9 0 22 -11l56 -60q9 -11 9 -20q0 -12 -10 -22l-56 -62q-14 -14 -21 -14q-11 0 -20 10l-61 71q-7 8 -7 18q0 9 11 22z" />
    <glyph glyph-name="NULL" 
 />
    <glyph glyph-name="nonmarkingreturn" horiz-adv-x="508" 
 />
    <glyph glyph-name="space" unicode=" " horiz-adv-x="450" 
 />
    <glyph glyph-name="space" unicode="&#xa0;" horiz-adv-x="450" 
 />
    <glyph glyph-name="exclam" unicode="!" horiz-adv-x="733" 
d="M487 438q0 -122 -119 -122q-121 0 -121 122v795q-1 124 120 128q120 -8 120 -125v-798zM360 235q24 0 45.5 -9.5t38 -25.5t26 -38t9.5 -46q0 -25 -9.5 -46.5t-26 -37.5t-38 -25t-45.5 -9t-45.5 9t-38 25t-26 37.5t-9.5 46.5q0 24 9.5 46t26 38t38 25.5t45.5 9.5z" />
    <glyph glyph-name="quotedbl" unicode="&#x22;" horiz-adv-x="1044" 
d="M725 1578q117 3 117 -158v-166q-1 -156 -117 -158q-122 3 -120 158v166q-2 161 120 158zM323 1578q118 3 118 -158v-166q-1 -156 -118 -158q-120 3 -118 158v166q-2 161 118 158z" />
    <glyph glyph-name="numbersign" unicode="#" horiz-adv-x="1438" 
d="M1079 218q0 -122 -119 -122q-121 0 -121 122v795q-1 124 120 128q120 -8 120 -126v-797zM1115 498q122 0 122 -118q0 -122 -122 -122h-795q-123 -1 -127 120q6 120 125 120h797zM1115 978q122 0 122 -118q0 -122 -122 -122h-795q-123 -1 -127 120q6 120 125 120h797z
M599 218q0 -122 -119 -122q-121 0 -121 122v795q-1 124 120 128q120 -8 120 -126v-797z" />
    <glyph glyph-name="dollar" unicode="$" horiz-adv-x="1360" 
d="M1078 1121q-3 -118 -117 -121h-402q-122 0 -122 -156q0 -129 123 -129h235q360 -5 359 -384q-1 -370 -359 -372l-401 1q-116 -2 -117 111q1 123 116 125h402q119 0 120 133q0 145 -118 146h-236q-362 -2 -362 374q-1 391 358 391l401 -1q120 0 120 -118zM790 -81
q0 -122 -119 -122q-121 0 -121 122v1352q-1 124 120 128q120 -8 120 -126v-1354z" />
    <glyph glyph-name="percent" unicode="%" horiz-adv-x="1306" 
d="M367 -61q-62 -105 -164 -45q-104 62 -42 167l728 1233q61 106 168 48q101 -68 39 -169zM633 114q0 244 243 244q241 0 241 -242q0 -244 -241 -244q-243 0 -243 242zM1001 110q0 119 -121 119q-119 0 -119 -119q0 -124 119 -124q121 0 121 124zM132 1124q0 245 242 245
t242 -243q0 -244 -243 -244q-241 0 -241 242zM499 1120q0 119 -122 119q-117 0 -117 -119q0 -123 117 -123q122 0 122 123z" />
    <glyph glyph-name="ampersand" unicode="&#x26;" horiz-adv-x="1264" 
d="M566 -31q-362 0 -362 365v194q1 124 124 122q-123 2 -124 123q0 478 406 478h204q114 0 116 -120q0 -119 -115 -119h-209q-162 1 -162 -241h282q360 0 360 -439q0 -363 -364 -363h-156zM444 329q0 -119 118 -119h162q122 0 122 123q0 198 -123 198h-279v-202zM1006 768
q160 1 159 -119q1 -118 -159 -118h-321q-158 3 -159 118q4 121 159 119h321zM848 326v-320q-2 -155 118 -158q116 2 119 158v320q0 162 -119 160q-119 1 -118 -160z" />
    <glyph glyph-name="quotesingle" unicode="'" horiz-adv-x="645" 
d="M323 1578q118 3 118 -158v-166q-1 -156 -118 -158q-120 3 -118 158v166q-2 161 118 158z" />
    <glyph glyph-name="parenleft" unicode="(" horiz-adv-x="699" 
d="M500 -164q95 -2 95 -122q0 -118 -102 -118q-295 0 -295 368v1027q0 363 299 363q97 1 97 -119q-2 -118 -104 -119q-52 1 -52 -126v-1032q0 -122 62 -122z" />
    <glyph glyph-name="parenright" unicode=")" horiz-adv-x="698" 
d="M98 -286q0 121 94 122q63 0 63 122v1032q0 127 -52 126q-102 1 -104 119q0 120 96 119q300 0 300 -363v-1027q0 -368 -295 -368q-102 0 -102 118z" />
    <glyph glyph-name="asterisk" unicode="*" horiz-adv-x="880" 
d="M589 1187q-61 -49 -113 17l-199 253q-46 61 14 110q66 47 111 -13l199 -253q52 -66 -12 -114zM583 1569q64 -45 15 -115l-189 -259q-47 -62 -110 -18q-65 51 -18 111l188 260q49 69 114 21zM685 1381q3 -80 -83 -80h-321q-76 1 -78 80q3 80 78 80h321q86 0 83 -80z" />
    <glyph glyph-name="plus" unicode="+" horiz-adv-x="1043" 
d="M522 1190q119 2 119 -159v-321q-3 -156 -119 -158q-121 3 -119 158v321q-1 160 119 159zM841 870q1 -118 -159 -118h-321q-156 1 -158 118q3 122 158 120h321q160 1 159 -120z" />
    <glyph glyph-name="comma" unicode="," horiz-adv-x="719" 
d="M365 239q157 1 157 -160v-320q-3 -157 -157 -158q-162 3 -160 158v320q-1 161 160 160z" />
    <glyph glyph-name="hyphen" unicode="-" horiz-adv-x="1043" 
d="M841 920q1 -118 -159 -118h-321q-156 1 -158 118q3 122 158 120h321q160 1 159 -120z" />
    <glyph glyph-name="hyphen" unicode="&#xad;" horiz-adv-x="1043" 
d="M841 920q1 -118 -159 -118h-321q-156 1 -158 118q3 122 158 120h321q160 1 159 -120z" />
    <glyph glyph-name="period" unicode="." horiz-adv-x="720" 
d="M362 319q30 2 59 -11t51.5 -35.5t35.5 -52t12 -60.5q1 -30 -12 -59t-35.5 -51.5t-51.5 -36t-59 -11.5q-31 -2 -60.5 11.5t-52 36t-35.5 51.5t-11 59q-2 31 11 60.5t35.5 52t52 35.5t60.5 11z" />
    <glyph glyph-name="slash" unicode="/" horiz-adv-x="614" 
d="M185 -269q-39 -115 -151 -76q-115 39 -76 154l463 1354q37 118 154 82q111 -45 74 -157l-464 -1357v0z" />
    <glyph glyph-name="zero" unicode="0" horiz-adv-x="1082" 
d="M100 921q0 361 361 361h159q362 0 362 -360v-554q0 -368 -360 -368h-164q-358 0 -358 360v561zM458 1041q-118 0 -118 -119v-559q0 -123 118 -123h162q122 0 122 123v562q0 116 -122 116h-162z" />
    <glyph glyph-name="one" unicode="1" horiz-adv-x="1210" 
d="M710 126q0 -122 -118 -122q-122 0 -122 122v916q-122 0 -120 117q0 121 120 123l120 2q120 -2 120 -121v-1037v0z" />
    <glyph glyph-name="two" unicode="2" horiz-adv-x="1082" 
d="M100 1156q0 122 118 122h402q362 0 362 -360v-34q0 -368 -360 -368q-278 0 -278 -157v-122h525q108 -4 110 -119q0 -117 -109 -118h-650q-117 0 -116 124v232q1 402 516 400q122 0 122 123v42q0 116 -122 116h-399q-121 1 -121 119z" />
    <glyph glyph-name="three" unicode="3" horiz-adv-x="1082" 
d="M100 116q0 121 118 121l401 1q123 0 123 122v199l-362 1q-121 0 -119 116q0 123 121 124l360 -1v239l-519 -1q-120 3 -122 119q0 120 125 120h636q120 0 120 -120v-356q-5 -119 -120 -117q118 -8 120 -123v-194q0 -368 -360 -368h-402q-120 0 -120 118z" />
    <glyph glyph-name="four" unicode="4" horiz-adv-x="1082" 
d="M863 1278q119 0 119 -122v-1039q0 -119 -120 -119t-120 122v200h-282q-360 0 -360 368v470q0 120 120 120t120 -122v-472q0 -124 122 -124h280v596q0 122 121 122z" />
    <glyph glyph-name="five" unicode="5" horiz-adv-x="1001" 
d="M900 1162q-2 -120 -117 -121h-441v-238l199 -1q358 -4 357 -403q-2 -398 -357 -399l-324 1q-115 -1 -117 110q2 125 116 126h323q119 0 121 161q0 163 -118 164l-322 -2q-117 0 -119 116l-1 481q0 124 132 124l548 -1q120 0 120 -118z" />
    <glyph glyph-name="six" unicode="6" horiz-adv-x="1082" 
d="M462 -1q-362 0 -362 366v438q0 478 406 478h204q114 0 116 -120q0 -119 -115 -119h-209q-162 1 -162 -241h282q360 0 360 -439q0 -363 -364 -363h-156zM340 359q0 -119 118 -119h162q122 0 122 123q0 198 -123 198h-279v-202z" />
    <glyph glyph-name="seven" unicode="7" horiz-adv-x="1001" 
d="M218 843q-118 0 -118 121v200q0 118 120 118l320 1q360 0 360 -368v-797q0 -120 -120 -120t-120 122v800q0 123 -122 123h-198v-79q0 -121 -122 -121z" />
    <glyph glyph-name="eight" unicode="8" horiz-adv-x="1082" 
d="M100 922q0 360 361 360h159q362 0 362 -352q0 -368 -360 -368h-164q-358 0 -358 360zM458 1041q-118 0 -118 -119q0 -120 118 -120h162q122 0 122 123q0 116 -122 116h-162zM100 441q0 361 361 361h159q362 0 362 -360v-74q0 -368 -360 -368h-164q-358 0 -358 360v81z
M458 561q-118 0 -118 -119v-79q0 -123 118 -123h162q122 0 122 123v82q0 116 -122 116h-162z" />
    <glyph glyph-name="nine" unicode="9" horiz-adv-x="1082" 
d="M620 1281q362 0 362 -365v-355q0 -562 -406 -562h-204q-115 0 -116 120q-2 119 114 119h210q162 -2 162 324h-282q-360 0 -360 356q0 363 364 363h156zM742 921q0 120 -119 120h-161q-122 0 -122 -124q0 -115 122 -115h280v119z" />
    <glyph glyph-name="colon" unicode=":" horiz-adv-x="720" 
d="M362 958q30 2 59 -11t51.5 -35.5t35.5 -52t12 -60.5q1 -31 -12 -60t-35.5 -51.5t-51.5 -35.5t-59 -11q-31 -2 -60.5 11t-52 35.5t-35.5 51.5t-11 60q-2 31 11 60.5t35.5 52t52 35.5t60.5 11zM362 319q30 2 59 -11t51.5 -35.5t35.5 -52t12 -60.5q1 -30 -12 -59
t-35.5 -51.5t-51.5 -36t-59 -11.5q-31 -2 -60.5 11.5t-52 36t-35.5 51.5t-11 59q-2 31 11 60.5t35.5 52t52 35.5t60.5 11z" />
    <glyph glyph-name="semicolon" unicode=";" horiz-adv-x="719" 
d="M365 878q30 2 58.5 -11t51 -35.5t36 -52t11.5 -60.5q2 -31 -11 -60t-35 -51.5t-51 -35.5t-60 -11q-32 -2 -61 11t-51.5 35.5t-35.5 51.5t-12 60q-2 31 11.5 60.5t36 52t52 35.5t60.5 11zM365 239q157 1 157 -160v-320q-3 -157 -157 -158q-162 3 -160 158v320
q-1 161 160 160z" />
    <glyph glyph-name="semicolon" unicode="&#x37e;" horiz-adv-x="719" 
d="M365 878q30 2 58.5 -11t51 -35.5t36 -52t11.5 -60.5q2 -31 -11 -60t-35 -51.5t-51 -35.5t-60 -11q-32 -2 -61 11t-51.5 35.5t-35.5 51.5t-12 60q-2 31 11.5 60.5t36 52t52 35.5t60.5 11zM365 239q157 1 157 -160v-320q-3 -157 -157 -158q-162 3 -160 158v320
q-1 161 160 160z" />
    <glyph glyph-name="less" unicode="&#x3c;" horiz-adv-x="1441" 
d="M1240 218q0 -118 -121 -118l-839 324q-74 28 -78 75q-5 46 3 87q7 40 75 75l840 321q120 0 120 -120q0 -76 -42 -98q-21 -11 -181.5 -67l-459.5 -157q601 -200 640 -225q42 -26 43 -97z" />
    <glyph glyph-name="equal" unicode="=" horiz-adv-x="1041" 
d="M849 717q1 -118 -160 -118h-320q-157 1 -159 118q3 120 159 119h320q162 1 160 -119zM841 1039q1 -118 -159 -118h-321q-156 1 -158 118q3 121 158 118h321q160 3 159 -118z" />
    <glyph glyph-name="greater" unicode="&#x3e;" horiz-adv-x="1442" 
d="M320 100q-122 0 -122 118q1 71 43 97q39 25 640 225l-459.5 157t-181.5 67q-42 22 -42 98q0 120 120 120l842 -321q68 -35 74 -75q4 -20 4 -42t-2 -45q-5 -47 -76 -75l-840 -324v0z" />
    <glyph glyph-name="question" unicode="?" horiz-adv-x="1082" 
d="M100 1235q0 123 118 123h402q362 0 362 -361v-34q0 -368 -360 -368q-87 0 -87 -157q0 -122 -120 -122t-120 119q1 403 325 400q122 0 122 123v42q0 116 -122 116h-399q-121 1 -121 119zM415 238q24 0 45.5 -9.5t38 -25.5t26 -38t9.5 -47q1 -23 -9 -44.5t-26.5 -38.5
t-38.5 -26.5t-45 -8.5q-23 -1 -45 8.5t-38.5 26.5t-26.5 38.5t-9 44.5q0 25 9.5 47t26 38t38 25.5t45.5 9.5z" />
    <glyph glyph-name="at" unicode="@" horiz-adv-x="1610" 
d="M1044 791q84 0 84 -89v-583q-2 -62 60 -65q57 -2 56 65l1 674q0 112 -119 114l-370 -1q-382 0 -384 -380v-169q2 -380 377 -380q92 0 90 -92q0 -83 -88 -82q-551 0 -553 554l1 171q-1 553 551 553l376 3q292 0 292 -294l2 -694q-5 -209 -232 -211q-233 2 -233 211l-1 115
q-9 -115 -204 -115q-262 0 -262 267v163q0 265 265 265h291zM752 616q-89 0 -89 -90v-167q0 -89 89 -89h203v346h-203z" />
    <glyph glyph-name="A" unicode="A" horiz-adv-x="1082" 
d="M978 120q0 -122 -117 -122q-123 0 -123 122v199l-397 1l-1 -200q0 -122 -120 -122t-120 120v552q0 368 360 368l398 -1q120 0 120 -118v-799zM738 560v238h-276q-122 0 -122 -123v-115h398z" />
    <glyph glyph-name="B" unicode="B" horiz-adv-x="1082" 
d="M218 -2q-118 0 -118 122v1121q0 119 120 119t120 -122v-200h282q360 0 360 -368v-312q0 -360 -362 -360h-402zM620 239q122 0 122 116v320q0 123 -122 123h-280v-559h280z" />
    <glyph glyph-name="C" unicode="C" horiz-adv-x="1082" 
d="M864 237q118 0 118 -121q0 -118 -120 -118h-402q-360 0 -360 368v309q0 363 360 363h395q126 1 126 -119q-2 -118 -123 -119h-401q-117 0 -117 -126v-314q0 -122 122 -122l402 -1v0z" />
    <glyph glyph-name="D" unicode="D" horiz-adv-x="1082" 
d="M982 120q0 -122 -118 -122h-402q-362 0 -362 360v312q0 368 360 368h282v200q0 122 120 122t120 -119v-1121zM742 239v559h-280q-122 0 -122 -123v-320q0 -116 122 -116h280z" />
    <glyph glyph-name="E" unicode="E" horiz-adv-x="1082" 
d="M864 237q118 0 118 -121q0 -118 -120 -118h-402q-360 0 -360 368v552q0 120 120 120h635q126 1 126 -119q-2 -118 -123 -119h-518v-160l359 2q122 -2 122 -124q1 -117 -119 -117l-362 -1v-40q0 -122 122 -122l402 -1v0z" />
    <glyph glyph-name="F" unicode="F" horiz-adv-x="758" 
d="M662 1240q0 -121 -118 -121l-82 -1q-122 0 -122 -122v-118l199 1q122 -3 122 -119q0 -120 -126 -120h-195v-523q2 -121 -120 -119q-120 0 -120 120v872q0 368 360 368h82q120 0 120 -118z" />
    <glyph glyph-name="G" unicode="G" horiz-adv-x="1082" 
d="M864 960q118 0 118 -121v-887q0 -354 -360 -354h-250q-115 0 -116 120q-2 119 114 119h286q86 -2 86 83h-282q-360 0 -360 368v308q0 364 364 364h400zM462 720q-122 0 -122 -124v-312q0 -124 122 -124h280v560h-280z" />
    <glyph glyph-name="H" unicode="H" horiz-adv-x="1082" 
d="M218 -2q-118 0 -118 122v1121q0 119 120 119t120 -122v-200h282q360 0 360 -368v-552q0 -120 -120 -120t-120 122v555q0 123 -122 123h-280v-678q0 -122 -122 -122z" />
    <glyph glyph-name="I" unicode="I" horiz-adv-x="563" 
d="M462 122q0 -122 -119 -122q-121 0 -121 122v676q-122 0 -120 116q0 122 120 124l120 2q120 -2 120 -121v-797zM335 1359q23 1 45 -8t38.5 -26t26.5 -39t9 -46q1 -23 -9 -44.5t-26.5 -38.5t-38.5 -26.5t-45 -8.5q-23 -1 -45 8.5t-38.5 26.5t-26.5 38.5t-9 44.5q-1 24 9 46
t26.5 39t38.5 26t45 8z" />
    <glyph glyph-name="J" unicode="J" horiz-adv-x="508" 
d="M-150 -281q0 120 118 120l82 1q122 0 122 122v759q-122 2 -123 118q0 120 126 119l117 2q120 0 120 -120v-873q0 -367 -360 -367h-82q-120 0 -120 119zM288 1279q23 1 45 -8t38.5 -26t26.5 -39t9 -46q1 -23 -8.5 -44.5t-26 -38.5t-38.5 -26.5t-46 -8.5q-24 -1 -46 8.5
t-38.5 26.5t-26 38.5t-8.5 44.5q-1 24 9 46t26.5 39t38.5 26t45 8z" />
    <glyph glyph-name="K" unicode="K" horiz-adv-x="1082" 
d="M218 -2q-118 0 -118 122v1121q0 119 120 119t120 -122v-200h282q360 0 360 -368q0 -275 -132 -350l69 -82q47 -41 44 -126q-1 -112 -123 -112q-82 -1 -118 57l-184 262q-117 1 -120 123q0 117 117 117l85 -1q120 0 122 117q0 123 -122 123h-280v-675q-5 -124 -122 -125z
" />
    <glyph glyph-name="L" unicode="L" horiz-adv-x="563" 
d="M100 1240q0 122 118 122q122 0 122 -122v-998q121 0 120 -117q0 -122 -120 -123l-120 -2q-120 1 -120 121v1119v0z" />
    <glyph glyph-name="M" unicode="M" horiz-adv-x="1560" 
d="M1100 1038q360 0 360 -368v-552q0 -120 -120 -120t-120 122v555q0 123 -122 123h-200l2 -680q0 -120 -120 -120t-120 122v555q0 123 -122 123h-198v-677q0 -121 -122 -121q-118 0 -118 121v798q0 118 122 121z" />
    <glyph glyph-name="N" unicode="N" horiz-adv-x="1082" 
d="M218 0q-118 0 -118 121v798q0 118 120 118l402 1q360 0 360 -368v-552q0 -120 -120 -120t-120 122v555q0 123 -122 123h-280v-677q0 -121 -122 -121z" />
    <glyph glyph-name="O" unicode="O" horiz-adv-x="1082" 
d="M100 678q0 362 361 362h159q362 0 362 -361v-311q0 -368 -360 -368h-164q-358 0 -358 360v318zM458 798q-118 0 -118 -119v-316q0 -123 118 -123h162q122 0 122 123v319q0 116 -122 116h-162z" />
    <glyph glyph-name="P" unicode="P" horiz-adv-x="1082" 
d="M100 837q0 122 118 122h402q362 0 362 -360v-312q0 -368 -360 -368h-282v-200q0 -122 -120 -122t-120 119v1121zM340 718v-559h280q122 0 122 124v319q0 116 -122 116h-280z" />
    <glyph glyph-name="Q" unicode="Q" horiz-adv-x="1082" 
d="M864 959q118 0 118 -122v-1121q0 -119 -120 -119t-120 122v200h-282q-360 0 -360 368v312q0 360 362 360h402zM462 718q-122 0 -122 -116v-319q0 -124 122 -124h280v559h-280z" />
    <glyph glyph-name="R" unicode="R" horiz-adv-x="1001" 
d="M900 720q0 -122 -118 -122q-122 0 -122 122v78h-198q-122 0 -122 -123v-555q0 -122 -120 -122t-120 120v552q0 368 360 368l320 -1q120 0 120 -118v-199v0z" />
    <glyph glyph-name="S" unicode="S" horiz-adv-x="1001" 
d="M900 919q-1 -118 -117 -121h-321q-122 0 -122 -81q0 -77 123 -77h78q359 -6 357 -320q-1 -318 -357 -320l-324 1q-115 -1 -117 110q2 125 116 126h323q119 0 121 81q0 80 -118 81h-78q-362 -2 -362 323q-1 316 358 316h320q120 0 120 -119z" />
    <glyph glyph-name="T" unicode="T" horiz-adv-x="758" 
d="M544 237q118 0 118 -121q0 -118 -120 -118h-82q-360 0 -360 368v792q0 120 120 120q121 1 120 -120v-119l195 -1q126 1 126 -119q0 -117 -122 -119h-199v-440q0 -122 122 -122l82 -1v0z" />
    <glyph glyph-name="U" unicode="U" horiz-adv-x="1082" 
d="M864 1041q118 0 118 -122v-801q0 -118 -120 -118l-402 1q-360 0 -360 368v552q0 120 120 120t120 -122v-555q0 -123 122 -123h280v678q0 122 122 122z" />
    <glyph glyph-name="V" unicode="V" horiz-adv-x="890" 
d="M766 1041q118 0 118 -122l-324 -840q-28 -72 -76 -77q-45 -4 -88 2q-40 7 -73 75l-321 842q0 120 120 120q75 0 98 -42q11 -21 67 -181.5l157 -459.5q199 597 224 639q26 41 98 44z" />
    <glyph glyph-name="W" unicode="W" horiz-adv-x="1560" 
d="M460 0q-360 0 -360 368v552q0 120 120 120t120 -122v-555q0 -123 122 -123h200l-2 680q0 120 120 120t120 -122v-555q0 -123 122 -123h198v676q0 122 122 122q118 0 118 -122v-797q0 -119 -122 -121z" />
    <glyph glyph-name="X" unicode="X" horiz-adv-x="1068" 
d="M132 834q-81 92 7 171q91 79 173 -12l217 -277l218 277q82 91 172 12q89 -80 8 -171l-245 -312l246 -313q79 -91 -8 -173q-91 -79 -171 11l-220 280l-220 -280q-79 -90 -170 -11q-87 82 -8 173l246 313l-245 312v0z" />
    <glyph glyph-name="Y" unicode="Y" horiz-adv-x="1082" 
d="M864 960q118 0 118 -121v-887q0 -354 -360 -354h-250q-115 0 -116 120q-2 119 114 119h286q86 -2 86 83h-282q-360 0 -360 368v552q0 120 120 120t120 -121v-555q0 -124 122 -124h280v679q0 121 122 121z" />
    <glyph glyph-name="Z" unicode="Z" horiz-adv-x="1074" 
d="M834 1041q71 -3 106 -59t-30 -148l-464 -596h389q117 0 117 -121q1 -117 -116 -117h-643q-79 -1 -110 68t31 142l467 589h-379q-129 -2 -129 116q0 123 127 123l634 3v0z" />
    <glyph glyph-name="bracketleft" unicode="[" horiz-adv-x="710" 
d="M202 1238q0 123 118 123l122 -1q121 -1 119 -120q3 -119 -119 -121v-1281q121 0 120 -117q0 -122 -120 -123l-120 -2q-120 1 -120 121v1521v0z" />
    <glyph glyph-name="backslash" unicode="\" horiz-adv-x="614" 
d="M572 -345q-112 -39 -152 76l-463 1357q-37 112 73 157q116 36 155 -82l462 -1354q40 -115 -75 -154z" />
    <glyph glyph-name="bracketright" unicode="]" horiz-adv-x="710" 
d="M389 1361q119 0 119 -123v-1521q0 -120 -120 -121l-120 2q-120 1 -120 123q-2 117 120 117v1281q-121 1 -120 121q-2 118 120 120l121 1v0z" />
    <glyph glyph-name="asciicircum" unicode="^" horiz-adv-x="1048" 
d="M525 1724l285 -167q38 -29 37 -80q0 -77 -81 -78q-43 0 -82 19l-164 100l-156 -99q-30 -18 -80 -20q-81 6 -80 82q0 49 40 79z" />
    <glyph glyph-name="underscore" unicode="_" horiz-adv-x="1361" 
d="M1166 116q3 -118 -158 -118h-647q-156 1 -158 118q3 121 158 119h647q161 2 158 -119z" />
    <glyph glyph-name="grave" unicode="`" horiz-adv-x="1236" 
d="M811 1592q147 -52 108 -166q-41 -108 -189 -56l-301 111q-152 56 -109 166q39 113 191 56z" />
    <glyph glyph-name="a" unicode="a" horiz-adv-x="1082" 
d="M978 120q0 -122 -117 -122q-123 0 -123 122v199l-397 1l-1 -200q0 -122 -120 -122t-120 120v552q0 368 360 368l398 -1q120 0 120 -118v-799zM738 560v238h-276q-122 0 -122 -123v-115h398z" />
    <glyph glyph-name="b" unicode="b" horiz-adv-x="1082" 
d="M218 -2q-118 0 -118 122v1121q0 119 120 119t120 -122v-200h282q360 0 360 -368v-312q0 -360 -362 -360h-402zM620 239q122 0 122 116v320q0 123 -122 123h-280v-559h280z" />
    <glyph glyph-name="c" unicode="c" horiz-adv-x="1082" 
d="M864 237q118 0 118 -121q0 -118 -120 -118h-402q-360 0 -360 368v309q0 363 360 363h395q126 1 126 -119q-2 -118 -123 -119h-401q-117 0 -117 -126v-314q0 -122 122 -122l402 -1v0z" />
    <glyph glyph-name="d" unicode="d" horiz-adv-x="1082" 
d="M982 120q0 -122 -118 -122h-402q-362 0 -362 360v312q0 368 360 368h282v200q0 122 120 122t120 -119v-1121zM742 239v559h-280q-122 0 -122 -123v-320q0 -116 122 -116h280z" />
    <glyph glyph-name="e" unicode="e" horiz-adv-x="1082" 
d="M864 237q118 0 118 -121q0 -118 -120 -118h-402q-360 0 -360 368v552q0 120 120 120h635q126 1 126 -119q-2 -118 -123 -119h-518v-160l359 2q122 -2 122 -124q1 -117 -119 -117l-362 -1v-40q0 -122 122 -122l402 -1v0z" />
    <glyph glyph-name="f" unicode="f" horiz-adv-x="758" 
d="M662 1240q0 -121 -118 -121l-82 -1q-122 0 -122 -122v-118l199 1q122 -3 122 -119q0 -120 -126 -120h-195v-523q2 -121 -120 -119q-120 0 -120 120v872q0 368 360 368h82q120 0 120 -118z" />
    <glyph glyph-name="g" unicode="g" horiz-adv-x="1082" 
d="M864 960q118 0 118 -121v-887q0 -354 -360 -354h-250q-115 0 -116 120q-2 119 114 119h286q86 -2 86 83h-282q-360 0 -360 368v308q0 364 364 364h400zM462 720q-122 0 -122 -124v-312q0 -124 122 -124h280v560h-280z" />
    <glyph glyph-name="h" unicode="h" horiz-adv-x="1082" 
d="M218 -2q-118 0 -118 122v1121q0 119 120 119t120 -122v-200h282q360 0 360 -368v-552q0 -120 -120 -120t-120 122v555q0 123 -122 123h-280v-678q0 -122 -122 -122z" />
    <glyph glyph-name="i" unicode="i" horiz-adv-x="563" 
d="M462 122q0 -122 -119 -122q-121 0 -121 122v676q-122 0 -120 116q0 122 120 124l120 2q120 -2 120 -121v-797zM335 1359q23 1 45 -8t38.5 -26t26.5 -39t9 -46q1 -23 -9 -44.5t-26.5 -38.5t-38.5 -26.5t-45 -8.5q-23 -1 -45 8.5t-38.5 26.5t-26.5 38.5t-9 44.5q-1 24 9 46
t26.5 39t38.5 26t45 8z" />
    <glyph glyph-name="j" unicode="j" horiz-adv-x="508" 
d="M-150 -281q0 120 118 120l82 1q122 0 122 122v759q-122 2 -123 118q0 120 126 119l117 2q120 0 120 -120v-873q0 -367 -360 -367h-82q-120 0 -120 119zM288 1279q23 1 45 -8t38.5 -26t26.5 -39t9 -46q1 -23 -8.5 -44.5t-26 -38.5t-38.5 -26.5t-46 -8.5q-24 -1 -46 8.5
t-38.5 26.5t-26 38.5t-8.5 44.5q-1 24 9 46t26.5 39t38.5 26t45 8z" />
    <glyph glyph-name="k" unicode="k" horiz-adv-x="1082" 
d="M218 -2q-118 0 -118 122v1121q0 119 120 119t120 -122v-200h282q360 0 360 -368q0 -275 -132 -350l69 -82q47 -41 44 -126q-1 -112 -123 -112q-82 -1 -118 57l-184 262q-117 1 -120 123q0 117 117 117l85 -1q120 0 122 117q0 123 -122 123h-280v-675q-5 -124 -122 -125z
" />
    <glyph glyph-name="l" unicode="l" horiz-adv-x="563" 
d="M100 1240q0 122 118 122q122 0 122 -122v-998q121 0 120 -117q0 -122 -120 -123l-120 -2q-120 1 -120 121v1119v0z" />
    <glyph glyph-name="m" unicode="m" horiz-adv-x="1560" 
d="M1100 1038q360 0 360 -368v-552q0 -120 -120 -120t-120 122v555q0 123 -122 123h-200l2 -680q0 -120 -120 -120t-120 122v555q0 123 -122 123h-198v-677q0 -121 -122 -121q-118 0 -118 121v798q0 118 122 121z" />
    <glyph glyph-name="n" unicode="n" horiz-adv-x="1082" 
d="M218 0q-118 0 -118 121v798q0 118 120 118l402 1q360 0 360 -368v-552q0 -120 -120 -120t-120 122v555q0 123 -122 123h-280v-677q0 -121 -122 -121z" />
    <glyph glyph-name="o" unicode="o" horiz-adv-x="1082" 
d="M100 678q0 362 361 362h159q362 0 362 -361v-311q0 -368 -360 -368h-164q-358 0 -358 360v318zM458 798q-118 0 -118 -119v-316q0 -123 118 -123h162q122 0 122 123v319q0 116 -122 116h-162z" />
    <glyph glyph-name="p" unicode="p" horiz-adv-x="1082" 
d="M100 837q0 122 118 122h402q362 0 362 -360v-312q0 -368 -360 -368h-282v-200q0 -122 -120 -122t-120 119v1121zM340 718v-559h280q122 0 122 124v319q0 116 -122 116h-280z" />
    <glyph glyph-name="q" unicode="q" horiz-adv-x="1082" 
d="M864 959q118 0 118 -122v-1121q0 -119 -120 -119t-120 122v200h-282q-360 0 -360 368v312q0 360 362 360h402zM462 718q-122 0 -122 -116v-319q0 -124 122 -124h280v559h-280z" />
    <glyph glyph-name="r" unicode="r" horiz-adv-x="1001" 
d="M900 720q0 -122 -118 -122q-122 0 -122 122v78h-198q-122 0 -122 -123v-555q0 -122 -120 -122t-120 120v552q0 368 360 368l320 -1q120 0 120 -118v-199v0z" />
    <glyph glyph-name="s" unicode="s" horiz-adv-x="1001" 
d="M900 919q-1 -118 -117 -121h-321q-122 0 -122 -81q0 -77 123 -77h78q359 -6 357 -320q-1 -318 -357 -320l-324 1q-115 -1 -117 110q2 125 116 126h323q119 0 121 81q0 80 -118 81h-78q-362 -2 -362 323q-1 316 358 316h320q120 0 120 -119z" />
    <glyph glyph-name="t" unicode="t" horiz-adv-x="758" 
d="M544 237q118 0 118 -121q0 -118 -120 -118h-82q-360 0 -360 368v792q0 120 120 120q121 1 120 -120v-119l195 -1q126 1 126 -119q0 -117 -122 -119h-199v-440q0 -122 122 -122l82 -1v0z" />
    <glyph glyph-name="u" unicode="u" horiz-adv-x="1082" 
d="M864 1041q118 0 118 -122v-801q0 -118 -120 -118l-402 1q-360 0 -360 368v552q0 120 120 120t120 -122v-555q0 -123 122 -123h280v678q0 122 122 122z" />
    <glyph glyph-name="v" unicode="v" horiz-adv-x="890" 
d="M766 1041q118 0 118 -122l-324 -840q-28 -72 -76 -77q-45 -4 -88 2q-40 7 -73 75l-321 842q0 120 120 120q75 0 98 -42q11 -21 67 -181.5l157 -459.5q199 597 224 639q26 41 98 44z" />
    <glyph glyph-name="w" unicode="w" horiz-adv-x="1560" 
d="M460 0q-360 0 -360 368v552q0 120 120 120t120 -122v-555q0 -123 122 -123h200l-2 680q0 120 120 120t120 -122v-555q0 -123 122 -123h198v676q0 122 122 122q118 0 118 -122v-797q0 -119 -122 -121z" />
    <glyph glyph-name="x" unicode="x" horiz-adv-x="1068" 
d="M132 834q-81 92 7 171q91 79 173 -12l217 -277l218 277q82 91 172 12q89 -80 8 -171l-245 -312l246 -313q79 -91 -8 -173q-91 -79 -171 11l-220 280l-220 -280q-79 -90 -170 -11q-87 82 -8 173l246 313l-245 312v0z" />
    <glyph glyph-name="y" unicode="y" horiz-adv-x="1082" 
d="M864 960q118 0 118 -121v-887q0 -354 -360 -354h-250q-115 0 -116 120q-2 119 114 119h286q86 -2 86 83h-282q-360 0 -360 368v552q0 120 120 120t120 -121v-555q0 -124 122 -124h280v679q0 121 122 121z" />
    <glyph glyph-name="z" unicode="z" horiz-adv-x="1074" 
d="M834 1041q71 -3 106 -59t-30 -148l-464 -596h389q117 0 117 -121q1 -117 -116 -117h-643q-79 -1 -110 68t31 142l467 589h-379q-129 -2 -129 116q0 123 127 123l634 3v0z" />
    <glyph glyph-name="braceleft" unicode="{" horiz-adv-x="981" 
 />
    <glyph glyph-name="bar" unicode="|" horiz-adv-x="1044" 
 />
    <glyph glyph-name="braceright" unicode="}" horiz-adv-x="981" 
 />
    <glyph glyph-name="asciitilde" unicode="~" horiz-adv-x="1060" 
d="M232 1595q165 77 320 -3q165 -80 322 7q59 30 60 -79q3 -56 -59 -83q-162 -85 -319 -3q-164 80 -320 -10q-56 -24 -57 82q-2 62 53 89z" />
    <glyph glyph-name="exclamdown" unicode="&#xa1;" horiz-adv-x="733" 
d="M241 920q0 122 118 122q122 0 122 -122v-796q1 -123 -120 -126q-120 6 -120 125v797zM367 1124q-22 -2 -43.5 7.5t-38.5 26.5t-27 39t-9 46q-1 23 8.5 44.5t26.5 38.5t38.5 26.5t44.5 8.5q24 1 46 -8.5t38.5 -26.5t26.5 -38.5t9 -44.5q1 -24 -8.5 -46t-26.5 -39
t-39 -26.5t-46 -7.5z" />
    <glyph glyph-name="cent" unicode="&#xa2;" horiz-adv-x="874" 
 />
    <glyph glyph-name="sterling" unicode="&#xa3;" horiz-adv-x="1005" 
d="M890 1157q0 -120 -118 -120l-238 -1q-123 0 -123 -123v-198l204 -1q120 0 119 -117q0 -122 -122 -124l-201 2v-239l519 1q120 -3 122 -120q0 -120 -125 -118h-755q-119 0 -119 119q2 119 118 119v671q0 368 360 368h239q120 0 120 -119z" />
    <glyph glyph-name="currency" unicode="&#xa4;" horiz-adv-x="1366" 
 />
    <glyph glyph-name="yen" unicode="&#xa5;" horiz-adv-x="1024" 
 />
    <glyph glyph-name="brokenbar" unicode="&#xa6;" horiz-adv-x="1044" 
 />
    <glyph glyph-name="section" unicode="&#xa7;" horiz-adv-x="961" 
 />
    <glyph glyph-name="dieresis" unicode="&#xa8;" horiz-adv-x="682" 
 />
    <glyph glyph-name="copyright" unicode="&#xa9;" horiz-adv-x="1556" 
 />
    <glyph glyph-name="ordfeminine" unicode="&#xaa;" horiz-adv-x="532" 
 />
    <glyph glyph-name="guillemotleft" unicode="&#xab;" horiz-adv-x="834" 
 />
    <glyph glyph-name="logicalnot" unicode="&#xac;" horiz-adv-x="1366" 
 />
    <glyph glyph-name="registered" unicode="&#xae;" horiz-adv-x="1366" 
 />
    <glyph glyph-name="macron" unicode="&#xaf;" horiz-adv-x="1556" 
 />
    <glyph glyph-name="degree" unicode="&#xb0;" horiz-adv-x="682" 
 />
    <glyph glyph-name="plusminus" unicode="&#xb1;" horiz-adv-x="811" 
 />
    <glyph glyph-name="uni00B2" unicode="&#xb2;" horiz-adv-x="946" 
 />
    <glyph glyph-name="uni00B3" unicode="&#xb3;" horiz-adv-x="618" 
 />
    <glyph glyph-name="acute" unicode="&#xb4;" horiz-adv-x="618" 
 />
    <glyph glyph-name="mu" unicode="&#xb5;" horiz-adv-x="682" 
 />
    <glyph glyph-name="paragraph" unicode="&#xb6;" horiz-adv-x="1024" 
 />
    <glyph glyph-name="periodcentered" unicode="&#xb7;" horiz-adv-x="918" 
 />
    <glyph glyph-name="periodcentered" unicode="&#x2219;" horiz-adv-x="918" 
 />
    <glyph glyph-name="cedilla" unicode="&#xb8;" horiz-adv-x="532" 
 />
    <glyph glyph-name="uni00B9" unicode="&#xb9;" horiz-adv-x="682" 
 />
    <glyph glyph-name="ordmasculine" unicode="&#xba;" horiz-adv-x="618" 
 />
    <glyph glyph-name="guillemotright" unicode="&#xbb;" horiz-adv-x="705" 
 />
    <glyph glyph-name="onequarter" unicode="&#xbc;" horiz-adv-x="834" 
 />
    <glyph glyph-name="onehalf" unicode="&#xbd;" horiz-adv-x="1473" 
 />
    <glyph glyph-name="threequarters" unicode="&#xbe;" horiz-adv-x="1473" 
 />
    <glyph glyph-name="questiondown" unicode="&#xbf;" horiz-adv-x="1473" 
 />
    <glyph glyph-name="Agrave" unicode="&#xc0;" horiz-adv-x="1082" 
d="M978 120q0 -122 -117 -122q-123 0 -123 122v199l-397 1l-1 -200q0 -122 -120 -122t-120 120v552q0 368 360 368l398 -1q120 0 120 -118v-799zM738 560v238h-276q-122 0 -122 -123v-115h398zM776 1321q145 -52 108 -166q-42 -108 -190 -56l-300 111q-152 56 -109 166
q39 113 190 56z" />
    <glyph glyph-name="Aacute" unicode="&#xc1;" horiz-adv-x="1082" 
d="M978 120q0 -122 -117 -122q-123 0 -123 122v199l-397 1l-1 -200q0 -122 -120 -122t-120 120v552q0 368 360 368l398 -1q120 0 120 -118v-799zM738 560v238h-276q-122 0 -122 -123v-115h398zM882 1376q43 -111 -108 -166l-301 -111q-149 -53 -190 56q-37 114 107 166
l302 111q149 57 190 -56z" />
    <glyph glyph-name="Acircumflex" unicode="&#xc2;" horiz-adv-x="1082" 
d="M978 120q0 -122 -117 -122q-123 0 -123 122v199l-397 1l-1 -200q0 -122 -120 -122t-120 120v552q0 368 360 368l398 -1q120 0 120 -118v-799zM738 560v238h-276q-122 0 -122 -123v-115h398zM581 1444l285 -167q37 -29 36 -81q0 -75 -80 -77q-43 0 -82 19l-164 100
l-157 -99q-28 -18 -79 -20q-83 5 -81 82q0 49 40 79z" />
    <glyph glyph-name="Atilde" unicode="&#xc3;" horiz-adv-x="1082" 
d="M978 120q0 -122 -117 -122q-123 0 -123 122v199l-397 1l-1 -200q0 -122 -120 -122t-120 120v552q0 368 360 368l398 -1q120 0 120 -118v-799zM738 560v238h-276q-122 0 -122 -123v-115h398zM216 1316q164 77 319 -3q165 -81 322 7q58 30 61 -80q2 -56 -60 -82
q-162 -86 -318 -3q-165 80 -322 -10q-55 -24 -56 82q0 62 54 89z" />
    <glyph glyph-name="Adieresis" unicode="&#xc4;" horiz-adv-x="1082" 
d="M978 120q0 -122 -117 -122q-123 0 -123 122v199l-397 1l-1 -200q0 -122 -120 -122t-120 120v552q0 368 360 368l398 -1q120 0 120 -118v-799zM738 560v238h-276q-122 0 -122 -123v-115h398zM742 1359q22 1 43.5 -8.5t38.5 -26t27 -38.5t9 -46q1 -24 -8.5 -46t-26.5 -38.5
t-38.5 -26t-44.5 -8.5q-25 0 -46.5 9.5t-38 25.5t-26 38t-9.5 46t9.5 46t26 38t38.5 25.5t46 9.5zM334 1359q22 1 43.5 -8.5t38.5 -26t27 -38.5t9 -46q1 -24 -8.5 -46t-26.5 -38.5t-38.5 -26t-44.5 -8.5q-25 0 -46.5 9.5t-38 25.5t-26 38t-9.5 46t9.5 46t26 38t38.5 25.5
t46 9.5z" />
    <glyph glyph-name="Aring" unicode="&#xc5;" horiz-adv-x="1082" 
d="M978 120q0 -122 -117 -122q-123 0 -123 122v199l-397 1l-1 -200q0 -122 -120 -122t-120 120v552q0 368 360 368l398 -1q120 0 120 -118v-799zM738 560v238h-276q-122 0 -122 -123v-115h398zM503 1277q0 -32 24 -54.5t55 -22.5q32 0 54.5 22.5t22.5 54.5q0 34 -23.5 56.5
t-53.5 22.5q-31 0 -55 -22.5t-24 -56.5zM582 1437q30 1 59.5 -11.5t52 -35t35.5 -52t12 -61.5q2 -31 -11 -60.5t-35.5 -52t-52 -35.5t-60.5 -11q-32 -2 -61 11t-51.5 35.5t-35.5 52t-12 60.5q-2 32 11.5 61.5t36 52t52 35t60.5 11.5z" />
    <glyph glyph-name="AE" unicode="&#xc6;" horiz-adv-x="2118" 
 />
    <glyph glyph-name="Ccedilla" unicode="&#xc7;" horiz-adv-x="1082" 
d="M864 156q118 0 118 -121q0 -118 -120 -118h-402q-360 0 -360 368v309q0 363 360 363h395q126 1 126 -119q-2 -118 -123 -119h-401q-117 0 -117 -126v-314q0 -122 122 -122zM668 -371q0 -36 -34 -36h-118q-106 0 -106 106v10q0 107 105 107h26v47q0 35 35 35q34 0 34 -35
v-80q0 -37 -36 -37h-58q-36 0 -36 -36v-12q0 -34 36 -34h117q35 -2 35 -35z" />
    <glyph glyph-name="Egrave" unicode="&#xc8;" horiz-adv-x="1082" 
d="M864 237q118 0 118 -121q0 -118 -120 -118h-402q-360 0 -360 368v552q0 120 120 120h635q126 1 126 -119q-2 -118 -123 -119h-518v-160l359 2q122 -2 122 -124q1 -117 -119 -117l-362 -1v-40q0 -122 122 -122zM846 1376q43 -110 -109 -166l-301 -111q-149 -53 -190 56
q-37 114 108 166l301 111q150 57 191 -56z" />
    <glyph glyph-name="Eacute" unicode="&#xc9;" horiz-adv-x="1082" 
d="M864 237q118 0 118 -121q0 -118 -120 -118h-402q-360 0 -360 368v552q0 120 120 120h635q126 1 126 -119q-2 -118 -123 -119h-518v-160l359 2q122 -2 122 -124q1 -117 -119 -117l-362 -1v-40q0 -122 122 -122zM846 1376q43 -110 -109 -166l-301 -111q-149 -53 -190 56
q-37 114 108 166l301 111q150 57 191 -56z" />
    <glyph glyph-name="Ecircumflex" unicode="&#xca;" horiz-adv-x="1082" 
d="M864 237q118 0 118 -121q0 -118 -120 -118h-402q-360 0 -360 368v552q0 120 120 120h635q126 1 126 -119q-2 -118 -123 -119h-518v-160l359 2q122 -2 122 -124q1 -117 -119 -117l-362 -1v-40q0 -122 122 -122zM542 1444l284 -167q38 -29 37 -81q0 -75 -80 -77
q-43 0 -82 19l-163 100l-158 -99q-28 -18 -79 -20q-83 5 -81 82q0 49 41 79z" />
    <glyph glyph-name="Edieresis" unicode="&#xcb;" horiz-adv-x="1082" 
d="M864 237q118 0 118 -121q0 -118 -120 -118h-402q-360 0 -360 368v552q0 120 120 120h635q126 1 126 -119q-2 -118 -123 -119h-518v-160l359 2q122 -2 122 -124q1 -117 -119 -117l-362 -1v-40q0 -122 122 -122zM742 1359q22 1 43.5 -8.5t38.5 -26t27 -38.5t9 -46
q1 -24 -8.5 -46t-26.5 -38.5t-38.5 -26t-44.5 -8.5q-25 0 -46.5 9.5t-38 25.5t-26 38t-9.5 46t9.5 46t26 38t38.5 25.5t46 9.5zM334 1359q22 1 43.5 -8.5t38.5 -26t27 -38.5t9 -46q1 -24 -8.5 -46t-26.5 -38.5t-38.5 -26t-44.5 -8.5q-25 0 -46.5 9.5t-38 25.5t-26 38
t-9.5 46t9.5 46t26 38t38.5 25.5t46 9.5z" />
    <glyph glyph-name="Igrave" unicode="&#xcc;" horiz-adv-x="512" 
d="M413 122q0 -122 -118 -122q-122 0 -122 122v676q-122 0 -120 116q0 122 120 124l120 2q120 -2 120 -121v-797zM298 1327q136 -73 81 -181q-57 -100 -195 -26l-177 98q-141 78 -82 180q57 107 196 28z" />
    <glyph glyph-name="Iacute" unicode="&#xcd;" horiz-adv-x="508" 
d="M462 122q0 -122 -119 -122q-121 0 -121 122v676q-122 0 -120 116q0 122 120 124l120 2q120 -2 120 -121v-797zM661 1392q58 -102 -82 -181l-177 -98q-138 -74 -195 27q-56 107 81 181l176 97q140 80 197 -26z" />
    <glyph glyph-name="Icircumflex" unicode="&#xce;" horiz-adv-x="488" 
d="M439 122q0 -122 -119 -122q-121 0 -121 122v676q-122 0 -120 116q0 122 120 124l120 2q120 -2 120 -121v-797zM319 1444l285 -166q37 -29 36 -81q1 -75 -80 -78q-42 0 -81 19l-164 100l-157 -99q-30 -18 -79 -20q-83 6 -81 83q0 48 41 78z" />
    <glyph glyph-name="Idieresis" unicode="&#xcf;" horiz-adv-x="514" 
d="M447 122q0 -122 -119 -122q-121 0 -121 122v676q-122 0 -120 116q0 122 120 124l120 2q120 -2 120 -121v-797zM472 1359q22 1 43.5 -8t38.5 -26t27 -39t9 -46q1 -23 -8.5 -44.5t-26.5 -38.5t-38.5 -26.5t-44.5 -8.5q-24 -1 -46 8.5t-38.5 26.5t-26.5 38.5t-9 44.5
q-1 24 8.5 46t26.5 39t39 26t46 8zM169 1359q23 1 45 -8t38.5 -26t26.5 -39t9 -46q1 -23 -9 -44.5t-26.5 -38.5t-38.5 -26.5t-45 -8.5q-23 -1 -45 8.5t-38.5 26.5t-26.5 38.5t-9 44.5q-1 24 9 46t26.5 39t38.5 26t45 8z" />
    <glyph glyph-name="Eth" unicode="&#xd0;" horiz-adv-x="1518" 
 />
    <glyph glyph-name="Ntilde" unicode="&#xd1;" horiz-adv-x="1082" 
d="M218 0q-118 0 -118 121v798q0 118 120 118l402 1q360 0 360 -368v-552q0 -120 -120 -120t-120 122v555q0 123 -122 123h-280v-677q0 -121 -122 -121zM216 1316q164 77 319 -3q165 -81 322 7q58 30 61 -80q2 -56 -60 -82q-162 -86 -318 -3q-165 80 -322 -10
q-55 -24 -56 82q0 62 54 89z" />
    <glyph glyph-name="Ograve" unicode="&#xd2;" horiz-adv-x="1082" 
d="M100 678q0 362 361 362h159q362 0 362 -361v-311q0 -368 -360 -368h-164q-358 0 -358 360v318zM458 798q-118 0 -118 -119v-316q0 -123 118 -123h162q122 0 122 123v319q0 116 -122 116h-162zM720 1322q146 -53 107 -167q-41 -108 -189 -56l-301 111q-153 56 -109 166
q39 114 190 57z" />
    <glyph glyph-name="Oacute" unicode="&#xd3;" horiz-adv-x="1082" 
d="M100 678q0 362 361 362h159q362 0 362 -361v-311q0 -368 -360 -368h-164q-358 0 -358 360v318zM458 798q-118 0 -118 -119v-316q0 -123 118 -123h162q122 0 122 123v319q0 116 -122 116h-162zM846 1376q44 -110 -109 -166l-301 -111q-149 -53 -190 56q-37 115 108 167
l301 111q151 57 191 -57z" />
    <glyph glyph-name="Ocircumflex" unicode="&#xd4;" horiz-adv-x="1082" 
d="M100 678q0 362 361 362h159q362 0 362 -361v-311q0 -368 -360 -368h-164q-358 0 -358 360v318zM458 798q-118 0 -118 -119v-316q0 -123 118 -123h162q122 0 122 123v319q0 116 -122 116h-162zM541 1444l285 -166q37 -29 36 -81q0 -75 -80 -78q-43 0 -82 19l-163 100
l-158 -99q-27 -18 -79 -20q-83 6 -81 83q0 48 41 78z" />
    <glyph glyph-name="Otilde" unicode="&#xd5;" horiz-adv-x="1082" 
d="M100 678q0 362 361 362h159q362 0 362 -361v-311q0 -368 -360 -368h-164q-358 0 -358 360v318zM458 798q-118 0 -118 -119v-316q0 -123 118 -123h162q122 0 122 123v319q0 116 -122 116h-162zM216 1316q164 77 319 -2q164 -81 322 6q58 30 61 -79q2 -56 -60 -83
q-162 -84 -318 -3q-164 80 -322 -9q-55 -24 -56 81q0 63 54 89z" />
    <glyph glyph-name="Odieresis" unicode="&#xd6;" horiz-adv-x="1082" 
d="M100 678q0 362 361 362h159q362 0 362 -361v-311q0 -368 -360 -368h-164q-358 0 -358 360v318zM458 798q-118 0 -118 -119v-316q0 -123 118 -123h162q122 0 122 123v319q0 116 -122 116h-162zM742 1359q22 1 43.5 -8t38.5 -26t27 -39t9 -46q1 -23 -8.5 -44.5t-26.5 -38.5
t-38.5 -26.5t-44.5 -8.5q-24 -1 -46 8.5t-38.5 26.5t-26.5 38.5t-9 44.5q-1 24 8.5 46t26.5 39t39 26t46 8zM334 1359q22 1 43.5 -8t38.5 -26t27 -39t9 -46q1 -23 -8.5 -44.5t-26.5 -38.5t-38.5 -26.5t-44.5 -8.5q-24 -1 -46 8.5t-38.5 26.5t-26.5 38.5t-9 44.5q-1 24 9 46
t27 39t39 26t45 8z" />
    <glyph glyph-name="multiply" unicode="&#xd7;" horiz-adv-x="812" 
d="M668 208l-47 -46l-221 220l-222 -220l-47 46l220 222l-220 222l50 45l219 -221l221 221l47 -45l-223 -222z" />
    <glyph glyph-name="Oslash" unicode="&#xd8;" horiz-adv-x="1055" 
d="M83 654q0 362 360 362h160q361 0 361 -361v-311q0 -368 -360 -368h-164q-357 0 -357 360v318zM603 774q121 0 121 -116v-319q0 -123 -121 -123h-162q-118 0 -118 123v316q0 119 118 119h162zM759 1026q92 134 190 61q97 -68 3 -198l-655 -927q-94 -127 -188 -60
q-96 72 -6 197z" />
    <glyph glyph-name="Ugrave" unicode="&#xd9;" horiz-adv-x="1082" 
d="M864 1041q118 0 118 -122v-801q0 -118 -120 -118l-402 1q-360 0 -360 368v552q0 120 120 120t120 -122v-555q0 -123 122 -123h280v678q0 122 122 122zM720 1322q146 -53 107 -167q-41 -108 -189 -56l-301 111q-153 56 -109 166q39 114 190 57z" />
    <glyph glyph-name="Uacute" unicode="&#xda;" horiz-adv-x="1082" 
d="M864 1041q118 0 118 -122v-801q0 -118 -120 -118l-402 1q-360 0 -360 368v552q0 120 120 120t120 -122v-555q0 -123 122 -123h280v678q0 122 122 122zM846 1376q44 -110 -109 -166l-301 -111q-149 -53 -190 56q-37 115 108 167l301 111q151 57 191 -57z" />
    <glyph glyph-name="Ucircumflex" unicode="&#xdb;" horiz-adv-x="1082" 
d="M864 1041q118 0 118 -122v-801q0 -118 -120 -118l-402 1q-360 0 -360 368v552q0 120 120 120t120 -122v-555q0 -123 122 -123h280v678q0 122 122 122zM541 1444l285 -166q37 -29 36 -81q0 -75 -80 -78q-43 0 -82 19l-163 100l-158 -99q-27 -18 -79 -20q-83 6 -81 83
q0 48 41 78z" />
    <glyph glyph-name="Udieresis" unicode="&#xdc;" horiz-adv-x="1082" 
d="M864 1041q118 0 118 -122v-801q0 -118 -120 -118l-402 1q-360 0 -360 368v552q0 120 120 120t120 -122v-555q0 -123 122 -123h280v678q0 122 122 122zM742 1359q22 1 43.5 -8t38.5 -26t27 -39t9 -46q1 -23 -8.5 -44.5t-26.5 -38.5t-38.5 -26.5t-44.5 -8.5q-24 -1 -46 8.5
t-38.5 26.5t-26.5 38.5t-9 44.5q-1 24 8.5 46t26.5 39t39 26t46 8zM334 1359q22 1 43.5 -8t38.5 -26t27 -39t9 -46q1 -23 -8.5 -44.5t-26.5 -38.5t-38.5 -26.5t-44.5 -8.5q-24 -1 -46 8.5t-38.5 26.5t-26.5 38.5t-9 44.5q-1 24 9 46t27 39t39 26t45 8z" />
    <glyph glyph-name="Yacute" unicode="&#xdd;" horiz-adv-x="1233" 
 />
    <glyph glyph-name="Thorn" unicode="&#xde;" horiz-adv-x="1120" 
 />
    <glyph glyph-name="germandbls" unicode="&#xdf;" horiz-adv-x="1251" 
 />
    <glyph glyph-name="agrave" unicode="&#xe0;" horiz-adv-x="922" 
 />
    <glyph glyph-name="aacute" unicode="&#xe1;" horiz-adv-x="811" 
 />
    <glyph glyph-name="acircumflex" unicode="&#xe2;" horiz-adv-x="811" 
 />
    <glyph glyph-name="atilde" unicode="&#xe3;" horiz-adv-x="922" 
 />
    <glyph glyph-name="adieresis" unicode="&#xe4;" horiz-adv-x="922" 
 />
    <glyph glyph-name="aring" unicode="&#xe5;" horiz-adv-x="922" 
 />
    <glyph glyph-name="ae" unicode="&#xe6;" horiz-adv-x="1454" 
 />
    <glyph glyph-name="ccedilla" unicode="&#xe7;" horiz-adv-x="874" 
 />
    <glyph glyph-name="egrave" unicode="&#xe8;" horiz-adv-x="897" 
 />
    <glyph glyph-name="eacute" unicode="&#xe9;" horiz-adv-x="897" 
 />
    <glyph glyph-name="ecircumflex" unicode="&#xea;" horiz-adv-x="897" 
 />
    <glyph glyph-name="edieresis" unicode="&#xeb;" horiz-adv-x="897" 
 />
    <glyph glyph-name="igrave" unicode="&#xec;" horiz-adv-x="514" 
 />
    <glyph glyph-name="iacute" unicode="&#xed;" horiz-adv-x="514" 
 />
    <glyph glyph-name="icircumflex" unicode="&#xee;" horiz-adv-x="532" 
 />
    <glyph glyph-name="idieresis" unicode="&#xef;" horiz-adv-x="532" 
 />
    <glyph glyph-name="eth" unicode="&#xf0;" horiz-adv-x="1067" 
 />
    <glyph glyph-name="ntilde" unicode="&#xf1;" horiz-adv-x="1108" 
 />
    <glyph glyph-name="ograve" unicode="&#xf2;" horiz-adv-x="1010" 
 />
    <glyph glyph-name="oacute" unicode="&#xf3;" horiz-adv-x="1010" 
 />
    <glyph glyph-name="ocircumflex" unicode="&#xf4;" horiz-adv-x="1010" 
 />
    <glyph glyph-name="otilde" unicode="&#xf5;" horiz-adv-x="1010" 
 />
    <glyph glyph-name="odieresis" unicode="&#xf6;" horiz-adv-x="1010" 
 />
    <glyph glyph-name="divide" unicode="&#xf7;" horiz-adv-x="1014" 
 />
    <glyph glyph-name="oslash" unicode="&#xf8;" horiz-adv-x="1010" 
 />
    <glyph glyph-name="ugrave" unicode="&#xf9;" horiz-adv-x="1067" 
 />
    <glyph glyph-name="uacute" unicode="&#xfa;" horiz-adv-x="1059" 
 />
    <glyph glyph-name="ucircumflex" unicode="&#xfb;" horiz-adv-x="1067" 
 />
    <glyph glyph-name="udieresis" unicode="&#xfc;" horiz-adv-x="1067" 
 />
    <glyph glyph-name="yacute" unicode="&#xfd;" horiz-adv-x="868" 
 />
    <glyph glyph-name="thorn" unicode="&#xfe;" horiz-adv-x="1010" 
 />
    <glyph glyph-name="ydieresis" unicode="&#xff;" horiz-adv-x="961" 
 />
    <glyph glyph-name="dotlessi" unicode="&#x131;" horiz-adv-x="514" 
 />
    <glyph glyph-name="circumflex" unicode="&#x2c6;" horiz-adv-x="1024" 
 />
    <glyph glyph-name="caron" unicode="&#x2c7;" horiz-adv-x="1024" 
 />
    <glyph glyph-name="uni02C9" unicode="&#x2c9;" horiz-adv-x="1024" 
 />
    <glyph glyph-name="breve" unicode="&#x2d8;" horiz-adv-x="1024" 
 />
    <glyph glyph-name="dotaccent" unicode="&#x2d9;" horiz-adv-x="1024" 
 />
    <glyph glyph-name="ring" unicode="&#x2da;" horiz-adv-x="1024" 
 />
    <glyph glyph-name="ogonek" unicode="&#x2db;" horiz-adv-x="1024" 
 />
    <glyph glyph-name="tilde" unicode="&#x2dc;" horiz-adv-x="1024" 
 />
    <glyph glyph-name="hungarumlaut" unicode="&#x2dd;" horiz-adv-x="1024" 
 />
    <glyph glyph-name="endash" unicode="&#x2013;" horiz-adv-x="1108" 
 />
    <glyph glyph-name="emdash" unicode="&#x2014;" horiz-adv-x="2048" 
 />
    <glyph glyph-name="quoteleft" unicode="&#x2018;" horiz-adv-x="557" 
 />
    <glyph glyph-name="quoteright" unicode="&#x2019;" horiz-adv-x="557" 
 />
    <glyph glyph-name="quotesinglbase" unicode="&#x201a;" horiz-adv-x="557" 
 />
    <glyph glyph-name="quotedblleft" unicode="&#x201c;" horiz-adv-x="910" 
 />
    <glyph glyph-name="quotedblright" unicode="&#x201d;" horiz-adv-x="910" 
 />
    <glyph glyph-name="quotedblbase" unicode="&#x201e;" horiz-adv-x="910" 
 />
    <glyph glyph-name="dagger" unicode="&#x2020;" horiz-adv-x="1014" 
 />
    <glyph glyph-name="daggerdbl" unicode="&#x2021;" horiz-adv-x="1014" 
 />
    <glyph glyph-name="bullet" unicode="&#x2022;" horiz-adv-x="1024" 
 />
    <glyph glyph-name="ellipsis" unicode="&#x2026;" horiz-adv-x="2048" 
 />
    <glyph glyph-name="guilsinglleft" unicode="&#x2039;" horiz-adv-x="631" 
 />
    <glyph glyph-name="guilsinglright" unicode="&#x203a;" horiz-adv-x="631" 
 />
    <glyph glyph-name="fraction" unicode="&#x2044;" horiz-adv-x="342" 
 />
    <glyph glyph-name="fraction" unicode="&#x2215;" horiz-adv-x="342" 
 />
    <glyph glyph-name="franc" unicode="&#x20a3;" horiz-adv-x="1014" 
 />
    <glyph glyph-name="lira" unicode="&#x20a4;" horiz-adv-x="1014" 
 />
    <glyph glyph-name="peseta" unicode="&#x20a7;" horiz-adv-x="2028" 
 />
    <glyph glyph-name="Euro" unicode="&#x20ac;" horiz-adv-x="1014" 
 />
    <glyph glyph-name="afii61352" unicode="&#x2116;" horiz-adv-x="2271" 
 />
    <glyph glyph-name="trademark" unicode="&#x2122;" horiz-adv-x="2005" 
 />
    <glyph glyph-name="partialdiff" unicode="&#x2202;" horiz-adv-x="1014" 
 />
    <glyph glyph-name="Delta" unicode="&#x2206;" horiz-adv-x="1081" 
 />
    <glyph glyph-name="product" unicode="&#x220f;" horiz-adv-x="1515" 
 />
    <glyph glyph-name="summation" unicode="&#x2211;" horiz-adv-x="1206" 
 />
    <glyph glyph-name="minus" unicode="&#x2212;" horiz-adv-x="1014" 
 />
    <glyph glyph-name="radical" unicode="&#x221a;" horiz-adv-x="1014" 
 />
    <glyph glyph-name="infinity" unicode="&#x221e;" horiz-adv-x="1014" 
 />
    <glyph glyph-name="integral" unicode="&#x222b;" horiz-adv-x="665" 
 />
    <glyph glyph-name="approxequal" unicode="&#x2248;" horiz-adv-x="1014" 
 />
    <glyph glyph-name="lessequal" unicode="&#x2264;" horiz-adv-x="1014" 
 />
    <glyph glyph-name="greaterequal" unicode="&#x2265;" horiz-adv-x="1014" 
 />
    <glyph glyph-name="uniF001" unicode="&#xf001;" horiz-adv-x="1073" 
 />
    <glyph glyph-name="uniF001" unicode="&#xfb01;" horiz-adv-x="1073" 
 />
    <glyph glyph-name="uniF002" unicode="&#xf002;" horiz-adv-x="1081" 
 />
    <glyph glyph-name="uniF002" unicode="&#xfb02;" horiz-adv-x="1081" 
 />
    <glyph glyph-name="Amacron" unicode="&#x100;" 
 />
    <glyph glyph-name="amacron" unicode="&#x101;" 
 />
    <glyph glyph-name="Abreve" unicode="&#x102;" 
 />
    <glyph glyph-name="abreve" unicode="&#x103;" 
 />
    <glyph glyph-name="Aogonek" unicode="&#x104;" 
 />
    <glyph glyph-name="aogonek" unicode="&#x105;" 
 />
    <glyph glyph-name="Cacute" unicode="&#x106;" 
 />
    <glyph glyph-name="cacute" unicode="&#x107;" 
 />
    <glyph glyph-name="Ccircumflex" unicode="&#x108;" 
 />
    <glyph glyph-name="ccircumflex" unicode="&#x109;" 
 />
    <glyph glyph-name="Cdotaccent" unicode="&#x10a;" 
 />
    <glyph glyph-name="cdotaccent" unicode="&#x10b;" 
 />
    <glyph glyph-name="Ccaron" unicode="&#x10c;" 
 />
    <glyph glyph-name="ccaron" unicode="&#x10d;" 
 />
    <glyph glyph-name="Dcaron" unicode="&#x10e;" 
 />
    <glyph glyph-name="dcaron" unicode="&#x10f;" 
 />
    <glyph glyph-name="Dcroat" unicode="&#x110;" 
 />
    <glyph glyph-name="dcroat" unicode="&#x111;" 
 />
    <glyph glyph-name="Emacron" unicode="&#x112;" 
 />
    <glyph glyph-name="emacron" unicode="&#x113;" 
 />
    <glyph glyph-name="Ebreve" unicode="&#x114;" 
 />
    <glyph glyph-name="ebreve" unicode="&#x115;" 
 />
    <glyph glyph-name="Edotaccent" unicode="&#x116;" 
 />
    <glyph glyph-name="edotaccent" unicode="&#x117;" 
 />
    <glyph glyph-name="Eogonek" unicode="&#x118;" 
 />
    <glyph glyph-name="eogonek" unicode="&#x119;" 
 />
    <glyph glyph-name="Ecaron" unicode="&#x11a;" 
 />
    <glyph glyph-name="ecaron" unicode="&#x11b;" 
 />
    <glyph glyph-name="Gcircumflex" unicode="&#x11c;" 
 />
    <glyph glyph-name="gcircumflex" unicode="&#x11d;" 
 />
    <glyph glyph-name="Gbreve" unicode="&#x11e;" 
 />
    <glyph glyph-name="gbreve" unicode="&#x11f;" 
 />
    <glyph glyph-name="Gdotaccent" unicode="&#x120;" 
 />
    <glyph glyph-name="gdotaccent" unicode="&#x121;" 
 />
    <glyph glyph-name="Gcommaaccent" unicode="&#x122;" 
 />
    <glyph glyph-name="gcommaaccent" unicode="&#x123;" 
 />
    <glyph glyph-name="Hcircumflex" unicode="&#x124;" 
 />
    <glyph glyph-name="hcircumflex" unicode="&#x125;" 
 />
    <glyph glyph-name="Hbar" unicode="&#x126;" 
 />
    <glyph glyph-name="hbar" unicode="&#x127;" 
 />
    <glyph glyph-name="Itilde" unicode="&#x128;" 
 />
    <glyph glyph-name="itilde" unicode="&#x129;" 
 />
    <glyph glyph-name="Imacron" unicode="&#x12a;" 
 />
    <glyph glyph-name="imacron" unicode="&#x12b;" 
 />
    <glyph glyph-name="Ibreve" unicode="&#x12c;" 
 />
    <glyph glyph-name="ibreve" unicode="&#x12d;" 
 />
    <glyph glyph-name="Iogonek" unicode="&#x12e;" 
 />
    <glyph glyph-name="iogonek" unicode="&#x12f;" 
 />
    <glyph glyph-name="Idotaccent" unicode="&#x130;" 
 />
    <glyph glyph-name="IJ" unicode="&#x132;" 
 />
    <glyph glyph-name="ij" unicode="&#x133;" 
 />
    <glyph glyph-name="Jcircumflex" unicode="&#x134;" 
 />
    <glyph glyph-name="jcircumflex" unicode="&#x135;" 
 />
    <glyph glyph-name="Kcommaaccent" unicode="&#x136;" 
 />
    <glyph glyph-name="kcommaaccent" unicode="&#x137;" 
 />
    <glyph glyph-name="kgreenlandic" unicode="&#x138;" 
 />
    <glyph glyph-name="Lacute" unicode="&#x139;" 
 />
    <glyph glyph-name="lacute" unicode="&#x13a;" 
 />
    <glyph glyph-name="Lcommaaccent" unicode="&#x13b;" 
 />
    <glyph glyph-name="lcommaaccent" unicode="&#x13c;" 
 />
    <glyph glyph-name="Lcaron" unicode="&#x13d;" 
 />
    <glyph glyph-name="lcaron" unicode="&#x13e;" 
 />
    <glyph glyph-name="Ldot" unicode="&#x13f;" 
 />
    <glyph glyph-name="ldot" unicode="&#x140;" 
 />
    <glyph glyph-name="Lslash" unicode="&#x141;" 
 />
    <glyph glyph-name="lslash" unicode="&#x142;" 
 />
    <glyph glyph-name="Nacute" unicode="&#x143;" 
 />
    <glyph glyph-name="nacute" unicode="&#x144;" 
 />
    <glyph glyph-name="Ncommaaccent" unicode="&#x145;" 
 />
    <glyph glyph-name="ncommaaccent" unicode="&#x146;" 
 />
    <glyph glyph-name="Ncaron" unicode="&#x147;" 
 />
    <glyph glyph-name="ncaron" unicode="&#x148;" 
 />
    <glyph glyph-name="napostrophe" unicode="&#x149;" 
 />
    <glyph glyph-name="Eng" unicode="&#x14a;" 
 />
    <glyph glyph-name="eng" unicode="&#x14b;" 
 />
    <glyph glyph-name="Omacron" unicode="&#x14c;" 
 />
    <glyph glyph-name="omacron" unicode="&#x14d;" 
 />
    <glyph glyph-name="Obreve" unicode="&#x14e;" 
 />
    <glyph glyph-name="obreve" unicode="&#x14f;" 
 />
    <glyph glyph-name="Ohungarumlaut" unicode="&#x150;" 
 />
    <glyph glyph-name="ohungarumlaut" unicode="&#x151;" 
 />
    <glyph glyph-name="OE" unicode="&#x152;" 
 />
    <glyph glyph-name="oe" unicode="&#x153;" 
 />
    <glyph glyph-name="Racute" unicode="&#x154;" 
 />
    <glyph glyph-name="racute" unicode="&#x155;" 
 />
    <glyph glyph-name="Rcommaaccent" unicode="&#x156;" 
 />
    <glyph glyph-name="rcommaaccent" unicode="&#x157;" 
 />
    <glyph glyph-name="Rcaron" unicode="&#x158;" 
 />
    <glyph glyph-name="rcaron" unicode="&#x159;" 
 />
    <glyph glyph-name="Sacute" unicode="&#x15a;" 
 />
    <glyph glyph-name="sacute" unicode="&#x15b;" 
 />
    <glyph glyph-name="Scircumflex" unicode="&#x15c;" 
 />
    <glyph glyph-name="scircumflex" unicode="&#x15d;" 
 />
    <glyph glyph-name="Scedilla" unicode="&#x15e;" 
 />
    <glyph glyph-name="scedilla" unicode="&#x15f;" 
 />
    <glyph glyph-name="Scaron" unicode="&#x160;" 
 />
    <glyph glyph-name="scaron" unicode="&#x161;" 
 />
    <glyph glyph-name="Tcommaaccent" unicode="&#x162;" 
 />
    <glyph glyph-name="tcommaaccent" unicode="&#x163;" 
 />
    <glyph glyph-name="Tcaron" unicode="&#x164;" 
 />
    <glyph glyph-name="tcaron" unicode="&#x165;" 
 />
    <glyph glyph-name="Tbar" unicode="&#x166;" 
 />
    <glyph glyph-name="tbar" unicode="&#x167;" 
 />
    <glyph glyph-name="Utilde" unicode="&#x168;" 
 />
    <glyph glyph-name="utilde" unicode="&#x169;" 
 />
    <glyph glyph-name="Umacron" unicode="&#x16a;" 
 />
    <glyph glyph-name="umacron" unicode="&#x16b;" 
 />
    <glyph glyph-name="Ubreve" unicode="&#x16c;" 
 />
    <glyph glyph-name="ubreve" unicode="&#x16d;" 
 />
    <glyph glyph-name="Uring" unicode="&#x16e;" 
 />
    <glyph glyph-name="uring" unicode="&#x16f;" 
 />
    <glyph glyph-name="Uhungarumlaut" unicode="&#x170;" 
 />
    <glyph glyph-name="uhungarumlaut" unicode="&#x171;" 
 />
    <glyph glyph-name="Uogonek" unicode="&#x172;" 
 />
    <glyph glyph-name="uogonek" unicode="&#x173;" 
 />
    <glyph glyph-name="Wcircumflex" unicode="&#x174;" 
 />
    <glyph glyph-name="wcircumflex" unicode="&#x175;" 
 />
    <glyph glyph-name="Ycircumflex" unicode="&#x176;" 
 />
    <glyph glyph-name="ycircumflex" unicode="&#x177;" 
 />
    <glyph glyph-name="Ydieresis" unicode="&#x178;" 
 />
    <glyph glyph-name="Zacute" unicode="&#x179;" 
 />
    <glyph glyph-name="zacute" unicode="&#x17a;" 
 />
    <glyph glyph-name="Zdotaccent" unicode="&#x17b;" 
 />
    <glyph glyph-name="zdotaccent" unicode="&#x17c;" 
 />
    <glyph glyph-name="Zcaron" unicode="&#x17d;" 
 />
    <glyph glyph-name="zcaron" unicode="&#x17e;" 
 />
    <glyph glyph-name="longs" unicode="&#x17f;" 
 />
    <glyph glyph-name="uni018F" unicode="&#x18f;" 
 />
    <glyph glyph-name="florin" unicode="&#x192;" 
 />
    <glyph glyph-name="Ohorn" unicode="&#x1a0;" 
 />
    <glyph glyph-name="ohorn" unicode="&#x1a1;" 
 />
    <glyph glyph-name="Uhorn" unicode="&#x1af;" 
 />
    <glyph glyph-name="uhorn" unicode="&#x1b0;" 
 />
    <glyph glyph-name="uni01CD" unicode="&#x1cd;" 
 />
    <glyph glyph-name="uni01CE" unicode="&#x1ce;" 
 />
    <glyph glyph-name="uni01CF" unicode="&#x1cf;" 
 />
    <glyph glyph-name="uni01D0" unicode="&#x1d0;" 
 />
    <glyph glyph-name="uni01D1" unicode="&#x1d1;" 
 />
    <glyph glyph-name="uni01D2" unicode="&#x1d2;" 
 />
    <glyph glyph-name="uni01D3" unicode="&#x1d3;" 
 />
    <glyph glyph-name="uni01D4" unicode="&#x1d4;" 
 />
    <glyph glyph-name="uni01D5" unicode="&#x1d5;" 
 />
    <glyph glyph-name="uni01D6" unicode="&#x1d6;" 
 />
    <glyph glyph-name="uni01D7" unicode="&#x1d7;" 
 />
    <glyph glyph-name="uni01D8" unicode="&#x1d8;" 
 />
    <glyph glyph-name="uni01D9" unicode="&#x1d9;" 
 />
    <glyph glyph-name="uni01DA" unicode="&#x1da;" 
 />
    <glyph glyph-name="uni01DB" unicode="&#x1db;" 
 />
    <glyph glyph-name="uni01DC" unicode="&#x1dc;" 
 />
    <glyph glyph-name="Aringacute" unicode="&#x1fa;" 
 />
    <glyph glyph-name="aringacute" unicode="&#x1fb;" 
 />
    <glyph glyph-name="AEacute" unicode="&#x1fc;" 
 />
    <glyph glyph-name="aeacute" unicode="&#x1fd;" 
 />
    <glyph glyph-name="Oslashacute" unicode="&#x1fe;" 
 />
    <glyph glyph-name="oslashacute" unicode="&#x1ff;" 
 />
    <glyph glyph-name="uni0259" unicode="&#x259;" 
 />
    <glyph glyph-name="arabiccomma" unicode="&#x60c;" horiz-adv-x="348" 
d="M173 1q-123 -2 -123 123v251q3 121 123 121q124 -3 123 -121v-251q1 -125 -123 -123z" />
    <glyph glyph-name="arabicsemicolon" unicode="&#x61b;" horiz-adv-x="348" 
d="M173 1q-24 -2 -46.5 8.5t-40 28t-27.5 40t-9 46.5q0 25 10 47.5t27 39t39.5 26.5t46.5 10q25 0 47 -10t39 -26.5t27 -39t10 -47.5q1 -24 -9 -46.5t-27.5 -40t-40 -28t-46.5 -8.5zM173 331q-123 -2 -123 125v249q3 121 123 121q124 -1 123 -121v-249q2 -127 -123 -125z
" />
    <glyph glyph-name="arabicquestionmark" unicode="&#x61f;" horiz-adv-x="954" 
d="M790 1314q114 0 114 -118q0 -115 -117 -116h-387q-117 0 -117 -112v-41q0 -118 117 -118q313 1 315 -387q0 -116 -116 -116q-117 0 -117 119q0 151 -84 151q-348 0 -348 357v32q0 349 350 349h390zM715 114q1 -21 -8.5 -42t-26 -37.5t-38 -26.5t-43.5 -8q-23 -2 -44 8
t-37.5 26.5t-25.5 37.5t-8 42q0 25 9 46.5t25 37t37 24t44 8.5q22 0 43 -8.5t37.5 -24t26 -37t9.5 -46.5z" />
    <glyph glyph-name="kashida" unicode="&#x640;" horiz-adv-x="235" 
d="M-25 236h285v-236h-285v236z" />
    <glyph glyph-name="sefr" unicode="&#x660;" horiz-adv-x="412" 
d="M283 604q37 -19 58 -57t21 -79q0 -40 -21 -77q-21 -38 -58 -57q-36 -21 -77 -21t-78 21q-36 19 -57 57q-21 37 -21 77q0 41 21 79q21 37 59 57q37 21 76 21t77 -21z" />
    <glyph glyph-name="wahed" unicode="&#x661;" horiz-adv-x="337" 
d="M287 118q0 -119 -115 -119q-120 0 -120 119v1009q-2 122 118 126q117 -8 117 -123v-1012z" />
    <glyph glyph-name="ithnan" unicode="&#x662;" horiz-adv-x="966" 
d="M800 1256q116 0 116 -121q0 -115 -119 -117h-391q-120 0 -120 -114v-786q0 -119 -117 -119q-119 0 -119 119v783q0 355 356 355h394z" />
    <glyph glyph-name="thalathah" unicode="&#x663;" horiz-adv-x="1080" 
d="M794 1133q0 120 119 120q117 0 117 -118v-318q0 -362 -354 -362h-8q-118 3 -115 117q-9 -117 -122 -117h-145v-337q0 -119 -117 -119q-119 0 -119 119l2 1042q12 93 114 93h4q115 -3 117 -120l-1 -433v-9h144l1 445q0 118 114 117q121 0 123 -120l-1 -442h7
q120 0 120 121v321v0z" />
    <glyph glyph-name="arbaa" unicode="&#x664;" horiz-adv-x="945" 
d="M776 235q119 0 119 -117q0 -119 -119 -119h-373q-353 0 -353 354v80q0 147 65 235q-65 88 -65 237q0 354 356 354h370q119 0 119 -115q0 -120 -119 -120h-373q-116 0 -116 -119q0 -117 110 -120h222q120 0 120 -117q0 -120 -120 -120l-216 2q-116 0 -116 -117v-77
q0 -121 116 -121h373z" />
    <glyph glyph-name="khamsah" unicode="&#x665;" horiz-adv-x="967" 
d="M917 353q0 -354 -355 -354h-158q-354 0 -354 356v550q0 354 351 354h399q117 0 117 -120v-786zM680 1024h-277q-117 0 -117 -122v-549q0 -117 117 -117h159q118 0 118 114v674z" />
    <glyph glyph-name="sittah" unicode="&#x666;" horiz-adv-x="975" 
d="M925 118q0 -119 -117 -119q-119 0 -119 119v900h-513q-122 -2 -126 117q7 118 123 118h635q117 -2 117 -117v-1018z" />
    <glyph glyph-name="sabaah" unicode="&#x667;" horiz-adv-x="1281" 
d="M967 1119q51 108 159 58q104 -49 55 -157l-427 -918q-35 -74 -114 -74q-76 0 -111 74l-426 915q-52 109 54 163q109 43 159 -63l325 -697l326 699v0z" />
    <glyph glyph-name="thamaniah" unicode="&#x668;" horiz-adv-x="1281" 
d="M641 800l-325 -697q-50 -105 -159 -62q-107 54 -54 164l426 915q34 72 111 72q79 0 114 -74l427 -916q50 -109 -55 -158q-108 -51 -159 59z" />
    <glyph glyph-name="tisaah" unicode="&#x669;" horiz-adv-x="966" 
d="M800 1259q116 0 116 -120v-1021q0 -119 -116 -119q-120 0 -120 119v340q-54 -12 -120 -12h-156q-354 0 -354 356v103q0 354 351 354h399zM560 683q120 0 120 114v227h-277q-117 0 -117 -122v-102q0 -117 117 -117h157z" />
    <glyph glyph-name="arabic.percent" unicode="&#x66a;" horiz-adv-x="948" 
d="M313 65q-62 -102 -160 -42q-103 61 -41 164l523 862q61 106 166 47q97 -67 36 -166zM385 1107q29 -15 46 -45q17 -29 17 -62q0 -30 -17 -61q-17 -30 -46 -45q-29 -17 -60 -17t-62 17q-29 15 -45 45q-17 31 -17 61q0 33 17 62q17 30 46 45q31 17 61 17q29 0 60 -17z
M685 300q29 -15 46 -45q17 -29 17 -62q0 -30 -17 -61q-17 -30 -46 -45q-29 -17 -60 -17t-62 17q-29 15 -45 45q-17 31 -17 61q0 33 17 62q17 30 46 45q31 17 61 17q29 0 60 -17z" />
    <glyph glyph-name="uni066B" unicode="&#x66b;" horiz-adv-x="348" 
d="M173 1q-123 -2 -123 123v251q3 121 123 121q124 -3 123 -121v-251q1 -125 -123 -123z" />
    <glyph glyph-name="uni066C" unicode="&#x66c;" horiz-adv-x="348" 
d="M173 1q-123 -2 -123 123v251q3 121 123 121q124 -3 123 -121v-251q1 -125 -123 -123z" />
    <glyph glyph-name="afii63167" unicode="&#x66d;" horiz-adv-x="1566" 
 />
    <glyph glyph-name="sifr" unicode="&#x6f0;" horiz-adv-x="412" 
d="M283 604q37 -19 58 -57t21 -79q0 -40 -21 -77q-21 -38 -58 -57q-36 -21 -77 -21t-78 21q-36 19 -57 57q-21 37 -21 77q0 41 21 79q21 37 59 57q37 21 76 21t77 -21z" />
    <glyph glyph-name="yek" unicode="&#x6f1;" horiz-adv-x="337" 
d="M287 118q0 -119 -115 -119q-120 0 -120 119v1009q-2 122 118 126q117 -8 117 -123v-1012z" />
    <glyph glyph-name="doe" unicode="&#x6f2;" horiz-adv-x="966" 
d="M800 1256q116 0 116 -121q0 -115 -119 -117h-391q-120 0 -120 -114v-786q0 -119 -117 -119q-119 0 -119 119v783q0 355 356 355h394z" />
    <glyph glyph-name="se" unicode="&#x6f3;" horiz-adv-x="1080" 
d="M794 1133q0 120 119 120q117 0 117 -118v-318q0 -362 -354 -362h-8q-118 3 -115 117q-9 -117 -122 -117h-145v-337q0 -119 -117 -119q-119 0 -119 119l2 1042q12 93 114 93h4q115 -3 117 -120l-1 -433v-9h144l1 445q0 118 114 117q121 0 123 -120l-1 -442h7
q120 0 120 121v321v0z" />
    <glyph glyph-name="char" unicode="&#x6f4;" horiz-adv-x="967" 
d="M50 1168h236v-131q0 -38 14 -68h2l-1 -1q13 -24 44 -38v98q0 354 292 354h61v-235h-59q-98 0 -98 -122v-105h21q118 0 118 114v40h237v-37q0 -354 -355 -354h-158q-66 0 -118 12v-580q0 -119 -117 -119q-119 0 -119 119v1053z" />
    <glyph glyph-name="panj" unicode="&#x6f5;" horiz-adv-x="1017" 
d="M952 491q15 -65 10.5 -135t-25.5 -130.5t-57 -103.5t-83.5 -54.5t-105 16t-122.5 109.5q-32 -96 -79 -142.5t-100 -52t-107.5 25.5t-100.5 90t-79 140.5t-43 177t8 200.5t72.5 210.5t151.5 207t246 189.5l-1 5l-17 78q28 10 57 16t60 10q114 27 140 -90zM591 1007
q-83 -45 -140 -107t-92.5 -131.5t-52.5 -142t-19.5 -138t7 -119.5t27 -86.5t40 -39t46.5 23t46 99.5t39 190q6 -11 22.5 -37l38.5 -58t47.5 -65.5t49.5 -59t44 -39t31.5 -5.5t11.5 41.5t-16 102.5z" />
    <glyph glyph-name="shish" unicode="&#x6f6;" horiz-adv-x="972" 
d="M388 647q-71 -47 -33 -135l144 -344q45 -110 -62 -155q-110 -47 -156 64l-144 344q-87 211 17 342q-30 28 -45.5 65t-22 73t-7.5 65t-2 41q0 354 356 354h370q119 0 119 -115q0 -120 -119 -120h-373q-116 0 -116 -119q0 -117 110 -120h222q120 0 120 -117
q0 -120 -120 -120l-216 2q-11 0 -22 -1t-20 -4z" />
    <glyph glyph-name="haft" unicode="&#x6f7;" horiz-adv-x="1281" 
d="M967 1119q51 108 159 58q104 -49 55 -157l-427 -918q-35 -74 -114 -74q-76 0 -111 74l-426 915q-52 109 54 163q109 43 159 -63l325 -697l326 699v0z" />
    <glyph glyph-name="hast" unicode="&#x6f8;" horiz-adv-x="1281" 
d="M641 800l-325 -697q-50 -105 -159 -62q-107 54 -54 164l426 915q34 72 111 72q79 0 114 -74l427 -916q50 -109 -55 -158q-108 -51 -159 59z" />
    <glyph glyph-name="noh" unicode="&#x6f9;" horiz-adv-x="966" 
d="M800 1259q116 0 116 -120v-1021q0 -119 -116 -119q-120 0 -120 119v340q-54 -12 -120 -12h-156q-354 0 -354 356v103q0 354 351 354h399zM560 683q120 0 120 114v227h-277q-117 0 -117 -122v-102q0 -117 117 -117h157z" />
    <glyph glyph-name="fathatanA" unicode="&#x64b;" 
d="M-129 115q-18 36 18 53l260 124q36 18 52 -18q18 -36 -18 -52l-259 -125q-7 -4 -17 -4q-26 0 -36 22zM-192 223q-18 36 18 53l260 124q36 18 52 -18q18 -36 -18 -54l-259 -123q-7 -4 -17 -4q-26 0 -36 22z" />
    <glyph glyph-name="dammatanA" unicode="&#x64c;" 
d="M-363 52q-18 36 18 53l97 46q-5 2 -13 8q-2 2 -4 3.5t-4 3.5q-9 8 -19 21q-32 43 -32 95q0 159 159 159t159 -159q0 -106 -96 -146l-213 -102q-7 -4 -16 -4q-26 0 -36 22zM-240 282q0 -28 16 -48l9 -9l5 -5q22 -18 12 -45l69 33q48 21 48 74q0 79 -80 79q-79 0 -79 -79z
M8 52q-18 36 18 53l97 46q-5 2 -13 8q-2 2 -4 3.5t-4 3.5q-9 8 -19 21q-32 43 -32 95q0 159 159 159t159 -159q0 -106 -96 -146l-213 -102q-7 -4 -16 -4q-26 0 -36 22zM131 282q0 -28 16 -48l9 -9l5 -5q22 -18 12 -45l69 33q48 21 48 74q0 79 -80 79q-79 0 -79 -79z" />
    <glyph glyph-name="kasratanB" unicode="&#x64d;" 
d="M-129 -383q-18 36 18 53l260 124q36 18 52 -18q18 -36 -18 -52l-259 -125q-7 -4 -17 -4q-26 0 -36 22zM-192 -275q-18 36 18 53l260 124q36 18 52 -18q18 -36 -18 -54l-259 -123q-7 -4 -17 -4q-26 0 -36 22z" />
    <glyph glyph-name="fathaA" unicode="&#x64e;" 
d="M-178 115q-17 36 20 53l259 124q35 18 53 -18q16 -35 -20 -52l-258 -125q-8 -4 -18 -4q-26 0 -36 22z" />
    <glyph glyph-name="dammaA" unicode="&#x64f;" 
d="M-193 131q-18 36 18 53l97 46q-5 2 -13 8q-2 2 -4 3.5t-4 3.5q-9 8 -19 21q-32 43 -32 95q0 159 159 159t159 -159q0 -106 -96 -146l-213 -102q-7 -4 -16 -4q-26 0 -36 22zM-70 361q0 -28 16 -48l9 -9l5 -5q22 -18 12 -45l69 33q48 21 48 74q0 79 -80 79q-79 0 -79 -79z
" />
    <glyph glyph-name="kasraB" unicode="&#x650;" 
d="M-168 -266q-17 36 20 53l259 124q35 18 53 -18q16 -35 -20 -52l-258 -125q-8 -4 -18 -4q-26 0 -36 22z" />
    <glyph glyph-name="shaddaA" unicode="&#x651;" 
d="M58 471q-17 34 18 51q34 16 49 -18l75 -159q48 -105 -55 -153l-18 -9l-36 -16q-35 -15 -50 18q14 -35 -19 -51l-47 -21q-104 -48 -153 57l-43 93q-17 34 18 51q34 15 51 -20l45 -94q15 -35 51 -18l45 21l-60 130q-17 35 18 50q34 16 51 -18l60 -129l36 16l19 8
q34 16 18 52l-73 159v0z" />
    <glyph glyph-name="sukunA" unicode="&#x652;" 
d="M-151 199q-44 96 27 174l53 56q27 28 55 1q10 -8 11 -19q16 15 37 10q8 -2 12 -4q11 -3 24 -11q46 -24 69 -72q67 -144 -76 -211q-32 -15 -68 -15q-101 0 -144 91zM-79 232q34 -72 107 -37q72 33 37 105q-10 24 -34 37q-8 4 -12 5l-6 1q-23 6 -29 29l-49 -53
q-36 -39 -14 -87z" />
    <glyph glyph-name="shaddaA.fathatanA" unicode="&#xe82a;" 
d="M129 481q-17 34 18 51q34 16 51 -18l74 -159q49 -105 -54 -153l-20 -9l-36 -16q-34 -15 -49 18q13 -34 -20 -51l-46 -21q-104 -48 -153 57l-42 93q-17 34 18 51q34 15 51 -20l43 -94q16 -35 51 -18l47 21l-62 130q-15 35 18 50q36 17 53 -18l60 -129l36 16l18 8
q34 16 18 52zM-184 407q-15 31 15 46l221 107q31 15 44 -16q15 -32 -15 -45l-220 -108q-8 -3 -15 -3q-21 0 -30 19zM-238 500q-15 31 16 46l220 107q32 15 45 -16q15 -31 -16 -46l-220 -106q-5 -4 -14 -4q-21 0 -31 19z" />
    <glyph glyph-name="shaddaA.sukunA" 
d="M96 467q-15 34 18 51q34 16 51 -18l73 -159q49 -105 -54 -153l-18 -9l-36 -16q-34 -15 -49 18q13 -34 -20 -51l-46 -21q-104 -48 -153 57l-44 93q-17 34 18 51q34 15 51 -20l44 -94q16 -34 52 -18l45 21l-60 130q-17 35 18 50q34 16 51 -18l60 -129l36 16l20 8
q34 16 18 52zM-203 504q-33 77 20 142l40 46q21 22 42 0q6 -4 8 -15q12 12 28 8l9 -3q8 -3 19 -9q36 -20 52 -59q51 -117 -58 -172q-24 -12 -51 -12q-76 0 -109 74zM-149 531q27 -59 81 -30q55 27 28 86q-8 20 -26 30q-2 1 -4.5 2t-4.5 2l-4 1q-18 4 -22 23l-37 -43
q-28 -31 -11 -71z" />
    <glyph glyph-name="tehI" horiz-adv-x="482" 
d="M196 621q0 115 119 115q117 0 117 -118v-501q0 -117 -117 -117h-375q-59 0 -59 117q-2 117 57 117l258 1v386zM213 1278q15 27 43 43q28 15 59 15q29 0 58 -15q27 -15 42 -43q17 -28 17 -57q0 -31 -17 -59q-15 -28 -42 -43q-29 -17 -58 -17q-30 0 -59 17q-28 15 -43 43
t-15 59q0 28 15 57zM198 924q0 28 15 57q15 27 43 43q28 15 59 15q29 0 58 -15q27 -15 42 -43q17 -28 17 -57q0 -31 -17 -59q-15 -26 -42 -43q-29 -15 -58 -15q-31 0 -59 15q-28 16 -43 43q-15 28 -15 59z" />
    <glyph glyph-name="tehM" horiz-adv-x="740" 
d="M803 234q57 0 57 -117q-2 -117 -60 -117h-303q-117 3 -116 117q-8 -117 -121 -117h-320q-58 0 -58 117q-2 117 57 117l321 1v384q0 117 115 117q120 0 122 -120l-2 -381zM269 1278q15 27 43 43q28 15 59 15q29 0 58 -15q27 -15 42 -43q17 -28 17 -57q0 -31 -17 -59
q-15 -28 -42 -43q-29 -17 -58 -17q-31 0 -59 17q-28 15 -43 43t-15 59q0 28 15 57zM254 924q0 28 15 57q15 27 43 43q28 15 59 15q29 0 58 -15q27 -15 42 -43q17 -28 17 -57q0 -31 -17 -59q-15 -26 -42 -43q-29 -15 -58 -15q-32 0 -59 15q-28 16 -43 43q-15 28 -15 59z" />
    <glyph glyph-name="behmorsalaF" horiz-adv-x="1759" 
d="M1820 234q58 0 57 -117q0 -117 -60 -117h-1408q-357 0 -357 354v51q-1 124 117 124q114 -2 117 -121v-59q-2 -114 123 -114h978v689q0 115 120 115q115 0 115 -117v-687zM842 -325q-29 0 -57 15t-43 43q-17 29 -17 60q0 28 17 57q15 29 42 44q28 15 58 15t59 -15
q26 -14 43 -44q15 -29 15 -57q0 -32 -15 -60q-16 -28 -43 -43q-29 -15 -59 -15z" />
    <glyph glyph-name="behmorsala" horiz-adv-x="1672" 
d="M1388 924q0 115 119 115q115 0 115 -117v-813q-3 -109 -117 -109h-1096q-357 0 -357 354v51q-1 124 117 124q116 -2 117 -121v-59q0 -114 124 -114l977 -1zM838 -326q-29 0 -57 15t-43 43q-17 29 -17 60q0 28 17 57q15 29 42 44q28 15 58 15t59 -15q26 -14 43 -44
q15 -29 15 -57q0 -32 -15 -60q-16 -28 -43 -43q-29 -15 -59 -15z" />
    <glyph glyph-name="tehmorsalaF" horiz-adv-x="1759" 
d="M1820 234q58 0 57 -117q0 -117 -60 -117h-1408q-357 0 -357 354v51q-1 124 117 124q114 -2 117 -121v-59q-2 -114 123 -114h978v689q0 115 120 115q115 0 115 -117v-687zM740 981q14 26 44 43q28 15 58 15t59 -15q27 -15 42 -43q16 -26 16 -57q0 -33 -16 -59
q-15 -26 -42 -43q-29 -15 -59 -15t-58 15q-30 17 -44 43q-15 28 -15 59q0 28 15 57zM725 627q0 28 15 57q14 27 44 43q29 17 58 17q30 0 59 -17q27 -15 42 -43q16 -26 16 -57q0 -33 -16 -59q-15 -26 -42 -43q-29 -15 -59 -15t-58 15q-30 17 -44 43q-15 28 -15 59z" />
    <glyph glyph-name="tehmorsala" horiz-adv-x="1672" 
d="M1388 924q0 115 119 115q115 0 115 -117v-813q-3 -109 -117 -109h-1096q-357 0 -357 354v51q-1 124 117 124q116 -2 117 -121v-59q0 -114 124 -114l977 -1zM736 981q15 27 43 43q28 15 59 15q29 0 58 -15q27 -15 42 -43q17 -28 17 -57q0 -31 -17 -59q-15 -26 -42 -43
q-29 -15 -58 -15q-31 0 -59 15q-28 16 -43 43q-15 28 -15 59q0 28 15 57zM721 627q0 28 15 57q15 28 43 43q29 17 59 17q29 0 58 -17q27 -15 42 -43q17 -28 17 -57q0 -30 -17 -59q-15 -26 -42 -43q-29 -15 -58 -15q-31 0 -59 15q-28 16 -43 43q-15 28 -15 59z" />
    <glyph glyph-name="thehmorsalaF" horiz-adv-x="1759" 
d="M1820 247q58 0 57 -118q0 -117 -58 -117h-1410q-357 0 -357 354v43q-2 123 117 123q115 -2 117 -120v-49q0 -116 123 -116h978l1 690q0 116 119 116q115 0 115 -119v-687h198zM691 710q16 28 43 43q28 15 57 15q30 0 59 -15q27 -15 43 -43q15 -29 15 -60q0 -29 -15 -57
q-17 -30 -43 -44q-27 -15 -59 -15q-30 0 -57 15q-27 14 -43 44q-15 28 -15 57q0 31 15 60zM1031 753q28 15 57 15q30 0 59 -15q27 -15 43 -43q15 -29 15 -60q0 -29 -15 -57q-17 -30 -43 -44q-29 -15 -59 -15t-58 15q-27 15 -42 44q-17 29 -17 57q0 31 17 60q15 28 43 43z
M998 789q-27 -15 -58 -15q-30 0 -57 15q-29 17 -44 44q-16 28 -16 58q0 31 16 59q14 27 44 43q28 15 57 15t58 -15q28 -16 44 -43q15 -29 15 -59t-15 -58q-17 -27 -44 -44z" />
    <glyph glyph-name="thehmorsala" horiz-adv-x="1672" 
d="M1386 925q0 116 119 116q117 0 117 -119l-2 -811q-3 -111 -117 -111h-1096q-357 0 -357 354v43q0 123 117 123q115 -2 117 -120v-49q0 -116 124 -116h977zM587 698q15 28 43 43q27 15 57 15t57 -15q30 -16 44 -43q16 -28 16 -60q0 -29 -16 -57q-15 -29 -44 -44
q-27 -15 -57 -15t-58 15q-27 15 -44 44q-15 28 -15 57q0 31 17 60zM927 741q27 15 57 15q28 0 57 -15q30 -16 44 -43q16 -28 16 -60q0 -29 -16 -57q-15 -29 -44 -44q-27 -15 -57 -15t-58 15q-29 15 -44 44q-15 28 -15 57q0 31 15 60q16 28 45 43zM893 777q-27 -15 -57 -15
q-31 0 -59 15q-27 16 -43 44q-15 28 -15 58t15 59q16 28 45 43q27 15 57 15t57 -15q28 -15 43 -43q17 -29 17 -59q0 -29 -17 -58q-16 -28 -43 -44z" />
    <glyph glyph-name="pehmorsalaF" horiz-adv-x="1759" 
d="M1820 247q58 0 57 -118q0 -117 -58 -117h-1410q-357 0 -357 354v43q-2 123 117 123q115 -2 117 -120v-49q0 -116 123 -116h978l1 690q0 116 119 116q115 0 115 -119v-687h198zM734 -291q-27 15 -43 43q-15 28 -15 60q0 28 15 57q16 30 43 44q27 15 57 15q32 0 59 -15
q26 -14 43 -44q15 -29 15 -57q0 -32 -15 -60q-16 -28 -43 -43q-29 -15 -59 -15q-29 0 -57 15zM1088 -306q-29 0 -57 15t-43 43q-17 29 -17 60q0 28 17 57q15 29 42 44q28 15 58 15t59 -15q26 -14 43 -44q15 -29 15 -57q0 -32 -15 -60q-16 -28 -43 -43q-29 -15 -59 -15z
M940 -312q31 0 58 -15q27 -17 44 -44q15 -29 15 -58q0 -31 -15 -59q-16 -27 -44 -43q-29 -15 -58 -15t-57 15q-30 16 -44 43q-16 28 -16 59q0 30 16 58q15 27 44 44q27 15 57 15z" />
    <glyph glyph-name="pehmorsala" horiz-adv-x="1672" 
d="M1386 937q0 116 119 116q117 0 117 -119l-2 -811q-3 -111 -117 -111h-1096q-357 0 -357 354v43q0 123 117 123q115 -2 117 -120v-49q0 -116 124 -116h977zM630 -291q-28 15 -43 43q-17 29 -17 60q0 28 15 57q17 29 44 44q28 15 58 15t57 -15q29 -15 44 -44q16 -28 16 -57
q0 -32 -16 -60q-14 -27 -44 -43q-27 -15 -57 -15t-57 15zM984 -306q-30 0 -57 15q-29 15 -45 43q-15 28 -15 60q0 28 15 57t44 44q28 15 58 15t57 -15q29 -15 44 -44q16 -28 16 -57q0 -32 -16 -60q-14 -27 -44 -43q-29 -15 -57 -15zM836 -312q30 0 57 -15q27 -16 43 -44
q17 -29 17 -58q0 -30 -17 -59q-15 -28 -43 -43q-27 -15 -57 -15t-57 15q-29 15 -45 43q-15 28 -15 59q0 29 15 58q16 28 43 44q28 15 59 15z" />
    <glyph glyph-name="fehmorsalaF" horiz-adv-x="2490" 
d="M1820 1103q-32 0 -59 15q-28 15 -43 43q-17 28 -17 57q0 31 17 60q16 30 43 44q28 15 59 15q28 0 57 -15q26 -14 43 -44q15 -29 15 -60q0 -30 -15 -57q-15 -28 -43 -43q-29 -15 -57 -15zM2552 234q58 0 57 -117q0 -117 -59 -117h-2148q-352 0 -352 362v40q0 119 117 119
q118 0 118 -120v-44q0 -121 120 -121h1001q-12 54 -12 118v312q0 356 355 356h156q356 0 356 -354v-434h291zM1631 357q0 -115 105 -121h289v435q0 114 -120 114h-159q-115 0 -115 -117v-311z" />
    <glyph glyph-name="fehmorsala" horiz-adv-x="2312" 
d="M1907 1022q355 0 355 -354v-551q0 -117 -118 -117h-1740q-354 0 -354 362v40q0 119 118 119q119 0 119 -120v-44q0 -121 120 -121h1000q-12 54 -12 118v312q0 356 356 356h156zM2027 671q0 114 -120 114h-159q-116 0 -116 -117v-311q0 -115 105 -121h290v435zM1797 1103
q-30 0 -57 15q-28 15 -43 43q-17 28 -17 57q0 31 17 60q16 30 43 44q27 15 57 15t57 -15q29 -15 44 -44q16 -28 16 -60q0 -30 -15 -57q-15 -28 -43 -43q-29 -15 -59 -15z" />
    <glyph glyph-name="qafmagmouaF" horiz-adv-x="1498" 
d="M1079 1103q-30 0 -58 15q-27 15 -42 43q-17 28 -17 57q0 31 17 60q16 30 43 44q27 15 57 15t57 -15q29 -15 44 -44q16 -28 16 -60q0 -30 -15 -57q-16 -28 -43 -43q-29 -15 -59 -15zM782 1103q-30 0 -57 15q-28 15 -43 43q-17 28 -17 57q0 31 17 60q16 30 43 44
q27 15 57 15t57 -15q29 -15 44 -44q16 -28 16 -60q0 -30 -15 -57q-16 -28 -43 -43q-29 -15 -59 -15zM1559 234q58 0 57 -117q0 -117 -58 -117h-195q-18 -318 -360 -318h-596q-357 0 -357 354v140q0 124 117 124q116 -2 119 -121v-146q-1 -115 123 -115h598q99 0 117 82h-276
q-351 0 -351 354v312q0 356 356 356h156q355 0 355 -354v-434h195zM733 357q0 -121 117 -121h279v435q0 114 -120 114h-159q-117 0 -117 -117v-311z" />
    <glyph glyph-name="qafmagmoua" horiz-adv-x="1414" 
d="M1008 1022q356 0 356 -354v-632q0 -354 -362 -354h-595q-357 0 -357 354v140q0 124 117 124q116 -2 117 -121v-146q0 -115 124 -115h599q99 0 117 82h-276q-351 0 -351 354v312q0 356 354 356h157zM732 357q0 -121 117 -121h279v435q0 114 -120 114h-159
q-117 0 -117 -117v-311zM1079 1103q-31 0 -59 15q-27 15 -43 43q-15 27 -15 57q0 31 15 60q17 29 45 44q27 15 57 15q28 0 57 -15q27 -14 43 -44q17 -29 17 -60q0 -29 -17 -57q-15 -28 -42 -43q-29 -15 -58 -15zM782 1103q-31 0 -59 15q-27 15 -42 43q-16 26 -16 57
q0 32 16 60q15 29 44 44q27 15 57 15t57 -15q27 -14 43 -44q17 -29 17 -60q0 -30 -15 -57q-16 -27 -44 -43q-29 -15 -58 -15z" />
    <glyph glyph-name="logo" horiz-adv-x="3156" 
d="M2942 293q143 -29 143 -135q0 -74 -54 -116q-49 -40 -136 -40q-148 0 -148 104l4 68q68 -74 146 -74q80 0 80 52q0 32 -105 55q-133 28 -133 127q0 64 49 107q52 46 139 46q60 0 102 -24q46 -27 46 -74v-47q-92 43 -141 43q-88 0 -88 -47q0 -26 96 -45zM2573 514
q-22 25 -22 49q0 70 73 70q76 0 76 -107q0 -133 -113 -133q-13 0 -32 4q41 44 41 78q0 13 -23 39zM2364 600h49q58 0 58 -53v-539h-43q-64 0 -64 72v520zM1983 8q-157 0 -157 133v445q55 16 139 16h70q110 0 185 -80q79 -82 79 -213q0 -136 -74 -219q-73 -82 -193 -82h-49z
M1985 506q-25 0 -53 -6v-338q0 -58 64 -58h32q77 0 121 54q43 49 43 139q0 209 -174 209h-33zM1598 367q-17 -55 -39.5 -117l-48.5 -131q-20 -54 -51 -111h-23q-51 0 -108 160q-18 60 -41 129l-51 147q-21 -135 -27 -436h-39q-67 0 -67 78q0 109 13.5 236.5t39.5 277.5h43
q101 0 154 -180l26 -88q10 -21 17.5 -42.5t13.5 -43.5v2q7 -33 20 -60q24 64 21 60h-2q82 249 153 352h29q77 0 94 -117q13 -154 20 -272t9 -203h-45q-64 0 -64 78q0 162 -24 356zM1039 8q-50 0 -66 48q-3 10 -6 22t-5 26q-2 15 -5 28.5t-6 25.5h-235q-7 -23 -15.5 -60.5
l-19.5 -89.5h-41q-49 0 -49 53q0 65 68 258q74 206 136 281h33q63 0 143 -179q81 -183 117 -413h-49zM924 248q-34 116 -92 237q-55 -99 -92 -237h184zM456 268h-250v-260h-45q-62 0 -62 72v520h53q54 0 54 -53v-180h250v233h51q55 0 55 -53v-539h-41q-65 0 -65 72v188z
M425 709q-174 0 -174 147v424q118 29 164 29h67q89 0 144 -46q55 -45 55 -120q0 -89 -62 -121q72 -50 72 -121q0 -92 -61 -144q-57 -48 -146 -48h-59zM464 1079q73 0 73 54q0 49 -69 49l-76 -2v-101h72zM392 961v-97q0 -20 33 -20h49q74 0 74 51q0 66 -80 66h-76zM50 1305
h68q28 0 51 -21q24 -23 24 -57v-514h-59q-31 0 -56 22q-28 25 -28 66v504zM2917 985l-13.5 -39.5l-12.5 -34.5l-27 -92q-12 -43 -57 -106h-37q-71 0 -107 96l-82 250q-5 2 -6 10q-8 -81 -12 -169.5t-4 -186.5h-53q-89 0 -89 88q0 199 48 504h39q126 0 169 -103l76 -223
l19 -47q0 -8 2 -2t6 28q101 309 149 347h25q110 0 127 -129q14 -132 21.5 -247.5t7.5 -215.5h-60q-88 0 -88 88q0 75 -3.5 142t-10.5 130zM2231 1305h64q75 0 75 -78v-514h-55q-84 0 -84 88v504zM2028 954h-194v-241h-58q-84 0 -84 90v502h72q68 0 68 -76v-152h196v228h70
q28 0 51 -21q25 -22 25 -55v-516h-62q-84 0 -84 90v151zM1318 854q-29 -95 -29 -141h-55q-68 0 -68 67q0 71 66 256q71 199 135 269h51q70 0 105 -62q126 -233 159 -530h-61q-84 0 -92 65q-2 20 -5 39.5t-8 36.5h-198zM1484 973q-20 70 -66 180q-19 -38 -36.5 -82.5
t-33.5 -97.5h136zM1150 805q35 -78 35 -70q-22 -28 -72 -28q-71 0 -120 111q-49 112 -83 112l-41 6v-223h-49q-92 0 -92 90v481q42 27 160 27h63q90 0 146 -51q55 -49 55 -130q0 -105 -92 -155q21 -21 43 -66zM869 1180v-125q14 -1 30.5 -1.5t35.5 -0.5q69 0 69 59
q0 70 -67 70z" />
    <glyph glyph-name="face" horiz-adv-x="1740" 
d="M103 1049q0 -25 12 -71q8 -31 30 -65l27 -43q6 -10 16 -35q6 -13 16 -14q-7 26 -10.5 68.5t-5.5 100.5q0 6 -1 9t-1 7l-4 86v9t-1 10t-1 9.5v7.5v37q-1 13 -14 15q-14 2 -29 -13q-22 -23 -29 -64zM1525 854l-3 -27t-1 -8q7 1 12 11q14 30 35 55l54 78l17 50
q16 65 -17 126q-29 50 -62 40q-7 -1 -10 -8q-6 -17 -6 -69q0 -17 -1.5 -39l-3.5 -51q-3 -35 -4.5 -57.5t-2.5 -33.5zM1178 1084q-55 31 -55 91q0 22 13 47q4 7 2 9q-1 3 -13 5q-17 2 -18 1q-19 -4 -34 -49q-20 -57 13 -105l3 -5q19 -26 45 -39l27 -13q2 -1 5.5 -1.5
t8.5 -2.5q1 0 7 -2q2 -1 3.5 -1t3.5 -1q57 -12 109 15q40 21 57 47q23 37 22 68q-2 26 -4 31q-1 2 -1 4t-1 5l-3 9q-1 2 -2 3.5t-2 3.5q-4 4 -5 6h-6.5t-7.5 1q-5 1 -8.5 1h-6.5q-19 0 -18 -7q6 -33 6 -28q0 -11 -5 -33q-1 -6 -6 -17q-4 -7 -9 -13t-12 -13q-24 -21 -53 -25
q-33 -5 -55 8zM50 1516h148q0 -130 1.5 -212t3.5 -117l3 -51q-2 -8 0 -18q1 -5 1 -9.5t1 -6.5q2 -84 9 -130q3 -22 6 -65l3 -15q1 -12 3 -15v-7t1 -9t1 -9t1 -7l2.5 -18t5.5 -27q2 -15 4 -26.5t3 -19.5q1 -4 1.5 -7t1.5 -7q3 -11 3 -13l13 -58q1 -2 2 -5.5t2 -8.5
q1 -9 3 -15l3 -6q1 -2 1 -3t1 -3l29 -78l48 -80l1 -1l5 -4q35 -38 103 -57l109 -31q8 -2 19 -4t27 -4t27 -3.5t18 -3.5q-6 1 63 -6q11 -2 28 -2.5t40 -1.5l63 -3q12 -2 29 1q5 1 45 1q39 2 55 3q53 5 65 6l62 9q4 1 15 3q10 2 14 3q2 0 29 7l106 34q4 2 10 4.5t14 6.5
l14.5 8t7.5 5q2 1 3 2t3 2q1 1 5 3l21 15q3 2 5 5q1 0 1 1q1 1 1.5 1t-0.5 -1q20 20 33 40l33 73q1 1 3 6l3 6q1 2 1 3.5t1 3.5l2 7q2 8 3.5 11.5t0.5 1.5l17.5 67t7.5 30l12 60q1 2 7 45l13 88.5t7 50.5q3 37 4.5 53.5t0.5 11.5q2 13 3 29.5t2 36.5q1 25 2 41.5t2 25.5
q3 45 -1 48q1 -2 -45 0h-35q-14 0 -15 -4q0 -2 3 -12q19 -75 -12 -132q-25 -46 -55 -67q-42 -30 -83 -41q-5 -1 -10.5 -1.5t-12.5 -1.5q-9 -1 -15 -1t-8 -1q-21 -4 -63 5q-3 1 -12.5 4.5l-26.5 9.5q-19 7 -35 19q-41 29 -67 73l-11 24q-2 10 -3 13.5t0 0.5q-15 44 4 104
q4 16 14 29q8 11 8 18q-10 5 -57 11q-25 4 -40.5 7t-22.5 7q0 128 11 189l9 56h45q0 -3 -1 -9.5t-3 -16.5l-9 -54q-3 -14 -3 -29q0 -3 -0.5 -14.5t-1.5 -31.5q-1 -17 -1.5 -27.5t-0.5 -14.5q1 -11 22 -10q14 2 28.5 2.5t28.5 1.5q5 0 25 3q10 1 17.5 1.5t14.5 1.5l79 13
q3 1 6.5 1t7.5 1q5 1 8.5 1.5t5.5 0.5l169 47l88 37q52 30 54 38l-6 58h177v-1518h-494q-1 3 -3 17q-1 5 -1 9.5v8.5v8.5t-1 9.5t-1 9.5v8.5v15t-1 21q-1 11 -1 20.5v16.5v8t-1 9t-1 9.5v8.5q0 -1 -0.5 8l-1.5 27q-2 17 -2 30.5t-1 22.5q-1 11 -1 18l-88 -26l-17 -4
q-4 -1 -8.5 -2t-9.5 -2q-5 -2 -9.5 -2.5t-8.5 -1.5l-117 -17q-11 -1 -21.5 -1t-19.5 -1q-3 0 -8 -0.5t-13 -1.5q-7 -1 -11.5 -1.5t-8.5 -0.5l-42 -2q-53 -3 -88 0q-5 1 -16 1t-28 1q-3 0 -8 0.5t-12 1.5t-12 1.5t-7 0.5l-34 1.5t-9 0.5q-4 1 -9 1.5t-10 1.5t-8 1.5t-2 0.5
h-6q-1 1 -5 -5q-2 -4 -2 -112q0 -10 -1 -15t-1 -15l-2 -88h-488v1518zM468 1030q31 -7 39 -7q47 0 72 13l6 2q4 2 5 3q2 1 3 1t2 1q4 2 5 3q30 18 49 49q17 29 17 66q0 31 -27 66q-23 25 -21 12q0 -2 3 -9q2 -5 3 -9t2 -9q4 -27 -11 -59q-20 -41 -61 -48q-26 -6 -52 0
q-8 2 -13 5q-67 37 -56 104q3 20 15 37q2 2 2.5 4t1.5 3q0 2 2 8q-9 -2 -28 -14q-21 -14 -37 -38q-30 -46 -16 -92q11 -31 25 -46l7 -9q23 -28 63 -37zM276 1267q-19 7 -19 24q0 12 14 23q1 1 7 5q2 1 2.5 1.5t-1.5 -0.5l80 36q-4 -2 9.5 2l45.5 14l40 7q84 15 178 0
t133 -33q45 -19 48 -22q15 -17 15 -31q0 -22 -16 -37l-14 -10q-16 -7 -36 -1q-4 1 -9 3.5t-12 6.5q-10 7 -22 7q1 -5 6 -12q15 -18 19 -29q44 -92 -4 -177q-2 -5 -8.5 -14t-17.5 -23l-25 -22q-18 -16 -51 -28q-16 -7 -28.5 -11t-20.5 -5q-17 -2 -31.5 -2.5t-25.5 0.5
q-50 5 -78 16q-11 5 -19 9t-13 7q-1 1 -5 3q-2 1 -3 1t-2 1q-66 40 -83 108l-7 25q-11 84 38 141l23.5 24.5t20.5 17.5l9.5 5.5t1.5 0.5q0 -1 3 5l4 4q-19 0 -49 -10q-45 -15 -45 -14q-4 -2 -6.5 -3t-4.5 -2q-3 -1 -5.5 -2t-4.5 -2q-14 -8 -20 -9q-3 -1 -11 2zM680 584
q6 14 35 12q4 0 9 0.5t13 1.5h13q9 0 12 1q11 1 28 2t40 3l40 3.5t27 2.5h9t14 1q13 0 23 2l101 7q8 0 19 -12q18 -19 5 -41q-12 -18 -26 -18q-13 0 -41 3l-47 3q-6 0 -18 1t-29 3t-27.5 3t-14.5 1l-179 12zM950 824q7 7 15 6q0 -16 -40 -49l-2 -2q-41 -29 -82 -29
q-33 0 -66 33q-28 28 -28 44q0 7 9 12q12 6 24 -19q17 -32 51 -47q50 -21 119 51z" />
    <glyph glyph-name="kafmorsalaF" horiz-adv-x="1672" 
d="M1386 1212q0 116 119 116q117 0 117 -119l-2 -1099q-3 -110 -117 -110h-1096q-357 0 -357 354v105q0 123 117 123q115 -1 118 -120v-111q-1 -115 123 -115h978v976zM657 568q-37 0 -37 38q0 39 37 39h41q-5 23 -5 42v100q0 119 116 119h129q40 0 40 -39q0 -38 -39 -39
h-130q-39 0 -39 -41v-102q0 -39 40 -39l204 -1q38 0 38 -39q0 -38 -39 -38h-356z" />
    <glyph glyph-name="kafmorsala" horiz-adv-x="1849" 
d="M1910 236q59 0 57 -119q0 -117 -58 -117h-1502q-357 0 -357 354v105q0 123 117 123q115 -2 117 -120v-111q0 -115 125 -115h976l2 976q0 116 118 116q116 0 116 -119v-973h289zM658 568q-39 0 -39 38q0 39 39 39h40q-6 21 -6 42v100q0 119 117 119h129q41 0 41 -39
q0 -37 -41 -39h-130q-38 0 -38 -41v-102q0 -39 41 -39l204 -1q37 0 37 -39q0 -38 -39 -38h-355z" />
    <glyph glyph-name="kafmorsalaI" horiz-adv-x="1409" 
d="M1359 115q0 -115 -117 -115h-1302q-58 0 -58 117q-1 118 57 118h1185v429q0 122 -120 122l-830 1q-118 0 -118 116v10q-5 46 37 93l363 462q81 91 170 11q87 -76 7 -167l-228 -291h602q352 0 352 -361v-545z" />
    <glyph glyph-name="kafmorsalaM" horiz-adv-x="1631" 
d="M1692 235q58 0 57 -118q0 -117 -60 -117h-1747q-60 0 -60 117q-1 118 57 118h1185v429q0 122 -120 122l-830 1q-118 0 -118 117q0 -2 0 0.5t1 8.5q-6 45 36 93l363 462q81 91 170 11q87 -76 7 -167l-228 -291h602q354 0 354 -361v-425h331z" />
    <glyph glyph-name="gafmorsala" horiz-adv-x="2095" 
d="M2045 116q0 -116 -117 -116h-1520q-357 0 -357 354v42q-2 125 117 125q115 -2 117 -120v-50q0 -115 123 -115h1401v429q0 121 -120 121l-831 2q-117 0 -117 117v9q-4 44 38 93l363 462q81 89 169 10q87 -77 8 -166l-228 -291h600q354 0 354 -362v-544zM600 954
q-45 34 -10 80l414 528q34 45 78 10q44 -34 10 -79l-414 -528q-17 -23 -43 -23q-20 0 -35 12z" />
    <glyph glyph-name="gafmorsalaF" horiz-adv-x="2214" 
d="M2277 236q57 0 57 -119q-2 -117 -60 -117h-1866q-357 0 -357 354v42q-2 125 117 125q114 -2 117 -120v-50q-1 -115 123 -115h1401v429q0 121 -120 121l-831 2q-118 0 -118 115l1 11q-5 45 36 93l365 462q79 90 168 10q88 -76 9 -166l-230 -291h602q354 0 354 -362v-424
h232zM588 954q-44 35 -9 80l414 528q34 45 78 10t11 -79l-414 -528q-18 -23 -45 -23q-20 0 -35 12z" />
    <glyph glyph-name="gafmorsalaI" horiz-adv-x="1609" 
d="M1559 115q0 -115 -117 -115h-1302q-58 0 -58 117q-1 118 57 118h1185v429q0 122 -120 122l-830 1q-118 0 -118 116v10q-5 46 37 93l363 462q81 91 170 11q87 -76 7 -167l-228 -291h602q352 0 352 -361v-545zM94 931q-44 35 -9 80l414 528q34 45 78 10q44 -34 10 -79
l-414 -528q-18 -23 -45 -23q-19 0 -34 12z" />
    <glyph glyph-name="gafmorsalaM" horiz-adv-x="1674" 
d="M1735 235q58 0 57 -118q0 -117 -60 -117h-1747q-60 0 -60 117q-1 118 57 118h1185v429q0 122 -120 122l-830 1q-118 0 -118 117q0 -2 0 0.5t1 8.5q-6 45 36 93l363 462q81 91 170 11q87 -76 7 -167l-228 -291h602q354 0 354 -361v-425h331zM-77 931q-44 35 -9 80l414 528
q34 45 78 10t11 -79l-414 -528q-18 -23 -45 -23q-20 0 -35 12z" />
    <glyph glyph-name="hehI" horiz-adv-x="1601" 
d="M1196 1157q355 0 355 -354v-686q0 -115 -118 -115l-398 -2q-145 0 -232 63q-86 -63 -233 -63h-628q-60 0 -60 119q-2 117 57 117h138v388q0 356 355 356h135q52 0 104 -11q71 188 328 188h197zM569 237q107 0 115 104l2 283q0 117 -117 117h-137q-118 0 -118 -114v-391z
M1316 806q0 114 -120 114h-200q-104 0 -115 -98q40 -79 40 -198v-283q8 -104 116 -104l279 -1v570z" />
    <glyph glyph-name="hehM" horiz-adv-x="1604" 
d="M1665 236q59 0 59 -117q-2 -119 -60 -119h-639q-148 0 -233 63q-87 -63 -234 -63h-618q-58 0 -60 119q0 117 58 117h128v388q0 356 356 356h133q53 0 105 -11q71 188 327 188h197q355 0 355 -354v-567h126zM675 624q0 117 -117 117h-136q-120 0 -120 -114v-391l256 1
q108 0 116 104zM1304 806q0 114 -120 114h-200q-105 0 -114 -98q41 -80 41 -198v-283q8 -104 114 -104l279 -1v570z" />
    <glyph glyph-name="alefmaqmorsala" horiz-adv-x="2269" 
d="M1865 1023q354 0 354 -363v-541q0 -119 -117 -119q-118 0 -118 120v546q0 120 -120 120h-74v-664q0 -120 -120 -120l-13 1v-3h-1250q-357 0 -357 354v44q0 123 117 123q116 -2 119 -120v-50q-1 -115 123 -115h1146v669q0 117 117 117z" />
    <glyph glyph-name="alefmaqmorsalaF" horiz-adv-x="2406" 
d="M2468 236q58 0 58 -119q-2 -117 -60 -117h-364q-119 0 -119 120v546q0 120 -120 120h-73v-664q0 -120 -120 -120l-14 1v-3h-1248q-358 0 -358 354v44q0 123 118 123q114 -2 117 -120v-50q-1 -115 123 -115h1146v669q0 117 119 117l193 1q354 0 354 -363v-424h248z" />
    <glyph glyph-name="yehmorsala" horiz-adv-x="2269" 
d="M1865 1023q354 0 354 -363v-541q0 -119 -117 -119q-118 0 -118 120v546q0 120 -120 120h-74v-664q0 -120 -120 -120l-13 1v-3h-1250q-357 0 -357 354v44q0 123 117 123q116 -2 119 -120v-50q-1 -115 123 -115h1146v669q0 117 117 117zM889 -204q0 -29 -17 -58
q-16 -30 -43 -44q-27 -15 -57 -15t-57 15q-29 15 -44 44q-16 28 -16 58t15 59q16 28 43 43q28 15 59 15q29 0 58 -15q27 -15 42 -43q17 -29 17 -59zM952 -204q0 30 15 59q15 28 43 43t59 15q30 0 57 -15q28 -15 43 -43q17 -29 17 -59q0 -29 -17 -58q-16 -30 -43 -44
q-27 -15 -57 -15t-57 15q-28 15 -45 44q-15 28 -15 58z" />
    <glyph glyph-name="yehmorsalaF" horiz-adv-x="2406" 
d="M2468 236q58 0 58 -119q-2 -117 -60 -117h-364q-119 0 -119 120v546q0 120 -120 120h-73v-664q0 -120 -120 -120l-14 1v-3h-1248q-358 0 -358 354v44q0 123 118 123q114 -2 117 -120v-50q-1 -115 123 -115h1146v669q0 117 119 117l193 1q354 0 354 -363v-424h248z
M888 -204q0 -30 -15 -58q-17 -29 -45 -44q-27 -15 -57 -15q-29 0 -57 15q-27 14 -43 44q-17 29 -17 58q0 30 17 59q15 28 42 43q28 15 58 15t59 -15q27 -15 43 -43q15 -29 15 -59zM951 -204q0 30 15 59q16 27 44 43q28 15 58 15t59 -15q27 -15 42 -43q16 -28 16 -59
q0 -30 -16 -58q-15 -29 -44 -44q-27 -15 -57 -15t-57 15q-27 14 -43 44q-17 29 -17 58z" />
    <glyph glyph-name="yahamzamorsala" horiz-adv-x="2295" 
d="M1891 1023q354 0 354 -363v-541q0 -119 -117 -119q-118 0 -118 120v546q0 120 -120 120h-74v-664q0 -120 -120 -120l-13 1v-3h-1250q-357 0 -357 354v44q0 123 117 123q116 -2 119 -120v-50q-1 -115 123 -115h1146v669q0 117 117 117zM87 654q-37 0 -37 39t37 39h41
q-5 23 -5 42v100q0 117 116 117h129q40 0 40 -39q0 -37 -39 -37h-130q-39 0 -39 -41v-102q0 -40 40 -40h204q38 0 38 -39t-39 -39h-356z" />
    <glyph glyph-name="yahamzamorsalaF" horiz-adv-x="2433" 
d="M2495 236q58 0 58 -119q-2 -117 -60 -117h-364q-119 0 -119 120v546q0 120 -120 120h-73v-664q0 -120 -120 -120l-14 1v-3h-1248q-358 0 -358 354v44q0 123 118 123q114 -2 117 -120v-50q-1 -115 123 -115h1146v669q0 117 119 117l193 1q354 0 354 -363v-424h248zM89 654
q-39 0 -39 39t38 39h40q-4 19 -4 42v100q0 117 117 117h127q41 0 41 -39q0 -37 -39 -37h-131q-37 0 -37 -41v-102q0 -40 39 -40h204q39 0 39 -39t-39 -39h-356z" />
    <glyph glyph-name=".notdef.008" horiz-adv-x="995" 
 />
    <glyph glyph-name=".notdef.007" horiz-adv-x="995" 
 />
    <glyph glyph-name=".notdef.006" horiz-adv-x="995" 
 />
    <glyph glyph-name=".notdef.005" horiz-adv-x="995" 
 />
    <glyph glyph-name=".notdef.004" horiz-adv-x="995" 
 />
    <glyph glyph-name=".notdef.003" horiz-adv-x="995" 
 />
    <glyph glyph-name=".notdef.002" horiz-adv-x="995" 
 />
    <glyph glyph-name=".notdef.001" horiz-adv-x="995" 
 />
    <glyph glyph-name=".notdef.009" horiz-adv-x="995" 
 />
    </font>
</defs>
</svg>
