<?xml version="1.0" standalone="no"?>
<!DOCTYPE svg PUBLIC "-//W3C//DTD SVG 1.1//EN" "http://www.w3.org/Graphics/SVG/1.1/DTD/svg11.dtd" >
<svg xmlns="http://www.w3.org/2000/svg" xmlns:xlink="http://www.w3.org/1999/xlink" version="1.1">
<metadata>
Created by FontForge 20170731 at Sun Apr 15 02:05:38 2007
 By Aleksey,,,
Copyright (c) Nadine Chahine, 2007. All rights reserved.
</metadata>
<defs>
<font id="BigVestaArabicBeta-Bold" horiz-adv-x="525" >
  <font-face 
    font-family="BigVesta Arabic Beta"
    font-weight="700"
    font-stretch="normal"
    units-per-em="1000"
    panose-1="2 0 0 0 0 0 0 0 0 0"
    ascent="800"
    descent="-200"
    bbox="-200 -486 1434 1164"
    underline-thickness="50"
    underline-position="-150"
    unicode-range="U+0020-FEFC"
  />
<missing-glyph horiz-adv-x="534" 
 />
    <glyph glyph-name="uni0621" unicode="&#x621;" horiz-adv-x="462" arabic-form="isolated" 
d="M3 0v112h98v101q0 60 17 98t45.5 59.5t65 29t74.5 7.5h101v-114h-69q-22 0 -41 -3t-33 -12.5t-21.5 -26.5t-7.5 -44v-95h183v-112h-412z" />
    <glyph glyph-name="uni0622" unicode="&#x622;" horiz-adv-x="319" arabic-form="isolated" 
d="M80 788h159v-788h-159v788zM-17 903q-12 14 -24 27.5t-23 27.5q36 41 66.5 55t52.5 14q24 0 49 -9.5t49.5 -20.5t48.5 -20.5t45 -9.5q20 0 36.5 15t27.5 48l71 -23q-12 -38 -26 -63t-30 -39.5t-33 -20.5t-35 -6q-31 0 -58.5 9.5t-52.5 21.5t-48.5 21.5t-46.5 9.5
q-11 0 -27 -6t-42 -31z" />
    <glyph glyph-name="uni0623" unicode="&#x623;" horiz-adv-x="319" arabic-form="isolated" 
d="M80 788h159v-788h-159v788zM-12 891v79h64v63q0 41 11.5 66t30.5 39t43.5 19t50.5 5h73v-86h-61q-23 0 -37 -10t-14 -37v-59h117v-79h-278z" />
    <glyph glyph-name="uni0624" unicode="&#x624;" horiz-adv-x="582" arabic-form="isolated" 
d="M503 456v-397q0 -47 -6 -86q-8 -56 -30.5 -92.5t-53.5 -58.5t-67.5 -30.5t-71.5 -8.5q-43 0 -84.5 9t-71.5 23l15 63q38 -8 74 -8q29 0 53.5 5t42.5 19.5t28.5 39.5t11.5 66h-267q-20 46 -34 95t-14 94q0 61 22 110t58.5 84t85 54t101.5 19h208zM344 109v237h-56
q-14 0 -31.5 -7t-33 -23t-26 -42.5t-10.5 -65.5q0 -26 3.5 -50.5t14.5 -48.5h139zM110 602v91h78v81q0 48 14 78.5t36.5 47.5t51.5 23t59 6h82v-92h-56q-18 0 -33 -2.5t-26 -9.5t-17 -20.5t-6 -35.5v-76h146v-91h-329z" />
    <glyph glyph-name="uni0625" unicode="&#x625;" horiz-adv-x="319" arabic-form="isolated" 
d="M80 788h159v-788h-159v788zM3 -365v79h64v63q0 40 11.5 65.5t30.5 39.5t43.5 19t50.5 5h73v-86h-61q-23 0 -37 -10t-14 -37v-59h117v-79h-278z" />
    <glyph glyph-name="uni0626" unicode="&#x626;" horiz-adv-x="883" arabic-form="isolated" 
d="M843 373q-26 13 -54 18t-48 5q-27 0 -49 -8.5t-37.5 -22.5t-24.5 -33t-9 -39q0 -27 12.5 -50t31.5 -44.5t41.5 -42t41.5 -43t31.5 -48t12.5 -55.5q0 -32 -18.5 -72t-64 -74.5t-121.5 -58t-191 -23.5q-108 0 -183.5 27t-123 69.5t-69 95.5t-21.5 104q0 54 19 111t53 101
q18 -5 36.5 -9t36.5 -9q-24 -41 -31.5 -75t-7.5 -69q0 -41 16.5 -79t52.5 -67.5t92.5 -47t135.5 -17.5q59 0 104 9t75 23t45 31.5t15 34.5q0 21 -13 40.5t-32.5 39.5t-42 42t-42 48t-32.5 57t-13 68q0 45 18.5 79.5t50.5 58t74.5 36t90.5 12.5q11 0 29 -1.5t38 -5t40 -8.5
t35 -13v-95zM-57 376v91h78v81q0 48 14 78.5t36.5 47.5t51.5 23t59 6h82v-92h-56q-18 0 -33 -2.5t-26 -9.5t-17 -20.5t-6 -35.5v-76h146v-91h-329z" />
    <glyph glyph-name="uni0627" unicode="&#x627;" horiz-adv-x="319" arabic-form="isolated" 
d="M80 788h159v-788h-159v788z" />
    <glyph glyph-name="uni0628" unicode="&#x628;" horiz-adv-x="958" arabic-form="isolated" 
d="M260 0q-71 0 -120.5 14t-80.5 39.5t-45 61t-14 78.5q0 51 19.5 100.5t51.5 91.5l68 -14q-15 -24 -25 -56t-10 -65q0 -21 6.5 -46t26 -46t56 -35t97.5 -14h409v347h160v-456h-599zM364 -139q0 31 21 52.5t53 21.5t53.5 -21.5t21.5 -52.5t-21.5 -53t-53.5 -22t-53 22
t-21 53z" />
    <glyph glyph-name="uni0629" unicode="&#x629;" horiz-adv-x="551" arabic-form="isolated" 
d="M453 456q9 -66 15 -134.5t6 -134.5q0 -79 -12 -187h-418q-21 46 -32.5 95.5t-11.5 93.5q0 61 21.5 110t58 84t85 54t101.5 19h187zM310 109q6 51 6 101q0 36 -2.5 70t-7.5 66h-48q-14 0 -31.5 -7t-33 -23t-26 -42.5t-10.5 -65.5q0 -26 4 -50.5t15 -48.5h134zM279 677
q0 31 21 52.5t53 21.5t53.5 -21.5t21.5 -52.5t-21.5 -53t-53.5 -22t-53 22t-21 53zM96 677q0 31 21.5 52.5t52.5 21.5q32 0 53.5 -21.5t21.5 -52.5t-21.5 -53t-53.5 -22q-31 0 -52.5 22t-21.5 53z" />
    <glyph glyph-name="uni062A" unicode="&#x62a;" horiz-adv-x="958" arabic-form="isolated" 
d="M260 0q-71 0 -120.5 14t-80.5 39.5t-45 61t-14 78.5q0 51 19.5 100.5t51.5 91.5l68 -14q-15 -24 -25 -56t-10 -65q0 -21 6.5 -46t26 -46t56 -35t97.5 -14h409v347h160v-456h-599zM460 644q0 31 21 52.5t53 21.5t53.5 -21.5t21.5 -52.5t-21.5 -53t-53.5 -22t-53 22t-21 53
zM277 644q0 31 21.5 52.5t52.5 21.5q32 0 53.5 -21.5t21.5 -52.5t-21.5 -53t-53.5 -22q-31 0 -52.5 22t-21.5 53z" />
    <glyph glyph-name="uni062B" unicode="&#x62b;" horiz-adv-x="958" arabic-form="isolated" 
d="M260 0q-71 0 -120.5 14t-80.5 39.5t-45 61t-14 78.5q0 51 19.5 100.5t51.5 91.5l68 -14q-15 -24 -25 -56t-10 -65q0 -21 6.5 -46t26 -46t56 -35t97.5 -14h409v347h160v-456h-599zM457 643q0 31 21 52.5t53 21.5t53.5 -21.5t21.5 -52.5t-21.5 -52.5t-53.5 -21.5t-53 21.5
t-21 52.5zM274 643q0 31 21.5 52.5t52.5 21.5q32 0 53.5 -21.5t21.5 -52.5t-21.5 -53t-53.5 -22q-31 0 -52.5 22t-21.5 53zM365 802q0 31 21.5 52.5t52.5 21.5q32 0 53.5 -21.5t21.5 -52.5t-21.5 -52.5t-53.5 -21.5q-31 0 -52.5 21.5t-21.5 52.5z" />
    <glyph glyph-name="uni062C" unicode="&#x62c;" horiz-adv-x="633" arabic-form="isolated" 
d="M154 -17q0 -51 7.5 -88t25.5 -61t48 -35.5t74 -11.5q19 0 37.5 1.5t41.5 6.5l8 -74q-29 -9 -60.5 -13.5t-63.5 -4.5q-62 0 -112 14.5t-85.5 43.5t-55 73.5t-19.5 104.5v170h385q-10 23 -16 51.5t-10 56.5q-4 33 -11 65t-22 57t-42 40.5t-72 15.5q-32 0 -62 -7t-61 -18
q-5 23 -11 45.5t-12 45.5q18 7 40 13.5t46 12t48 8.5t44 3q90 0 144 -29t83.5 -75.5t41.5 -104.5t18 -116q5 -46 14 -86t30 -87h-421v-17zM384 -139q0 31 21 52.5t53 21.5t53.5 -21.5t21.5 -52.5t-21.5 -53t-53.5 -22t-53 22t-21 53z" />
    <glyph glyph-name="uni062D" unicode="&#x62d;" horiz-adv-x="633" arabic-form="isolated" 
d="M154 -17q0 -51 7.5 -88t25.5 -61t48 -35.5t74 -11.5q19 0 37.5 1.5t41.5 6.5l8 -74q-29 -9 -60.5 -13.5t-63.5 -4.5q-62 0 -112 14.5t-85.5 43.5t-55 73.5t-19.5 104.5v170h385q-10 23 -16 51.5t-10 56.5q-4 33 -11 65t-22 57t-42 40.5t-72 15.5q-32 0 -62 -7t-61 -18
q-5 23 -11 45.5t-12 45.5q18 7 40 13.5t46 12t48 8.5t44 3q90 0 144 -29t83.5 -75.5t41.5 -104.5t18 -116q5 -46 14 -86t30 -87h-421v-17z" />
    <glyph glyph-name="uni062E" unicode="&#x62e;" horiz-adv-x="633" arabic-form="isolated" 
d="M154 -17q0 -51 7.5 -88t25.5 -61t48 -35.5t74 -11.5q19 0 37.5 1.5t41.5 6.5l8 -74q-29 -9 -60.5 -13.5t-63.5 -4.5q-62 0 -112 14.5t-85.5 43.5t-55 73.5t-19.5 104.5v170h385q-10 23 -16 51.5t-10 56.5q-4 33 -11 65t-22 57t-42 40.5t-72 15.5q-32 0 -62 -7t-61 -18
q-5 23 -11 45.5t-12 45.5q18 7 40 13.5t46 12t48 8.5t44 3q90 0 144 -29t83.5 -75.5t41.5 -104.5t18 -116q5 -46 14 -86t30 -87h-421v-17zM182 677q0 31 21 52.5t53 21.5t53.5 -21.5t21.5 -52.5t-21.5 -53t-53.5 -22t-53 22t-21 53z" />
    <glyph glyph-name="uni062F" unicode="&#x62f;" horiz-adv-x="555" arabic-form="isolated" 
d="M30 0v109h293v149q0 59 -30 97t-79 38h-127v105h152q47 0 91 -9.5t78 -36t54.5 -73.5t20.5 -122v-257h-453z" />
    <glyph glyph-name="uni0630" unicode="&#x630;" horiz-adv-x="555" arabic-form="isolated" 
d="M30 0v109h293v149q0 59 -30 97t-79 38h-127v105h152q47 0 91 -9.5t78 -36t54.5 -73.5t20.5 -122v-257h-453zM156 677q0 31 21 52.5t53 21.5t53.5 -21.5t21.5 -52.5t-21.5 -53t-53.5 -22t-53 22t-21 53z" />
    <glyph glyph-name="uni0631" unicode="&#x631;" horiz-adv-x="363" arabic-form="isolated" 
d="M284 41q0 -70 -14.5 -119t-40 -80t-59.5 -45t-72 -14q-34 0 -72 9.5t-76 26.5l15 62q28 -6 56 -6q26 0 45 7t32 24.5t19.5 48t6.5 77.5v424h160v-415z" />
    <glyph glyph-name="uni0632" unicode="&#x632;" horiz-adv-x="363" arabic-form="isolated" 
d="M284 41q0 -70 -14.5 -119t-40 -80t-59.5 -45t-72 -14q-34 0 -72 9.5t-76 26.5l15 62q28 -6 56 -6q26 0 45 7t32 24.5t19.5 48t6.5 77.5v424h160v-415zM129 677q0 31 21 52.5t53 21.5t53.5 -21.5t21.5 -52.5t-21.5 -53t-53.5 -22t-53 22t-21 53z" />
    <glyph glyph-name="uni0633" unicode="&#x633;" horiz-adv-x="1341" arabic-form="isolated" 
d="M760 0q-28 0 -49.5 9t-36.5 23.5t-24 33.5t-12 40q-3 -51 -8 -79t-10 -41q-18 -51 -49.5 -90.5t-73.5 -66t-93 -40.5t-107 -14q-79 0 -135.5 23t-92.5 60t-52.5 84t-16.5 95q0 67 23.5 128t66.5 109l55 -15q-29 -54 -37 -99t-8 -72q0 -42 15 -75.5t41 -56t61.5 -34.5
t75.5 -12q52 0 88 15.5t58 43t32 65t10 82.5v220h159v-121q0 -21 3.5 -40t12.5 -34t23.5 -23.5t36.5 -8.5h34q26 0 37.5 15.5t11.5 50.5v220h159v-180q0 -46 16.5 -76t57.5 -30h70v347h161v-456h-165q-26 0 -50.5 4.5t-44 16t-33.5 32t-20 52.5q-11 -54 -46.5 -79.5
t-94.5 -25.5h-49v0z" />
    <glyph glyph-name="uni0634" unicode="&#x634;" horiz-adv-x="1341" arabic-form="isolated" 
d="M760 0q-28 0 -49.5 9t-36.5 23.5t-24 33.5t-12 40q-3 -51 -8 -79t-10 -41q-18 -51 -49.5 -90.5t-73.5 -66t-93 -40.5t-107 -14q-79 0 -135.5 23t-92.5 60t-52.5 84t-16.5 95q0 67 23.5 128t66.5 109l55 -15q-29 -54 -37 -99t-8 -72q0 -42 15 -75.5t41 -56t61.5 -34.5
t75.5 -12q52 0 88 15.5t58 43t32 65t10 82.5v220h159v-121q0 -21 3.5 -40t12.5 -34t23.5 -23.5t36.5 -8.5h34q26 0 37.5 15.5t11.5 50.5v220h159v-180q0 -46 16.5 -76t57.5 -30h70v347h161v-456h-165q-26 0 -50.5 4.5t-44 16t-33.5 32t-20 52.5q-11 -54 -46.5 -79.5
t-94.5 -25.5h-49v0zM894 643q0 31 21 52.5t53 21.5t53.5 -21.5t21.5 -52.5t-21.5 -52.5t-53.5 -21.5t-53 21.5t-21 52.5zM711 643q0 31 21.5 52.5t52.5 21.5q32 0 53.5 -21.5t21.5 -52.5t-21.5 -53t-53.5 -22q-31 0 -52.5 22t-21.5 53zM802 802q0 31 21.5 52.5t52.5 21.5
q32 0 53.5 -21.5t21.5 -52.5t-21.5 -52.5t-53.5 -21.5q-31 0 -52.5 21.5t-21.5 52.5z" />
    <glyph glyph-name="uni0635" unicode="&#x635;" horiz-adv-x="1223" arabic-form="isolated" 
d="M617 0q-16 -54 -46.5 -96t-72.5 -70.5t-93 -43.5t-108 -15q-79 0 -135.5 23t-92.5 60t-52.5 84t-16.5 95q0 67 23.5 128t66.5 109l55 -15q-29 -54 -37 -99t-8 -72q0 -42 15 -75.5t41 -56t61.5 -34.5t75.5 -12q49 0 84.5 15t58.5 42.5t34 65.5t11 83v281h149v-134
q23 63 55.5 107.5t70 73t78 41.5t78.5 13q55 0 99 -20.5t75.5 -58t48.5 -89t17 -114.5v-216h-535zM992 205q0 87 -37 125.5t-102 38.5q-33 0 -67 -15.5t-64.5 -47.5t-56.5 -81t-44 -116h371v96z" />
    <glyph glyph-name="uni0636" unicode="&#x636;" horiz-adv-x="1223" arabic-form="isolated" 
d="M617 0q-16 -54 -46.5 -96t-72.5 -70.5t-93 -43.5t-108 -15q-79 0 -135.5 23t-92.5 60t-52.5 84t-16.5 95q0 67 23.5 128t66.5 109l55 -15q-29 -54 -37 -99t-8 -72q0 -42 15 -75.5t41 -56t61.5 -34.5t75.5 -12q49 0 84.5 15t58.5 42.5t34 65.5t11 83v281h149v-134
q23 63 55.5 107.5t70 73t78 41.5t78.5 13q55 0 99 -20.5t75.5 -58t48.5 -89t17 -114.5v-216h-535zM992 205q0 87 -37 125.5t-102 38.5q-33 0 -67 -15.5t-64.5 -47.5t-56.5 -81t-44 -116h371v96zM827 677q0 31 21 52.5t53 21.5t53.5 -21.5t21.5 -52.5t-21.5 -53t-53.5 -22
t-53 22t-21 53z" />
    <glyph glyph-name="uni0637" unicode="&#x637;" horiz-adv-x="859" arabic-form="isolated" 
d="M10 0v109h102v679h161v-526q21 62 52.5 107t68.5 73.5t76.5 42t77.5 13.5q55 0 99.5 -20.5t76 -58t48.5 -89t17 -114.5v-216h-779zM629 205q0 87 -37.5 125.5t-101.5 38.5q-34 0 -68.5 -15.5t-66 -47.5t-58 -81t-44.5 -116h376v96z" />
    <glyph glyph-name="uni0638" unicode="&#x638;" horiz-adv-x="859" arabic-form="isolated" 
d="M10 0v109h102v679h161v-526q21 62 52.5 107t68.5 73.5t76.5 42t77.5 13.5q55 0 99.5 -20.5t76 -58t48.5 -89t17 -114.5v-216h-779zM629 205q0 87 -37.5 125.5t-101.5 38.5q-34 0 -68.5 -15.5t-66 -47.5t-58 -81t-44.5 -116h376v96zM467 677q0 31 21 52.5t53 21.5
t53.5 -21.5t21.5 -52.5t-21.5 -53t-53.5 -22t-53 22t-21 53z" />
    <glyph glyph-name="uni0639" unicode="&#x639;" horiz-adv-x="568" arabic-form="isolated" 
d="M154 0v-17q0 -51 7.5 -88t25.5 -61t48 -35.5t74 -11.5q19 0 37.5 1.5t41.5 6.5l8 -74q-29 -9 -60.5 -13.5t-63.5 -4.5q-62 0 -112 14.5t-85.5 43.5t-55 73.5t-19.5 104.5v170h159q-37 36 -63 81.5t-26 100.5q0 52 21 91t55.5 64.5t80 38.5t93.5 13q35 0 75.5 -6.5
t73.5 -20.5v-103q-30 14 -60 19t-53 5q-54 0 -87 -32.5t-33 -92.5q0 -50 23.5 -91t56.5 -67h202v-109h-364z" />
    <glyph glyph-name="uni063A" unicode="&#x63a;" horiz-adv-x="568" arabic-form="isolated" 
d="M154 0v-17q0 -51 7.5 -88t25.5 -61t48 -35.5t74 -11.5q19 0 37.5 1.5t41.5 6.5l8 -74q-29 -9 -60.5 -13.5t-63.5 -4.5q-62 0 -112 14.5t-85.5 43.5t-55 73.5t-19.5 104.5v170h159q-37 36 -63 81.5t-26 100.5q0 52 21 91t55.5 64.5t80 38.5t93.5 13q35 0 75.5 -6.5
t73.5 -20.5v-103q-30 14 -60 19t-53 5q-54 0 -87 -32.5t-33 -92.5q0 -50 23.5 -91t56.5 -67h202v-109h-364zM232 677q0 31 21 52.5t53 21.5t53.5 -21.5t21.5 -52.5t-21.5 -53t-53.5 -22t-53 22t-21 53z" />
    <glyph glyph-name="uni0641" unicode="&#x641;" horiz-adv-x="1063" arabic-form="isolated" 
d="M964 456q8 -66 14 -134.5t6 -134.5q0 -41 -2.5 -87t-8.5 -100h-713q-71 0 -120.5 14t-80.5 39.5t-45 61t-14 78.5q0 51 19.5 100.5t51.5 91.5l68 -14q-15 -24 -25 -56t-10 -65q0 -21 6.5 -46t26 -46t56 -35t97.5 -14h230q-9 41 -9 80q0 61 22 110t58.5 84t85 54t100.5 19
h187zM821 109q6 51 6 101q0 36 -2.5 70t-7.5 66h-47q-14 0 -31.5 -7t-33 -23t-26 -42.5t-10.5 -65.5q0 -26 4 -51t14 -48h134zM701 677q0 31 21 52.5t53 21.5t53.5 -21.5t21.5 -52.5t-21.5 -53t-53.5 -22t-53 22t-21 53z" />
    <glyph glyph-name="uni0642" unicode="&#x642;" horiz-adv-x="836" arabic-form="isolated" 
d="M330 0q-7 18 -15 42t-14.5 49.5t-11 51t-4.5 46.5q0 61 22 110t58.5 84t85 54t101.5 19h186q15 -92 18 -163.5t3 -111.5q0 -106 -20 -195t-67.5 -153.5t-126.5 -100t-199 -35.5q-87 0 -152 23t-108 63.5t-64.5 95t-21.5 117.5q0 52 18 108t55 102q17 -5 35 -9t35 -9
q-26 -47 -32 -79.5t-6 -64.5q0 -58 22 -98.5t56 -66t76.5 -37t82.5 -11.5q204 0 247 169h-259zM600 109q2 16 2.5 35.5t0.5 37.5q0 42 -2.5 83.5t-8.5 80.5h-47q-14 0 -31.5 -7t-33 -23t-26 -42.5t-10.5 -65.5q0 -28 4 -53.5t15 -45.5h137zM569 677q0 31 21.5 52.5
t52.5 21.5q32 0 53.5 -21.5t21.5 -52.5t-21.5 -53t-53.5 -22q-31 0 -52.5 22t-21.5 53zM387 677q0 31 21 52.5t53 21.5q31 0 53 -21.5t22 -52.5t-22 -53t-53 -22q-32 0 -53 22t-21 53z" />
    <glyph glyph-name="uni0643" unicode="&#x643;" horiz-adv-x="943" arabic-form="isolated" 
d="M262 0q-71 0 -120.5 14t-81 39.5t-45.5 61t-14 78.5q0 51 20 100.5t52 91.5l68 -14q-15 -24 -25 -56t-10 -65q0 -25 8 -50.5t28.5 -45.5t56.5 -32.5t93 -12.5h410v679h160v-788h-600zM290 431v72h63v65q0 39 11 63t29 37.5t41.5 18t47.5 4.5h66v-73h-45q-28 0 -47 -9.5
t-19 -44.5v-61h117v-72h-264z" />
    <glyph glyph-name="uni0644" unicode="&#x644;" horiz-adv-x="720" arabic-form="isolated" 
d="M640 179q0 -75 -5.5 -121t-14.5 -72q-18 -51 -49.5 -90t-73.5 -66t-93 -41t-107 -14q-79 0 -135.5 23t-92.5 60.5t-52.5 84t-16.5 94.5q0 67 23.5 128t66.5 109l55 -14q-29 -54 -37 -99.5t-8 -72.5q0 -42 15 -75.5t41 -56t61.5 -34.5t75.5 -12q52 0 88 15.5t58 43
t32 65.5t10 83v671h159v-609z" />
    <glyph glyph-name="uni0645" unicode="&#x645;" horiz-adv-x="657" arabic-form="isolated" 
d="M321 456q53 0 101.5 -19t85.5 -54t59 -84t22 -110q0 -44 -13 -93.5t-33 -95.5h-385v-17q0 -50 5.5 -88t21 -65t43 -44.5t72.5 -24.5l-8 -65q-137 6 -214.5 73t-77.5 202v138h118q-1 20 -2 38.5t-1 36.5q0 69 6 137.5t14 134.5h186zM412 109q10 23 14 48.5t4 50.5
q0 39 -10.5 65.5t-26 42.5t-33 23t-31.5 7h-48q-4 -32 -7 -65.5t-3 -70.5q0 -25 2 -50t5 -51h134z" />
    <glyph glyph-name="uni0646" unicode="&#x646;" horiz-adv-x="719" arabic-form="isolated" 
d="M642 179q0 -75 -5 -121t-15 -72q-18 -51 -49.5 -90t-73.5 -66t-92.5 -41t-106.5 -14q-79 0 -135.5 23t-92.5 60.5t-53 84t-17 94.5q0 67 24 128t67 109q14 -4 27.5 -7t27.5 -7q-29 -54 -37 -99.5t-8 -72.5q0 -42 15 -75.5t41 -56t61.5 -34.5t75.5 -12q52 0 87.5 15.5
t57.5 43t32 65.5t10 83v218h159v-156zM240 594q0 31 21 52.5t53 21.5t53.5 -21.5t21.5 -52.5t-21.5 -53t-53.5 -22t-53 22t-21 53z" />
    <glyph glyph-name="uni0648" unicode="&#x648;" horiz-adv-x="582" arabic-form="isolated" 
d="M503 456v-397q0 -47 -6 -86q-8 -56 -30.5 -92.5t-53.5 -58.5t-67.5 -30.5t-71.5 -8.5q-43 0 -84.5 9t-71.5 23l15 63q38 -8 74 -8q29 0 53.5 5t42.5 19.5t28.5 39.5t11.5 66h-267q-20 46 -34 95t-14 94q0 61 22 110t58.5 84t85 54t101.5 19h208zM344 109v237h-56
q-14 0 -31.5 -7t-33 -23t-26 -42.5t-10.5 -65.5q0 -26 3.5 -50.5t14.5 -48.5h139z" />
    <glyph glyph-name="uni0649" unicode="&#x649;" horiz-adv-x="883" arabic-form="isolated" 
d="M843 373q-26 13 -54 18t-48 5q-27 0 -49 -8.5t-37.5 -22.5t-24.5 -33t-9 -39q0 -27 12.5 -50t31.5 -44.5t41.5 -42t41.5 -43t31.5 -48t12.5 -55.5q0 -32 -18.5 -72t-64 -74.5t-121.5 -58t-191 -23.5q-108 0 -183.5 27t-123 69.5t-69 95.5t-21.5 104q0 54 19 111t53 101
q18 -5 36.5 -9t36.5 -9q-24 -41 -31.5 -75t-7.5 -69q0 -41 16.5 -79t52.5 -67.5t92.5 -47t135.5 -17.5q59 0 104 9t75 23t45 31.5t15 34.5q0 21 -13 40.5t-32.5 39.5t-42 42t-42 48t-32.5 57t-13 68q0 45 18.5 79.5t50.5 58t74.5 36t90.5 12.5q11 0 29 -1.5t38 -5t40 -8.5
t35 -13v-95z" />
    <glyph glyph-name="uni064A" unicode="&#x64a;" horiz-adv-x="883" arabic-form="isolated" 
d="M843 373q-26 13 -54 18t-48 5q-27 0 -49 -8.5t-37.5 -22.5t-24.5 -33t-9 -39q0 -27 12.5 -50t31.5 -44.5t41.5 -42t41.5 -43t31.5 -48t12.5 -55.5q0 -32 -18.5 -72t-64 -74.5t-121.5 -58t-191 -23.5q-108 0 -183.5 27t-123 69.5t-69 95.5t-21.5 104q0 54 19 111t53 101
q18 -5 36.5 -9t36.5 -9q-24 -41 -31.5 -75t-7.5 -69q0 -41 16.5 -79t52.5 -67.5t92.5 -47t135.5 -17.5q59 0 104 9t75 23t45 31.5t15 34.5q0 21 -13 40.5t-32.5 39.5t-42 42t-42 48t-32.5 57t-13 68q0 45 18.5 79.5t50.5 58t74.5 36t90.5 12.5q11 0 29 -1.5t38 -5t40 -8.5
t35 -13v-95zM414 -385q0 30 21.5 51.5t52.5 21.5q32 0 53.5 -21.5t21.5 -51.5q0 -32 -21.5 -53.5t-53.5 -21.5q-31 0 -52.5 21.5t-21.5 53.5zM232 -385q0 30 21 51.5t53 21.5q31 0 52.5 -21.5t21.5 -51.5q0 -32 -21.5 -53.5t-52.5 -21.5q-32 0 -53 21.5t-21 53.5z" />
    <glyph glyph-name="uni0671" unicode="&#x671;" horiz-adv-x="319" arabic-form="isolated" 
d="M80 788h159v-788h-159v788zM-20 950h52v77h59q14 25 39.5 42t54.5 17q24 0 42 -9t29.5 -24t17 -35t5.5 -42v-85h-299v59zM219 960q0 22 -8 33q-8 27 -38 27q-25 0 -44.5 -18.5t-24.5 -51.5h115v10z" />
    <glyph glyph-name="uni067E" unicode="&#x67e;" horiz-adv-x="958" arabic-form="isolated" 
d="M260 0q-71 0 -120.5 14t-80.5 39.5t-45 61t-14 78.5q0 51 19.5 100.5t51.5 91.5l68 -14q-15 -24 -25 -56t-10 -65q0 -21 6.5 -46t26 -46t56 -35t97.5 -14h409v347h160v-456h-599zM474 -140q0 30 21.5 51.5t52.5 21.5q32 0 53.5 -21.5t21.5 -51.5q0 -32 -21.5 -53.5
t-53.5 -21.5q-31 0 -52.5 21.5t-21.5 53.5zM386 -318q0 31 21 52.5t53 21.5q31 0 52.5 -21.5t21.5 -52.5t-21.5 -52.5t-52.5 -21.5q-32 0 -53 21.5t-21 52.5zM292 -140q0 30 21 51.5t53 21.5q31 0 52.5 -21.5t21.5 -51.5q0 -32 -21.5 -53.5t-52.5 -21.5q-32 0 -53 21.5
t-21 53.5z" />
    <glyph glyph-name="uni0686" unicode="&#x686;" horiz-adv-x="633" arabic-form="isolated" 
d="M154 -17q0 -51 7.5 -88t25.5 -61t48 -35.5t74 -11.5q19 0 37.5 1.5t41.5 6.5l8 -74q-29 -9 -60.5 -13.5t-63.5 -4.5q-62 0 -112 14.5t-85.5 43.5t-55 73.5t-19.5 104.5v170h385q-10 23 -16 51.5t-10 56.5q-4 33 -11 65t-22 57t-42 40.5t-72 15.5q-32 0 -62 -7t-61 -18
q-5 23 -11 45.5t-12 45.5q18 7 40 13.5t46 12t48 8.5t44 3q90 0 144 -29t83.5 -75.5t41.5 -104.5t18 -116q5 -46 14 -86t30 -87h-421v-17zM478 -85q0 21 14.5 36t36.5 15t37 -15t15 -36q0 -22 -15 -37t-37 -15t-36.5 15t-14.5 37zM411 -218q0 21 14.5 36t36.5 15t37 -15
t15 -36t-15 -36.5t-37 -15.5t-36.5 15.5t-14.5 36.5zM343 -85q0 21 14.5 36t36.5 15t37 -15t15 -36q0 -22 -15 -37t-37 -15t-36.5 15t-14.5 37z" />
    <glyph glyph-name="uni0698" unicode="&#x698;" horiz-adv-x="363" arabic-form="isolated" 
d="M284 41q0 -70 -14.5 -119t-40 -80t-59.5 -45t-72 -14q-34 0 -72 9.5t-76 26.5l15 62q28 -6 56 -6q26 0 45 7t32 24.5t19.5 48t6.5 77.5v424h160v-415zM214 676q0 31 21 52.5t53 21.5t53.5 -21.5t21.5 -52.5t-21.5 -52.5t-53.5 -21.5t-53 21.5t-21 52.5zM31 676
q0 31 21.5 52.5t52.5 21.5q32 0 53.5 -21.5t21.5 -52.5t-21.5 -53t-53.5 -22q-31 0 -52.5 22t-21.5 53zM122 835q0 31 21.5 52.5t52.5 21.5q32 0 53.5 -21.5t21.5 -52.5t-21.5 -52.5t-53.5 -21.5q-31 0 -52.5 21.5t-21.5 52.5z" />
    <glyph glyph-name="uni06A4" unicode="&#x6a4;" horiz-adv-x="1063" arabic-form="isolated" 
d="M964 456q8 -66 14 -134.5t6 -134.5q0 -41 -2.5 -87t-8.5 -100h-713q-71 0 -120.5 14t-80.5 39.5t-45 61t-14 78.5q0 51 19.5 100.5t51.5 91.5l68 -14q-15 -24 -25 -56t-10 -65q0 -21 6.5 -46t26 -46t56 -35t97.5 -14h230q-9 41 -9 80q0 61 22 110t58.5 84t85 54t100.5 19
h187zM821 109q6 51 6 101q0 36 -2.5 70t-7.5 66h-47q-14 0 -31.5 -7t-33 -23t-26 -42.5t-10.5 -65.5q0 -26 4 -51t14 -48h134zM777 676q0 31 21 52.5t53 21.5t53.5 -21.5t21.5 -52.5t-21.5 -52.5t-53.5 -21.5t-53 21.5t-21 52.5zM594 676q0 31 21.5 52.5t52.5 21.5
q32 0 53.5 -21.5t21.5 -52.5t-21.5 -53t-53.5 -22q-31 0 -52.5 22t-21.5 53zM685 835q0 31 21.5 52.5t52.5 21.5q32 0 53.5 -21.5t21.5 -52.5t-21.5 -52.5t-53.5 -21.5q-31 0 -52.5 21.5t-21.5 52.5z" />
    <glyph glyph-name="uni06A9" unicode="&#x6a9;" horiz-adv-x="939" arabic-form="isolated" 
d="M262 0q-71 0 -120.5 14t-81 39.5t-45.5 61t-14 78.5q0 51 20 100.5t52 91.5l68 -14q-15 -24 -25 -56t-10 -65q0 -25 7.5 -50t28 -45t56.5 -33t94 -13h410v149q0 26 -6.5 50t-20 43t-33.5 30.5t-48 11.5h-148v81q54 87 108 173t109 173q30 -20 60.5 -40.5t61.5 -41.5
q-39 -60 -77 -120.5t-77 -121.5q50 -3 92.5 -15t73.5 -39.5t48 -72t17 -112.5v-257h-600z" />
    <glyph glyph-name="uni06AF" unicode="&#x6af;" horiz-adv-x="939" arabic-form="isolated" 
d="M262 0q-71 0 -120.5 14t-81 39.5t-45.5 61t-14 78.5q0 51 20 100.5t52 91.5l68 -14q-15 -24 -25 -56t-10 -65q0 -25 7.5 -50t28 -45t56.5 -33t94 -13h410v149q0 26 -6.5 50t-20 43t-33.5 30.5t-48 11.5h-148v81q54 87 108 173t109 173q30 -20 60.5 -40.5t61.5 -41.5
q-39 -60 -77 -120.5t-77 -121.5q50 -3 92.5 -15t73.5 -39.5t48 -72t17 -112.5v-257h-600zM305 580l212 336l99 -66l-213 -333z" />
    <glyph glyph-name="uni06BA" unicode="&#x6ba;" horiz-adv-x="719" arabic-form="isolated" 
d="M642 179q0 -75 -5 -121t-15 -72q-18 -51 -49.5 -90t-73.5 -66t-92.5 -41t-106.5 -14q-79 0 -135.5 23t-92.5 60.5t-53 84t-17 94.5q0 67 24 128t67 109q14 -4 27.5 -7t27.5 -7q-29 -54 -37 -99.5t-8 -72.5q0 -42 15 -75.5t41 -56t61.5 -34.5t75.5 -12q52 0 87.5 15.5
t57.5 43t32 65.5t10 83v218h159v-156z" />
    <glyph glyph-name="uni06CC" unicode="&#x6cc;" horiz-adv-x="883" arabic-form="isolated" 
d="M843 373q-26 13 -54 18t-48 5q-27 0 -49 -8.5t-37.5 -22.5t-24.5 -33t-9 -39q0 -27 12.5 -50t31.5 -44.5t41.5 -42t41.5 -43t31.5 -48t12.5 -55.5q0 -32 -18.5 -72t-64 -74.5t-121.5 -58t-191 -23.5q-108 0 -183.5 27t-123 69.5t-69 95.5t-21.5 104q0 54 19 111t53 101
q18 -5 36.5 -9t36.5 -9q-24 -41 -31.5 -75t-7.5 -69q0 -41 16.5 -79t52.5 -67.5t92.5 -47t135.5 -17.5q59 0 104 9t75 23t45 31.5t15 34.5q0 21 -13 40.5t-32.5 39.5t-42 42t-42 48t-32.5 57t-13 68q0 45 18.5 79.5t50.5 58t74.5 36t90.5 12.5q11 0 29 -1.5t38 -5t40 -8.5
t35 -13v-95z" />
    <glyph glyph-name="uniFB51" unicode="&#x671;" horiz-adv-x="313" arabic-form="final" 
d="M80 788h159v-679h82q20 0 26.5 -7t6.5 -23v-47q0 -17 -7 -24.5t-26 -7.5h-241v788zM-14 950h52v77h59q14 25 39.5 42t54.5 17q24 0 42 -9t29.5 -24t17 -35t5.5 -42v-85h-299v59zM225 960q0 22 -8 33q-8 27 -38 27q-25 0 -44.5 -18.5t-24.5 -51.5h115v10z" />
    <glyph glyph-name="uniFB57" unicode="&#x67e;" horiz-adv-x="978" arabic-form="final" 
d="M260 0q-70 0 -119.5 14t-81 39.5t-45.5 61t-14 78.5q0 51 19.5 100.5t51.5 91.5l69 -14q-16 -24 -26 -56t-10 -65q0 -21 6.5 -46t26 -46t56 -35t97.5 -14h355q35 0 45 17t10 60v270h159v-241q0 -46 16.5 -76t60.5 -30h50q20 0 27 -7t7 -23v-47q0 -17 -7 -24.5t-27 -7.5
h-23q-24 0 -43 8.5t-33.5 23t-23.5 33.5t-13 40q-18 -105 -140 -105h-450zM473 -140q0 30 21.5 51.5t52.5 21.5q32 0 53.5 -21.5t21.5 -51.5q0 -32 -21.5 -53.5t-53.5 -21.5q-31 0 -52.5 21.5t-21.5 53.5zM385 -318q0 31 21 52.5t53 21.5q31 0 52.5 -21.5t21.5 -52.5
t-21.5 -52.5t-52.5 -21.5q-32 0 -53 21.5t-21 52.5zM291 -140q0 30 21 51.5t53 21.5q31 0 52.5 -21.5t21.5 -51.5q0 -32 -21.5 -53.5t-52.5 -21.5q-32 0 -53 21.5t-21 53.5z" />
    <glyph glyph-name="uniFB58" unicode="&#x67e;" horiz-adv-x="388" arabic-form="initial" 
d="M-23 0q-20 0 -26 8t-6 24v48q0 14 6.5 21.5t25.5 7.5h175v347h160v-456h-335zM201 -140q0 30 21.5 51.5t52.5 21.5q32 0 53.5 -21.5t21.5 -51.5q0 -32 -21.5 -53.5t-53.5 -21.5q-31 0 -52.5 21.5t-21.5 53.5zM113 -318q0 31 21 52.5t53 21.5q31 0 52.5 -21.5t21.5 -52.5
t-21.5 -52.5t-52.5 -21.5q-32 0 -53 21.5t-21 52.5zM19 -140q0 30 21 51.5t53 21.5q31 0 52.5 -21.5t21.5 -51.5q0 -32 -21.5 -53.5t-52.5 -21.5q-32 0 -53 21.5t-21 53.5z" />
    <glyph glyph-name="uniFB59" unicode="&#x67e;" horiz-adv-x="419" arabic-form="medial" 
d="M-20 0q-20 0 -26 8t-6 24v48q0 14 6.5 21.5t25.5 7.5h100q35 0 45 16.5t10 60.5v270h159v-241q0 -56 21 -81t70 -25h50q20 0 27 -7t7 -23v-47q0 -17 -7 -24.5t-27 -7.5h-33t-14 1q-43 3 -69.5 34t-33.5 70q-18 -105 -140 -105h-165zM222 -140q0 30 21.5 51.5t52.5 21.5
q32 0 53.5 -21.5t21.5 -51.5q0 -32 -21.5 -53.5t-53.5 -21.5q-31 0 -52.5 21.5t-21.5 53.5zM134 -318q0 31 21 52.5t53 21.5q31 0 52.5 -21.5t21.5 -52.5t-21.5 -52.5t-52.5 -21.5q-32 0 -53 21.5t-21 52.5zM40 -140q0 30 21 51.5t53 21.5q31 0 52.5 -21.5t21.5 -51.5
q0 -32 -21.5 -53.5t-52.5 -21.5q-32 0 -53 21.5t-21 53.5z" />
    <glyph glyph-name="uniFB6B" unicode="&#x6a4;" horiz-adv-x="1076" arabic-form="final" 
d="M961 456q9 -66 15 -134.5t6 -134.5q0 -19 -1 -38.5t-3 -39.5h105q20 0 27 -7t7 -23v-47q0 -17 -7 -24.5t-27 -7.5h-821q-71 0 -120.5 14t-81 39.5t-45.5 61t-14 78.5q0 51 20 100.5t52 91.5l68 -14q-15 -24 -25 -56t-10 -65q0 -21 6.5 -46t26 -46t56 -35t97.5 -14h225
q-8 43 -8 80q0 61 21.5 110t58.5 84t85 54t101 19h186zM819 109q6 51 6 101q0 36 -2.5 70t-7.5 66h-47q-14 0 -31.5 -7t-33 -23t-26 -42.5t-10.5 -65.5q0 -26 3.5 -51t13.5 -48h135zM789 676q0 31 21 52.5t53 21.5t53.5 -21.5t21.5 -52.5t-21.5 -52.5t-53.5 -21.5t-53 21.5
t-21 52.5zM606 676q0 31 21.5 52.5t52.5 21.5q32 0 53.5 -21.5t21.5 -52.5t-21.5 -53t-53.5 -22q-31 0 -52.5 22t-21.5 53zM697 835q0 31 21.5 52.5t52.5 21.5q32 0 53.5 -21.5t21.5 -52.5t-21.5 -52.5t-53.5 -21.5q-31 0 -52.5 21.5t-21.5 52.5z" />
    <glyph glyph-name="uniFB6C" unicode="&#x6a4;" horiz-adv-x="634" arabic-form="initial" 
d="M-8 0q-20 0 -26 8t-6 24v48q0 14 6.5 21.5t25.5 7.5h98q-8 43 -8 80q0 70 25.5 120.5t67.5 83t96 48t111 15.5h152q9 -66 15 -134.5t6 -134.5q0 -41 -2.5 -87t-8.5 -100h-552zM391 109q4 26 5.5 50.5t1.5 50.5q0 36 -2.5 70t-7.5 66h-48q-14 0 -31.5 -7t-33 -23
t-26 -42.5t-10.5 -65.5q0 -26 3.5 -50.5t14.5 -48.5h134zM355 676q0 31 21 52.5t53 21.5t53.5 -21.5t21.5 -52.5t-21.5 -52.5t-53.5 -21.5t-53 21.5t-21 52.5zM172 676q0 31 21.5 52.5t52.5 21.5q32 0 53.5 -21.5t21.5 -52.5t-21.5 -53t-53.5 -22q-31 0 -52.5 22t-21.5 53z
M263 835q0 31 21.5 52.5t52.5 21.5q32 0 53.5 -21.5t21.5 -52.5t-21.5 -52.5t-53.5 -21.5q-31 0 -52.5 21.5t-21.5 52.5z" />
    <glyph glyph-name="uniFB6D" unicode="&#x6a4;" horiz-adv-x="656" arabic-form="medial" 
d="M532 456q9 -66 15 -134.5t6 -134.5q0 -37 -3 -78h113q20 0 27 -7t7 -23v-47q0 -17 -7 -24.5t-27 -7.5h-671q-20 0 -26 8t-6 24v48q0 14 6.5 21.5t25.5 7.5h96q-9 41 -9 80q0 61 21.5 110t58.5 84t85 54t101 19h187zM389 109q4 26 5.5 50.5t1.5 50.5q0 36 -2.5 70t-7.5 66
h-49q-14 0 -31.5 -7t-33 -23t-26 -42.5t-10.5 -65.5q0 -26 4 -50.5t15 -48.5h134zM350 676q0 31 21 52.5t53 21.5t53.5 -21.5t21.5 -52.5t-21.5 -52.5t-53.5 -21.5t-53 21.5t-21 52.5zM167 676q0 31 21.5 52.5t52.5 21.5q32 0 53.5 -21.5t21.5 -52.5t-21.5 -53t-53.5 -22
q-31 0 -52.5 22t-21.5 53zM258 835q0 31 21.5 52.5t52.5 21.5q32 0 53.5 -21.5t21.5 -52.5t-21.5 -52.5t-53.5 -21.5q-31 0 -52.5 21.5t-21.5 52.5z" />
    <glyph glyph-name="uniFB7B" unicode="&#x686;" horiz-adv-x="630" arabic-form="final" 
d="M154 -17q0 -51 7.5 -88t25.5 -61t48 -35.5t74 -11.5q19 0 37.5 1.5t41.5 6.5l8 -74q-29 -9 -60.5 -13.5t-63.5 -4.5q-62 0 -112 14.5t-85.5 43.5t-55 73.5t-19.5 104.5v170h385q-9 21 -15.5 48t-8.5 53q-3 35 -9 68t-22 59t-43.5 42t-74.5 16q-32 0 -62 -7t-61 -18
q-5 23 -11 45.5t-12 45.5q18 7 40 13.5t46 12t48 8.5t44 3q87 0 140.5 -27t83.5 -71t42.5 -99t18.5 -111q2 -22 4.5 -41.5t6.5 -39.5h98q20 0 26.5 -7t6.5 -23v-47q0 -17 -7 -24.5t-26 -7.5h-484v-17zM473 -81q0 21 14.5 36t36.5 15t37 -15t15 -36q0 -22 -15 -37t-37 -15
t-36.5 15t-14.5 37zM406 -214q0 21 14.5 36t36.5 15t37 -15t15 -36t-15 -36.5t-37 -15.5t-36.5 15.5t-14.5 36.5zM338 -81q0 21 14.5 36t36.5 15t37 -15t15 -36q0 -22 -15 -37t-37 -15t-36.5 15t-14.5 37z" />
    <glyph glyph-name="uniFB7C" unicode="&#x686;" horiz-adv-x="620" arabic-form="initial" 
d="M-8 0q-20 0 -26 8t-6 24v48q0 14 6.5 21.5t25.5 7.5h380q-10 23 -16 51.5t-10 56.5q-4 33 -11 65t-22 57t-42 40.5t-72 15.5q-32 0 -62.5 -7t-60.5 -18q-6 23 -12 45.5t-11 45.5q18 7 40 13.5t46 12t47.5 8.5t44.5 3q86 0 138.5 -26t82.5 -68t43 -95t19 -108
q6 -54 15.5 -102t32.5 -99h-570zM291 -140q0 30 21.5 51.5t52.5 21.5q32 0 53.5 -21.5t21.5 -51.5q0 -32 -21.5 -53.5t-53.5 -21.5q-31 0 -52.5 21.5t-21.5 53.5zM203 -318q0 31 21 52.5t53 21.5q31 0 52.5 -21.5t21.5 -52.5t-21.5 -52.5t-52.5 -21.5q-32 0 -53 21.5
t-21 52.5zM109 -140q0 30 21 51.5t53 21.5q31 0 52.5 -21.5t21.5 -51.5q0 -32 -21.5 -53.5t-52.5 -21.5q-32 0 -53 21.5t-21 53.5z" />
    <glyph glyph-name="uniFB7D" unicode="&#x686;" horiz-adv-x="620" arabic-form="medial" 
d="M-8 0q-20 0 -26 8t-6 24v48q0 14 6.5 21.5t25.5 7.5h380q-9 20 -15 45t-9 50q-4 39 -12 73.5t-24.5 60.5t-45.5 41t-77 15q-29 0 -56.5 -6.5t-56.5 -17.5q-6 23 -12 45.5t-11 45.5q18 7 40 13.5t46 12t47.5 8.5t44.5 3q87 0 140.5 -27t83.5 -71t42.5 -99t18.5 -111
q2 -22 4.5 -41.5t6.5 -39.5h100q20 0 27 -7t7 -23v-47q0 -17 -7 -24.5t-27 -7.5h-635zM292 -140q0 30 21.5 51.5t52.5 21.5q32 0 53.5 -21.5t21.5 -51.5q0 -32 -21.5 -53.5t-53.5 -21.5q-31 0 -52.5 21.5t-21.5 53.5zM204 -318q0 31 21 52.5t53 21.5q31 0 52.5 -21.5
t21.5 -52.5t-21.5 -52.5t-52.5 -21.5q-32 0 -53 21.5t-21 52.5zM110 -140q0 30 21 51.5t53 21.5q31 0 52.5 -21.5t21.5 -51.5q0 -32 -21.5 -53.5t-52.5 -21.5q-32 0 -53 21.5t-21 53.5z" />
    <glyph glyph-name="uniFB8B" unicode="&#x698;" horiz-adv-x="419" arabic-form="final" 
d="M403 0q-24 0 -43 8.5t-33 23t-23.5 33.5t-12.5 40v-52q0 -14 -0.5 -27.5t-1.5 -25.5q-4 -57 -19 -98t-38 -67t-54 -38.5t-66 -12.5q-40 0 -77.5 7.5t-77.5 27.5q4 16 7.5 31t6.5 31q14 -3 29 -4.5t27 -1.5q25 0 44.5 6.5t32.5 24t20 48t7 78.5v424h160v-249q0 -42 17 -70
t59 -28h62q20 0 26.5 -7t6.5 -23v-47q0 -17 -7 -24.5t-26 -7.5h-26zM223 676q0 31 21 52.5t53 21.5t53.5 -21.5t21.5 -52.5t-21.5 -52.5t-53.5 -21.5t-53 21.5t-21 52.5zM40 676q0 31 21.5 52.5t52.5 21.5q32 0 53.5 -21.5t21.5 -52.5t-21.5 -53t-53.5 -22q-31 0 -52.5 22
t-21.5 53zM131 835q0 31 21.5 52.5t52.5 21.5q32 0 53.5 -21.5t21.5 -52.5t-21.5 -52.5t-53.5 -21.5q-31 0 -52.5 21.5t-21.5 52.5z" />
    <glyph glyph-name="uniFB8F" unicode="&#x6a9;" horiz-adv-x="984" arabic-form="final" 
d="M659 109q29 0 41 13t12 56v63q0 33 -5 61t-17 48t-32 31.5t-50 11.5h-147v81l216 346l112 -77q-39 -61 -78 -122.5t-78 -123.5q113 -1 176 -62t63 -182q0 -41 4 -69t13 -44.5t23.5 -23.5t35.5 -7h43q20 0 27 -7t7 -23v-47q0 -17 -7 -24.5t-27 -7.5h-18q-24 0 -42.5 9
t-32.5 24t-23 34t-12 38q-12 -60 -50.5 -82.5t-99.5 -22.5h-451q-71 0 -120.5 14t-81 39.5t-45.5 61t-14 78.5q0 51 20 100.5t52 91.5l68 -14q-15 -24 -25 -56t-10 -65q0 -21 6.5 -46t26 -46t56 -35t97.5 -14h367z" />
    <glyph glyph-name="uniFB90" unicode="&#x6a9;" horiz-adv-x="552" arabic-form="initial" 
d="M-8 0q-20 0 -26 8t-6 24v48q0 14 6.5 21.5t25.5 7.5h329v149q0 28 -6 52.5t-19 43t-33.5 29t-49.5 10.5h-148v81q54 87 108 173t109 173q30 -20 60.5 -40.5t61.5 -41.5q-39 -60 -77 -120.5t-77 -121.5q50 -3 92.5 -15t73.5 -39.5t48 -72t17 -112.5v-257h-489z" />
    <glyph glyph-name="uniFB91" unicode="&#x6a9;" horiz-adv-x="600" arabic-form="medial" 
d="M317 241q0 62 -18.5 103.5t-69.5 46.5q-10 1 -21 1.5t-22 0.5h-121v81q55 87 109 173t108 173q30 -20 61 -40.5t61 -41.5q-39 -60 -77 -120.5t-77 -121.5q51 -2 91.5 -15t69.5 -38.5t45.5 -64.5t18.5 -93q1 -11 1.5 -23t0.5 -24q0 -71 16.5 -100t59.5 -29h55
q20 0 26.5 -7t6.5 -23v-47q0 -17 -7 -24.5t-26 -7.5h-19q-24 0 -45 8t-37 22t-26.5 33t-12.5 42q-13 -60 -51.5 -82.5t-98.5 -22.5h-327q-24 0 -30 12.5t-6 29.5v23q0 16 5.5 30t30.5 14h273q29 0 41 13t12 56v63z" />
    <glyph glyph-name="uniFB93" unicode="&#x6af;" horiz-adv-x="976" arabic-form="final" 
d="M659 109q29 0 41 13t12 56v63q0 33 -5 61t-17 48t-32 31.5t-50 11.5h-147v81l216 346l112 -77q-39 -61 -78 -122.5t-78 -123.5q114 0 176.5 -61.5t62.5 -182.5v-15q0 -71 16.5 -100t59.5 -29h58q20 0 27 -7t7 -23v-47q0 -17 -7 -24.5t-27 -7.5h-33q-24 0 -42.5 9
t-32.5 24t-23 34t-12 38q-12 -60 -50.5 -82.5t-99.5 -22.5h-451q-71 0 -120.5 14t-81 39.5t-45.5 61t-14 78.5q0 51 20 100.5t52 91.5l68 -14q-15 -24 -25 -56t-10 -65q0 -21 6.5 -46t26 -46t56 -35t97.5 -14h367zM305 580l212 336l99 -66l-213 -333z" />
    <glyph glyph-name="uniFB94" unicode="&#x6af;" horiz-adv-x="663" arabic-form="initial" 
d="M-9 0q-20 0 -26 8t-6 24v48q0 14 6.5 21.5t25.5 7.5h442v149q0 39 -10 65t-28.5 41.5t-45.5 22t-60 6.5h-113v81q55 87 109 173t108 173q31 -20 61.5 -40.5t60.5 -41.5q-38 -60 -76.5 -120.5t-76.5 -121.5q50 -3 92.5 -15t73.5 -39.5t48 -72t17 -112.5v-257h-602z
M137 517q-24 16 -48.5 31.5t-49.5 31.5l213 336l98 -66l-213 -333v0z" />
    <glyph glyph-name="uniFB95" unicode="&#x6af;" horiz-adv-x="724" arabic-form="medial" 
d="M441 241q0 56 -13.5 86.5t-39 45t-61.5 17.5t-81 3h-72v81q55 87 109 173t108 173q31 -20 61.5 -40.5t60.5 -41.5q-38 -60 -76 -120.5t-76 -120.5q115 -1 177 -62t62 -182v-15q0 -71 17 -100t60 -29h59q20 0 26.5 -7t6.5 -23v-47q0 -17 -7 -24.5t-26 -7.5h-35
q-24 0 -42.5 9t-32.5 24t-23 34t-12 38q-10 -38 -31.5 -59.5t-49.5 -31.5t-60.5 -12t-64.5 -2h-395q-20 0 -25.5 8t-5.5 24v48q0 14 6 21.5t25 7.5h398q29 0 41 13t12 56v63zM135 517q-24 16 -48.5 31.5t-49.5 31.5l213 336l98 -66l-213 -333v0z" />
    <glyph glyph-name="uniFB9F" unicode="&#x6ba;" horiz-adv-x="762" arabic-form="final" 
d="M640 106q-1 -16 -3 -34t-4.5 -34.5t-5 -30t-5.5 -21.5q-18 -51 -49.5 -90.5t-73.5 -66t-92.5 -40.5t-106.5 -14q-79 0 -135.5 23t-92.5 60t-53 84t-17 95q0 67 24 128t67 109q14 -4 27.5 -7.5t27.5 -7.5q-29 -54 -37 -99t-8 -72q0 -42 15 -75.5t41 -56t61.5 -34.5
t75.5 -12q52 0 87.5 15.5t57.5 43t32 65t10 82.5v219h159v-120q0 -46 16.5 -76t60.5 -30h50q20 0 27 -7t7 -23v-47q0 -17 -7 -24.5t-27 -7.5h-20q-24 0 -42.5 9t-32.5 24t-22.5 34t-11.5 39z" />
    <glyph glyph-name="uniFBE8" unicode="&#x649;" horiz-adv-x="341" arabic-form="initial" 
d="M-8 0q-20 0 -26 8t-6 24v48q0 14 6.5 21.5t25.5 7.5h116v347h160v-456h-276z" />
    <glyph glyph-name="uniFBE9" unicode="&#x649;" horiz-adv-x="390" arabic-form="medial" 
d="M-8 0q-20 0 -26 8t-6 24v48q0 14 6.5 21.5t25.5 7.5h61q18 0 30.5 3t20 11t11 23.5t3.5 39.5v270h159v-241q0 -46 16.5 -76t59.5 -30h44q20 0 27 -7t7 -23v-47q0 -17 -7 -24.5t-27 -7.5h-17q-23 0 -42.5 8.5t-33.5 23t-23.5 33.5t-12.5 40q-18 -105 -140 -105h-136z" />
    <glyph glyph-name="uniFBFD" unicode="&#x6cc;" horiz-adv-x="1157" arabic-form="final" 
d="M612 456h145q67 0 123 -10.5t96 -37t62 -71.5t22 -115v-113h105q20 0 26.5 -7t6.5 -23v-47q0 -17 -7 -24.5t-26 -7.5h-264v222q0 31 -10.5 54t-28.5 38.5t-42.5 23.5t-51.5 9v-137q0 -96 -23 -174.5t-71.5 -135t-123 -87.5t-178.5 -31q-97 0 -167 26.5t-115.5 69
t-67.5 95.5t-22 105q0 54 19 111t53 101q17 -5 35.5 -9t36.5 -9q-24 -42 -31 -76.5t-7 -67.5q0 -44 17.5 -82.5t50.5 -67t80.5 -45t106.5 -16.5q65 0 112 16.5t78 52.5t46 94.5t15 142.5v233z" />
    <glyph glyph-name="uniFE82" unicode="&#x622;" horiz-adv-x="313" arabic-form="final" 
d="M80 788h159v-679h82q20 0 26.5 -7t6.5 -23v-47q0 -17 -7 -24.5t-26 -7.5h-241v788zM5 903q-12 14 -24 27.5t-23 27.5q36 41 66.5 55t52.5 14q24 0 49 -9.5t49.5 -20.5t48.5 -20.5t45 -9.5q20 0 36.5 15t27.5 48l71 -23q-12 -38 -26 -63t-30 -39.5t-33 -20.5t-35 -6
q-31 0 -58.5 9.5t-52.5 21.5t-48.5 21.5t-46.5 9.5q-11 0 -27 -6t-42 -31z" />
    <glyph glyph-name="uniFE84" unicode="&#x623;" horiz-adv-x="313" arabic-form="final" 
d="M80 788h159v-679h82q20 0 26.5 -7t6.5 -23v-47q0 -17 -7 -24.5t-26 -7.5h-241v788zM8 893v79h64v63q0 41 11.5 66t30.5 39t43.5 19t50.5 5h73v-86h-61q-23 0 -37 -10t-14 -37v-59h117v-79h-278z" />
    <glyph glyph-name="uniFE86" unicode="&#x624;" horiz-adv-x="591" arabic-form="final" 
d="M503 456v-347h96q20 0 27 -7t7 -23v-47q0 -17 -7 -24.5t-27 -7.5h-98q-4 -64 -26 -106t-54.5 -66.5t-70.5 -34.5t-76 -10q-43 0 -84.5 9t-71.5 23l15 63q38 -8 74 -8q29 0 53.5 5t42.5 19.5t28.5 39.5t11.5 66h-267q-20 46 -34 95t-14 94q0 61 22 110t58.5 84t85 54
t101.5 19h208zM344 109v237h-56q-14 0 -31.5 -7t-33 -23t-26 -42.5t-10.5 -65.5q0 -26 3.5 -50.5t14.5 -48.5h139zM129 602v91h78v81q0 48 14 78.5t36.5 47.5t51.5 23t59 6h82v-92h-56q-18 0 -33 -2.5t-26 -9.5t-17 -20.5t-6 -35.5v-76h146v-91h-329z" />
    <glyph glyph-name="uniFE88" unicode="&#x625;" horiz-adv-x="313" arabic-form="final" 
d="M80 788h159v-679h82q20 0 26.5 -7t6.5 -23v-47q0 -17 -7 -24.5t-26 -7.5h-241v788zM2 -365v79h64v63q0 40 11.5 65.5t30.5 39.5t43.5 19t50.5 5h73v-86h-61q-23 0 -37 -10t-14 -37v-59h117v-79h-278z" />
    <glyph glyph-name="uniFE8A" unicode="&#x626;" horiz-adv-x="1157" arabic-form="final" 
d="M612 456h145q67 0 123 -10.5t96 -37t62 -71.5t22 -115v-113h105q20 0 26.5 -7t6.5 -23v-47q0 -17 -7 -24.5t-26 -7.5h-264v222q0 31 -10.5 54t-28.5 38.5t-42.5 23.5t-51.5 9v-137q0 -96 -23 -174.5t-71.5 -135t-123 -87.5t-178.5 -31q-97 0 -167 26.5t-115.5 69
t-67.5 95.5t-22 105q0 54 19 111t53 101q17 -5 35.5 -9t36.5 -9q-24 -42 -31 -76.5t-7 -67.5q0 -44 17.5 -82.5t50.5 -67t80.5 -45t106.5 -16.5q65 0 112 16.5t78 52.5t46 94.5t15 142.5v233zM-56 401v91h78v81q0 48 14 78.5t36.5 47.5t51.5 23t59 6h82v-92h-56
q-18 0 -33 -2.5t-26 -9.5t-17 -20.5t-6 -35.5v-76h146v-91h-329z" />
    <glyph glyph-name="uniFE8B" unicode="&#x626;" horiz-adv-x="341" arabic-form="initial" 
d="M-8 0q-20 0 -26 8t-6 24v48q0 14 6.5 21.5t25.5 7.5h116v347h160v-456h-276zM17 602v91h78v81q0 48 14 78.5t36.5 47.5t51.5 23t59 6h82v-92h-56q-18 0 -33 -2.5t-26 -9.5t-17 -20.5t-6 -35.5v-76h146v-91h-329z" />
    <glyph glyph-name="uniFE8C" unicode="&#x626;" horiz-adv-x="390" arabic-form="medial" 
d="M-8 0q-20 0 -26 8t-6 24v48q0 14 6.5 21.5t25.5 7.5h61q18 0 30.5 3t20 11t11 23.5t3.5 39.5v270h159v-241q0 -46 16.5 -76t59.5 -30h44q20 0 27 -7t7 -23v-47q0 -17 -7 -24.5t-27 -7.5h-17q-23 0 -42.5 8.5t-33.5 23t-23.5 33.5t-12.5 40q-18 -105 -140 -105h-136z
M26 601v91h78v81q0 48 14 78.5t36.5 47.5t51.5 23t59 6h82v-92h-56q-18 0 -33 -2.5t-26 -9.5t-17 -20.5t-6 -35.5v-76h146v-91h-329z" />
    <glyph glyph-name="uniFE8E" unicode="&#x627;" horiz-adv-x="313" arabic-form="final" 
d="M80 788h159v-679h82q20 0 26.5 -7t6.5 -23v-47q0 -17 -7 -24.5t-26 -7.5h-241v788z" />
    <glyph glyph-name="uniFE90" unicode="&#x628;" horiz-adv-x="978" arabic-form="final" 
d="M260 0q-70 0 -119.5 14t-81 39.5t-45.5 61t-14 78.5q0 51 19.5 100.5t51.5 91.5l69 -14q-16 -24 -26 -56t-10 -65q0 -21 6.5 -46t26 -46t56 -35t97.5 -14h355q35 0 45 17t10 60v270h159v-241q0 -46 16.5 -76t60.5 -30h50q20 0 27 -7t7 -23v-47q0 -17 -7 -24.5t-27 -7.5
h-23q-24 0 -43 8.5t-33.5 23t-23.5 33.5t-13 40q-18 -105 -140 -105h-450zM357 -139q0 31 21 52.5t53 21.5t53.5 -21.5t21.5 -52.5t-21.5 -53t-53.5 -22t-53 22t-21 53z" />
    <glyph glyph-name="uniFE91" unicode="&#x628;" horiz-adv-x="341" arabic-form="initial" 
d="M-8 0q-20 0 -26 8t-6 24v48q0 14 6.5 21.5t25.5 7.5h116v347h160v-456h-276zM113 -139q0 31 21 52.5t53 21.5t53.5 -21.5t21.5 -52.5t-21.5 -53t-53.5 -22t-53 22t-21 53z" />
    <glyph glyph-name="uniFE92" unicode="&#x628;" horiz-adv-x="390" arabic-form="medial" 
d="M-8 0q-20 0 -26 8t-6 24v48q0 14 6.5 21.5t25.5 7.5h61q18 0 30.5 3t20 11t11 23.5t3.5 39.5v270h159v-241q0 -46 16.5 -76t59.5 -30h44q20 0 27 -7t7 -23v-47q0 -17 -7 -24.5t-27 -7.5h-17q-23 0 -42.5 8.5t-33.5 23t-23.5 33.5t-12.5 40q-18 -105 -140 -105h-136z
M127 -139q0 31 21 52.5t53 21.5t53.5 -21.5t21.5 -52.5t-21.5 -53t-53.5 -22t-53 22t-21 53z" />
    <glyph glyph-name="uniFE94" unicode="&#x629;" horiz-adv-x="559" arabic-form="final" 
d="M454 456q10 -66 15.5 -134.5t5.5 -134.5q0 -37 -3 -78h94q20 0 27 -7t7 -23v-47q0 -17 -7 -24.5t-27 -7.5h-520q-21 46 -33 95.5t-12 93.5q0 61 21.5 110t58 84t85 54t101.5 19h187zM311 109q4 26 5.5 50.5t1.5 50.5q0 36 -3 70t-7 66h-48q-14 0 -31.5 -7t-33 -23
t-26 -42.5t-10.5 -65.5q0 -26 4 -50.5t14 -48.5h134zM272 677q0 31 21 52.5t53 21.5t53.5 -21.5t21.5 -52.5t-21.5 -53t-53.5 -22t-53 22t-21 53zM89 677q0 31 21.5 52.5t52.5 21.5q32 0 53.5 -21.5t21.5 -52.5t-21.5 -53t-53.5 -22q-31 0 -52.5 22t-21.5 53z" />
    <glyph glyph-name="uniFE96" unicode="&#x62a;" horiz-adv-x="978" arabic-form="final" 
d="M260 0q-70 0 -119.5 14t-81 39.5t-45.5 61t-14 78.5q0 51 19.5 100.5t51.5 91.5l69 -14q-16 -24 -26 -56t-10 -65q0 -21 6.5 -46t26 -46t56 -35t97.5 -14h355q35 0 45 17t10 60v270h159v-241q0 -46 16.5 -76t60.5 -30h50q20 0 27 -7t7 -23v-47q0 -17 -7 -24.5t-27 -7.5
h-23q-24 0 -43 8.5t-33.5 23t-23.5 33.5t-13 40q-18 -105 -140 -105h-450zM464 644q0 31 21 52.5t53 21.5t53.5 -21.5t21.5 -52.5t-21.5 -53t-53.5 -22t-53 22t-21 53zM281 644q0 31 21.5 52.5t52.5 21.5q32 0 53.5 -21.5t21.5 -52.5t-21.5 -53t-53.5 -22q-31 0 -52.5 22
t-21.5 53z" />
    <glyph glyph-name="uniFE97" unicode="&#x62a;" horiz-adv-x="388" arabic-form="initial" 
d="M-23 0q-20 0 -26 8t-6 24v48q0 14 6.5 21.5t25.5 7.5h175v347h160v-456h-335zM226 677q0 31 21 52.5t53 21.5t53.5 -21.5t21.5 -52.5t-21.5 -53t-53.5 -22t-53 22t-21 53zM43 677q0 31 21.5 52.5t52.5 21.5q32 0 53.5 -21.5t21.5 -52.5t-21.5 -53t-53.5 -22
q-31 0 -52.5 22t-21.5 53z" />
    <glyph glyph-name="uniFE98" unicode="&#x62a;" horiz-adv-x="419" arabic-form="medial" 
d="M-20 0q-20 0 -26 8t-6 24v48q0 14 6.5 21.5t25.5 7.5h100q35 0 45 16.5t10 60.5v270h159v-241q0 -56 21 -81t70 -25h50q20 0 27 -7t7 -23v-47q0 -17 -7 -24.5t-27 -7.5h-33t-14 1q-43 3 -69.5 34t-33.5 70q-18 -105 -140 -105h-165zM227 677q0 31 21 52.5t53 21.5
t53.5 -21.5t21.5 -52.5t-21.5 -53t-53.5 -22t-53 22t-21 53zM44 677q0 31 21.5 52.5t52.5 21.5q32 0 53.5 -21.5t21.5 -52.5t-21.5 -53t-53.5 -22q-31 0 -52.5 22t-21.5 53z" />
    <glyph glyph-name="uniFE9A" unicode="&#x62b;" horiz-adv-x="978" arabic-form="final" 
d="M260 0q-70 0 -119.5 14t-81 39.5t-45.5 61t-14 78.5q0 51 19.5 100.5t51.5 91.5l69 -14q-16 -24 -26 -56t-10 -65q0 -21 6.5 -46t26 -46t56 -35t97.5 -14h355q35 0 45 17t10 60v270h159v-241q0 -46 16.5 -76t60.5 -30h50q20 0 27 -7t7 -23v-47q0 -17 -7 -24.5t-27 -7.5
h-23q-24 0 -43 8.5t-33.5 23t-23.5 33.5t-13 40q-18 -105 -140 -105h-450zM447 643q0 31 21 52.5t53 21.5t53.5 -21.5t21.5 -52.5t-21.5 -52.5t-53.5 -21.5t-53 21.5t-21 52.5zM264 643q0 31 21.5 52.5t52.5 21.5q32 0 53.5 -21.5t21.5 -52.5t-21.5 -53t-53.5 -22
q-31 0 -52.5 22t-21.5 53zM355 802q0 31 21.5 52.5t52.5 21.5q32 0 53.5 -21.5t21.5 -52.5t-21.5 -52.5t-53.5 -21.5q-31 0 -52.5 21.5t-21.5 52.5z" />
    <glyph glyph-name="uniFE9B" unicode="&#x62b;" horiz-adv-x="388" arabic-form="initial" 
d="M-23 0q-20 0 -26 8t-6 24v48q0 14 6.5 21.5t25.5 7.5h175v347h160v-456h-335zM223 676q0 31 21 52.5t53 21.5t53.5 -21.5t21.5 -52.5t-21.5 -52.5t-53.5 -21.5t-53 21.5t-21 52.5zM40 676q0 31 21.5 52.5t52.5 21.5q32 0 53.5 -21.5t21.5 -52.5t-21.5 -53t-53.5 -22
q-31 0 -52.5 22t-21.5 53zM131 835q0 31 21.5 52.5t52.5 21.5q32 0 53.5 -21.5t21.5 -52.5t-21.5 -52.5t-53.5 -21.5q-31 0 -52.5 21.5t-21.5 52.5z" />
    <glyph glyph-name="uniFE9C" unicode="&#x62b;" horiz-adv-x="419" arabic-form="medial" 
d="M-20 0q-20 0 -26 8t-6 24v48q0 14 6.5 21.5t25.5 7.5h100q35 0 45 16.5t10 60.5v270h159v-241q0 -56 21 -81t70 -25h50q20 0 27 -7t7 -23v-47q0 -17 -7 -24.5t-27 -7.5h-33t-14 1q-43 3 -69.5 34t-33.5 70q-18 -105 -140 -105h-165zM225 676q0 31 21 52.5t53 21.5
t53.5 -21.5t21.5 -52.5t-21.5 -52.5t-53.5 -21.5t-53 21.5t-21 52.5zM42 676q0 31 21.5 52.5t52.5 21.5q32 0 53.5 -21.5t21.5 -52.5t-21.5 -53t-53.5 -22q-31 0 -52.5 22t-21.5 53zM133 835q0 31 21.5 52.5t52.5 21.5q32 0 53.5 -21.5t21.5 -52.5t-21.5 -52.5t-53.5 -21.5
q-31 0 -52.5 21.5t-21.5 52.5z" />
    <glyph glyph-name="uniFE9E" unicode="&#x62c;" horiz-adv-x="630" arabic-form="final" 
d="M154 -17q0 -51 7.5 -88t25.5 -61t48 -35.5t74 -11.5q19 0 37.5 1.5t41.5 6.5l8 -74q-29 -9 -60.5 -13.5t-63.5 -4.5q-62 0 -112 14.5t-85.5 43.5t-55 73.5t-19.5 104.5v170h385q-9 21 -15.5 48t-8.5 53q-3 35 -9 68t-22 59t-43.5 42t-74.5 16q-32 0 -62 -7t-61 -18
q-5 23 -11 45.5t-12 45.5q18 7 40 13.5t46 12t48 8.5t44 3q87 0 140.5 -27t83.5 -71t42.5 -99t18.5 -111q2 -22 4.5 -41.5t6.5 -39.5h98q20 0 26.5 -7t6.5 -23v-47q0 -17 -7 -24.5t-26 -7.5h-484v-17zM369 -139q0 31 21 52.5t53 21.5t53.5 -21.5t21.5 -52.5t-21.5 -53
t-53.5 -22t-53 22t-21 53z" />
    <glyph glyph-name="uniFE9F" unicode="&#x62c;" horiz-adv-x="620" arabic-form="initial" 
d="M-8 0q-20 0 -26 8t-6 24v48q0 14 6.5 21.5t25.5 7.5h380q-10 23 -16 51.5t-10 56.5q-4 33 -11 65t-22 57t-42 40.5t-72 15.5q-32 0 -62.5 -7t-60.5 -18q-6 23 -12 45.5t-11 45.5q18 7 40 13.5t46 12t47.5 8.5t44.5 3q86 0 138.5 -26t82.5 -68t43 -95t19 -108
q6 -54 15.5 -102t32.5 -99h-570zM187 -139q0 31 21 52.5t53 21.5t53.5 -21.5t21.5 -52.5t-21.5 -53t-53.5 -22t-53 22t-21 53z" />
    <glyph glyph-name="uniFEA0" unicode="&#x62c;" horiz-adv-x="620" arabic-form="medial" 
d="M-8 0q-20 0 -26 8t-6 24v48q0 14 6.5 21.5t25.5 7.5h380q-9 20 -15 45t-9 50q-4 39 -12 73.5t-24.5 60.5t-45.5 41t-77 15q-29 0 -56.5 -6.5t-56.5 -17.5q-6 23 -12 45.5t-11 45.5q18 7 40 13.5t46 12t47.5 8.5t44.5 3q87 0 140.5 -27t83.5 -71t42.5 -99t18.5 -111
q2 -22 4.5 -41.5t6.5 -39.5h100q20 0 27 -7t7 -23v-47q0 -17 -7 -24.5t-27 -7.5h-635zM172 -139q0 31 21 52.5t53 21.5t53.5 -21.5t21.5 -52.5t-21.5 -53t-53.5 -22t-53 22t-21 53z" />
    <glyph glyph-name="uniFEA2" unicode="&#x62d;" horiz-adv-x="630" arabic-form="final" 
d="M154 -17q0 -51 7.5 -88t25.5 -61t48 -35.5t74 -11.5q19 0 37.5 1.5t41.5 6.5l8 -74q-29 -9 -60.5 -13.5t-63.5 -4.5q-62 0 -112 14.5t-85.5 43.5t-55 73.5t-19.5 104.5v170h385q-9 21 -15.5 48t-8.5 53q-3 35 -9 68t-22 59t-43.5 42t-74.5 16q-32 0 -62 -7t-61 -18
q-5 23 -11 45.5t-12 45.5q18 7 40 13.5t46 12t48 8.5t44 3q87 0 140.5 -27t83.5 -71t42.5 -99t18.5 -111q2 -22 4.5 -41.5t6.5 -39.5h98q20 0 26.5 -7t6.5 -23v-47q0 -17 -7 -24.5t-26 -7.5h-484v-17z" />
    <glyph glyph-name="uniFEA3" unicode="&#x62d;" horiz-adv-x="620" arabic-form="initial" 
d="M-8 0q-20 0 -26 8t-6 24v48q0 14 6.5 21.5t25.5 7.5h380q-10 23 -16 51.5t-10 56.5q-4 33 -11 65t-22 57t-42 40.5t-72 15.5q-32 0 -62.5 -7t-60.5 -18q-6 23 -12 45.5t-11 45.5q18 7 40 13.5t46 12t47.5 8.5t44.5 3q86 0 138.5 -26t82.5 -68t43 -95t19 -108
q6 -54 15.5 -102t32.5 -99h-570z" />
    <glyph glyph-name="uniFEA4" unicode="&#x62d;" horiz-adv-x="620" arabic-form="medial" 
d="M-8 0q-20 0 -26 8t-6 24v48q0 14 6.5 21.5t25.5 7.5h380q-9 20 -15 45t-9 50q-4 39 -12 73.5t-24.5 60.5t-45.5 41t-77 15q-29 0 -56.5 -6.5t-56.5 -17.5q-6 23 -12 45.5t-11 45.5q18 7 40 13.5t46 12t47.5 8.5t44.5 3q87 0 140.5 -27t83.5 -71t42.5 -99t18.5 -111
q2 -22 4.5 -41.5t6.5 -39.5h100q20 0 27 -7t7 -23v-47q0 -17 -7 -24.5t-27 -7.5h-635z" />
    <glyph glyph-name="uniFEA6" unicode="&#x62e;" horiz-adv-x="630" arabic-form="final" 
d="M154 -17q0 -51 7.5 -88t25.5 -61t48 -35.5t74 -11.5q19 0 37.5 1.5t41.5 6.5l8 -74q-29 -9 -60.5 -13.5t-63.5 -4.5q-62 0 -112 14.5t-85.5 43.5t-55 73.5t-19.5 104.5v170h385q-9 21 -15.5 48t-8.5 53q-3 35 -9 68t-22 59t-43.5 42t-74.5 16q-32 0 -62 -7t-61 -18
q-5 23 -11 45.5t-12 45.5q18 7 40 13.5t46 12t48 8.5t44 3q87 0 140.5 -27t83.5 -71t42.5 -99t18.5 -111q2 -22 4.5 -41.5t6.5 -39.5h98q20 0 26.5 -7t6.5 -23v-47q0 -17 -7 -24.5t-26 -7.5h-484v-17zM179 677q0 31 21 52.5t53 21.5t53.5 -21.5t21.5 -52.5t-21.5 -53
t-53.5 -22t-53 22t-21 53z" />
    <glyph glyph-name="uniFEA7" unicode="&#x62e;" horiz-adv-x="620" arabic-form="initial" 
d="M-8 0q-20 0 -26 8t-6 24v48q0 14 6.5 21.5t25.5 7.5h380q-10 23 -16 51.5t-10 56.5q-4 33 -11 65t-22 57t-42 40.5t-72 15.5q-32 0 -62.5 -7t-60.5 -18q-6 23 -12 45.5t-11 45.5q18 7 40 13.5t46 12t47.5 8.5t44.5 3q86 0 138.5 -26t82.5 -68t43 -95t19 -108
q6 -54 15.5 -102t32.5 -99h-570zM175 677q0 31 21 52.5t53 21.5t53.5 -21.5t21.5 -52.5t-21.5 -53t-53.5 -22t-53 22t-21 53z" />
    <glyph glyph-name="uniFEA8" unicode="&#x62e;" horiz-adv-x="620" arabic-form="medial" 
d="M-8 0q-20 0 -26 8t-6 24v48q0 14 6.5 21.5t25.5 7.5h380q-9 20 -15 45t-9 50q-4 39 -12 73.5t-24.5 60.5t-45.5 41t-77 15q-29 0 -56.5 -6.5t-56.5 -17.5q-6 23 -12 45.5t-11 45.5q18 7 40 13.5t46 12t47.5 8.5t44.5 3q87 0 140.5 -27t83.5 -71t42.5 -99t18.5 -111
q2 -22 4.5 -41.5t6.5 -39.5h100q20 0 27 -7t7 -23v-47q0 -17 -7 -24.5t-27 -7.5h-635zM187 677q0 31 21 52.5t53 21.5t53.5 -21.5t21.5 -52.5t-21.5 -53t-53.5 -22t-53 22t-21 53z" />
    <glyph glyph-name="uniFEAA" unicode="&#x62f;" horiz-adv-x="592" arabic-form="final" 
d="M572 0q-26 0 -45.5 10.5t-32.5 26.5t-20.5 34.5t-10.5 33.5q-7 -34 -22 -54.5t-35 -32t-44 -15t-49 -3.5h-283v109h229q30 0 41.5 14t11.5 55v52q0 37 -4.5 67.5t-15.5 52t-31 33.5t-52 12h-125v103h149q68 0 113.5 -19t73 -52.5t39.5 -78.5t12 -98q0 -39 3 -66
t11.5 -43.5t23.5 -24t39 -7.5h51q20 0 26.5 -7t6.5 -23v-47q0 -17 -7 -24.5t-26 -7.5h-27z" />
    <glyph glyph-name="uniFEAC" unicode="&#x630;" horiz-adv-x="592" arabic-form="final" 
d="M572 0q-26 0 -45.5 10.5t-32.5 26.5t-20.5 34.5t-10.5 33.5q-7 -34 -22 -54.5t-35 -32t-44 -15t-49 -3.5h-283v109h229q30 0 41.5 14t11.5 55v52q0 37 -4.5 67.5t-15.5 52t-31 33.5t-52 12h-125v103h149q68 0 113.5 -19t73 -52.5t39.5 -78.5t12 -98q0 -39 3 -66
t11.5 -43.5t23.5 -24t39 -7.5h51q20 0 26.5 -7t6.5 -23v-47q0 -17 -7 -24.5t-26 -7.5h-27zM151 677q0 31 21 52.5t53 21.5t53.5 -21.5t21.5 -52.5t-21.5 -53t-53.5 -22t-53 22t-21 53z" />
    <glyph glyph-name="uniFEAE" unicode="&#x631;" horiz-adv-x="419" arabic-form="final" 
d="M403 0q-24 0 -43 8.5t-33 23t-23.5 33.5t-12.5 40v-52q0 -14 -0.5 -27.5t-1.5 -25.5q-4 -57 -19 -98t-38 -67t-54 -38.5t-66 -12.5q-40 0 -77.5 7.5t-77.5 27.5q4 16 7.5 31t6.5 31q14 -3 29 -4.5t27 -1.5q25 0 44.5 6.5t32.5 24t20 48t7 78.5v424h160v-249q0 -42 17 -70
t59 -28h62q20 0 26.5 -7t6.5 -23v-47q0 -17 -7 -24.5t-26 -7.5h-26z" />
    <glyph glyph-name="uniFEB0" unicode="&#x632;" horiz-adv-x="419" arabic-form="final" 
d="M403 0q-24 0 -43 8.5t-33 23t-23.5 33.5t-12.5 40v-52q0 -14 -0.5 -27.5t-1.5 -25.5q-4 -57 -19 -98t-38 -67t-54 -38.5t-66 -12.5q-40 0 -77.5 7.5t-77.5 27.5q4 16 7.5 31t6.5 31q14 -3 29 -4.5t27 -1.5q25 0 44.5 6.5t32.5 24t20 48t7 78.5v424h160v-249q0 -42 17 -70
t59 -28h62q20 0 26.5 -7t6.5 -23v-47q0 -17 -7 -24.5t-26 -7.5h-26zM141 677q0 31 21 52.5t53 21.5t53.5 -21.5t21.5 -52.5t-21.5 -53t-53.5 -22t-53 22t-21 53z" />
    <glyph glyph-name="uniFEB2" unicode="&#x633;" horiz-adv-x="1393" arabic-form="final" 
d="M760 0q-28 0 -49.5 9t-36.5 23.5t-24 33.5t-12 40q-3 -42 -8 -73.5t-10 -46.5q-17 -51 -48.5 -90.5t-73.5 -66.5t-93.5 -40.5t-107.5 -13.5q-79 0 -135.5 23t-92.5 60t-52.5 84t-16.5 95q0 67 23.5 128t66.5 109l55 -15q-29 -54 -37 -99t-8 -72q0 -42 15 -75.5t41 -56
t61.5 -34.5t75.5 -12q52 0 88 15.5t58 43t32 65t10 82.5v220h159v-121q0 -46 16.5 -76t59.5 -30h34q26 0 37.5 15.5t11.5 50.5v220h159v-180q0 -46 16.5 -76t57.5 -30h32q18 0 29 4.5t16.5 15.5t7 29.5t1.5 45.5v252h160v-241q0 -46 16.5 -76t59.5 -30h47q20 0 26.5 -7
t6.5 -23v-47q0 -17 -7 -24.5t-26 -7.5h-20q-23 0 -42.5 8.5t-33.5 23t-23.5 33.5t-12.5 40q-9 -52 -44.5 -78.5t-95.5 -26.5h-55q-29 0 -51 9t-37 24t-24 34t-12 38q-11 -54 -46.5 -79.5t-94.5 -25.5h-49v0z" />
    <glyph glyph-name="uniFEB3" unicode="&#x633;" horiz-adv-x="1009" arabic-form="initial" 
d="M414 0q-25 0 -44 9t-33.5 24t-23 34t-12.5 38q-11 -54 -46 -79.5t-94 -25.5h-169q-20 0 -26 8t-6 24v48q0 14 6.5 21.5t25.5 7.5h110q26 0 37.5 15.5t11.5 50.5v161h159v-121q0 -46 16.5 -76t57.5 -30h34q26 0 37.5 15.5t11.5 50.5v220h159v-180q0 -46 16.5 -76t57.5 -30
h70v347h161v-456h-201q-25 0 -44 9t-33.5 24t-23 34t-12.5 38q-11 -54 -46 -79.5t-94 -25.5h-63z" />
    <glyph glyph-name="uniFEB4" unicode="&#x633;" horiz-adv-x="1061" arabic-form="medial" 
d="M732 109q35 0 44.5 16.5t9.5 60.5v270h159v-241q0 -46 16.5 -76t60.5 -30h46q20 0 27 -7t7 -23v-47q0 -17 -7 -24.5t-27 -7.5h-19q-24 0 -43 8.5t-33 23t-23.5 33.5t-12.5 40q-9 -52 -44.5 -78.5t-95.5 -26.5h-47q-25 0 -48.5 7t-41.5 20.5t-29.5 33t-13.5 44.5
q-11 -54 -46 -79.5t-94 -25.5h-36q-26 0 -50.5 6.5t-43.5 19t-31 32.5t-15 47q-11 -54 -46 -79.5t-94 -25.5h-169q-20 0 -26 8t-6 24v48q0 14 6.5 21.5t25.5 7.5h110q26 0 37.5 15.5t11.5 50.5v161h159v-121q0 -46 16.5 -76t57.5 -30h34q26 0 37.5 15.5t11.5 50.5v220h159
v-180q0 -46 16.5 -76t57.5 -30h32z" />
    <glyph glyph-name="uniFEB6" unicode="&#x634;" horiz-adv-x="1393" arabic-form="final" 
d="M760 0q-28 0 -49.5 9t-36.5 23.5t-24 33.5t-12 40q-3 -42 -8 -73.5t-10 -46.5q-17 -51 -48.5 -90.5t-73.5 -66.5t-93.5 -40.5t-107.5 -13.5q-79 0 -135.5 23t-92.5 60t-52.5 84t-16.5 95q0 67 23.5 128t66.5 109l55 -15q-29 -54 -37 -99t-8 -72q0 -42 15 -75.5t41 -56
t61.5 -34.5t75.5 -12q52 0 88 15.5t58 43t32 65t10 82.5v220h159v-121q0 -46 16.5 -76t59.5 -30h34q26 0 37.5 15.5t11.5 50.5v220h159v-180q0 -46 16.5 -76t57.5 -30h32q18 0 29 4.5t16.5 15.5t7 29.5t1.5 45.5v252h160v-241q0 -46 16.5 -76t59.5 -30h47q20 0 26.5 -7
t6.5 -23v-47q0 -17 -7 -24.5t-26 -7.5h-20q-23 0 -42.5 8.5t-33.5 23t-23.5 33.5t-12.5 40q-9 -52 -44.5 -78.5t-95.5 -26.5h-55q-29 0 -51 9t-37 24t-24 34t-12 38q-11 -54 -46.5 -79.5t-94.5 -25.5h-49v0zM891 643q0 31 21 52.5t53 21.5t53.5 -21.5t21.5 -52.5
t-21.5 -52.5t-53.5 -21.5t-53 21.5t-21 52.5zM708 643q0 31 21.5 52.5t52.5 21.5q32 0 53.5 -21.5t21.5 -52.5t-21.5 -53t-53.5 -22q-31 0 -52.5 22t-21.5 53zM799 802q0 31 21.5 52.5t52.5 21.5q32 0 53.5 -21.5t21.5 -52.5t-21.5 -52.5t-53.5 -21.5q-31 0 -52.5 21.5
t-21.5 52.5z" />
    <glyph glyph-name="uniFEB7" unicode="&#x634;" horiz-adv-x="1009" arabic-form="initial" 
d="M414 0q-25 0 -44 9t-33.5 24t-23 34t-12.5 38q-11 -54 -46 -79.5t-94 -25.5h-169q-20 0 -26 8t-6 24v48q0 14 6.5 21.5t25.5 7.5h110q26 0 37.5 15.5t11.5 50.5v161h159v-121q0 -46 16.5 -76t57.5 -30h34q26 0 37.5 15.5t11.5 50.5v220h159v-180q0 -46 16.5 -76t57.5 -30
h70v347h161v-456h-201q-25 0 -44 9t-33.5 24t-23 34t-12.5 38q-11 -54 -46 -79.5t-94 -25.5h-63zM562 643q0 31 21 52.5t53 21.5t53.5 -21.5t21.5 -52.5t-21.5 -52.5t-53.5 -21.5t-53 21.5t-21 52.5zM379 643q0 31 21.5 52.5t52.5 21.5q32 0 53.5 -21.5t21.5 -52.5
t-21.5 -53t-53.5 -22q-31 0 -52.5 22t-21.5 53zM470 802q0 31 21.5 52.5t52.5 21.5q32 0 53.5 -21.5t21.5 -52.5t-21.5 -52.5t-53.5 -21.5q-31 0 -52.5 21.5t-21.5 52.5z" />
    <glyph glyph-name="uniFEB8" unicode="&#x634;" horiz-adv-x="1061" arabic-form="medial" 
d="M732 109q35 0 44.5 16.5t9.5 60.5v270h159v-241q0 -46 16.5 -76t60.5 -30h46q20 0 27 -7t7 -23v-47q0 -17 -7 -24.5t-27 -7.5h-19q-24 0 -43 8.5t-33 23t-23.5 33.5t-12.5 40q-9 -52 -44.5 -78.5t-95.5 -26.5h-47q-25 0 -48.5 7t-41.5 20.5t-29.5 33t-13.5 44.5
q-11 -54 -46 -79.5t-94 -25.5h-36q-26 0 -50.5 6.5t-43.5 19t-31 32.5t-15 47q-11 -54 -46 -79.5t-94 -25.5h-169q-20 0 -26 8t-6 24v48q0 14 6.5 21.5t25.5 7.5h110q26 0 37.5 15.5t11.5 50.5v161h159v-121q0 -46 16.5 -76t57.5 -30h34q26 0 37.5 15.5t11.5 50.5v220h159
v-180q0 -46 16.5 -76t57.5 -30h32zM563 643q0 31 21 52.5t53 21.5t53.5 -21.5t21.5 -52.5t-21.5 -52.5t-53.5 -21.5t-53 21.5t-21 52.5zM380 643q0 31 21.5 52.5t52.5 21.5q32 0 53.5 -21.5t21.5 -52.5t-21.5 -53t-53.5 -22q-31 0 -52.5 22t-21.5 53zM471 802
q0 31 21.5 52.5t52.5 21.5q32 0 53.5 -21.5t21.5 -52.5t-21.5 -52.5t-53.5 -21.5q-31 0 -52.5 21.5t-21.5 52.5z" />
    <glyph glyph-name="uniFEBA" unicode="&#x635;" horiz-adv-x="1230" arabic-form="final" 
d="M620 0q-16 -54 -46.5 -96t-72.5 -70.5t-93 -43.5t-108 -15q-79 0 -135.5 23t-92.5 60t-53 84t-17 95q0 67 24 128t67 109q14 -4 27.5 -7.5t27.5 -7.5q-29 -54 -37 -99t-8 -72q0 -42 15 -75.5t41 -56t61.5 -34.5t75.5 -12q49 0 84.5 15t58 42.5t33.5 65.5t11 83v281h150
v-134q23 63 55.5 107.5t70 73t77.5 41.5t78 13q55 0 99.5 -20.5t76 -58t48.5 -89t17 -114.5v-107h82q20 0 26.5 -7t6.5 -23v-47q0 -17 -7 -24.5t-26 -7.5h-617zM995 205q0 87 -37.5 125.5t-101.5 38.5q-34 0 -67.5 -15.5t-64.5 -47.5t-56.5 -81t-43.5 -116h371v96z" />
    <glyph glyph-name="uniFEBB" unicode="&#x635;" horiz-adv-x="840" arabic-form="initial" 
d="M-8 0q-20 0 -26 8t-6 24v49q0 14 6.5 21.5t25.5 7.5h106v287h150v-134q23 63 55.5 107.5t70 73t77.5 41.5t78 13q55 0 99.5 -20.5t76 -58t48.5 -89t17 -114.5v-216h-778zM610 204q0 87 -37.5 125.5t-101.5 38.5q-34 0 -68 -15.5t-64.5 -47t-56.5 -80.5t-43 -116h371v95z
" />
    <glyph glyph-name="uniFEBC" unicode="&#x635;" horiz-adv-x="849" arabic-form="medial" 
d="M856 109q20 0 27 -7t7 -23v-47q0 -17 -7 -24.5t-27 -7.5h-864q-20 0 -26 8t-6 24v49q0 14 6.5 21.5t25.5 7.5h106v287h150v-134q23 63 55.5 107.5t70 73t77.5 41.5t78 13q55 0 99.5 -20.5t76 -58t48.5 -89t17 -114.5v-107h86zM610 204q0 87 -37.5 125.5t-101.5 38.5
q-34 0 -68 -15.5t-64.5 -47t-56.5 -80.5t-43 -116h371v95z" />
    <glyph glyph-name="uniFEBE" unicode="&#x636;" horiz-adv-x="1230" arabic-form="final" 
d="M620 0q-16 -54 -46.5 -96t-72.5 -70.5t-93 -43.5t-108 -15q-79 0 -135.5 23t-92.5 60t-53 84t-17 95q0 67 24 128t67 109q14 -4 27.5 -7.5t27.5 -7.5q-29 -54 -37 -99t-8 -72q0 -42 15 -75.5t41 -56t61.5 -34.5t75.5 -12q49 0 84.5 15t58 42.5t33.5 65.5t11 83v281h150
v-134q23 63 55.5 107.5t70 73t77.5 41.5t78 13q55 0 99.5 -20.5t76 -58t48.5 -89t17 -114.5v-107h82q20 0 26.5 -7t6.5 -23v-47q0 -17 -7 -24.5t-26 -7.5h-617zM995 205q0 87 -37.5 125.5t-101.5 38.5q-34 0 -67.5 -15.5t-64.5 -47.5t-56.5 -81t-43.5 -116h371v96zM834 677
q0 31 21 52.5t53 21.5t53.5 -21.5t21.5 -52.5t-21.5 -53t-53.5 -22t-53 22t-21 53z" />
    <glyph glyph-name="uniFEBF" unicode="&#x636;" horiz-adv-x="840" arabic-form="initial" 
d="M-8 0q-20 0 -26 8t-6 24v49q0 14 6.5 21.5t25.5 7.5h106v287h150v-134q23 63 55.5 107.5t70 73t77.5 41.5t78 13q55 0 99.5 -20.5t76 -58t48.5 -89t17 -114.5v-216h-778zM610 204q0 87 -37.5 125.5t-101.5 38.5q-34 0 -68 -15.5t-64.5 -47t-56.5 -80.5t-43 -116h371v95z
M454 677q0 31 21 52.5t53 21.5t53.5 -21.5t21.5 -52.5t-21.5 -53t-53.5 -22t-53 22t-21 53z" />
    <glyph glyph-name="uniFEC0" unicode="&#x636;" horiz-adv-x="849" arabic-form="medial" 
d="M856 109q20 0 27 -7t7 -23v-47q0 -17 -7 -24.5t-27 -7.5h-864q-20 0 -26 8t-6 24v49q0 14 6.5 21.5t25.5 7.5h106v287h150v-134q23 63 55.5 107.5t70 73t77.5 41.5t78 13q55 0 99.5 -20.5t76 -58t48.5 -89t17 -114.5v-107h86zM610 204q0 87 -37.5 125.5t-101.5 38.5
q-34 0 -68 -15.5t-64.5 -47t-56.5 -80.5t-43 -116h371v95zM451 677q0 31 21 52.5t53 21.5t53.5 -21.5t21.5 -52.5t-21.5 -53t-53.5 -22t-53 22t-21 53z" />
    <glyph glyph-name="uniFEC2" unicode="&#x637;" horiz-adv-x="866" arabic-form="final" 
d="M10 109h102v679h161v-526q21 62 52.5 107t68.5 73.5t76.5 42t77.5 13.5q55 0 99.5 -20.5t76 -58t48.5 -89t17 -114.5v-107h84q20 0 27 -7t7 -23v-47q0 -17 -7 -24.5t-27 -7.5h-863v109zM629 205q0 87 -37.5 125.5t-101.5 38.5q-34 0 -68.5 -15.5t-66 -47.5t-58 -81
t-44.5 -116h376v96z" />
    <glyph glyph-name="uniFEC3" unicode="&#x637;" horiz-adv-x="848" arabic-form="initial" 
d="M-8 0q-20 0 -26 8t-6 24v48q0 14 6.5 21.5t25.5 7.5h107v679h161v-526q22 62 53.5 107t68 73.5t76 42t77.5 13.5q55 0 99.5 -20.5t76 -58t48.5 -89t17 -114.5v-216h-784zM616 205q0 87 -37.5 125.5t-101.5 38.5q-34 0 -68.5 -15.5t-66 -47.5t-58 -81t-44.5 -116h376v96z
" />
    <glyph glyph-name="uniFEC4" unicode="&#x637;" horiz-adv-x="850" arabic-form="medial" 
d="M-8 0q-20 0 -26 8t-6 24v48q0 14 6.5 21.5t25.5 7.5h105v679h161v-526q21 62 52.5 107t68 73.5t76.5 42t78 13.5q55 0 99 -20.5t75.5 -58t48.5 -89t17 -114.5v-107h84q20 0 27 -7t7 -23v-47q0 -17 -7 -24.5t-27 -7.5h-865zM613 205q0 87 -37 125.5t-102 38.5
q-34 0 -68.5 -15.5t-66 -47.5t-58 -81t-44.5 -116h376v96z" />
    <glyph glyph-name="uniFEC6" unicode="&#x638;" horiz-adv-x="866" arabic-form="final" 
d="M10 109h102v679h161v-526q21 62 52.5 107t68.5 73.5t76.5 42t77.5 13.5q55 0 99.5 -20.5t76 -58t48.5 -89t17 -114.5v-107h84q20 0 27 -7t7 -23v-47q0 -17 -7 -24.5t-27 -7.5h-863v109zM629 205q0 87 -37.5 125.5t-101.5 38.5q-34 0 -68.5 -15.5t-66 -47.5t-58 -81
t-44.5 -116h376v96zM466 677q0 31 21 52.5t53 21.5t53.5 -21.5t21.5 -52.5t-21.5 -53t-53.5 -22t-53 22t-21 53z" />
    <glyph glyph-name="uniFEC7" unicode="&#x638;" horiz-adv-x="848" arabic-form="initial" 
d="M-8 0q-20 0 -26 8t-6 24v48q0 14 6.5 21.5t25.5 7.5h107v679h161v-526q22 62 53.5 107t68 73.5t76 42t77.5 13.5q55 0 99.5 -20.5t76 -58t48.5 -89t17 -114.5v-216h-784zM616 205q0 87 -37.5 125.5t-101.5 38.5q-34 0 -68.5 -15.5t-66 -47.5t-58 -81t-44.5 -116h376v96z
M455 677q0 31 21 52.5t53 21.5t53.5 -21.5t21.5 -52.5t-21.5 -53t-53.5 -22t-53 22t-21 53z" />
    <glyph glyph-name="uniFEC8" unicode="&#x638;" horiz-adv-x="850" arabic-form="medial" 
d="M-8 0q-20 0 -26 8t-6 24v48q0 14 6.5 21.5t25.5 7.5h105v679h161v-526q21 62 52.5 107t68 73.5t76.5 42t78 13.5q55 0 99 -20.5t75.5 -58t48.5 -89t17 -114.5v-107h84q20 0 27 -7t7 -23v-47q0 -17 -7 -24.5t-27 -7.5h-865zM613 205q0 87 -37 125.5t-102 38.5
q-34 0 -68.5 -15.5t-66 -47.5t-58 -81t-44.5 -116h376v96zM453 677q0 31 21 52.5t53 21.5t53.5 -21.5t21.5 -52.5t-21.5 -53t-53.5 -22t-53 22t-21 53z" />
    <glyph glyph-name="uniFECA" unicode="&#x639;" horiz-adv-x="563" arabic-form="final" 
d="M570 109q20 0 27 -7t7 -23v-47q0 -17 -7 -24.5t-27 -7.5h-416v-17q0 -51 7.5 -88t25.5 -61t48 -35.5t74 -11.5q19 0 37.5 1.5t41.5 6.5l8 -74q-29 -9 -60.5 -13.5t-63.5 -4.5q-62 0 -112 14.5t-85.5 43.5t-55 73.5t-19.5 104.5v170h159q-37 36 -63 81.5t-26 100.5
q0 54 22.5 93.5t59 64.5t83.5 37t96 12q32 0 70.5 -7.5t67.5 -19.5v-103q-30 14 -59.5 19t-49.5 5q-55 0 -89.5 -30t-34.5 -95q0 -48 23.5 -90t56.5 -68h254z" />
    <glyph glyph-name="uniFECB" unicode="&#x639;" horiz-adv-x="554" arabic-form="initial" 
d="M-8 0q-20 0 -26 8t-6 24v48q0 14 6.5 21.5t25.5 7.5h152q-38 36 -64 81.5t-26 100.5q0 52 21 91t55.5 64.5t80 38.5t93.5 13q14 0 33.5 -1.5t40 -5t40.5 -8.5t36 -12v-103q-31 14 -60.5 19t-52.5 5q-54 0 -87.5 -32t-33.5 -93q0 -50 23.5 -91t57.5 -67h196v-109h-505z
" />
    <glyph glyph-name="uniFECC" unicode="&#x639;" horiz-adv-x="548" arabic-form="medial" 
d="M555 109q20 0 27 -7t7 -23v-47q0 -17 -7 -24.5t-27 -7.5h-563q-20 0 -26 8t-6 24v48q0 14 6.5 21.5t25.5 7.5h152q-38 36 -64 81.5t-26 100.5q0 52 21 91t55.5 64.5t80 38.5t93.5 13q13 0 32 -1.5t39.5 -4.5t41.5 -8t37 -13v-103q-31 14 -60 19t-49 5q-56 0 -90.5 -30
t-34.5 -95q0 -50 23.5 -91t57.5 -67h254z" />
    <glyph glyph-name="uniFECE" unicode="&#x63a;" horiz-adv-x="563" arabic-form="final" 
d="M570 109q20 0 27 -7t7 -23v-47q0 -17 -7 -24.5t-27 -7.5h-416v-17q0 -51 7.5 -88t25.5 -61t48 -35.5t74 -11.5q19 0 37.5 1.5t41.5 6.5l8 -74q-29 -9 -60.5 -13.5t-63.5 -4.5q-62 0 -112 14.5t-85.5 43.5t-55 73.5t-19.5 104.5v170h159q-37 36 -63 81.5t-26 100.5
q0 54 22.5 93.5t59 64.5t83.5 37t96 12q32 0 70.5 -7.5t67.5 -19.5v-103q-30 14 -59.5 19t-49.5 5q-55 0 -89.5 -30t-34.5 -95q0 -48 23.5 -90t56.5 -68h254zM240 677q0 31 21 52.5t53 21.5t53.5 -21.5t21.5 -52.5t-21.5 -53t-53.5 -22t-53 22t-21 53z" />
    <glyph glyph-name="uniFECF" unicode="&#x63a;" horiz-adv-x="554" arabic-form="initial" 
d="M-8 0q-20 0 -26 8t-6 24v48q0 14 6.5 21.5t25.5 7.5h152q-38 36 -64 81.5t-26 100.5q0 52 21 91t55.5 64.5t80 38.5t93.5 13q14 0 33.5 -1.5t40 -5t40.5 -8.5t36 -12v-103q-31 14 -60.5 19t-52.5 5q-54 0 -87.5 -32t-33.5 -93q0 -50 23.5 -91t57.5 -67h196v-109h-505z
M228 677q0 31 21 52.5t53 21.5t53.5 -21.5t21.5 -52.5t-21.5 -53t-53.5 -22t-53 22t-21 53z" />
    <glyph glyph-name="uniFED0" unicode="&#x63a;" horiz-adv-x="548" arabic-form="medial" 
d="M555 109q20 0 27 -7t7 -23v-47q0 -17 -7 -24.5t-27 -7.5h-563q-20 0 -26 8t-6 24v48q0 14 6.5 21.5t25.5 7.5h152q-38 36 -64 81.5t-26 100.5q0 52 21 91t55.5 64.5t80 38.5t93.5 13q13 0 32 -1.5t39.5 -4.5t41.5 -8t37 -13v-103q-31 14 -60 19t-49 5q-56 0 -90.5 -30
t-34.5 -95q0 -50 23.5 -91t57.5 -67h254zM225 677q0 31 21 52.5t53 21.5t53.5 -21.5t21.5 -52.5t-21.5 -53t-53.5 -22t-53 22t-21 53z" />
    <glyph glyph-name="uniFED2" unicode="&#x641;" horiz-adv-x="1076" arabic-form="final" 
d="M961 456q9 -66 15 -134.5t6 -134.5q0 -19 -1 -38.5t-3 -39.5h105q20 0 27 -7t7 -23v-47q0 -17 -7 -24.5t-27 -7.5h-821q-71 0 -120.5 14t-81 39.5t-45.5 61t-14 78.5q0 51 20 100.5t52 91.5l68 -14q-15 -24 -25 -56t-10 -65q0 -21 6.5 -46t26 -46t56 -35t97.5 -14h225
q-8 43 -8 80q0 61 21.5 110t58.5 84t85 54t101 19h186zM819 109q6 51 6 101q0 36 -2.5 70t-7.5 66h-47q-14 0 -31.5 -7t-33 -23t-26 -42.5t-10.5 -65.5q0 -26 3.5 -51t13.5 -48h135zM696 677q0 31 21 52.5t53 21.5t53.5 -21.5t21.5 -52.5t-21.5 -53t-53.5 -22t-53 22t-21 53
z" />
    <glyph glyph-name="uniFED3" unicode="&#x641;" horiz-adv-x="634" arabic-form="initial" 
d="M-8 0q-20 0 -26 8t-6 24v48q0 14 6.5 21.5t25.5 7.5h98q-8 43 -8 80q0 70 25.5 120.5t67.5 83t96 48t111 15.5h152q9 -66 15 -134.5t6 -134.5q0 -41 -2.5 -87t-8.5 -100h-552zM391 109q4 26 5.5 50.5t1.5 50.5q0 36 -2.5 70t-7.5 66h-48q-14 0 -31.5 -7t-33 -23
t-26 -42.5t-10.5 -65.5q0 -26 3.5 -50.5t14.5 -48.5h134zM269 677q0 31 21 52.5t53 21.5t53.5 -21.5t21.5 -52.5t-21.5 -53t-53.5 -22t-53 22t-21 53z" />
    <glyph glyph-name="uniFED4" unicode="&#x641;" horiz-adv-x="656" arabic-form="medial" 
d="M258 677q0 31 21 52.5t53 21.5t53.5 -21.5t21.5 -52.5t-21.5 -53t-53.5 -22t-53 22t-21 53zM532 456q9 -66 15 -134.5t6 -134.5q0 -37 -3 -78h113q20 0 27 -7t7 -23v-47q0 -17 -7 -24.5t-27 -7.5h-671q-20 0 -26 8t-6 24v48q0 14 6.5 21.5t25.5 7.5h96q-9 41 -9 80
q0 61 21.5 110t58.5 84t85 54t101 19h187zM389 109q4 26 5.5 50.5t1.5 50.5q0 36 -2.5 70t-7.5 66h-49q-14 0 -31.5 -7t-33 -23t-26 -42.5t-10.5 -65.5q0 -26 4 -50.5t15 -48.5h134z" />
    <glyph glyph-name="uniFED6" unicode="&#x642;" horiz-adv-x="836" arabic-form="final" 
d="M330 0q-7 18 -15 42t-14.5 49.5t-11 51t-4.5 46.5q0 74 27 124.5t71 82.5t100 46t115 14h140q16 -100 18.5 -178.5t2.5 -125.5v-21.5t-1 -21.5h150q20 0 27 -7t7 -23v-47q0 -17 -7 -24.5t-27 -7.5h-163q-30 -149 -128.5 -226t-270.5 -77q-87 0 -152 23t-108 63.5
t-64.5 95t-21.5 117.5q0 52 18 108t55 102q17 -5 35 -9t35 -9q-26 -47 -32 -79.5t-6 -64.5q0 -58 22 -98.5t56 -66t76.5 -37t82.5 -11.5q204 0 247 169h-259zM601 109v80q0 40 -2 79.5t-7 77.5h-47q-14 0 -31.5 -7t-33 -23t-26 -42.5t-10.5 -65.5q0 -28 4 -53.5t15 -45.5
h138zM560 677q0 31 21 52.5t53 21.5t53.5 -21.5t21.5 -52.5t-21.5 -53t-53.5 -22t-53 22t-21 53zM377 677q0 31 21.5 52.5t52.5 21.5q32 0 53.5 -21.5t21.5 -52.5t-21.5 -53t-53.5 -22q-31 0 -52.5 22t-21.5 53z" />
    <glyph glyph-name="uniFED7" unicode="&#x642;" horiz-adv-x="634" arabic-form="initial" 
d="M-8 0q-20 0 -26 8t-6 24v48q0 14 6.5 21.5t25.5 7.5h98q-8 43 -8 80q0 70 25.5 120.5t67.5 83t96 48t111 15.5h152q9 -66 15 -134.5t6 -134.5q0 -41 -2.5 -87t-8.5 -100h-552zM391 109q4 26 5.5 50.5t1.5 50.5q0 36 -2.5 70t-7.5 66h-48q-14 0 -31.5 -7t-33 -23
t-26 -42.5t-10.5 -65.5q0 -26 3.5 -50.5t14.5 -48.5h134zM362 677q0 31 21 52.5t53 21.5t53.5 -21.5t21.5 -52.5t-21.5 -53t-53.5 -22t-53 22t-21 53zM179 677q0 31 21.5 52.5t52.5 21.5q32 0 53.5 -21.5t21.5 -52.5t-21.5 -53t-53.5 -22q-31 0 -52.5 22t-21.5 53z" />
    <glyph glyph-name="uniFED8" unicode="&#x642;" horiz-adv-x="656" arabic-form="medial" 
d="M532 456q9 -66 15 -134.5t6 -134.5q0 -37 -3 -78h113q20 0 27 -7t7 -23v-47q0 -17 -7 -24.5t-27 -7.5h-671q-20 0 -26 8t-6 24v48q0 14 6.5 21.5t25.5 7.5h96q-9 41 -9 80q0 61 21.5 110t58.5 84t85 54t101 19h187zM389 109q4 26 5.5 50.5t1.5 50.5q0 36 -2.5 70t-7.5 66
h-49q-14 0 -31.5 -7t-33 -23t-26 -42.5t-10.5 -65.5q0 -26 4 -50.5t15 -48.5h134zM349 677q0 31 21 52.5t53 21.5t53.5 -21.5t21.5 -52.5t-21.5 -53t-53.5 -22t-53 22t-21 53zM166 677q0 31 21.5 52.5t52.5 21.5q32 0 53.5 -21.5t21.5 -52.5t-21.5 -53t-53.5 -22
q-31 0 -52.5 22t-21.5 53z" />
    <glyph glyph-name="uniFEDA" unicode="&#x643;" horiz-adv-x="974" arabic-form="final" 
d="M260 0q-71 0 -120.5 14t-80.5 39.5t-45 61t-14 78.5q0 51 19.5 100.5t51.5 91.5l68 -14q-15 -24 -25 -56t-10 -65q0 -21 6.5 -46t26 -46t56 -35t97.5 -14h356q35 0 45 17t10 60v602h159v-573q0 -46 16.5 -76t60.5 -30h45q20 0 27 -7t7 -23v-47q0 -17 -7 -24.5t-27 -7.5
h-18q-24 0 -43 8.5t-33.5 23t-23.5 33.5t-13 40q-18 -105 -140 -105h-451zM307 431v72h63v65q0 39 11 63t29 37.5t41.5 18t47.5 4.5h65v-73h-44q-29 0 -47.5 -9.5t-18.5 -44.5v-61h117v-72h-264z" />
    <glyph glyph-name="uniFEDB" unicode="&#x643;" horiz-adv-x="552" arabic-form="initial" 
d="M-8 0q-20 0 -26 8t-6 24v48q0 14 6.5 21.5t25.5 7.5h329v149q0 28 -6 52.5t-19 43t-33.5 29t-49.5 10.5h-148v81q54 87 108 173t109 173q30 -20 60.5 -40.5t61.5 -41.5q-39 -60 -77 -120.5t-77 -121.5q50 -3 92.5 -15t73.5 -39.5t48 -72t17 -112.5v-257h-489z" />
    <glyph glyph-name="uniFEDC" unicode="&#x643;" horiz-adv-x="600" arabic-form="medial" 
d="M317 241q0 62 -18.5 103.5t-69.5 46.5q-10 1 -21 1.5t-22 0.5h-121v81q55 87 109 173t108 173q30 -20 61 -40.5t61 -41.5q-39 -60 -77 -120.5t-77 -121.5q51 -2 91.5 -15t69.5 -38.5t45.5 -64.5t18.5 -93q1 -11 1.5 -23t0.5 -24q0 -71 16.5 -100t59.5 -29h55
q20 0 26.5 -7t6.5 -23v-47q0 -17 -7 -24.5t-26 -7.5h-19q-24 0 -45 8t-37 22t-26.5 33t-12.5 42q-13 -60 -51.5 -82.5t-98.5 -22.5h-327q-24 0 -30 12.5t-6 29.5v23q0 16 5.5 30t30.5 14h273q29 0 41 13t12 56v63z" />
    <glyph glyph-name="uniFEDE" unicode="&#x644;" horiz-adv-x="761" arabic-form="final" 
d="M640 106q-6 -57 -15 -94t-20 -63q-19 -45 -50 -78t-71 -54.5t-86.5 -31.5t-97.5 -10q-79 0 -135.5 23t-92.5 60t-53 84t-17 95q0 67 24 128t67 109q14 -4 27.5 -7.5t27.5 -7.5q-29 -54 -37 -99t-8 -72q0 -42 15 -75.5t41 -56t61.5 -34.5t75.5 -12q52 0 87.5 15.5t57.5 43
t32 65t10 82.5v672h159v-573q0 -20 4 -39t13 -34t24 -24t36 -9h49q20 0 27 -7t7 -23v-47q0 -17 -7 -24.5t-27 -7.5h-21q-24 0 -42.5 9t-32 24t-21.5 34t-11 39z" />
    <glyph glyph-name="uniFEDF" unicode="&#x644;" horiz-adv-x="356" arabic-form="initial" 
d="M-8 0q-20 0 -26 8t-6 24v48q0 14 6.5 21.5t25.5 7.5h124v679h160v-788h-284z" />
    <glyph glyph-name="uniFEE0" unicode="&#x644;" horiz-adv-x="392" arabic-form="medial" 
d="M-8 0q-20 0 -26 8t-6 24v48q0 14 6.5 21.5t25.5 7.5h73q35 0 45 16.5t10 60.5v602h159v-573q0 -43 16.5 -74.5t59.5 -31.5h44q20 0 27 -7t7 -23v-47q0 -17 -7 -24.5t-27 -7.5h-16q-24 0 -43 8.5t-33.5 23t-24 33.5t-12.5 40q-18 -105 -140 -105h-138z" />
    <glyph glyph-name="uniFEE2" unicode="&#x645;" horiz-adv-x="661" arabic-form="final" 
d="M321 456q53 0 101.5 -19t85.5 -54t59 -84t22 -110q0 -19 -2.5 -39t-7.5 -41h90q20 0 27 -7t7 -23v-47q0 -17 -7 -24.5t-27 -7.5h-511v-17q0 -50 5.5 -88t21 -65t43 -44.5t72.5 -24.5q-2 -17 -4 -33l-4 -32q-142 6 -217 72t-75 203v138h118q-1 20 -2 38.5t-1 36.5
q0 69 6 137.5t14 134.5h186zM412 109q10 23 14 48.5t4 50.5q0 39 -10.5 65.5t-26 42.5t-33 23t-31.5 7h-48q-4 -32 -7 -65.5t-3 -70.5q0 -25 2 -50t5 -51h134z" />
    <glyph glyph-name="uniFEE3" unicode="&#x645;" horiz-adv-x="623" arabic-form="initial" 
d="M-8 0q-20 0 -26 8t-6 24v48q0 14 6.5 21.5t25.5 7.5h92q-1 20 -1 39.5v38.5q0 66 5.5 134.5t14.5 134.5h187q53 0 101.5 -19t85 -54t58 -84t21.5 -110q0 -44 -12 -93.5t-33 -95.5h-519zM380 109q10 23 14.5 48.5t4.5 50.5q0 39 -10.5 65.5t-26 42.5t-33 23t-31.5 7h-48
q-5 -32 -7.5 -65.5t-2.5 -70.5q0 -50 6 -101h134z" />
    <glyph glyph-name="uniFEE4" unicode="&#x645;" horiz-adv-x="642" arabic-form="medial" 
d="M254 456q58 0 112.5 -15.5t96.5 -48t67 -83t25 -120.5q0 -19 -2.5 -39t-7.5 -41h105q20 0 26.5 -7t6.5 -23v-47q0 -17 -7 -24.5t-26 -7.5h-658q-20 0 -26 8t-6 24v48q0 14 6.5 21.5t25.5 7.5h92q-1 20 -2 39.5t-1 38.5q0 66 6 134.5t15 134.5h152zM379 109
q10 23 14.5 48.5t4.5 50.5q0 39 -10.5 65.5t-26 42.5t-33 23t-32.5 7h-48q-4 -32 -7 -65.5t-3 -70.5q0 -25 2 -50t5 -51h134z" />
    <glyph glyph-name="uniFEE6" unicode="&#x646;" horiz-adv-x="762" arabic-form="final" 
d="M640 106q-1 -16 -3 -34t-4.5 -34.5t-5 -30t-5.5 -21.5q-18 -51 -49.5 -90.5t-73.5 -66t-92.5 -40.5t-106.5 -14q-79 0 -135.5 23t-92.5 60t-53 84t-17 95q0 67 24 128t67 109q14 -4 27.5 -7.5t27.5 -7.5q-29 -54 -37 -99t-8 -72q0 -42 15 -75.5t41 -56t61.5 -34.5
t75.5 -12q52 0 87.5 15.5t57.5 43t32 65t10 82.5v219h159v-120q0 -46 16.5 -76t60.5 -30h50q20 0 27 -7t7 -23v-47q0 -17 -7 -24.5t-27 -7.5h-20q-24 0 -42.5 9t-32.5 24t-22.5 34t-11.5 39zM241 602q0 31 21 52.5t53 21.5t53.5 -21.5t21.5 -52.5t-21.5 -53t-53.5 -22
t-53 22t-21 53z" />
    <glyph glyph-name="uniFEE7" unicode="&#x646;" horiz-adv-x="341" arabic-form="initial" 
d="M-8 0q-20 0 -26 8t-6 24v48q0 14 6.5 21.5t25.5 7.5h116v347h160v-456h-276zM116 677q0 31 21 52.5t53 21.5t53.5 -21.5t21.5 -52.5t-21.5 -53t-53.5 -22t-53 22t-21 53z" />
    <glyph glyph-name="uniFEE8" unicode="&#x646;" horiz-adv-x="390" arabic-form="medial" 
d="M-8 0q-20 0 -26 8t-6 24v48q0 14 6.5 21.5t25.5 7.5h61q18 0 30.5 3t20 11t11 23.5t3.5 39.5v270h159v-241q0 -46 16.5 -76t59.5 -30h44q20 0 27 -7t7 -23v-47q0 -17 -7 -24.5t-27 -7.5h-17q-23 0 -42.5 8.5t-33.5 23t-23.5 33.5t-12.5 40q-18 -105 -140 -105h-136z
M124 677q0 31 21 52.5t53 21.5t53.5 -21.5t21.5 -52.5t-21.5 -53t-53.5 -22t-53 22t-21 53z" />
    <glyph glyph-name="uniFEE9" unicode="&#x647;" horiz-adv-x="551" arabic-form="isolated" 
d="M453 456q9 -66 15 -134.5t6 -134.5q0 -79 -12 -187h-418q-21 46 -32.5 95.5t-11.5 93.5q0 61 21.5 110t58 84t85 54t101.5 19h187zM310 109q6 51 6 101q0 36 -2.5 70t-7.5 66h-48q-14 0 -31.5 -7t-33 -23t-26 -42.5t-10.5 -65.5q0 -26 4 -50.5t15 -48.5h134z" />
    <glyph glyph-name="uniFEEA" unicode="&#x647;" horiz-adv-x="559" arabic-form="final" 
d="M454 456q10 -66 15.5 -134.5t5.5 -134.5q0 -37 -3 -78h94q20 0 27 -7t7 -23v-47q0 -17 -7 -24.5t-27 -7.5h-520q-21 46 -33 95.5t-12 93.5q0 61 21.5 110t58 84t85 54t101.5 19h187zM311 109q4 26 5.5 50.5t1.5 50.5q0 36 -3 70t-7 66h-48q-14 0 -31.5 -7t-33 -23
t-26 -42.5t-10.5 -65.5q0 -26 4 -50.5t14 -48.5h134z" />
    <glyph glyph-name="uniFEEB" unicode="&#x647;" horiz-adv-x="889" arabic-form="initial" 
d="M-8 0q-20 0 -26 8t-6 24v48q0 14 6.5 21.5t25.5 7.5h108q2 86 22.5 154t57.5 116.5t89 77t117 35.5v79h140v-79q70 -9 124.5 -38t92 -76t57 -109t19.5 -137v-132h-827zM526 109h134v41q0 102 -34 167.5t-100 75.5v-284zM386 392q-57 -8 -92 -66t-40 -155
q-1 -14 -1.5 -29.5t-0.5 -32.5h134v283z" />
    <glyph glyph-name="uniFEEC" unicode="&#x647;" horiz-adv-x="899" arabic-form="medial" 
d="M-8 0q-20 0 -26 8t-6 24v48q0 14 6.5 21.5t25.5 7.5h109q2 86 22.5 154t57.5 116.5t89 77t117 35.5v79h140v-79q70 -9 124.5 -38t92 -76t57 -109t19.5 -137v-23h86q20 0 27 -7t7 -23v-47q0 -17 -7 -24.5t-27 -7.5h-914zM527 109h134v41q0 102 -34 167.5t-100 75.5v-284z
M387 392q-57 -8 -92 -66t-40 -155q-1 -14 -1.5 -29.5t-0.5 -32.5h134v283z" />
    <glyph glyph-name="uniFEEE" unicode="&#x648;" horiz-adv-x="591" arabic-form="final" 
d="M503 456v-347h96q20 0 27 -7t7 -23v-47q0 -17 -7 -24.5t-27 -7.5h-98q-4 -64 -26 -106t-54.5 -66.5t-70.5 -34.5t-76 -10q-43 0 -84.5 9t-71.5 23l15 63q38 -8 74 -8q29 0 53.5 5t42.5 19.5t28.5 39.5t11.5 66h-267q-20 46 -34 95t-14 94q0 61 22 110t58.5 84t85 54
t101.5 19h208zM344 109v237h-56q-14 0 -31.5 -7t-33 -23t-26 -42.5t-10.5 -65.5q0 -26 3.5 -50.5t14.5 -48.5h139z" />
    <glyph glyph-name="uniFEF0" unicode="&#x649;" horiz-adv-x="1157" arabic-form="final" 
d="M612 456h145q67 0 123 -10.5t96 -37t62 -71.5t22 -115v-113h105q20 0 26.5 -7t6.5 -23v-47q0 -17 -7 -24.5t-26 -7.5h-264v222q0 31 -10.5 54t-28.5 38.5t-42.5 23.5t-51.5 9v-137q0 -96 -23 -174.5t-71.5 -135t-123 -87.5t-178.5 -31q-97 0 -167 26.5t-115.5 69
t-67.5 95.5t-22 105q0 54 19 111t53 101q17 -5 35.5 -9t36.5 -9q-24 -42 -31 -76.5t-7 -67.5q0 -44 17.5 -82.5t50.5 -67t80.5 -45t106.5 -16.5q65 0 112 16.5t78 52.5t46 94.5t15 142.5v233z" />
    <glyph glyph-name="uniFEF2" unicode="&#x64a;" horiz-adv-x="1157" arabic-form="final" 
d="M612 456h145q67 0 123 -10.5t96 -37t62 -71.5t22 -115v-113h105q20 0 26.5 -7t6.5 -23v-47q0 -17 -7 -24.5t-26 -7.5h-264v222q0 31 -10.5 54t-28.5 38.5t-42.5 23.5t-51.5 9v-137q0 -96 -23 -174.5t-71.5 -135t-123 -87.5t-178.5 -31q-97 0 -167 26.5t-115.5 69
t-67.5 95.5t-22 105q0 54 19 111t53 101q17 -5 35.5 -9t36.5 -9q-24 -42 -31 -76.5t-7 -67.5q0 -44 17.5 -82.5t50.5 -67t80.5 -45t106.5 -16.5q65 0 112 16.5t78 52.5t46 94.5t15 142.5v233zM420 -378q0 30 21.5 51.5t52.5 21.5q32 0 53.5 -21.5t21.5 -51.5
q0 -32 -21.5 -53.5t-53.5 -21.5q-31 0 -52.5 21.5t-21.5 53.5zM238 -378q0 30 21 51.5t53 21.5q31 0 52.5 -21.5t21.5 -51.5q0 -32 -21.5 -53.5t-52.5 -21.5q-32 0 -53 21.5t-21 53.5z" />
    <glyph glyph-name="uniFEF3" unicode="&#x64a;" horiz-adv-x="388" arabic-form="initial" 
d="M-23 0q-20 0 -26 8t-6 24v48q0 14 6.5 21.5t25.5 7.5h175v347h160v-456h-335zM205 -138q0 30 21.5 51.5t52.5 21.5q32 0 53.5 -21.5t21.5 -51.5q0 -32 -21.5 -53.5t-53.5 -21.5q-31 0 -52.5 21.5t-21.5 53.5zM23 -138q0 30 21 51.5t53 21.5q31 0 52.5 -21.5t21.5 -51.5
q0 -32 -21.5 -53.5t-52.5 -21.5q-32 0 -53 21.5t-21 53.5z" />
    <glyph glyph-name="uniFEF4" unicode="&#x64a;" horiz-adv-x="419" arabic-form="medial" 
d="M-20 0q-20 0 -26 8t-6 24v48q0 14 6.5 21.5t25.5 7.5h100q35 0 45 16.5t10 60.5v270h159v-241q0 -56 21 -81t70 -25h50q20 0 27 -7t7 -23v-47q0 -17 -7 -24.5t-27 -7.5h-33t-14 1q-43 3 -69.5 34t-33.5 70q-18 -105 -140 -105h-165zM224 -138q0 30 21.5 51.5t52.5 21.5
q32 0 53.5 -21.5t21.5 -51.5q0 -32 -21.5 -53.5t-53.5 -21.5q-31 0 -52.5 21.5t-21.5 53.5zM42 -138q0 30 21 51.5t53 21.5q31 0 52.5 -21.5t21.5 -51.5q0 -32 -21.5 -53.5t-52.5 -21.5q-32 0 -53 21.5t-21 53.5z" />
    <glyph glyph-name="uniFEF5" unicode="&#xfef5;" horiz-adv-x="834" arabic-form="isolated" 
d="M594 109v679h160v-788h-708v109h212v506h161v-506h175zM159 747q-12 14 -24 27.5t-23 27.5q36 41 66.5 55t52.5 14q24 0 49 -9.5t49.5 -20.5t48.5 -20.5t45 -9.5q20 0 36.5 15t27.5 48l71 -23q-12 -38 -26 -63t-30 -39.5t-33 -20.5t-35 -6q-31 0 -58.5 9.5t-52.5 21.5
t-48.5 21.5t-46.5 9.5q-11 0 -27 -6t-42 -31z" />
    <glyph glyph-name="uniFEF6" unicode="&#xfef6;" horiz-adv-x="871" arabic-form="final" 
d="M46 109h213v506h159v-506h105q35 0 53.5 16.5t18.5 61.5v601h159v-572q0 -46 16.5 -76t60.5 -30h49q20 0 27 -7.5t7 -22.5v-48q0 -17 -7 -24.5t-27 -7.5h-22q-24 0 -43 9t-33 23.5t-23.5 33.5t-12.5 40q-9 -52 -44.5 -79t-95.5 -27h-560v109zM162 742q-12 14 -24 27.5
t-23 27.5q36 41 66.5 55t52.5 14q24 0 49 -9.5t49.5 -20.5t48.5 -20.5t45 -9.5q20 0 36.5 15t27.5 48l71 -23q-12 -38 -26 -63t-30 -39.5t-33 -20.5t-35 -6q-31 0 -58.5 9.5t-52.5 21.5t-48.5 21.5t-46.5 9.5q-11 0 -27 -6t-42 -31z" />
    <glyph glyph-name="uniFEF7" unicode="&#xfef7;" horiz-adv-x="834" arabic-form="isolated" 
d="M594 109v679h160v-788h-708v109h212v506h161v-506h175zM166 711v79h64v63q0 41 11.5 66t30.5 39t43.5 19t50.5 5h73v-86h-61q-23 0 -37 -10t-14 -37v-59h117v-79h-278z" />
    <glyph glyph-name="uniFEF8" unicode="&#xfef8;" horiz-adv-x="871" arabic-form="final" 
d="M46 109h213v506h159v-506h105q35 0 53.5 16.5t18.5 61.5v601h159v-572q0 -46 16.5 -76t60.5 -30h49q20 0 27 -7.5t7 -22.5v-48q0 -17 -7 -24.5t-27 -7.5h-22q-24 0 -43 9t-33 23.5t-23.5 33.5t-12.5 40q-9 -52 -44.5 -79t-95.5 -27h-560v109zM172 708v79h64v63
q0 41 11.5 66t30.5 39t43.5 19t50.5 5h73v-86h-61q-23 0 -37 -10t-14 -37v-59h117v-79h-278z" />
    <glyph glyph-name="uniFEF9" unicode="&#xfef9;" horiz-adv-x="834" arabic-form="isolated" 
d="M594 109v679h160v-788h-708v109h212v506h161v-506h175zM172 -365v79h64v63q0 40 11.5 65.5t30.5 39.5t43.5 19t50.5 5h73v-86h-61q-23 0 -37 -10t-14 -37v-59h117v-79h-278z" />
    <glyph glyph-name="uniFEFA" unicode="&#xfefa;" horiz-adv-x="871" arabic-form="final" 
d="M46 109h213v506h159v-506h105q35 0 53.5 16.5t18.5 61.5v601h159v-572q0 -46 16.5 -76t60.5 -30h49q20 0 27 -7.5t7 -22.5v-48q0 -17 -7 -24.5t-27 -7.5h-22q-24 0 -43 9t-33 23.5t-23.5 33.5t-12.5 40q-9 -52 -44.5 -79t-95.5 -27h-560v109zM172 -365v79h64v63
q0 40 11.5 65.5t30.5 39.5t43.5 19t50.5 5h73v-86h-61q-23 0 -37 -10t-14 -37v-59h117v-79h-278z" />
    <glyph glyph-name="uniFEFB" unicode="&#xfefb;" horiz-adv-x="834" arabic-form="isolated" 
d="M594 109v679h160v-788h-708v109h212v506h161v-506h175z" />
    <glyph glyph-name="uniFEFC" unicode="&#xfefc;" horiz-adv-x="871" arabic-form="final" 
d="M46 109h213v506h159v-506h105q35 0 53.5 16.5t18.5 61.5v601h159v-572q0 -46 16.5 -76t60.5 -30h49q20 0 27 -7.5t7 -22.5v-48q0 -17 -7 -24.5t-27 -7.5h-22q-24 0 -43 9t-33 23.5t-23.5 33.5t-12.5 40q-9 -52 -44.5 -79t-95.5 -27h-560v109z" />
    <glyph glyph-name=".notdef" horiz-adv-x="534" 
 />
    <glyph glyph-name=".null" horiz-adv-x="534" 
 />
    <glyph glyph-name="nonmarkingreturn" horiz-adv-x="208" 
 />
    <glyph glyph-name="space" unicode=" " horiz-adv-x="208" 
 />
    <glyph glyph-name="space" unicode="&#xa0;" horiz-adv-x="208" 
 />
    <glyph glyph-name="exclam" unicode="!" horiz-adv-x="346" 
d="M230 191h-110l-41 521h192zM261 72q0 -41 -24 -62.5t-63 -21.5q-38 0 -61.5 21.5t-23.5 61.5q0 41 23.5 62.5t62.5 21.5q38 0 62 -21.5t24 -61.5z" />
    <glyph glyph-name="quotedbl" unicode="&#x22;" horiz-adv-x="326" 
d="M272 494h-71l-13 232h97zM124 494h-70l-13 232h97z" />
    <glyph glyph-name="numbersign" unicode="#" horiz-adv-x="568" 
d="M567 447h-113l-36 -189h113l-13 -64h-112l-37 -194h-76l37 194h-154l-37 -194h-75l37 194h-113l13 64h112l36 189h-112l12 65h113l37 194h75l-36 -194h154l36 194h76l-37 -194h112zM225 447l-37 -189h155l36 189h-154z" />
    <glyph glyph-name="dollar" unicode="$" horiz-adv-x="537" 
d="M497 209q0 -50 -14.5 -87.5t-41.5 -63.5t-65 -41t-84 -21v-79h-48v76h-8q-44 0 -78 4t-59 9t-41.5 10t-24.5 8l33 95q16 -8 39 -15q20 -6 47.5 -11t63.5 -5h14.5t13.5 1v207l-66 38q-27 15 -50 32.5t-40 40t-27 50.5t-10 64q0 81 47.5 133.5t145.5 63.5v70h48v-67h6
q47 0 80.5 -4.5t56.5 -9.5q26 -6 43 -14l-33 -93q-15 8 -35 14q-17 5 -42 9.5t-57 4.5q-5 0 -9.5 -0.5t-9.5 -0.5v-182l77 -42q29 -15 52.5 -33.5t40 -41.5t26 -52t9.5 -67zM244 621q-22 -8 -38 -23.5t-16 -49.5q0 -29 15.5 -47.5t38.5 -32.5v153zM357 182q0 35 -17.5 53.5
t-47.5 37.5v-178q29 9 47 29t18 58z" />
    <glyph glyph-name="quotesingle" unicode="'" horiz-adv-x="184" 
d="M130 494h-76l-13 232h102z" />
    <glyph glyph-name="parenleft" unicode="(" horiz-adv-x="386" 
d="M249 -213q-59 43 -107 113q-20 30 -39.5 68.5t-34.5 86.5t-24.5 106t-9.5 126t9.5 126t24.5 106t34.5 86.5t39.5 68.5q48 70 107 114l63 -64q-49 -39 -89 -101q-17 -26 -33 -60t-28.5 -75.5t-20 -91t-7.5 -108.5q0 -117 27.5 -199.5t61.5 -135.5q40 -62 89 -101z" />
    <glyph glyph-name="parenright" unicode=")" horiz-adv-x="386" 
d="M352 288q0 -68 -9 -126t-24 -106t-34.5 -86.5t-39.5 -68.5q-48 -70 -108 -114l-62 65q50 38 89 100q17 26 32.5 60t28 75.5t20 91.5t7.5 108q0 59 -7.5 108.5t-20 91.5t-28.5 76t-33 60q-40 62 -89 101l63 64q60 -43 108 -113q20 -30 39.5 -68.5t34.5 -86.5t24 -106
t9 -126z" />
    <glyph glyph-name="plus" unicode="+" horiz-adv-x="636" 
d="M363 311v-265h-90v265h-252v87h252v264h90v-264h252v-87h-252z" />
    <glyph glyph-name="comma" unicode="," horiz-adv-x="275" 
d="M226 136q0 -36 -2 -63.5t-5.5 -48.5t-8.5 -37.5t-12 -31.5q-13 -29 -30.5 -49.5t-32.5 -34.5q-18 -16 -36 -26l-56 42q12 17 23 42q9 21 16 51t7 69q0 24 -1.5 41t-3.5 28q-3 13 -5 22h147v-4v0z" />
    <glyph glyph-name="hyphen" unicode="-" horiz-adv-x="335" 
d="M35 236v102h265v-102h-265z" />
    <glyph glyph-name="hyphen" unicode="&#x2010;" horiz-adv-x="335" 
d="M35 236v102h265v-102h-265z" />
    <glyph glyph-name="hyphen" unicode="&#xad;" horiz-adv-x="335" 
d="M35 236v102h265v-102h-265z" />
    <glyph glyph-name="period" unicode="." horiz-adv-x="400" 
d="M283 75q0 -42 -23.5 -64.5t-63.5 -22.5q-39 0 -62.5 22t-23.5 63q0 42 23.5 64.5t63.5 22.5q39 0 62.5 -21.5t23.5 -63.5z" />
    <glyph glyph-name="slash" unicode="/" horiz-adv-x="297" 
d="M114 -212h-89l159 1000h88z" />
    <glyph glyph-name="zero" unicode="0" horiz-adv-x="609" 
d="M569 361q0 -191 -66.5 -282t-201.5 -91q-133 0 -196.5 87t-63.5 274q0 191 66 282t201 91q133 0 197 -87t64 -274zM411 358q0 78 -5.5 130.5t-18 84t-32.5 45t-49 13.5q-30 0 -50 -14t-33 -46.5t-18.5 -86t-5.5 -132.5q0 -78 5.5 -130.5t17.5 -84t32 -45t49 -13.5
q30 0 50.5 14t33 46.5t18.5 86t6 132.5z" />
    <glyph glyph-name="one" unicode="1" horiz-adv-x="609" 
d="M257 0v589q-5 -4 -16 -8q-9 -4 -23 -9.5t-35 -13.5q-15 -5 -29 -9t-25 -6q-12 -3 -23 -5l-25 100q15 2 31 6q14 3 31 7.5t35 10.5q34 11 57 20.5t38 17.5q18 9 29 17h117v-717h-162z" />
    <glyph glyph-name="two" unicode="2" horiz-adv-x="609" 
d="M42 0v90l80 66q34 29 72 62.5t68 62.5q22 21 42 43t35.5 47.5t24.5 55t9 66.5q0 26 -7 50t-24.5 42.5t-47.5 29.5t-77 11q-32 0 -56.5 -4t-41.5 -9q-20 -6 -35 -14l-32 92q21 8 53 15q27 6 68 10.5t98 4.5q137 0 203.5 -55.5t66.5 -147.5q0 -77 -37 -140t-112 -130
q-33 -29 -66 -54t-59 -44q-31 -22 -60 -40h334v-110h-499z" />
    <glyph glyph-name="three" unicode="3" horiz-adv-x="609" 
d="M538 201q0 -52 -20.5 -91t-59 -65.5t-92.5 -39.5t-122 -13q-54 0 -94.5 5t-67.5 12q-32 8 -53 17l35 93q15 -8 36 -15q18 -6 45.5 -10.5t62.5 -4.5q85 0 123.5 31t38.5 89q0 36 -13.5 58.5t-37.5 35t-57 17t-72 4.5h-16v88q13 0 26 1q11 1 25.5 2.5t29.5 4.5
q17 4 33 11.5t29 20t20.5 30.5t7.5 43q0 21 -6 39.5t-20.5 32t-39.5 21.5t-64 8q-29 0 -52.5 -4t-40.5 -9q-19 -6 -34 -13l-33 91q23 8 54 15q26 6 65.5 10.5t90.5 4.5q119 0 183 -44.5t64 -127.5q0 -50 -21 -82.5t-49 -52t-55.5 -29t-41.5 -13.5q17 -1 49 -7.5t64 -24.5
t56 -51.5t24 -87.5z" />
    <glyph glyph-name="four" unicode="4" horiz-adv-x="609" 
d="M509 161v-161h-151v161h-334v117l315 436h170v-445h70v-108h-70zM358 592q-1 -5 -6 -15q-5 -8 -13.5 -22.5t-23.5 -35.5l-135 -192q-10 -14 -18.5 -24.5t-14.5 -18.5q-7 -9 -13 -15h224v323z" />
    <glyph glyph-name="five" unicode="5" horiz-adv-x="609" 
d="M551 237q0 -114 -77 -179.5t-219 -65.5q-51 0 -89.5 5.5t-64.5 11.5q-31 7 -53 16l35 93q16 -8 36 -14q17 -5 42.5 -10t57.5 -5q85 0 124.5 39.5t39.5 103.5q0 63 -39.5 100t-131.5 37q-31 0 -54.5 -2t-39.5 -5q-18 -4 -32 -7v357h440v-109h-321v-154q8 2 21 4
q11 2 28.5 3t40.5 1q57 0 104 -12.5t81 -39.5t52.5 -68.5t18.5 -99.5z" />
    <glyph glyph-name="six" unicode="6" horiz-adv-x="609" 
d="M573 237q0 -51 -14.5 -96t-46 -79t-80.5 -53.5t-117 -19.5t-119 18.5t-85.5 59.5t-51.5 105.5t-17 157.5t19.5 165.5t60 122.5t102.5 76.5t148 26.5q49 0 84 -4.5t58 -9.5q27 -6 46 -14l-33 -93q-15 8 -35 13q-17 5 -42 8.5t-57 3.5q-87 0 -129 -36t-55 -100
q-6 -37 -8 -67q-1 -17 -2 -32q14 18 36 31q19 11 49 20.5t72 9.5q107 0 162 -58t55 -156zM415 225q0 66 -28.5 100t-95.5 34q-23 0 -40.5 -2.5t-28.5 -6.5q-13 -4 -23 -10v-7q0 -67 4 -115t15.5 -79t33.5 -46t58 -15q35 0 55.5 15.5t31.5 38t14.5 48t3.5 45.5z" />
    <glyph glyph-name="seven" unicode="7" horiz-adv-x="609" 
d="M548 612q-22 -23 -45 -50q-20 -23 -42 -54.5t-41 -67.5q-38 -74 -58.5 -151t-28.5 -142q-10 -76 -9 -147h-165q3 41 8 86q5 38 13.5 84.5t23.5 91.5q29 87 66.5 150t71.5 106q40 50 80 85h-375v109h501v-100v0z" />
    <glyph glyph-name="eight" unicode="8" horiz-adv-x="609" 
d="M564 192q0 -40 -14 -77t-45.5 -65t-81.5 -45t-122 -17q-128 0 -193.5 49.5t-65.5 132.5q0 49 20.5 80.5t44.5 51.5q18 14 36.5 23.5t33.5 14.5q18 6 34 10l-33 18q-57 32 -86.5 74.5t-29.5 99.5q0 84 60.5 132t179.5 48q124 0 181.5 -44.5t57.5 -118.5q0 -39 -14.5 -67
t-36.5 -48q-14 -13 -30 -22.5t-30 -15.5q-16 -7 -32 -11l40 -21q64 -35 95 -76t31 -106zM408 549q0 43 -25.5 68.5t-81.5 25.5q-51 0 -77.5 -22.5t-26.5 -61.5q0 -34 19.5 -56t61.5 -45l63 -34q6 5 13 11q6 5 13.5 13.5t14.5 18.5q11 17 18.5 36.5t7.5 45.5zM419 171
q0 35 -18.5 60.5t-67.5 52.5l-69 37q-9 -5 -18 -13q-8 -7 -17 -16.5t-17 -22.5q-11 -17 -18 -37t-7 -48q0 -21 5.5 -40.5t18.5 -35t36 -25t57 -9.5q54 0 84.5 24.5t30.5 72.5z" />
    <glyph glyph-name="nine" unicode="9" horiz-adv-x="609" 
d="M568 381q0 -93 -19.5 -165.5t-60 -123t-103 -77t-148.5 -26.5q-48 0 -83.5 4.5t-58.5 9.5q-27 6 -46 14l33 93q15 -7 35 -12q17 -5 42 -9t57 -4q87 0 129 36t55 100q4 18 5.5 35.5t2.5 31.5q1 17 2 32q-14 -17 -36 -30q-19 -11 -48.5 -20.5t-72.5 -9.5q-107 0 -162 57.5
t-55 155.5q0 51 15 96t46.5 79t80.5 53.5t117 19.5t119 -18.5t85.5 -59t51.5 -105t17 -157.5zM410 378q0 67 -4 115t-15.5 79t-33.5 45.5t-58 14.5q-35 0 -55.5 -15.5t-31.5 -38t-14.5 -48t-3.5 -45.5q0 -66 28.5 -99.5t95.5 -33.5q23 0 40.5 2.5t28.5 6.5q13 4 23 9v8z" />
    <glyph glyph-name="colon" unicode=":" horiz-adv-x="400" 
d="M291 499q0 -42 -23.5 -64.5t-63.5 -22.5q-39 0 -62.5 22t-23.5 63q0 42 23 64.5t63 22.5q39 0 63 -21.5t24 -63.5zM291 75q0 -42 -23.5 -64.5t-63.5 -22.5q-39 0 -62.5 22t-23.5 63q0 42 23 64.5t63 22.5q39 0 63 -21.5t24 -63.5z" />
    <glyph glyph-name="semicolon" unicode=";" horiz-adv-x="298" 
d="M250 499q0 -42 -23.5 -64.5t-63.5 -22.5q-39 0 -63 22t-24 63q0 42 23.5 64.5t63.5 22.5q39 0 63 -21.5t24 -63.5zM240 136q0 -36 -2 -63.5t-5.5 -48.5t-9 -37.5t-12.5 -31.5q-13 -29 -30 -49.5t-32 -34.5q-18 -16 -36 -26l-57 42q13 17 24 42q9 21 16 51t7 69
q0 24 -1.5 41t-3.5 28q-3 13 -6 22h148v-4v0z" />
    <glyph glyph-name="less" unicode="&#x3c;" horiz-adv-x="710" 
d="M21 334v45l668 297v-96l-513 -223l513 -222v-98z" />
    <glyph glyph-name="equal" unicode="=" horiz-adv-x="636" 
d="M21 437v87h594v-87h-594zM21 183v87h594v-87h-594z" />
    <glyph glyph-name="greater" unicode="&#x3e;" horiz-adv-x="710" 
d="M21 37v98l512 222l-512 223v96l668 -297v-45z" />
    <glyph glyph-name="at" unicode="@" horiz-adv-x="1045" 
d="M1002 381q0 -63 -12.5 -117t-35.5 -97.5t-55 -76t-70 -52.5q-26 -13 -53.5 -21t-54.5 -12.5t-51.5 -5.5t-44.5 -1h-24t-17 1q-8 1 -14 1l21 142q-6 -16 -16 -34q-8 -15 -19.5 -32.5t-27.5 -34.5q-30 -32 -62.5 -41t-56.5 -9q-40 0 -68 15t-46 41t-26 62.5t-8 79.5
q0 81 17 141.5t38 101t40 61.5t24 25q32 26 66.5 40.5t87.5 14.5q26 0 45 -4.5t32 -9.5q15 -6 26 -15l3 23h119l-64 -498q13 0 29 3q14 2 30.5 8t34.5 17q58 36 85.5 109.5t27.5 168.5q0 165 -90.5 248.5t-259.5 83.5q-74 0 -147.5 -23t-132 -75t-94.5 -136t-36 -207
q0 -102 29 -177t84 -124.5t135 -73.5t182 -24q51 0 93.5 6.5t72.5 14.5q35 10 63 21l25 -72q-29 -13 -69 -23q-35 -8 -86 -15t-121 -7q-94 0 -168 18.5t-130 51.5t-96 77.5t-65 96t-36.5 108t-11.5 112.5q0 86 21 164t61.5 143.5t100.5 114t139 74.5q93 30 203 30
q86 0 164.5 -24.5t138.5 -74t95.5 -125t35.5 -177.5zM628 491q-7 3 -17 7q-8 3 -19.5 5t-26.5 2q-12 0 -27 -1.5t-30.5 -8t-32 -20t-31.5 -36.5q-25 -38 -40 -102.5t-15 -146.5q0 -22 2.5 -42.5t9.5 -36.5t19.5 -25t31.5 -9q20 0 33.5 9.5t22.5 15.5q8 6 16 14.5t15 16.5
t12 14.5t6 8.5q8 9 15 24t13 30q7 18 12 36l31 245v0z" />
    <glyph glyph-name="bracketleft" unicode="[" horiz-adv-x="347" 
d="M74 -212v1000h194v-65h-86v-870h86v-65h-194z" />
    <glyph glyph-name="bracketright" unicode="]" horiz-adv-x="342" 
d="M79 -212v65h85v870h-85v65h188v-1000h-188z" />
    <glyph glyph-name="braceleft" unicode="{" horiz-adv-x="413" 
d="M367 -212q-23 0 -47.5 0.5t-47.5 4t-44.5 12.5t-38.5 27q-14 15 -22 31t-12 36t-5 46t-1 59v124q0 45 -7.5 73t-30.5 45q-11 8 -24.5 12.5t-24.5 6.5q-13 3 -25 3v39q12 0 25 3q11 2 24.5 7t24.5 13q23 17 30.5 45t7.5 73v123q0 34 1 59.5t5 45.5t12 36t22 31
q17 18 38.5 27t44.5 13t47.5 4.5t47.5 0.5h9v-43h-8q-26 0 -48 -6.5t-35 -23.5q-6 -9 -10 -17.5t-6.5 -20t-3 -28t-0.5 -40.5v-106q0 -31 -0.5 -54.5t-3.5 -41.5t-8.5 -32.5t-15.5 -28.5q-14 -20 -33.5 -31t-39.5 -17q-23 -7 -47 -10q24 -2 47 -9q20 -6 39.5 -17.5
t33.5 -31.5q10 -14 15.5 -28.5t8.5 -32.5t3.5 -41t0.5 -55v-106q0 -24 0.5 -40.5t3 -28t6.5 -20t10 -17.5q13 -17 35 -23.5t48 -6.5h8v-43h-9z" />
    <glyph glyph-name="braceright" unicode="}" horiz-adv-x="413" 
d="M376 268q-12 0 -25 -3q-11 -2 -24 -6.5t-25 -12.5q-23 -17 -30.5 -45t-7.5 -73v-124q0 -33 -1 -59t-5 -46t-12 -36t-22 -31q-17 -18 -38.5 -27t-44.5 -12.5t-47.5 -4t-47.5 -0.5h-9v41h9q26 0 48 6.5t35 23.5q6 9 10 17.5t6.5 20t3 28t0.5 40.5v108q0 32 0.5 55t3.5 41
t8.5 32.5t15.5 28.5q14 20 34 31.5t40 17.5q23 7 46 9q-23 3 -46 10q-20 6 -40 17t-34 31q-10 14 -15.5 28.5t-8.5 32.5t-3.5 41.5t-0.5 54.5v106q0 24 -0.5 40.5t-3 28t-6.5 20t-10 17.5q-13 17 -35 23.5t-48 6.5h-9v43h9q23 0 47.5 -0.5t47.5 -4.5t44.5 -13t38.5 -27
q14 -15 22 -31t12 -36t5 -45.5t1 -59.5v-123q0 -45 7.5 -73t30.5 -45q12 -8 25 -13t24 -7q13 -3 25 -3v-39v0z" />
    <glyph glyph-name="cent" unicode="&#xa2;" horiz-adv-x="522" 
d="M471 465q-12 8 -27 13q-13 5 -31.5 8.5t-43.5 3.5h-11.5t-10.5 -1v-402q5 -1 10 -1h10q23 0 42 4t33 9q16 5 28 12l32 -87q-15 -8 -38 -15q-20 -6 -48.5 -11t-68.5 -7v-57h-45v57q-67 3 -115.5 26t-80.5 60.5t-47.5 88.5t-15.5 109q0 53 11.5 100.5t37.5 87.5
q31 48 81.5 79.5t128.5 39.5v57h45v-55q35 0 64 -4t49 -9q24 -6 43 -14zM302 480q-50 -18 -72.5 -66t-22.5 -126q0 -27 4 -56t15 -55t29.5 -46.5t46.5 -32.5v382z" />
    <glyph glyph-name="sterling" unicode="&#xa3;" horiz-adv-x="612" 
d="M592 110q-4 -17 -12 -35q-7 -15 -17.5 -32t-26.5 -31q-17 -15 -41 -22t-53 -7q-27 0 -57.5 4.5t-50.5 9.5l-68 15q-15 3 -38 6t-44 3q-20 0 -34 -4.5t-24 -10.5q-11 -7 -20 -15l-57 70q8 4 17 9q8 5 16.5 11.5t16.5 14.5q9 10 14.5 21t7.5 27.5t2.5 39.5t0.5 56v83h-74
v93h74v45q0 20 2 43t7.5 46.5t16 46t27.5 41.5q15 18 34 33t43.5 26t56.5 17.5t74 6.5q41 0 71 -3.5t50 -8.5q24 -5 41 -13l-32 -90q-13 5 -30 9q-14 3 -33.5 5.5t-42.5 2.5q-28 0 -53 -7t-42 -27q-21 -23 -25 -53t-4 -60v-60h164v-93h-164v-40q0 -47 -4 -79.5t-24 -58.5
q-9 -11 -21 -21.5t-23 -18.5q-13 -10 -27 -18q13 8 29 14q14 5 32.5 9t41.5 4q12 0 25 -0.5t29 -2.5l52 -8q9 -2 22 -3t27 -1q23 0 36 6.5t22 16.5q3 4 6 7.5t5 7.5q3 4 4 9l75 -36v0z" />
    <glyph glyph-name="yen" unicode="&#xa5;" horiz-adv-x="626" 
d="M398 298h159v-60h-160v-58h160v-60h-160v-120h-159v120h-161v60h161v58h-161v60h158l-245 414h179l170 -307l158 307h142z" />
    <glyph glyph-name="copyright" unicode="&#xa9;" horiz-adv-x="956" 
d="M917 277q0 -97 -32 -179t-89.5 -142t-138 -93.5t-178.5 -33.5t-179 33.5t-138.5 93t-89.5 141t-32 178.5t32 179t90 141t139.5 92.5t179.5 33.5t178.5 -33t137.5 -92t88.5 -140.5t31.5 -178.5zM838 277q0 81 -25 150.5t-71.5 120.5t-112.5 80t-148 29t-149 -29.5
t-114 -80.5t-73 -121t-26 -151t25.5 -151t72.5 -121t113.5 -80.5t148.5 -29.5t148 29.5t113 81t72.5 122t25.5 151.5zM642 464q-12 7 -29 12q-14 5 -33.5 8t-44.5 3q-96 0 -136.5 -55t-40.5 -156q0 -38 8.5 -74.5t28.5 -65t54 -46t86 -17.5q23 0 42.5 3.5t33.5 8.5
q17 5 30 12l26 -77q-17 -8 -41 -14q-20 -5 -51 -10t-74 -5q-62 0 -113 17.5t-87.5 52.5t-56.5 87t-20 121q0 38 6 67.5t15 52t19 39t17 28.5q13 21 32.5 41.5t48 36t67.5 25.5t90 10q38 0 66 -4t47 -9q22 -6 38 -13z" />
    <glyph glyph-name="guillemotleft" unicode="&#xab;" horiz-adv-x="451" 
d="M316 59l-96 229l96 230h89l-74 -230l74 -229h-89zM135 59l-97 229l97 230h89l-73 -230l73 -229h-89z" />
    <glyph glyph-name="registered" unicode="&#xae;" horiz-adv-x="956" 
d="M917 277q0 -97 -32 -179t-89.5 -142t-138 -93.5t-178.5 -33.5t-179 33.5t-138.5 93t-89.5 141t-32 178.5t32 179t90 141t139.5 92.5t179.5 33.5t178.5 -33t137.5 -92t88.5 -140.5t31.5 -178.5zM838 277q0 81 -25 150.5t-71.5 120.5t-112.5 80t-148 29t-149 -29.5
t-114 -80.5t-73 -121t-26 -151t25.5 -151t72.5 -121t113.5 -80.5t148.5 -29.5t148 29.5t113 81t72.5 122t25.5 151.5zM579 1l-131 227h-32v-227h-117v561q14 1 33 2q17 1 41 1.5t56 0.5q39 0 78.5 -3t69.5 -12q14 -4 32.5 -13t36 -25.5t29.5 -42t12 -62.5q0 -54 -19.5 -86
t-42.5 -49q-27 -20 -62 -27l158 -245h-142zM563 397q0 31 -9.5 50.5t-25.5 31t-36.5 15.5t-42.5 4h-27q-4 0 -6 -1v-207q2 0 6 -1q5 -1 26 -1q19 0 27 1t19 3t23 8.5t22.5 19t17 31.5t6.5 46z" />
    <glyph glyph-name="plusminus" unicode="&#xb1;" horiz-adv-x="636" 
d="M363 395v-260h-90v260h-252v87h252v259h90v-259h252v-87h-252zM21 0v86h594v-86h-594z" />
    <glyph glyph-name="periodcentered" unicode="&#xb7;" horiz-adv-x="292" 
d="M235 296q0 -41 -24.5 -64t-64.5 -23t-64.5 22.5t-24.5 64.5q0 41 25 63.5t65 22.5q39 0 63.5 -22t24.5 -64z" />
    <glyph glyph-name="periodcentered" unicode="&#x2219;" horiz-adv-x="292" 
d="M235 296q0 -41 -24.5 -64t-64.5 -23t-64.5 22.5t-24.5 64.5q0 41 25 63.5t65 22.5q39 0 63.5 -22t24.5 -64z" />
    <glyph glyph-name="guillemotright" unicode="&#xbb;" horiz-adv-x="450" 
d="M316 59h-90l74 229l-74 230h90l96 -230zM134 59h-89l74 229l-74 230h89l97 -230z" />
    <glyph glyph-name="multiply" unicode="&#xd7;" horiz-adv-x="559" 
d="M475 95l-196 196l-195 -196l-63 61l196 198l-196 197l62 62l196 -197l196 197l63 -62l-196 -197l196 -198z" />
    <glyph glyph-name="divide" unicode="&#xf7;" horiz-adv-x="637" 
d="M394 574q0 -38 -23 -57t-53 -19q-28 0 -52 19t-24 57t23 57t53 19q29 0 52.5 -19t23.5 -57zM21 311v87h595v-87h-595zM394 136q0 -38 -23 -57.5t-52 -19.5t-53 19.5t-24 57.5t23 57t54 19q28 0 51.5 -19t23.5 -57z" />
    <glyph glyph-name="florin" unicode="&#x192;" horiz-adv-x="594" 
d="M527 695q-6 3 -15 6q-8 2 -18.5 4t-24.5 2q-22 0 -41.5 -6t-32.5 -26q-4 -6 -7 -14t-6 -19.5t-5 -27.5l-5 -40l-5 -49h106l-8 -76h-106l-60 -499q-2 -12 -4.5 -28t-5.5 -28q-6 -21 -19.5 -43t-39.5 -38q-25 -16 -57 -20.5t-58 -4.5q-20 0 -35.5 1t-25.5 3q-11 2 -20 5
l17 78q5 -1 10 -3q9 -3 26 -3q41 0 57 22t21 66l54 492h-72l9 76h71l4 29q2 15 4 34t5.5 39.5t8.5 40.5t13 35q8 16 20.5 31t33.5 27t51 19.5t72 7.5q28 0 48 -2.5t34 -5.5q16 -4 28 -9z" />
    <glyph glyph-name="uni060C" unicode="&#x60c;" horiz-adv-x="366" 
d="M100 3q0 36 2 63.5t6 49t9 38.5t12 32q14 29 31 50.5t33 35.5q18 17 36 27l60 -45q-12 -18 -23 -43q-9 -21 -16 -51.5t-7 -68.5q0 -24 1.5 -41t3.5 -28q3 -13 5 -22h-153v3v0z" />
    <glyph glyph-name="uni061B" unicode="&#x61b;" horiz-adv-x="366" 
d="M101 221q0 36 2 63.5t5.5 49t9 38.5t12.5 32q14 29 31 50.5t33 35.5q18 17 36 27l60 -45q-12 -18 -23 -43q-9 -21 -16 -51.5t-7 -68.5q0 -24 1.5 -41t3.5 -28q3 -13 5 -22h-153v3v0zM110 74q0 30 21 52t52 22q30 0 52 -22t22 -52q0 -31 -22 -52t-52 -21q-31 0 -52 21
t-21 52z" />
    <glyph glyph-name="uni061F" unicode="&#x61f;" horiz-adv-x="515" 
d="M30 555q0 44 15 83t45.5 68t78 46.5t113.5 17.5q51 0 87.5 -4.5t61.5 -10.5q29 -7 49 -16l-36 -97q-12 7 -30 13q-15 5 -36.5 9t-48.5 4q-35 0 -59 -13t-38.5 -32.5t-21 -43.5t-6.5 -45q0 -32 10 -55t30 -47q22 -27 41.5 -50t34.5 -44.5t23.5 -43t8.5 -45.5
q0 -17 -0.5 -25.5t-0.5 -12.5h-123v16q0 20 -4.5 34t-15 27.5t-27.5 30.5l-42 42q-21 21 -40.5 42.5t-35 45t-24.5 50t-9 56.5zM219 74q0 -31 21 -52t52 -21q30 0 52 21t22 52q0 30 -22 52t-52 22q-31 0 -52 -22t-21 -52z" />
    <glyph glyph-name="uni0640" unicode="&#x640;" horiz-adv-x="140" 
d="M183 0h-206q-19 0 -23 9.5t-4 32.5v43q0 15 4 19.5t23 4.5h206v-109z" />
    <glyph glyph-name="uni0647" unicode="&#x647;" horiz-adv-x="551" 
d="M453 456q9 -66 15 -134.5t6 -134.5q0 -79 -12 -187h-418q-21 46 -32.5 95.5t-11.5 93.5q0 61 21.5 110t58 84t85 54t101.5 19h187zM310 109q6 51 6 101q0 36 -2.5 70t-7.5 66h-48q-14 0 -31.5 -7t-33 -23t-26 -42.5t-10.5 -65.5q0 -26 4 -50.5t15 -48.5h134z" />
    <glyph glyph-name="uni064B" unicode="&#x64b;" horiz-adv-x="0" 
d="M-118 898l235 88v-71l-235 -88v71zM-118 1039l235 87v-70l-235 -89v72z" />
    <glyph glyph-name="uni064C" unicode="&#x64c;" horiz-adv-x="0" 
d="M-10 845q-21 0 -43 15.5t-42 48.5q-8 -8 -15.5 -17.5t-15.5 -17.5t-15.5 -17.5t-15.5 -17.5q-10 11 -20.5 22t-20.5 22l89 94q23 -33 46.5 -51.5t45.5 -18.5q14 0 28 7t26 15q-23 17 -35.5 39t-12.5 44q0 38 25.5 59t57.5 21q45 0 73 -39.5t29 -101.5
q-24 -17 -47.5 -34.5t-46.5 -34.5q-34 -25 -54 -31t-36 -6zM132 995q-14 26 -28 36.5t-27 10.5q-16 0 -29 -11.5t-13 -32.5q0 -10 5.5 -23.5t19.5 -28.5z" />
    <glyph glyph-name="uni064D" unicode="&#x64d;" horiz-adv-x="0" 
d="M-115 -414l234 87v-71l-234 -88v72zM-115 -274l234 88v-71l-234 -89v72z" />
    <glyph glyph-name="uni064E" unicode="&#x64e;" horiz-adv-x="0" 
d="M-121 893q60 22 118 43.5t117 43.5v-71q-59 -22 -117 -44t-118 -44v72z" />
    <glyph glyph-name="uni064F" unicode="&#x64f;" horiz-adv-x="0" 
d="M-65 906q14 0 28.5 6.5t26.5 15.5q-23 17 -36 39t-13 44q0 38 25.5 59t57.5 21q45 0 72.5 -40.5t28.5 -102.5l-85 -63q-34 -25 -58.5 -31t-41.5 -6q-23 0 -51 7t-58 24q5 14 8.5 24t8.5 22q23 -10 46 -14.5t41 -4.5zM84 993q-13 26 -27 37t-27 11q-17 0 -29.5 -12
t-12.5 -32q0 -10 5 -23.5t19 -29.5z" />
    <glyph glyph-name="uni0650" unicode="&#x650;" horiz-adv-x="0" 
d="M-121 -265q60 22 118 44t117 44v-71q-59 -23 -117 -44.5t-118 -44.5v72z" />
    <glyph glyph-name="uni0651" unicode="&#x651;" horiz-adv-x="0" 
d="M174 964q0 -49 -25 -80t-78 -31q-23 0 -43.5 7.5t-31.5 19.5q-11 -12 -32.5 -19.5t-43.5 -7.5q-54 0 -79 30t-25 81v108h58v-89q0 -26 8.5 -43t42.5 -17q14 0 23 4.5t13.5 11.5t6 16t1.5 19v75h53v-75q0 -19 8 -35t35 -16q34 0 42.5 15.5t8.5 44.5v89h58v-108z" />
    <glyph glyph-name="uni0652" unicode="&#x652;" horiz-adv-x="0" 
d="M-118 937q0 24 9 45t25 37t36.5 25t44.5 9q23 0 44 -9t36.5 -25t24.5 -37t9 -45t-9 -45.5t-24.5 -37.5t-36.5 -25.5t-44 -9.5q-24 0 -44.5 9.5t-36.5 25.5t-25 37.5t-9 45.5zM-56 938q0 -24 15.5 -40.5t38.5 -16.5q22 0 37.5 16.5t15.5 40.5q0 23 -15.5 40t-37.5 17
q-23 0 -38.5 -17t-15.5 -40z" />
    <glyph glyph-name="uni0653" unicode="&#x653;" horiz-adv-x="0" 
d="M-153 818q-12 14 -24 27.5t-23 27.5q36 41 66.5 55t52.5 14q24 0 49 -9.5t49.5 -20.5t48.5 -20.5t45 -9.5q20 0 36.5 15t27.5 48l71 -23q-12 -38 -26 -63t-30 -39.5t-33 -20.5t-35 -6q-31 0 -58.5 9.5t-52.5 21.5t-48.5 21.5t-46.5 9.5q-11 0 -27 -6t-42 -31z" />
    <glyph glyph-name="uni0654" unicode="&#x654;" horiz-adv-x="0" 
d="M-161 819v79h64v63q0 41 11.5 66t30.5 39t43.5 19t50.5 5h73v-86h-61q-23 0 -37 -10t-14 -37v-59h117v-79h-278z" />
    <glyph glyph-name="uni0655" unicode="&#x655;" horiz-adv-x="0" 
d="M-160 -365v80h64v63q0 44 13.5 69.5t35.5 38.5t50 16.5t57 3.5h53v-86h-71q-20 -2 -31 -12t-11 -34v-59h118v-80h-278z" />
    <glyph glyph-name="uni0656" unicode="&#x656;" horiz-adv-x="0" 
d="M-40 -209h80v-247h-80v247z" />
    <glyph glyph-name="uni0660" unicode="&#x660;" horiz-adv-x="475" 
d="M306 1h-145v144h145v-144z" />
    <glyph glyph-name="uni0661" unicode="&#x661;" 
d="M185 693h149v-693h-149v693z" />
    <glyph glyph-name="uni0662" unicode="&#x662;" 
d="M108 693h367v-131h-211l68 -562h-146z" />
    <glyph glyph-name="uni0663" unicode="&#x663;" 
d="M177 692q3 -35 6.5 -69t7.5 -69q5 -2 11.5 -3t10.5 -1q17 0 23 25t6 59q0 29 -3 59h103v-29q0 -34 -4.5 -63.5t-12.5 -47.5q7 -4 17 -4q17 0 26 8.5t14 26t7 45t3 64.5h111v-17t-1 -20q-1 -33 -8 -66.5t-21.5 -61t-38.5 -45t-60 -17.5q-17 0 -38.5 5t-44.5 16
q-27 -21 -62 -21q-14 0 -25 3l53 -469h-130l-74 692h124z" />
    <glyph glyph-name="uni0664" unicode="&#x664;" 
d="M236 151q0 -18 27 -27t67 -9q28 0 59 6t64 20v-116q-37 -20 -83 -28.5t-91 -8.5q-84 0 -130 31t-46 87q0 42 29.5 96.5t89.5 129.5q-35 23 -56 38.5t-32.5 28t-15 23t-3.5 22.5q0 20 14.5 55t47 73t85.5 73t130 54v-132q-76 -18 -113 -44.5t-37 -43.5q0 -8 12 -16t35 -21
q45 -26 63.5 -41t18.5 -30q0 -4 -5.5 -13t-13.5 -20t-18.5 -24t-20.5 -26q-12 -15 -25.5 -33t-25 -36.5t-19 -36t-7.5 -31.5z" />
    <glyph glyph-name="uni0665" unicode="&#x665;" 
d="M268 515q43 0 79.5 -27.5t63 -72t41.5 -100.5t15 -113q0 -37 -11 -75t-35 -69.5t-62.5 -51.5t-92.5 -20q-63 0 -103 21.5t-62 53.5t-30 71t-8 73q0 59 18 114.5t47 99t65.5 70t74.5 26.5zM364 208q0 30 -8 61.5t-21.5 58t-31.5 43t-38 16.5q-25 0 -43.5 -19t-30.5 -46
t-18 -57.5t-6 -54.5q0 -20 5 -38t17 -31.5t32 -21.5t50 -8q49 0 71 28.5t22 68.5z" />
    <glyph glyph-name="uni0666" unicode="&#x666;" 
d="M450 0h-136l-54 559h-216v134h340z" />
    <glyph glyph-name="uni0667" unicode="&#x667;" 
d="M168 692q26 -122 52.5 -243t53.5 -243q24 122 48 243t49 243h143q-47 -174 -93 -346t-92 -346h-117q-51 174 -101 346t-101 346h158z" />
    <glyph glyph-name="uni0668" unicode="&#x668;" 
d="M356 0q-26 122 -52.5 243t-53.5 244q-24 -123 -48.5 -244t-48.5 -243h-143q47 174 93 346.5t92 346.5h117q51 -174 101 -346.5t101 -346.5h-158z" />
    <glyph glyph-name="uni0669" unicode="&#x669;" 
d="M311 319h-51q-62 0 -106 16t-72.5 42.5t-41.5 59.5t-13 67q0 41 14.5 77t41 63t63.5 42.5t82 15.5q46 0 80.5 -14.5t58.5 -38.5t37.5 -54.5t16.5 -62.5q2 -16 6 -57t10 -95t12 -114t11.5 -114t10 -95t5.5 -57h-131zM150 517q0 -35 24 -61t72 -26h58q-2 23 -4.5 47.5
t-5.5 47.5q-5 38 -25 58t-47 20q-32 0 -52 -25.5t-20 -60.5z" />
    <glyph glyph-name="uni066A" unicode="&#x66a;" horiz-adv-x="477" 
d="M31 22l328 704q28 -13 55 -26t55 -27q-82 -178 -163.5 -354t-163.5 -353zM57 677h105v-106h-105v106zM341 158h106v-105h-106v105z" />
    <glyph glyph-name="uni066B" unicode="&#x66b;" horiz-adv-x="366" 
d="M260 137q-1 -54 -8 -100.5t-21.5 -82.5t-36.5 -61t-52 -35l-52 53q5 1 12 10.5t14 26.5t12 40.5t5 52.5q-6 3 -16 7l-6 91h149v-2v0z" />
    </font>
</defs>
</svg>
